<svg width="215" height="215" viewBox="0 0 215 215" fill="none" xmlns="http://www.w3.org/2000/svg">
<path fill-rule="evenodd" clip-rule="evenodd" d="M69.1248 96.9499H7.97766V210.277H69.1248V96.9499ZM7.97766 92.972C5.77439 92.972 3.98828 94.753 3.98828 96.9499V210.277C3.98828 212.474 5.77438 214.255 7.97765 214.255H69.1248C71.3281 214.255 73.1142 212.474 73.1142 210.277V96.9499C73.1142 94.753 71.3281 92.972 69.1248 92.972H7.97766Z" fill="#338FBF"/>
<path d="M7.97766 96.9287H69.1248H73.1142C73.1142 94.7319 71.3281 92.9509 69.1248 92.9509H7.97766C5.77439 92.9509 3.98828 94.7319 3.98828 96.9287V210.256C3.98828 212.453 4.98562 214.234 7.97765 214.234C9.97234 214.234 9.97234 210.256 7.97766 210.256C7.97766 206.341 7.97766 96.9287 7.97766 96.9287Z" fill="#338FBF"/>
<path d="M125.999 117.063H156.035C158.493 117.063 160.677 115.428 161.36 113.113L171.463 79.6018C172.145 77.286 170.371 75.1064 168.05 75.1064H137.877C135.419 75.1064 133.371 76.7411 132.552 79.0569L122.449 112.568C121.903 114.747 123.541 117.063 125.999 117.063Z" fill="#338FBF"/>
<path d="M125.999 117.063H151.939C154.397 117.063 156.581 115.428 157.264 113.113L167.367 79.6018C168.049 77.286 166.275 75.1064 163.954 75.1064H138.013C135.556 75.1064 133.371 76.7411 132.689 79.0569L122.585 112.568C121.903 114.747 123.541 117.063 125.999 117.063Z" fill="#338FBF"/>
<path d="M138.425 137.633H83.5404C80.9464 137.633 78.8984 139.676 78.8984 142.264V149.348H143.067V142.264C143.067 139.676 141.019 137.633 138.425 137.633Z" fill="#338FBF"/>
<path d="M143.886 145.125H78.0792C76.987 145.125 76.0312 146.078 76.0312 147.168V149.893C76.0312 150.982 76.987 151.936 78.0792 151.936H143.886C144.978 151.936 145.934 150.982 145.934 149.893V147.168C145.934 146.078 145.115 145.125 143.886 145.125Z" fill="#338FBF"/>
<path fill-rule="evenodd" clip-rule="evenodd" d="M134.875 78.1425C134.875 78.1443 134.874 78.1461 134.873 78.1479L113.439 149.119L113.436 149.128C112.507 152.094 109.857 154.209 106.612 154.209H82.9928C81.226 154.209 79.8047 155.633 79.8047 157.385V207.242C79.8047 208.994 81.226 210.419 82.9928 210.419H115.455C114.981 209.462 114.715 208.384 114.715 207.242V157.521C114.715 153.552 117.936 150.345 121.903 150.345H145.523C146.812 150.345 148.097 149.436 148.527 148.078C148.527 148.075 148.528 148.072 148.529 148.069L170.649 74.7731L170.659 74.7453C171.295 72.8403 169.762 70.7041 167.64 70.7041H144.977C140.259 70.7041 136.256 73.6712 134.875 78.1425ZM121.903 210.419H152.349V214.419H82.9928C79.0253 214.419 75.8047 211.212 75.8047 207.242V157.385C75.8047 153.415 79.0254 150.209 82.9928 150.209H106.612C108.006 150.209 109.177 149.33 109.616 147.941C109.617 147.939 109.618 147.936 109.619 147.933L131.051 76.9692C132.948 70.8181 138.501 66.7041 144.977 66.7041H167.64C172.336 66.7041 175.985 71.3589 174.462 75.9828L152.35 149.255L152.346 149.265C151.408 152.261 148.6 154.345 145.523 154.345H121.903C120.137 154.345 118.715 155.769 118.715 157.521V207.242C118.715 208.994 120.137 210.419 121.903 210.419Z" fill="#338FBF"/>
<path d="M112.099 211.031L112.099 211.032L111.985 213.417H99.4953C99.5644 212.741 99.6702 211.923 99.8741 211.109C100.139 210.053 100.554 209.068 101.21 208.413C102.519 207.107 103.201 205.521 103.556 204.28C103.734 203.658 103.833 203.115 103.886 202.725C103.903 202.605 103.916 202.498 103.925 202.409C103.93 202.407 103.935 202.404 103.941 202.402C104.128 202.325 104.397 202.216 104.72 202.091C105.366 201.84 106.224 201.526 107.077 201.267C107.941 201.005 108.762 200.812 109.35 200.783C109.652 200.768 109.826 200.801 109.906 200.838C109.908 200.839 109.91 200.84 109.912 200.841C109.881 201.375 110.03 202.123 110.232 202.922C110.406 203.613 110.637 204.4 110.873 205.208C110.924 205.381 110.975 205.555 111.026 205.73C111.316 206.726 111.602 207.738 111.807 208.667C112.014 209.604 112.129 210.419 112.099 211.031Z" fill="white" stroke="#338FBF"/>
<path d="M74.9683 213.553H52.3612C52.4026 212.933 52.5251 212.145 52.8033 211.445C53.164 210.538 53.7344 209.887 54.6326 209.782L54.6326 209.782L54.6362 209.782C56.2751 209.577 58.7586 209.231 61.0114 208.3C63.2642 207.369 65.3713 205.817 66.1136 203.158C66.4554 202.014 67.0405 201.382 67.6946 201.037C68.3659 200.683 69.1674 200.602 69.9749 200.674C70.7793 200.745 71.5502 200.965 72.1265 201.172C72.413 201.275 72.6474 201.373 72.8091 201.444C72.8335 201.455 72.8562 201.465 72.8771 201.475C72.8858 201.5 72.8952 201.527 72.9053 201.556C72.9671 201.736 73.0558 202.002 73.162 202.342C73.3746 203.023 73.6571 203.999 73.9356 205.177C74.4729 207.452 74.991 210.464 74.9683 213.553Z" fill="white" stroke="#338FBF"/>
<path d="M54.979 127.973L54.9798 127.973C62.8785 122.921 75.0133 119.767 85.2302 117.878C90.328 116.935 94.9287 116.311 98.255 115.922C99.9179 115.728 101.262 115.593 102.189 115.506C102.653 115.463 103.013 115.431 103.256 115.411C103.378 115.401 103.47 115.394 103.532 115.389L103.596 115.384L133.475 116.709C133.466 116.724 133.457 116.739 133.448 116.755C133.173 117.237 132.769 117.932 132.252 118.78C131.218 120.476 129.737 122.784 127.947 125.23C124.349 130.147 119.568 135.532 114.714 137.721C112.289 138.815 108.37 139.71 103.81 140.431C99.2644 141.15 94.1283 141.689 89.2963 142.089C84.4654 142.488 79.9447 142.748 76.6313 142.907C74.9747 142.987 73.6204 143.042 72.6804 143.076C72.2104 143.094 71.8441 143.106 71.5954 143.114C71.5517 143.116 71.5117 143.117 71.4754 143.118C71.4082 143.12 71.3537 143.122 71.3123 143.123L71.2403 143.125L71.2222 143.126L71.2177 143.126L71.2166 143.126C71.2164 143.126 71.2163 143.126 71.2304 143.626L71.2163 143.126L70.6946 143.141L70.7317 143.661L74.9259 202.519H64.1254C64.1014 202.406 64.0724 202.27 64.0387 202.112C63.9274 201.589 63.7649 200.821 63.5604 199.841C63.1513 197.883 62.5741 195.08 61.9014 191.704C60.5559 184.951 58.829 175.907 57.3028 166.736C55.776 157.562 54.4522 148.274 53.9099 141.03C53.6386 137.406 53.5645 134.312 53.7536 132.008C53.8483 130.855 54.0073 129.921 54.2303 129.225C54.4585 128.513 54.7276 128.133 54.979 127.973Z" fill="white" stroke="#338FBF"/>
<path d="M116.231 148.925L115.924 149.029L115.894 149.352L110.934 202.77L102.366 202.988C102.361 202.883 102.355 202.762 102.348 202.626C102.32 202.072 102.28 201.259 102.23 200.223C102.13 198.151 101.991 195.185 101.835 191.614C101.522 184.472 101.141 174.907 100.866 165.215C100.591 155.522 100.423 145.708 100.535 138.065C100.591 134.242 100.718 130.971 100.935 128.534C101.044 127.315 101.174 126.315 101.327 125.564C101.403 125.188 101.483 124.885 101.566 124.651C101.618 124.501 101.667 124.394 101.709 124.319C116.352 119.463 133.493 117.203 145.785 115.584C145.774 115.645 145.763 115.709 145.751 115.777C145.653 116.327 145.507 117.119 145.316 118.084C144.933 120.014 144.367 122.632 143.638 125.388C142.909 128.146 142.018 131.031 140.986 133.499C139.946 135.987 138.792 137.977 137.568 139.017C136.294 140.1 134.333 141.264 132.078 142.408C129.831 143.548 127.322 144.652 124.971 145.619C122.621 146.585 120.435 147.412 118.837 147.997C118.037 148.29 117.385 148.522 116.933 148.681C116.707 148.76 116.531 148.821 116.412 148.862L116.276 148.909L116.242 148.921L116.233 148.924L116.231 148.924L116.231 148.924C116.231 148.925 116.231 148.925 116.392 149.398L116.231 148.925Z" fill="white" stroke="#338FBF"/>
<path d="M119.8 45.9403L119.825 45.9386L119.85 45.9395L131.575 46.3338C131.602 46.1687 131.632 45.9586 131.658 45.7148C131.723 45.0851 131.755 44.2443 131.626 43.3795C131.498 42.5134 131.213 41.6503 130.668 40.9477C130.131 40.2552 129.317 39.6873 128.064 39.4373C125.419 38.9094 122.381 39.1378 119.978 39.5092C118.782 39.6941 117.754 39.9127 117.026 40.0848C116.662 40.1709 116.373 40.2453 116.177 40.2979C116.163 40.3013 116.151 40.3047 116.139 40.308L114.372 46.3014L119.8 45.9403Z" fill="white" stroke="#338FBF"/>
<path d="M98.4708 49.0997C97.2082 51.2589 95.9678 54.4579 94.8004 58.1819C93.4113 62.6133 92.1434 67.7274 91.0698 72.5821C89.9964 77.4353 89.1188 82.0218 88.5094 85.3955C88.2048 87.0822 87.9673 88.4652 87.806 89.4263C87.7253 89.9069 87.6637 90.2819 87.6223 90.5366C87.6016 90.664 87.586 90.7613 87.5755 90.8266L87.5637 90.9005L87.5608 90.919L87.5601 90.9236L87.5599 90.9247C87.5599 90.9249 87.5598 90.925 87.066 90.8471L87.5598 90.925L87.423 91.7919L86.7471 91.2322L67.7637 75.5154L64.0165 77.668C64.119 77.8252 64.248 78.0222 64.4014 78.2551C64.8351 78.9136 65.4646 79.8597 66.2469 81.0088C67.8119 83.3075 69.9873 86.4167 72.4302 89.6609C74.8739 92.9063 77.5802 96.2799 80.2071 99.1103C82.8454 101.953 85.363 104.203 87.4285 105.249L87.4285 105.249L87.4341 105.252C89.3658 106.262 91.2613 105.848 93.1022 104.544C94.9612 103.228 96.6984 101.042 98.1969 98.6684C99.6899 96.3034 100.921 93.7939 101.779 91.8714C102.208 90.9111 102.543 90.0996 102.77 89.5288C102.884 89.2435 102.971 89.0185 103.029 88.8653C103.047 88.817 103.063 88.7759 103.075 88.7423L98.4708 49.0997Z" fill="white" stroke="#338FBF"/>
<path d="M97.3957 75.3871L97.3973 75.4072V75.4274V75.4309V75.4345V75.438V75.4415V75.4451V75.4486V75.4522V75.4557V75.4592V75.4628V75.4663V75.4698V75.4734V75.4769V75.4805V75.484V75.4875V75.4911V75.4946V75.4982V75.5017V75.5052V75.5088V75.5123V75.5159V75.5194V75.5229V75.5265V75.53V75.5336V75.5371V75.5406V75.5442V75.5477V75.5512V75.5548V75.5583V75.5619V75.5654V75.5689V75.5725V75.576V75.5796V75.5831V75.5866V75.5902V75.5937V75.5973V75.6008V75.6043V75.6079V75.6114V75.6149V75.6185V75.622V75.6256V75.6291V75.6326V75.6362V75.6397V75.6433V75.6468V75.6503V75.6539V75.6574V75.661V75.6645V75.668V75.6716V75.6751V75.6786V75.6822V75.6857V75.6893V75.6928V75.6963V75.6999V75.7034V75.707V75.7105V75.714V75.7176V75.7211V75.7247V75.7282V75.7317V75.7353V75.7388V75.7424V75.7459V75.7494V75.753V75.7565V75.76V75.7636V75.7671V75.7707V75.7742V75.7777V75.7813V75.7848V75.7884V75.7919V75.7954V75.799V75.8025V75.8061V75.8096V75.8131V75.8167V75.8202V75.8237V75.8273V75.8308V75.8344V75.8379V75.8414V75.845V75.8485V75.8521V75.8556V75.8591V75.8627V75.8662V75.8698V75.8733V75.8768V75.8804V75.8839V75.8874V75.891V75.8945V75.8981V75.9016V75.9051V75.9087V75.9122V75.9158V75.9193V75.9228V75.9264V75.9299V75.9335V75.937V75.9405V75.9441V75.9476V75.9511V75.9547V75.9582V75.9618V75.9653V75.9688V75.9724V75.9759V75.9795V75.983V75.9865V75.9901V75.9936V75.9972V76.0007V76.0042V76.0078V76.0113V76.0149V76.0184V76.0219V76.0255V76.029V76.0325V76.0361V76.0396V76.0432V76.0467V76.0502V76.0538V76.0573V76.0609V76.0644V76.0679V76.0715V76.075V76.0786V76.0821V76.0856V76.0892V76.0927V76.0962V76.0998V76.1033V76.1069V76.1104V76.1139V76.1175V76.121V76.1246V76.1281V76.1316V76.1352V76.1387V76.1423V76.1458V76.1493V76.1529V76.1564V76.16V76.1635V76.167V76.1706V76.1741V76.1776V76.1812V76.1847V76.1883V76.1918V76.1953V76.1989V76.2024V76.206V76.2095V76.213V76.2166V76.2201V76.2237V76.2272V76.2307V76.2343V76.2378V76.2413V76.2449V76.2484V76.252V76.2555V76.259V76.2626V76.2661V76.2697V76.2732V76.2767V76.2803V76.2838V76.2874V76.2909V76.2944V76.298V76.3015V76.305V76.3086V76.3121V76.3157V76.3192V76.3227V76.3263V76.3298V76.3334V76.3369V76.3404V76.344V76.3475V76.3511V76.3546V76.3581V76.3617V76.3652V76.3688V76.3723V76.3758V76.3794V76.3829V76.3864V76.39V76.3935V76.3971V76.4006V76.4041V76.4077V76.4112V76.4148V76.4183V76.4218V76.4254V76.4289V76.4325V76.436V76.4395V76.4431V76.4466V76.4501V76.4537V76.4572V76.4608V76.4643V76.4678V76.4714V76.4749V76.4785V76.482V76.4855V76.4891V76.4926V76.4962V76.4997V76.5032V76.5068V76.5103V76.5139V76.5174V76.5209V76.5245V76.528V76.5315V76.5351V76.5386V76.5422V76.5457V76.5492V76.5528V76.5563V76.5599V76.5634V76.5669V76.5705V76.574V76.5776V76.5811V76.5846V76.5882V76.5917V76.5952V76.5988V76.6023V76.6059V76.6094V76.6129V76.6165V76.62V76.6236V76.6271V76.6306V76.6342V76.6377V76.6413V76.6448V76.6483V76.6519V76.6554V76.6589V76.6625V76.666V76.6696V76.6731V76.6766V76.6802V76.6837V76.6873V76.6908V76.6943V76.6979V76.7014V76.705V76.7085V76.712V76.7156V76.7191V76.7227V76.7262V76.7297V76.7333V76.7368V76.7403V76.7439V76.7474V76.751V76.7545V76.758V76.7616V76.7651V76.7687V76.7722V76.7757V76.7793V76.7828V76.7864V76.7899V76.7934V76.797V76.8005V76.804V76.8076V76.8111V76.8147V76.8182V76.8217V76.8253V76.8288V76.8324V76.8359V76.8394V76.843V76.8465V76.8501V76.8536V76.8571V76.8607V76.8642V76.8677V76.8713V76.8748V76.8784V76.8819V76.8854V76.889V76.8925V76.8961V76.8996V76.9031V76.9067V76.9102V76.9138V76.9173V76.9208V76.9244V76.9279V76.9314V76.935V76.9385V76.9421V76.9456V76.9491V76.9527V76.9562V76.9598V76.9633V76.9668V76.9704V76.9739V76.9775V76.981V76.9845V76.9881V76.9916V76.9952V76.9987V77.0022V77.0058V77.0093V77.0128V77.0164V77.0199V77.0235V77.027V77.0305V77.0341V77.0376V77.0412V77.0447V77.0482V77.0518V77.0553V77.0589V77.0624V77.0659V77.0695V77.073V77.0765V77.0801V77.0836V77.0872V77.0907V77.0942V77.0978V77.1013V77.1049V77.1084V77.1119V77.1155V77.119V77.1226V77.1261V77.1296V77.1332V77.1367V77.1403V77.1438V77.1473V77.1509V77.1544V77.1579V77.1615V77.165V77.1686V77.1721V77.1756V77.1792V77.1827V77.1863V77.1898V77.1933V77.1969V77.2004V77.204V77.2075V77.211V77.2146V77.2181V77.2216V77.2252V77.2287V77.2323V77.2358V77.2393C97.3973 78.1343 97.431 79.0309 97.4652 79.9385L97.4654 79.9431C97.4994 80.846 97.5338 81.7598 97.5338 82.6752V82.6788V82.6823V82.6859V82.6894V82.693V82.6965V82.7001V82.7036V82.7072V82.7108V82.7143V82.7179V82.7215V82.725V82.7286V82.7322V82.7358V82.7394V82.743V82.7466V82.7501V82.7537V82.7573V82.7609V82.7645V82.7681V82.7718V82.7754V82.779V82.7826V82.7862V82.7898V82.7935V82.7971V82.8007V82.8043V82.808V82.8116V82.8152V82.8189V82.8225V82.8262V82.8298V82.8335V82.8371V82.8408V82.8444V82.8481V82.8517V82.8554V82.8591V82.8627V82.8664V82.8701V82.8738V82.8774V82.8811V82.8848V82.8885V82.8922V82.8958V82.8995V82.9032V82.9069V82.9106V82.9143V82.918V82.9217V82.9254V82.9291V82.9328V82.9365V82.9402V82.944V82.9477V82.9514V82.9551V82.9588V82.9626V82.9663V82.97V82.9737V82.9775V82.9812V82.9849V82.9887V82.9924V82.9961V82.9999V83.0036V83.0074V83.0111V83.0149V83.0186V83.0224V83.0261V83.0299V83.0336V83.0374V83.0412V83.0449V83.0487V83.0524V83.0562V83.06V83.0638V83.0675V83.0713V83.0751V83.0789V83.0826V83.0864V83.0902V83.094V83.0978V83.1015V83.1053V83.1091V83.1129V83.1167V83.1205V83.1243V83.1281V83.1319V83.1357V83.1395V83.1433V83.1471V83.1509V83.1547V83.1585V83.1623V83.1661V83.1699V83.1738V83.1776V83.1814V83.1852V83.189V83.1928V83.1967V83.2005V83.2043V83.2081V83.212V83.2158V83.2196V83.2234V83.2273V83.2311V83.2349V83.2388V83.2426V83.2464V83.2503V83.2541V83.258V83.2618V83.2656V83.2695V83.2733V83.2772V83.281V83.2849V83.2887V83.2926V83.2964V83.3003V83.3041V83.308V83.3118V83.3157V83.3195V83.3234V83.3272V83.3311V83.335V83.3388V83.3427V83.3465V83.3504V83.3543V83.3581V83.362V83.3659V83.3697V83.3736V83.3775V83.3813V83.3852V83.3891V83.3929V83.3968V83.4007V83.4046V83.4084V83.4123V83.4162V83.4201V83.4239V83.4278V83.4317V83.4356V83.4394V83.4433V83.4472V83.4511V83.455V83.4588V83.4627V83.4666V83.4705V83.4744V83.4782V83.4821V83.486V83.4899V83.4938V83.4977V83.5016V83.5054V83.5093V83.5132V83.5171V83.521V83.5249V83.5288V83.5326V83.5365V83.5404V83.5443V83.5482V83.5521V83.556V83.5599V83.5638V83.5677V83.5716V83.5754V83.5793V83.5832V83.5871V83.591V83.5949V83.5988V83.6027V83.6066V83.6105V83.6144V83.6183V83.6222V83.626V83.6299V83.6338V83.6377V83.6416V83.6455V83.6494V83.6533V83.6572V83.6611V83.665V83.6689V83.6728V83.6766V83.6805V83.6844V83.6883V83.6922V83.6961V83.7V83.7039V83.7078V83.7117V83.7156V83.7195V83.7233V83.7272V83.7311V83.735V83.7389V83.7428V83.7467V83.7506V83.7545V83.7584V83.7622V83.7661V83.77V83.7739V83.7778V83.7817V83.7856V83.7894V83.7933V83.7972V83.8011V83.805V83.8089V83.8127V83.8166V83.8205V83.8244V83.8283V83.8322V83.836V83.8399V83.8438V83.8477V83.8515V83.8554V83.8593V83.8632V83.8671V83.8709V83.8748V83.8787V83.8825V83.8864V83.8903V83.8942V83.898V83.9019V83.9058V83.9096V83.9135V83.9174V83.9212V83.9251V83.929V83.9328V83.9367V83.9405V83.9444V83.9483V83.9521V83.956V83.9598V83.9637V83.9675V83.9714V83.9753V83.9791V83.983V83.9868V83.9907V83.9945V83.9984V84.0022V84.0061V84.0099V84.0137V84.0176V84.0214V84.0253V84.0291V84.0329V84.0368V84.0406V84.0444V84.0483V84.0521V84.0559V84.0598V84.0636V84.0674V84.0713V84.0751V84.0789V84.0827V84.0866V84.0904V84.0942V84.098V84.1018V84.1057V84.1095V84.1133V84.1171V84.1209V84.1247V84.1285V84.1323V84.1361V84.1399V84.1437V84.1475V84.1513V84.1551V84.1589V84.1627V84.1665V84.1703V84.1741V84.1779V84.1817V84.1855V84.1893V84.193V84.1968V84.2006V84.2044V84.2082V84.2119V84.2157V84.2195V84.2232V84.227V84.2308V84.2345V84.2383V84.2421V84.2458V84.2496V84.2533V84.2571V84.2609V84.2646V84.2684V84.2721V84.2759V84.2796V84.2833V84.2871V84.2908V84.2946V84.2983V84.302V84.3058V84.3095V84.3132V84.3169V84.3207V84.3244V84.3281V84.3318V84.3356V84.3393V84.343V84.3467V84.3504V84.3541V84.3578V84.3615V84.3652V84.3689V84.3726V84.3763V84.38V84.3837V84.3874V84.3911V84.3948V84.3984V84.4021V84.4058V84.4095V84.4131V84.4168V84.4205V84.4241V84.4278V84.4315V84.4351V84.4388V84.4425V84.4461V84.4498V84.4534V84.4571V84.4607V84.4643V84.468V84.4716V84.4753V84.4789V84.4825V84.4861V84.4898V84.4934V84.497V84.5006V84.5042V84.5079V84.5115V84.5151V84.5187V84.5223V84.5259V84.5295V84.5331V84.5367V84.5403V84.5439V84.5474V84.551V84.5546V84.5582V84.5618V84.5653V84.5689V84.5725V84.576V84.5796V84.5832V84.5867V84.5903V84.5938V84.5974V84.6009V84.6045V84.608C97.5338 85.4415 97.5674 86.2466 97.6016 87.0634L97.6018 87.0679C97.6358 87.8804 97.6703 88.7046 97.6703 89.5607C97.6703 90.1785 97.6727 90.844 97.7946 91.3832L97.8027 91.4191L97.8055 91.4559C97.872 92.3385 97.9064 93.1918 97.9392 94.0074L97.943 94.1006C97.9772 94.9478 98.011 95.7518 98.0781 96.5236L98.0799 96.5453V96.567C98.0799 97.1847 98.0823 97.8503 98.2041 98.3895L98.2165 98.4439V98.4997C98.2165 99.149 98.2498 99.8007 98.284 100.452L98.2868 100.503C98.3198 101.132 98.353 101.762 98.353 102.365C98.353 102.698 98.3842 103.006 98.4184 103.323L98.4239 103.374C98.4548 103.661 98.4876 103.965 98.4894 104.272C98.626 105.616 98.626 106.836 98.626 107.795V107.801C98.626 108.198 98.6581 108.571 98.6919 108.915C98.6964 108.961 98.701 109.007 98.7056 109.052C98.7342 109.337 98.7626 109.619 98.7626 109.855C98.7626 110.251 98.7945 110.558 98.8253 110.762C98.8346 110.824 98.8438 110.876 98.852 110.918C98.8875 110.949 98.9319 110.988 98.9851 111.032C99.154 111.174 99.412 111.381 99.7611 111.637C100.459 112.148 101.522 112.852 102.966 113.61C105.854 115.125 110.27 116.857 116.353 117.694L116.354 117.695C127.079 119.196 134.277 118.231 138.773 116.91C141.022 116.249 142.598 115.498 143.605 114.919C144.109 114.63 144.471 114.383 144.704 114.212C144.782 114.154 144.845 114.105 144.894 114.066C144.909 113.95 144.929 113.781 144.953 113.56C145.004 113.097 145.072 112.408 145.139 111.508L145.142 111.472L145.15 111.436C145.211 111.166 145.243 110.891 145.277 110.559C145.281 110.526 145.284 110.493 145.287 110.459C145.318 110.159 145.353 109.817 145.415 109.427C145.438 109.2 145.462 108.964 145.486 108.721C145.601 107.565 145.734 106.234 145.957 104.743C145.96 104.44 145.992 104.14 146.023 103.857L146.028 103.807C146.062 103.489 146.094 103.181 146.094 102.848V102.827L146.096 102.805L146.096 102.8C146.231 101.242 146.368 99.6694 146.64 97.8573C146.643 97.5543 146.675 97.2548 146.705 96.972L146.711 96.9211C146.745 96.6038 146.776 96.2956 146.776 95.963V95.9428L146.778 95.9227L146.779 95.9155C146.914 94.2396 147.051 92.5455 147.323 90.7302C147.325 90.4273 147.358 90.1277 147.388 89.8449L147.394 89.7941C147.428 89.4767 147.459 89.1686 147.459 88.8359V88.8124L147.461 88.789L147.666 86.6147L147.869 84.463C147.87 84.1552 147.903 83.8507 147.934 83.5634L147.94 83.5126C147.974 83.1953 148.005 82.8871 148.005 82.5544V82.5314L148.007 82.5084C148.621 75.8667 149.167 69.2889 149.491 64.0716C149.653 61.4625 149.759 59.1983 149.791 57.4384C149.823 55.6559 149.777 54.4514 149.656 53.9164C149.217 52.0321 147.485 49.7675 144.675 47.6831C141.881 45.6114 138.087 43.7664 133.643 42.6941L133.643 42.6942L133.634 42.6919C131.35 42.0976 128.928 41.7399 126.367 41.6205C122.83 41.5002 119.567 41.5003 116.442 41.6204C112.573 41.8007 109.134 42.2506 106.285 43.0662C103.432 43.8829 101.206 45.0558 99.7212 46.6554L99.7045 46.6734L99.6861 46.6896L99.4813 46.8708L99.3155 47.0176C99.0901 47.3251 98.8689 47.7302 98.7539 48.3405L98.7523 48.3494L98.7503 48.3582C98.7026 48.5691 98.6444 48.7901 98.583 49.0235C98.4505 49.5271 98.3027 50.0889 98.2115 50.7338L98.2087 50.7541L98.2041 50.7741C98.1429 51.045 98.1114 51.3198 98.0768 51.626L98.0755 51.6374C98.0432 51.9232 98.0077 52.2374 97.9378 52.556C97.8031 53.8683 97.6685 55.2992 97.5338 56.9655V56.9683C97.5338 57.5411 97.5339 58.1723 97.3972 58.8119C97.3955 59.4563 97.3632 60.0991 97.3309 60.7413L97.3284 60.7907C97.2942 61.4713 97.2608 62.1539 97.2608 62.8644V62.868V62.8715V62.8751V62.8786V62.8821V62.8857V62.8892V62.8927V62.8963V62.8998V62.9034V62.9069V62.9104V62.914V62.9175V62.9211V62.9246V62.9281V62.9317V62.9352V62.9388V62.9423V62.9458V62.9494V62.9529V62.9564V62.96V62.9635V62.9671V62.9706V62.9741V62.9777V62.9812V62.9848V62.9883V62.9918V62.9954V62.9989V63.0025V63.006V63.0095V63.0131V63.0166V63.0202V63.0237V63.0272V63.0308V63.0343V63.0378V63.0414V63.0449V63.0485V63.052V63.0555V63.0591V63.0626V63.0662V63.0697V63.0732V63.0768V63.0803V63.0839V63.0874V63.0909V63.0945V63.098V63.1015V63.1051V63.1086V63.1122V63.1157V63.1192V63.1228V63.1263V63.1299V63.1334V63.1369V63.1405V63.144V63.1476V63.1511V63.1546V63.1582V63.1617V63.1653V63.1688V63.1723V63.1759V63.1794V63.1829V63.1865V63.19V63.1936V63.1971V63.2006V63.2042V63.2077V63.2113V63.2148V63.2183V63.2219V63.2254V63.229V63.2325V63.236V63.2396V63.2431V63.2466V63.2502V63.2537V63.2573V63.2608V63.2643V63.2679V63.2714V63.275V63.2785V63.282V63.2856V63.2891V63.2927V63.2962V63.2997V63.3033V63.3068V63.3103V63.3139V63.3174V63.321V63.3245V63.328V63.3316V63.3351V63.3387V63.3422V63.3457V63.3493V63.3528V63.3564V63.3599V63.3634V63.367V63.3705V63.3741V63.3776V63.3811V63.3847V63.3882V63.3917V63.3953V63.3988V63.4024V63.4059V63.4094V63.413V63.4165V63.4201V63.4236V63.4271V63.4307V63.4342V63.4378V63.4413V63.4448V63.4484V63.4519V63.4554V63.459V63.4625V63.4661V63.4696V63.4731V63.4767V63.4802V63.4838V63.4873V63.4908V63.4944V63.4979V63.5015V63.505V63.5085V63.5121V63.5156V63.5191V63.5227V63.5262V63.5298V63.5333V63.5368V63.5404V63.5439V63.5475V63.551V63.5545V63.5581V63.5616V63.5652V63.5687V63.5722V63.5758V63.5793V63.5829V63.5864V63.5899V63.5935V63.597V63.6005V63.6041V63.6076V63.6112V63.6147V63.6182V63.6218V63.6253V63.6289V63.6324V63.6359V63.6395V63.643V63.6466V63.6501V63.6536V63.6572V63.6607V63.6642V63.6678V63.6713V63.6749V63.6784V63.6819V63.6855V63.689V63.6926V63.6961V63.6996V63.7032V63.7067V63.7103V63.7138V63.7173V63.7209V63.7244V63.7279V63.7315V63.735V63.7386V63.7421V63.7456V63.7492V63.7527V63.7563V63.7598V63.7633V63.7669V63.7704V63.774V63.7775V63.781V63.7846V63.7881V63.7917V63.7952V63.7987V63.8023V63.8058V63.8093V63.8129V63.8164V63.82V63.8235V63.827V63.8306V63.8341V63.8377V63.8412V63.8447V63.8483V63.8518V63.8554V63.8589V63.8624V63.866V63.8695V63.873V63.8766V63.8801V63.8837V63.8872V63.8907V63.8943V63.8978V63.9014V63.9049V63.9084V63.912V63.9155V63.9191V63.9226V63.9261V63.9297V63.9332V63.9368V63.9403V63.9438V63.9474V63.9509V63.9544V63.958V63.9615V63.9651V63.9686V63.9721V63.9757V63.9792V63.9828V63.9863V63.9898V63.9934V63.9969V64.0005V64.004V64.0075V64.0111V64.0146V64.0181V64.0217V64.0252V64.0288V64.0323V64.0358V64.0394V64.0429V64.0465V64.05V64.0535V64.0571V64.0606V64.0642V64.0677V64.0712V64.0748V64.0783V64.0818V64.0854V64.0889V64.0925V64.096V64.0995V64.1031V64.1066V64.1102V64.1137V64.1172V64.1208V64.1243V64.1279V64.1314V64.1349V64.1385V64.142V64.1456V64.1491V64.1526V64.1562V64.1597V64.1632V64.1668V64.1703V64.1739V64.1774V64.1809V64.1845V64.188V64.1916V64.1951V64.1986V64.2022V64.2057V64.2093V64.2128V64.2163V64.2199V64.2234V64.2269V64.2305V64.234V64.2376V64.2411V64.2446V64.2482V64.2517V64.2553V64.2588V64.2623V64.2659V64.2694V64.273V64.2765V64.28V64.2836V64.2871V64.2906V64.2942V64.2977V64.3013V64.3048V64.3083V64.3119V64.3154V64.319V64.3225V64.326V64.3296V64.3331V64.3367V64.3402V64.3437V64.3473V64.3508V64.3544V64.3579V64.3614V64.365V64.3685V64.372V64.3756V64.3791V64.3827V64.3862V64.3897V64.3933V64.3968V64.4004V64.4039V64.4074V64.411V64.4145V64.4181V64.4216V64.4251V64.4287V64.4322V64.4357V64.4393V64.4428V64.4464V64.4499V64.4534V64.457V64.4605V64.4641V64.4676V64.4711V64.4747V64.4782V64.4818V64.4853V64.4888V64.4924V64.4959V64.4995V64.503V64.5065V64.5101V64.5136V64.5171V64.5207V64.5242V64.5278V64.5313V64.5348V64.5384V64.5419V64.5455V64.549V64.5525V64.5561V64.5596V64.5632V64.5667V64.5702V64.5738V64.5773V64.5808V64.5844V64.5879V64.5915V64.595V64.5985V64.6021V64.6056V64.6092V64.6127V64.6162V64.6198V64.6233V64.6269V64.6304V64.6339V64.6375V64.641V64.6445V64.6481V64.6516V64.6552V64.6587V64.6622V64.6658V64.6693V64.6729V64.6764V68.6627V68.6663V68.6698V68.6733V68.6769V68.6804V68.684V68.6875V68.691V68.6946V68.6981V68.7016V68.7052V68.7087V68.7123V68.7158V68.7193V68.7229V68.7264V68.73V68.7335V68.737V68.7406V68.7441V68.7477V68.7512V68.7547V68.7583V68.7618V68.7653V68.7689V68.7724V68.776V68.7795V68.783V68.7866V68.7901V68.7937V68.7972V68.8007V68.8043V68.8078V68.8114V68.8149V68.8184V68.822V68.8255V68.8291V68.8326V68.8361V68.8397V68.8432V68.8467V68.8503V68.8538V68.8574V68.8609V68.8644V68.868V68.8715V68.8751V68.8786V68.8821V68.8857V68.8892V68.8928V68.8963V68.8998V68.9034V68.9069V68.9104V68.914V68.9175V68.9211V68.9246V68.9281V68.9317V68.9352V68.9388V68.9423V68.9458V68.9494V68.9529V68.9565V68.96V68.9635V68.9671V68.9706V68.9741V68.9777V68.9812V68.9848V68.9883V68.9918V68.9954V68.9989V69.0025V69.006V69.0095V69.0131V69.0166V69.0202V69.0237V69.0272V69.0308V69.0343V69.0379V69.0414V69.0449V69.0485V69.052V69.0555V69.0591V69.0626V69.0662V69.0697V69.0732V69.0768V69.0803V69.0839V69.0874V69.0909V69.0945V69.098V69.1016V69.1051V69.1086V69.1122V69.1157V69.1192V69.1228V69.1263V69.1299V69.1334V69.1369V69.1405V69.144V69.1476V69.1511V69.1546V69.1582V69.1617V69.1653V69.1688V69.1723V69.1759V69.1794V69.1829V69.1865V69.19V69.1936V69.1971V69.2006V69.2042V69.2077V69.2113V69.2148V69.2183V69.2219V69.2254V69.229V69.2325V69.236V69.2396V69.2431V69.2467V69.2502V69.2537V69.2573V69.2608V69.2643V69.2679V69.2714V69.275V69.2785V69.282V69.2856V69.2891V69.2927V69.2962V69.2997V69.3033V69.3068V69.3104V69.3139V69.3174V69.321V69.3245V69.328V69.3316V69.3351V69.3387V69.3422V69.3457V69.3493V69.3528V69.3564V69.3599V69.3634V69.367V69.3705V69.3741V69.3776V69.3811V69.3847V69.3882V69.3918V69.3953V69.3988V69.4024V69.4059V69.4094V69.413V69.4165V69.4201V69.4236V69.4271V69.4307V69.4342V69.4378V69.4413V69.4448V69.4484V69.4519V69.4555V69.459V69.4625V69.4661V69.4696V69.4731V69.4767V69.4802V69.4838V69.4873V69.4908V69.4944V69.4979V69.5015V69.505V69.5085V69.5121V69.5156V69.5192V69.5227V69.5262V69.5298V69.5333V69.5368V69.5404V69.5439V69.5475V69.551V69.5545V69.5581V69.5616V69.5652V69.5687V69.5722V69.5758V69.5793V69.5829V69.5864V69.5899V69.5935V69.597V69.6006V69.6041V69.6076V69.6112V69.6147V69.6182V69.6218V69.6253V69.6289V69.6324V69.6359V69.6395V69.643V69.6466V69.6501V69.6536V69.6572V69.6607V69.6643V69.6678V69.6713V69.6749V69.6784V69.6819V69.6855V69.689V69.6926V69.6961V69.6996V69.7032V69.7067V69.7103V69.7138V69.7173V69.7209V69.7244V69.728V69.7315V69.735V69.7386V69.7421V69.7456V69.7492V69.7527V69.7563V69.7598V69.7633V69.7669V69.7704V69.774V69.7775V69.781V69.7846V69.7881V69.7917V69.7952V69.7987V69.8023V69.8058V69.8094V69.8129V69.8164V69.82V69.8235V69.827V69.8306V69.8341V69.8377V69.8412V69.8447V69.8483V69.8518V69.8554V69.8589V69.8624V69.866V69.8695V69.8731V69.8766V69.8801V69.8837V69.8872V69.8907V69.8943V69.8978V69.9014V69.9049V69.9084V69.912V69.9155V69.9191V69.9226V69.9261V69.9297V69.9332V69.9368V69.9403V69.9438V69.9474V69.9509V69.9545V69.958V69.9615V69.9651V69.9686V69.9721V69.9757V69.9792V69.9828V69.9863V69.9898V69.9934V69.9969V70.0005V70.004V70.0075V70.0111V70.0146V70.0182V70.0217V70.0252V70.0288V70.0323V70.0358V70.0394V70.0429V70.0465V70.05V70.0535V70.0571V70.0606V70.0642V70.0677V70.0712V70.0748V70.0783V70.0819V70.0854V70.0889V70.0925V70.096V70.0995V70.1031V70.1066V70.1102V70.1137V70.1172V70.1208V70.1243V70.1279V70.1314V70.1349V70.1385V70.142V70.1456V70.1491V70.1526V70.1562V70.1597V70.1632V70.1668V70.1703V70.1739V70.1774V70.1809V70.1845V70.188V70.1916V70.1951V70.1986V70.2022V70.2057V70.2093V70.2128V70.2163V70.2199V70.2234V70.227V70.2305V70.234V70.2376V70.2411V70.2446V70.2482V70.2517V70.2553V70.2588V70.2623V70.2659V70.2694V70.273V70.2765V70.28V70.2836V70.2871V70.2907V70.2942V70.2977V70.3013V70.3048V70.3083V70.3119V70.3154V70.319V70.3225V70.326V70.3296V70.3331V70.3367V70.3402V70.3437V70.3473V70.3508V70.3544V70.3579V70.3614V70.365V70.3685V70.3721V70.3756V70.3791V70.3827V70.3862V70.3897V70.3933V70.3968V70.4004V70.4039V70.4074V70.411V70.4145V70.4181V70.4216V70.4251V70.4287V70.4322V70.4358V70.4393V70.4428V70.4464V70.4499V70.4534V70.457V70.4605V70.4641V70.4676V70.4711V70.4747C97.2608 72.048 97.261 73.7193 97.3957 75.3871Z" fill="white" stroke="#338FBF"/>
<path d="M65.531 77.8747L65.5377 77.8711L65.5444 77.8677C66.3381 77.4717 66.7979 76.9561 67.0516 76.402C67.3091 75.8396 67.3716 75.199 67.3013 74.5366C67.1592 73.198 66.4865 71.8813 66.041 71.2463C65.5416 70.5344 64.9134 69.3829 64.4193 68.4309C64.17 67.9505 63.9509 67.5133 63.7941 67.1962C63.7487 67.1043 63.7085 67.0225 63.6743 66.9526C63.6738 66.9702 63.6736 66.9889 63.6736 67.0086V67.0398L63.6697 67.0708C63.6083 67.5606 63.6379 68.3658 63.6894 69.1022C63.7146 69.4629 63.7441 69.7949 63.7674 70.0467C63.7731 70.1074 63.7785 70.1652 63.7834 70.2175C63.7885 70.2711 63.793 70.3189 63.7966 70.3581L63.7972 70.3656C63.8029 70.4276 63.8101 70.5058 63.8101 70.5504V71.1734L63.2019 71.0386L63.3101 70.5504C63.2019 71.0386 63.2018 71.0386 63.2018 71.0385L63.2016 71.0385L63.2013 71.0384L63.2002 71.0382L63.1967 71.0374L63.1845 71.0346L63.1398 71.0242C63.1014 71.0151 63.046 71.0017 62.9761 70.984C62.8363 70.9486 62.6379 70.8958 62.4004 70.8256C61.9276 70.6858 61.2926 70.4749 60.6531 70.1916C60.3232 70.0509 59.8544 69.9105 59.33 69.7534C59.1455 69.6982 58.9541 69.6409 58.7595 69.5808C58.3978 69.4691 58.0323 69.3494 57.71 69.2203C57.3977 69.0952 57.0874 68.9466 56.8579 68.7644C55.6287 67.8159 54.8997 66.7744 54.3619 66.0061C54.2139 65.7946 54.0803 65.6037 53.9548 65.4413C53.6505 65.0475 53.428 64.8584 53.1982 64.7875C53.0505 64.7419 52.8489 64.7306 52.5463 64.8177L53.5122 66.6381L53.6057 66.8143L53.5523 67.006L53.5523 67.0061L53.5522 67.0063L53.5522 67.0063L53.5522 67.0065L53.5513 67.0096L53.547 67.0261C53.543 67.0414 53.537 67.0651 53.5295 67.0963C53.5145 67.1587 53.4938 67.2507 53.4719 67.3646C53.428 67.5937 53.3808 67.9053 53.3651 68.2409C53.3494 68.5792 53.3667 68.923 53.4408 69.2241C53.5149 69.5251 53.6376 69.7518 53.8089 69.9013L54.0556 70.1167L53.9574 70.4267C53.9574 70.4267 53.9574 70.4267 53.9574 70.4267C53.9574 70.4268 53.9574 70.427 53.9573 70.4272C53.9572 70.4274 53.9571 70.4278 53.957 70.4282L53.9531 70.4417C53.9493 70.4553 53.9433 70.478 53.9359 70.5092C53.9211 70.5715 53.9011 70.667 53.8831 70.7905C53.8472 71.0379 53.8201 71.3938 53.8585 71.8162C53.9341 72.6459 54.2628 73.7427 55.3033 74.7962L55.3442 74.824C55.3961 74.8592 55.4735 74.911 55.5736 74.9765C55.774 75.1077 56.0653 75.2938 56.4262 75.5116C57.1492 75.9478 58.1468 76.508 59.2501 77.0084C60.3566 77.5102 61.5508 77.9432 62.6703 78.1375C63.7976 78.3331 64.7848 78.2755 65.531 77.8747Z" fill="white" stroke="#338FBF"/>
<path d="M55.8865 71.0247C55.8865 71.0248 55.8865 71.0249 55.4301 71.0902L55.8865 71.0249L55.9367 71.3754C56.1999 71.5621 56.5066 71.8521 56.6748 72.2719C56.7651 72.497 56.8066 72.743 56.8407 72.9453L56.8424 72.9559L56.8438 72.9638C56.8804 73.1806 56.9139 73.3794 56.9783 73.5866C57.0956 73.9638 57.3252 74.3982 57.9308 74.858C57.9429 74.825 57.9563 74.7838 57.97 74.7329C58.0848 74.3076 58.1256 73.6027 58.1171 72.8039C58.1087 72.0207 58.0543 71.1998 58.0015 70.5715C57.9991 70.5438 57.9968 70.5164 57.9945 70.4895C57.8964 70.5258 57.7941 70.5519 57.6886 70.5682C57.2258 70.6397 56.7427 70.5173 56.3245 70.3233C56.0548 70.1981 55.7933 70.0346 55.5561 69.8468C55.556 69.8469 55.5559 69.8469 55.5557 69.847C55.643 70.0495 55.7073 70.2496 55.7538 70.4168C55.8007 70.5852 55.8334 70.7344 55.8545 70.842C55.8651 70.896 55.8729 70.94 55.8781 70.9713L55.8841 71.0085L55.8857 71.0194L55.8862 71.0229L55.8864 71.024L55.8865 71.0245L55.8865 71.0247Z" fill="white" stroke="#338FBF"/>
<path d="M62.7145 74.9945C62.7175 74.9985 62.7204 75.0026 62.7234 75.0066C62.7827 74.7509 62.771 74.3218 62.3482 73.6891C62.0265 73.2076 61.8885 72.7376 61.8885 72.296C61.8885 71.8581 62.024 71.4836 62.1935 71.1876C62.2429 71.1014 62.2956 71.0211 62.3494 70.9468C62.0133 70.8463 61.6017 70.7115 61.1674 70.5419C60.974 71.5138 61.3267 72.6204 61.8417 73.6053C62.1339 74.1641 62.4602 74.6487 62.7145 74.9945Z" fill="white" stroke="#338FBF"/>
<path d="M128.185 42.0691C128.133 42.051 128.091 42.0372 128.062 42.0278C123.948 41.6605 120.883 41.7148 118.683 42.0296C116.454 42.3486 115.188 42.9246 114.588 43.5232C114.299 43.8121 114.173 44.0959 114.147 44.3616C114.12 44.6317 114.191 44.9354 114.385 45.2662C114.781 45.9413 115.649 46.6512 116.896 47.208L116.896 47.208L116.901 47.2101C119.266 48.2943 121.681 48.0199 123.897 47.2278C125.887 46.5166 127.667 45.4072 129.059 44.5394C129.223 44.4366 129.383 44.3373 129.537 44.2423C130.208 43.8278 130.258 43.5512 130.254 43.4565C130.247 43.3207 130.122 43.1057 129.76 42.8406C129.424 42.5944 128.993 42.3868 128.63 42.2375C128.452 42.1641 128.296 42.1073 128.185 42.0691Z" fill="white" stroke="#338FBF"/>
<path d="M98.2119 93.2503C98.2119 93.2505 98.2119 93.2506 97.715 93.3058L98.2119 93.2506L98.2165 93.2915L98.2143 93.3326L97.031 115.434L104.54 114.551C104.561 114.337 104.588 114.041 104.622 113.668C104.697 112.835 104.805 111.619 104.931 110.091C105.185 107.035 105.515 102.73 105.825 97.7348C106.444 87.7413 106.976 74.9973 106.636 63.9675C106.293 52.876 107.83 47.0346 109.512 43.9472C110.095 42.8791 110.695 42.1386 111.243 41.6263C107.343 42.0177 104.468 43.2047 102.509 44.3605C101.363 45.036 100.529 45.7022 99.9832 46.1956C99.7105 46.4423 99.5104 46.6456 99.3802 46.7851C99.3151 46.8549 99.2675 46.9086 99.237 46.9438C99.2326 46.9489 99.2286 46.9537 99.2249 46.958C97.9968 49.3087 97.2898 53.3293 96.9466 58.1271C96.6028 62.9319 96.6278 68.4347 96.8152 73.6432C97.0026 78.8498 97.3518 83.7526 97.6543 87.3544C97.8055 89.155 97.945 90.6299 98.0467 91.6543C98.0975 92.1664 98.1389 92.5659 98.1675 92.8372C98.1818 92.9728 98.1929 93.0764 98.2005 93.146L98.2091 93.2245L98.2112 93.2442L98.2118 93.2491L98.2119 93.2503Z" fill="white" stroke="#338FBF"/>
<path d="M105.22 53.9928L105.383 54.2182L105.278 54.4757L101.4 63.9406L106.737 75.7955C106.735 75.0095 106.742 74.0581 106.766 72.9797C106.837 69.8162 107.055 65.5534 107.648 61.1651C108.239 56.7822 109.206 52.2468 110.787 48.5517C112.304 45.0062 114.428 42.1364 117.422 41.0066V40.0748C117.417 40.0753 117.413 40.0757 117.408 40.0761C117.145 40.1007 116.759 40.1467 116.272 40.232C115.297 40.4026 113.923 40.7302 112.338 41.3576C109.235 42.5857 105.323 44.9631 102.017 49.5715L105.22 53.9928Z" fill="white" stroke="#338FBF"/>
<path d="M126.062 27.605C126.055 27.6424 126.048 27.682 126.04 27.7239C125.983 28.0249 125.892 28.4432 125.759 28.9395C125.493 29.9302 125.052 31.2425 124.353 32.5552C123.034 35.0347 120.747 37.5878 116.935 37.8576C116.939 37.8717 116.943 37.886 116.947 37.9005C117.061 38.3268 117.194 38.9267 117.272 39.6244C117.414 40.901 117.374 42.5555 116.636 44.0713C116.77 44.1699 116.949 44.2918 117.167 44.4225C117.72 44.753 118.525 45.136 119.53 45.3446C121.463 45.7459 124.21 45.5192 127.416 42.856C127.406 42.8251 127.395 42.792 127.384 42.757C127.294 42.4822 127.17 42.084 127.032 41.586C126.756 40.5907 126.421 39.1933 126.187 37.5828C125.753 34.6054 125.652 30.8346 126.961 27.5316C126.713 27.5472 126.411 27.5704 126.062 27.605Z" fill="white" stroke="#338FBF"/>
<path d="M128.87 124.019C128.918 124.356 128.958 124.634 128.989 124.848L146.378 121.519L147.457 87.4991V50.3562C147.42 50.3112 147.373 50.2548 147.315 50.1881C147.147 49.9926 146.891 49.7089 146.547 49.3631C145.858 48.6713 144.818 47.7323 143.421 46.755C140.687 44.8427 136.585 42.7844 131.064 42.1412C131.012 42.2614 130.947 42.4134 130.87 42.5956C130.653 43.1113 130.344 43.8693 129.973 44.835C129.233 46.7666 128.252 49.5277 127.292 52.8414C125.371 59.4744 123.543 68.2954 123.882 77.0993C124.222 85.9553 125.517 98.0171 126.728 107.876C127.334 112.803 127.918 117.176 128.351 120.316C128.567 121.887 128.746 123.149 128.87 124.019Z" fill="white" stroke="#338FBF"/>
<path d="M129.066 47.3574C129.066 47.3575 129.066 47.3575 128.571 47.2818L129.044 47.4458C125.578 57.4266 124.358 65.5356 124.002 71.1408C123.824 73.9436 123.862 76.1207 123.944 77.593C123.957 77.8191 123.971 78.0286 123.985 78.2212L132.553 62.1797L131.084 54.2585L131.026 53.9492L131.28 53.7636L137.326 49.3448C136.799 45.1081 134.534 42.6513 132.376 41.2373C131.268 40.5113 130.187 40.0601 129.383 39.7908C129.306 39.7648 129.231 39.7406 129.159 39.7179C129.247 40.0176 129.31 40.349 129.355 40.6944C129.47 41.5742 129.473 42.6114 129.429 43.5893C129.386 44.5712 129.295 45.5122 129.215 46.2064C129.175 46.5539 129.138 46.8406 129.111 47.0409C129.097 47.141 129.086 47.2196 129.078 47.2734L129.069 47.3352L129.067 47.3515L129.066 47.3558L129.066 47.357L129.066 47.3574Z" fill="white" stroke="#338FBF"/>
<path d="M124.258 83.899L124.261 83.8802C124.364 83.2083 124.096 82.7587 123.684 82.4167C123.25 82.0554 122.68 81.8405 122.276 81.7064L122.243 81.6952L122.211 81.6793C122.144 81.6458 121.894 81.5711 121.448 81.4816C121.027 81.3972 120.485 81.3097 119.881 81.2343C118.669 81.0832 117.237 80.9845 116.05 81.0497C115.217 81.1144 114.1 81.3744 113.077 81.6924C112.049 82.0118 111.196 82.3651 110.844 82.5945C110.129 83.1339 109.736 83.8233 109.522 84.3891C109.414 84.6728 109.353 84.9214 109.319 85.0967C109.315 85.1183 109.311 85.1387 109.308 85.1579C109.354 85.2007 109.386 85.2181 109.402 85.2248C109.419 85.2163 109.466 85.1877 109.544 85.0965C109.655 84.9662 109.757 84.7941 109.866 84.6065L109.869 84.6028C109.918 84.5187 109.974 84.4228 110.028 84.3435C110.056 84.3026 110.091 84.255 110.132 84.21C110.168 84.1698 110.235 84.1025 110.333 84.0538C110.464 83.9886 110.612 83.9529 110.729 83.931C110.854 83.9076 110.983 83.8931 111.095 83.8838C111.208 83.8744 111.311 83.8697 111.385 83.8674C111.423 83.8662 111.453 83.8656 111.475 83.8653L111.501 83.8651L111.508 83.865L111.511 83.865L111.511 83.865L111.512 83.865H111.512C111.512 83.865 111.512 83.865 111.512 84.365L111.512 83.865L112.064 83.865L112.009 84.4148L112.009 84.4148L112.009 84.4149L112.009 84.415L112.009 84.416L112.009 84.421L112.007 84.4421C112.005 84.4609 112.002 84.489 111.999 84.5252C111.993 84.5977 111.985 84.7024 111.977 84.8296C111.96 85.0848 111.944 85.4266 111.944 85.7783C111.944 86.1292 111.96 86.4724 112.003 86.7445C112.051 86.6627 112.102 86.5668 112.157 86.4568C112.287 86.1974 112.418 85.9036 112.515 85.6604C112.564 85.5385 112.603 85.4346 112.628 85.3572C112.639 85.324 112.646 85.2996 112.65 85.2832V85.2373L112.676 85.1601C112.781 84.8463 113.057 84.6941 113.224 84.6226C113.414 84.5415 113.627 84.4953 113.806 84.4671C113.991 84.438 114.166 84.424 114.294 84.417C114.359 84.4135 114.412 84.4117 114.451 84.4108C114.47 84.4104 114.485 84.4102 114.496 84.41L114.509 84.4099L114.513 84.4099L114.515 84.4099L114.515 84.4099H114.515C114.515 84.4099 114.515 84.4099 114.515 84.9099L114.515 84.4099L115.015 84.4099L115.015 84.9098V84.9098V84.9099L115.015 84.91L115.015 84.9109L115.015 84.9151L115.016 84.933L115.016 85.0034C115.017 85.0646 115.019 85.1528 115.022 85.2593C115.028 85.473 115.04 85.7566 115.065 86.042C115.079 86.2117 115.098 86.3753 115.12 86.5216C115.209 86.3888 115.303 86.2355 115.396 86.0733C115.552 85.8031 115.697 85.5266 115.804 85.3163C115.857 85.2115 115.9 85.124 115.929 85.0629L115.963 84.9925L115.972 84.9745L115.974 84.9701L115.975 84.9692L115.975 84.9691L115.975 84.969L115.975 84.969L116.719 83.3907L116.923 85.1237L116.923 85.1237L116.923 85.1238L116.923 85.1238L116.923 85.1245L116.924 85.1285L116.926 85.1458C116.928 85.1613 116.931 85.1846 116.935 85.2145C116.943 85.2744 116.955 85.3605 116.972 85.4637C117.005 85.6712 117.054 85.9421 117.117 86.2052C117.163 86.394 117.213 86.5624 117.264 86.6957C117.27 86.6688 117.276 86.639 117.281 86.6065C117.301 86.4732 117.305 86.3328 117.303 86.2209C117.302 86.1662 117.3 86.121 117.298 86.0904C117.297 86.0751 117.296 86.0637 117.295 86.0566L117.295 86.0496L117.295 86.0495C117.295 86.0494 117.295 86.0494 117.295 86.0493C117.295 86.0492 117.295 86.049 117.295 86.0489L124.258 83.899ZM124.258 83.899L124.257 83.9179C124.238 84.1599 124.106 84.3595 123.828 84.5392C123.54 84.7259 123.137 84.8591 122.695 84.9474C122.259 85.0344 121.821 85.0708 121.489 85.0851C121.324 85.0922 121.187 85.0937 121.092 85.0934C121.045 85.0933 121.008 85.0927 120.984 85.0922L120.957 85.0916L120.951 85.0914L120.951 85.0914L124.258 83.899ZM114.813 86.9032C114.802 86.911 114.803 86.9089 114.813 86.9029L114.813 86.9032ZM115.236 86.9923C115.24 86.9975 115.242 87.0007 115.242 87.0009C115.242 87.0012 115.24 86.9986 115.236 86.9923ZM112.655 85.264C112.655 85.264 112.654 85.2653 112.654 85.2682C112.654 85.2655 112.655 85.264 112.655 85.264ZM109.415 85.2287C109.415 85.2288 109.413 85.2287 109.411 85.2279C109.413 85.2282 109.415 85.2286 109.415 85.2287Z" fill="white" stroke="#338FBF"/>
<mask id="path-25-inside-1" fill="white">
<path d="M116.427 85.3184C116.427 85.3184 116.154 83.9561 116.836 83.6837C117.519 83.4113 118.748 83.275 118.748 83.275C118.748 83.275 117.246 83.275 116.29 83.5475C115.334 83.8199 115.744 86.5444 115.744 86.5444L116.427 85.3184Z"/>
</mask>
<path d="M116.427 85.3184C116.427 85.3184 116.154 83.9561 116.836 83.6837C117.519 83.4113 118.748 83.275 118.748 83.275C118.748 83.275 117.246 83.275 116.29 83.5475C115.334 83.8199 115.744 86.5444 115.744 86.5444L116.427 85.3184Z" fill="white"/>
<path d="M116.427 85.3184L117.3 85.8048L117.48 85.483L117.407 85.1218L116.427 85.3184ZM118.748 83.275L118.858 84.2689L118.748 82.275L118.748 83.275ZM115.744 86.5444L114.755 86.693L115.191 89.5929L116.618 87.0308L115.744 86.5444ZM116.427 85.3184C117.407 85.1218 117.407 85.1221 117.407 85.1223C117.407 85.1224 117.407 85.1226 117.407 85.1227C117.407 85.123 117.407 85.1233 117.407 85.1236C117.408 85.1241 117.408 85.1245 117.408 85.1249C117.408 85.1256 117.408 85.126 117.408 85.1261C117.408 85.1264 117.408 85.1254 117.407 85.1234C117.407 85.1194 117.405 85.1111 117.403 85.099C117.399 85.0748 117.394 85.0366 117.388 84.9888C117.377 84.8895 117.369 84.7666 117.374 84.6487C117.377 84.5908 117.383 84.5422 117.39 84.5036C117.393 84.4848 117.397 84.4703 117.4 84.4599C117.401 84.4547 117.403 84.4509 117.403 84.4483C117.404 84.4456 117.405 84.4444 117.405 84.4444C117.405 84.4451 117.354 84.5539 117.207 84.6125L116.466 82.7549C115.977 82.9497 115.705 83.3309 115.564 83.6637C115.428 83.9827 115.388 84.3106 115.376 84.5577C115.365 84.8144 115.382 85.049 115.401 85.2137C115.411 85.2979 115.421 85.3682 115.429 85.4195C115.433 85.4453 115.437 85.4665 115.44 85.4826C115.441 85.4906 115.443 85.4974 115.444 85.5028C115.444 85.5055 115.445 85.5079 115.445 85.5099C115.445 85.5109 115.446 85.5118 115.446 85.5127C115.446 85.5131 115.446 85.5135 115.446 85.5139C115.446 85.514 115.446 85.5143 115.446 85.5144C115.446 85.5147 115.446 85.5149 116.427 85.3184ZM117.207 84.6125C117.445 84.5175 117.835 84.4292 118.219 84.3625C118.4 84.331 118.562 84.3073 118.679 84.2915C118.737 84.2837 118.783 84.2778 118.815 84.2741C118.83 84.2722 118.842 84.2708 118.849 84.2699C118.853 84.2695 118.855 84.2692 118.857 84.2691C118.858 84.269 118.858 84.2689 118.858 84.2689C118.858 84.2689 118.858 84.2689 118.858 84.2689C118.858 84.2689 118.858 84.2689 118.858 84.2689C118.858 84.2689 118.858 84.2689 118.858 84.2689C118.858 84.2689 118.858 84.2689 118.748 83.275C118.637 82.2811 118.637 82.2811 118.637 82.2811C118.637 82.2811 118.637 82.2811 118.637 82.2812C118.637 82.2812 118.637 82.2812 118.637 82.2812C118.636 82.2812 118.636 82.2813 118.635 82.2814C118.634 82.2815 118.633 82.2816 118.631 82.2818C118.628 82.2822 118.624 82.2827 118.618 82.2833C118.607 82.2846 118.592 82.2864 118.573 82.2888C118.534 82.2935 118.479 82.3004 118.411 82.3096C118.276 82.3279 118.088 82.3552 117.877 82.3919C117.476 82.4615 116.91 82.5774 116.466 82.7549L117.207 84.6125ZM118.748 83.275C118.748 82.275 118.748 82.275 118.747 82.275C118.747 82.275 118.747 82.275 118.747 82.275C118.747 82.275 118.747 82.275 118.747 82.275C118.746 82.275 118.746 82.275 118.745 82.275C118.744 82.275 118.742 82.275 118.74 82.275C118.737 82.275 118.731 82.2751 118.725 82.2751C118.711 82.2752 118.693 82.2753 118.669 82.2756C118.621 82.2762 118.554 82.2774 118.471 82.2797C118.305 82.2842 118.073 82.2933 117.809 82.3114C117.299 82.3465 116.598 82.4198 116.016 82.5858L116.564 84.5092C116.938 84.4027 117.466 84.3397 117.946 84.3067C118.177 84.2908 118.38 84.2829 118.525 84.2789C118.598 84.2769 118.655 84.276 118.694 84.2755C118.713 84.2752 118.727 84.2751 118.736 84.2751C118.741 84.275 118.744 84.275 118.746 84.275C118.747 84.275 118.748 84.275 118.748 84.275C118.748 84.275 118.748 84.275 118.748 84.275C118.748 84.275 118.748 84.275 118.748 84.275C118.748 84.275 118.748 84.275 118.748 84.275C118.748 84.275 118.748 84.275 118.748 83.275ZM116.016 82.5858C115.291 82.7924 114.982 83.4208 114.851 83.82C114.71 84.2503 114.668 84.7296 114.659 85.1242C114.649 85.5327 114.673 85.9223 114.699 86.2044C114.712 86.347 114.725 86.4658 114.736 86.5502C114.741 86.5925 114.746 86.6264 114.749 86.6506C114.751 86.6627 114.752 86.6724 114.753 86.6795C114.754 86.6831 114.754 86.686 114.754 86.6883C114.755 86.6894 114.755 86.6904 114.755 86.6911C114.755 86.6915 114.755 86.6919 114.755 86.6922C114.755 86.6924 114.755 86.6926 114.755 86.6927C114.755 86.6929 114.755 86.693 115.744 86.5444C116.733 86.3957 116.733 86.3959 116.733 86.396C116.733 86.396 116.733 86.3962 116.733 86.3963C116.733 86.3964 116.733 86.3965 116.733 86.3966C116.733 86.3967 116.733 86.3967 116.733 86.3965C116.733 86.3962 116.733 86.3952 116.733 86.3936C116.732 86.3904 116.731 86.3847 116.73 86.3768C116.728 86.361 116.725 86.3361 116.721 86.3033C116.712 86.2377 116.701 86.1415 116.691 86.0244C116.669 85.7871 116.651 85.4787 116.658 85.1719C116.666 84.8514 116.701 84.5985 116.752 84.4413C116.814 84.2531 116.811 84.4388 116.564 84.5092L116.016 82.5858ZM116.618 87.0308L117.3 85.8048L115.553 84.8319L114.87 86.0579L116.618 87.0308Z" fill="#338FBF" mask="url(#path-25-inside-1)"/>
<mask id="path-27-inside-2" fill="white">
<path d="M116.153 82.5939C116.017 82.5939 115.198 82.8663 114.924 83.275C114.651 83.6837 114.515 85.0459 114.515 85.0459C114.515 85.0459 113.286 85.0459 113.15 85.4545C113.15 85.5908 112.877 86.2719 112.604 86.8168C112.604 86.5443 112.74 84.7734 113.286 83.8199C113.969 82.7301 115.88 82.5939 116.153 82.5939Z"/>
</mask>
<path d="M116.153 82.5939C116.017 82.5939 115.198 82.8663 114.924 83.275C114.651 83.6837 114.515 85.0459 114.515 85.0459C114.515 85.0459 113.286 85.0459 113.15 85.4545C113.15 85.5908 112.877 86.2719 112.604 86.8168C112.604 86.5443 112.74 84.7734 113.286 83.8199C113.969 82.7301 115.88 82.5939 116.153 82.5939Z" fill="white"/>
<path d="M114.515 85.0459L114.515 86.0459L115.42 86.0459L115.51 85.1456L114.515 85.0459ZM113.15 85.4545L112.201 85.1377L112.15 85.2919V85.4545H113.15ZM112.604 86.8168H111.604L113.498 87.2648L112.604 86.8168ZM113.286 83.8199L112.439 83.289L112.428 83.3058L112.418 83.3229L113.286 83.8199ZM116.153 81.5939C116.016 81.5939 115.896 81.621 115.849 81.6316C115.78 81.6475 115.708 81.6678 115.639 81.69C115.499 81.7345 115.335 81.7966 115.168 81.8746C114.882 82.0078 114.391 82.2737 114.093 82.7194L115.756 83.8305C115.731 83.8675 115.728 83.8565 115.79 83.8125C115.846 83.7732 115.922 83.7296 116.012 83.6877C116.101 83.6465 116.185 83.615 116.245 83.5957C116.276 83.5859 116.293 83.5818 116.296 83.5811C116.297 83.5808 116.289 83.5828 116.273 83.5853C116.262 83.5869 116.217 83.5939 116.153 83.5939V81.5939ZM114.093 82.7194C113.931 82.9626 113.837 83.2562 113.781 83.4576C113.718 83.6861 113.669 83.9296 113.632 84.142C113.595 84.3572 113.567 84.5561 113.549 84.7004C113.539 84.773 113.532 84.8328 113.528 84.8751C113.525 84.8963 113.523 84.9132 113.522 84.9252C113.521 84.9312 113.521 84.936 113.521 84.9396C113.52 84.9413 113.52 84.9427 113.52 84.9438C113.52 84.9444 113.52 84.9449 113.52 84.9453C113.52 84.9455 113.52 84.9456 113.52 84.9458C113.52 84.9459 113.52 84.9459 113.52 84.946C113.52 84.9461 113.52 84.9462 114.515 85.0459C115.51 85.1456 115.51 85.1457 115.51 85.1457C115.51 85.1458 115.51 85.1458 115.51 85.1459C115.51 85.1459 115.51 85.146 115.51 85.146C115.51 85.1461 115.51 85.146 115.51 85.1459C115.51 85.1457 115.51 85.1452 115.51 85.1444C115.51 85.1427 115.511 85.1398 115.511 85.1357C115.512 85.1276 115.513 85.1148 115.515 85.098C115.519 85.0642 115.525 85.0144 115.533 84.9529C115.548 84.829 115.572 84.6618 115.602 84.4854C115.634 84.3062 115.67 84.1325 115.709 83.9906C115.756 83.8217 115.782 83.7917 115.756 83.8305L114.093 82.7194ZM114.515 85.0459C114.515 84.0459 114.515 84.0459 114.515 84.0459C114.515 84.0459 114.514 84.0459 114.514 84.0459C114.514 84.0459 114.514 84.0459 114.513 84.0459C114.513 84.0459 114.512 84.0459 114.511 84.0459C114.51 84.0459 114.508 84.0459 114.506 84.0459C114.502 84.0459 114.497 84.046 114.49 84.046C114.477 84.0462 114.46 84.0465 114.438 84.047C114.396 84.048 114.337 84.0499 114.266 84.0537C114.128 84.0613 113.934 84.0766 113.728 84.1091C113.532 84.1401 113.272 84.1942 113.027 84.2988C112.827 84.3843 112.377 84.6122 112.201 85.1377L114.098 85.7714C114.042 85.9399 113.944 86.0406 113.89 86.0861C113.838 86.1295 113.804 86.1421 113.814 86.1377C113.838 86.1274 113.911 86.1049 114.039 86.0848C114.157 86.0662 114.279 86.056 114.375 86.0508C114.422 86.0482 114.46 86.047 114.485 86.0464C114.498 86.0461 114.507 86.046 114.512 86.0459C114.515 86.0459 114.516 86.0459 114.517 86.0459C114.517 86.0459 114.517 86.0459 114.517 86.0459C114.517 86.0459 114.516 86.0459 114.516 86.0459C114.516 86.0459 114.516 86.0459 114.516 86.0459C114.515 86.0459 114.515 86.0459 114.515 86.0459C114.515 86.0459 114.515 86.0459 114.515 85.0459ZM112.15 85.4545C112.15 85.388 112.157 85.3399 112.16 85.3245C112.163 85.3046 112.166 85.2929 112.166 85.2924C112.166 85.2918 112.163 85.3057 112.152 85.338C112.131 85.4013 112.097 85.4942 112.051 85.6103C111.958 85.8413 111.833 86.1224 111.709 86.3687L113.498 87.2648C113.647 86.9662 113.795 86.6343 113.907 86.3545C113.963 86.2152 114.014 86.0782 114.053 85.9584C114.073 85.8992 114.093 85.8333 114.109 85.7673C114.12 85.7223 114.15 85.5987 114.15 85.4545H112.15ZM113.604 86.8168C113.604 86.818 113.604 86.8096 113.604 86.7889C113.605 86.7695 113.606 86.7437 113.608 86.7116C113.613 86.6475 113.619 86.5637 113.629 86.4645C113.648 86.2657 113.679 86.0135 113.726 85.7431C113.824 85.1708 113.972 84.6345 114.154 84.3169L112.418 83.3229C112.054 83.9588 111.861 84.7847 111.754 85.4044C111.645 86.0395 111.604 86.609 111.604 86.8168H113.604ZM114.134 84.3507C114.273 84.1278 114.618 83.9107 115.147 83.7599C115.388 83.6913 115.624 83.6488 115.816 83.6238C115.91 83.6114 115.991 83.6037 116.053 83.5992C116.084 83.5969 116.108 83.5955 116.127 83.5947C116.146 83.5939 116.155 83.5939 116.153 83.5939V81.5939C115.937 81.5939 115.297 81.6376 114.599 81.8365C113.934 82.0262 112.982 82.4221 112.439 83.289L114.134 84.3507Z" fill="#338FBF" mask="url(#path-27-inside-2)"/>
<mask id="path-29-inside-3" fill="white">
<path d="M113.286 82.5939C113.286 82.5939 111.784 83.5474 111.648 84.3648C111.648 84.3648 110.965 84.3648 110.692 84.501C111.375 82.5939 113.286 82.5939 113.286 82.5939Z"/>
</mask>
<path d="M113.286 82.5939C113.286 82.5939 111.784 83.5474 111.648 84.3648C111.648 84.3648 110.965 84.3648 110.692 84.501C111.375 82.5939 113.286 82.5939 113.286 82.5939Z" fill="white"/>
<path d="M113.286 82.5939L113.822 83.4381L116.727 81.5939L113.286 81.5939L113.286 82.5939ZM111.648 84.3648L111.648 85.3648L112.494 85.3648L112.634 84.5295L111.648 84.3648ZM110.692 84.501L109.75 84.164L108.912 86.5065L111.138 85.3958L110.692 84.501ZM113.286 82.5939C112.75 81.7497 112.75 81.7498 112.75 81.7499C112.75 81.7499 112.749 81.75 112.749 81.7501C112.749 81.7502 112.749 81.7504 112.749 81.7506C112.748 81.7509 112.747 81.7514 112.747 81.7518C112.745 81.7528 112.743 81.754 112.741 81.7554C112.737 81.7583 112.731 81.7621 112.723 81.7668C112.709 81.7761 112.689 81.7891 112.665 81.8055C112.616 81.8381 112.548 81.8844 112.468 81.9421C112.307 82.0566 112.089 82.221 111.863 82.4175C111.64 82.6111 111.388 82.8537 111.174 83.1267C110.972 83.3849 110.736 83.7551 110.661 84.2L112.634 84.5295C112.628 84.5658 112.631 84.5103 112.749 84.3598C112.855 84.2241 113.004 84.0751 113.173 83.9282C113.339 83.7841 113.505 83.659 113.631 83.5692C113.693 83.5247 113.744 83.4901 113.777 83.4674C113.794 83.4561 113.807 83.4478 113.815 83.4428C113.819 83.4403 113.821 83.4386 113.822 83.4378C113.823 83.4374 113.823 83.4373 113.823 83.4373C113.823 83.4373 113.823 83.4374 113.823 83.4375C113.823 83.4376 113.823 83.4377 113.822 83.4378C113.822 83.4378 113.822 83.4379 113.822 83.4379C113.822 83.438 113.822 83.4381 113.286 82.5939ZM111.648 84.3648C111.648 83.3648 111.648 83.3648 111.647 83.3648C111.647 83.3648 111.647 83.3648 111.647 83.3648C111.647 83.3648 111.647 83.3648 111.647 83.3648C111.646 83.3648 111.646 83.3648 111.646 83.3648C111.645 83.3648 111.644 83.3648 111.642 83.3648C111.64 83.3648 111.637 83.3648 111.633 83.3648C111.626 83.3649 111.616 83.365 111.604 83.3651C111.58 83.3655 111.546 83.3661 111.506 83.3674C111.425 83.3699 111.313 83.3749 111.189 83.3852C111.067 83.3954 110.92 83.4117 110.773 83.4393C110.641 83.464 110.439 83.5098 110.245 83.6061L111.138 85.3958C111.082 85.424 111.067 85.4188 111.14 85.4052C111.198 85.3945 111.272 85.3852 111.355 85.3783C111.436 85.3716 111.512 85.3682 111.568 85.3664C111.596 85.3655 111.617 85.3651 111.632 85.3649C111.639 85.3648 111.644 85.3648 111.646 85.3648C111.648 85.3648 111.649 85.3648 111.649 85.3648C111.649 85.3648 111.649 85.3648 111.649 85.3648C111.649 85.3648 111.648 85.3648 111.648 85.3648C111.648 85.3648 111.648 85.3648 111.648 85.3648C111.648 85.3648 111.648 85.3648 111.648 85.3648C111.648 85.3648 111.648 85.3648 111.648 84.3648ZM111.633 84.838C111.861 84.2015 112.271 83.9071 112.635 83.7532C112.825 83.6727 113.003 83.6318 113.132 83.6116C113.195 83.6016 113.244 83.5972 113.272 83.5952C113.286 83.5942 113.295 83.5939 113.297 83.5938C113.299 83.5938 113.298 83.5938 113.296 83.5938C113.296 83.5938 113.294 83.5938 113.292 83.5938C113.292 83.5939 113.291 83.5939 113.29 83.5939C113.289 83.5939 113.288 83.5939 113.288 83.5939C113.288 83.5939 113.287 83.5939 113.287 83.5939C113.286 83.5939 113.286 83.5939 113.286 82.5939C113.286 81.5939 113.285 81.5939 113.285 81.5939C113.285 81.5939 113.284 81.5939 113.284 81.5939C113.283 81.5939 113.282 81.5939 113.282 81.5939C113.28 81.5939 113.278 81.5939 113.277 81.5939C113.273 81.5939 113.269 81.594 113.264 81.5941C113.255 81.5942 113.244 81.5945 113.231 81.5949C113.206 81.5957 113.173 81.5973 113.133 81.6C113.054 81.6055 112.948 81.6159 112.822 81.6358C112.571 81.6751 112.228 81.7534 111.855 81.9114C111.092 82.2342 110.205 82.8934 109.75 84.164L111.633 84.838Z" fill="#338FBF" mask="url(#path-29-inside-3)"/>
<path d="M122.686 84.9491C122.483 84.9891 122.28 85.0184 122.088 85.0396C122.17 85.0022 122.25 84.9567 122.324 84.9014L122.353 84.8801L122.357 84.8753C122.374 84.8756 122.404 84.8782 122.451 84.8875C122.516 84.9002 122.591 84.9208 122.686 84.9491ZM122.338 84.8767C122.338 84.8764 122.34 84.8758 122.345 84.8755C122.341 84.8767 122.339 84.8769 122.338 84.8767ZM120.347 85.1914C120.163 85.2243 119.938 85.2628 119.694 85.3013C119.258 85.37 118.776 85.4359 118.354 85.4717C118.363 85.4549 118.373 85.4359 118.385 85.414C118.387 85.4104 118.389 85.4067 118.391 85.403C118.535 85.3981 118.716 85.3894 118.907 85.3741C119.129 85.3563 119.376 85.329 119.6 85.2857C119.74 85.2586 119.906 85.2194 120.058 85.1561C120.087 85.1603 120.12 85.1648 120.156 85.1694C120.213 85.1767 120.277 85.1843 120.347 85.1914Z" fill="white" stroke="#338FBF"/>
<path d="M150.68 74.7694L151.35 74.6016L150.982 74.0177C147.167 67.9679 144.099 61.7955 143.094 57.2342C142.589 54.9394 142.631 53.161 143.244 52.0109C143.815 50.938 144.961 50.2831 147.056 50.3963C147.062 50.3987 147.07 50.4016 147.079 50.405C147.135 50.4262 147.231 50.4667 147.371 50.5386C147.65 50.6825 148.098 50.951 148.736 51.4387C150.013 52.4148 152.035 54.2596 154.954 57.7144C158.423 61.8543 162.743 67.658 165.834 72.6737C167.382 75.1852 168.607 77.4765 169.268 79.2522C169.6 80.1436 169.777 80.8708 169.797 81.4141C169.817 81.962 169.678 82.2087 169.521 82.3219C168.932 82.7318 167.765 83.1148 166.08 83.4459C164.417 83.7726 162.325 84.0357 159.952 84.2457C155.209 84.6655 149.386 84.8696 143.725 84.9547C138.065 85.0398 132.575 85.0057 128.499 84.9504C126.461 84.9228 124.777 84.8898 123.603 84.8638C123.016 84.8508 122.557 84.8395 122.244 84.8314C122.223 84.8309 122.203 84.8304 122.184 84.8299L121.766 82.0153L150.68 74.7694Z" fill="white" stroke="#338FBF"/>
<path d="M105.511 85.4595V81.6453L123.533 83.2799C124.216 83.2799 124.625 83.8248 124.625 84.5059V85.3233L105.511 85.4595Z" fill="#338FBF"/>
<path d="M105.511 81.6455H75.4748C74.7922 81.6455 74.2461 82.1904 74.2461 82.8715V85.4597H105.648V81.6455H105.511Z" fill="#338FBF"/>
<path d="M97.7291 68.5681H44.6195C42.9812 68.5681 41.4794 67.2059 41.3428 65.5712L37.7931 25.3856C37.6565 23.7509 38.8853 22.3887 40.5236 22.3887H93.6333C95.2716 22.3887 96.7734 23.7509 96.91 25.3856L100.46 65.5712C100.596 67.2059 99.3675 68.5681 97.7291 68.5681Z" fill="#338FBF"/>
<path d="M95.6808 68.5681H42.5712C40.9328 68.5681 39.431 67.2059 39.2945 65.5712L35.7447 25.3856C35.6082 23.7509 36.837 22.3887 38.4753 22.3887H91.5849C93.2233 22.3887 94.7251 23.7509 94.8617 25.3856L98.4114 65.5712C98.5479 67.2059 97.3191 68.5681 95.6808 68.5681Z" fill="#338FBF"/>
<path d="M48.1689 85.4595H77.113L74.9285 83.2799C74.6555 83.0075 74.2459 82.735 73.8363 82.735L62.641 81.509L71.2423 64.8899L69.0578 52.2212H58.6816L53.9031 81.509L49.9438 82.4626C49.2612 82.5988 48.8516 83.1437 48.7151 83.6886L48.1689 85.4595Z" fill="#338FBF"/>
<path d="M53.3569 85.4597L58.545 53.5837C58.6816 52.7663 59.3642 52.0852 60.3199 52.0852H66.8733C68.102 52.0852 68.9212 53.175 68.5116 54.401L58.8181 85.4597H53.3569Z" fill="#338FBF"/>
<path d="M191.282 92.9508H1.91343C1.67457 92.9508 1.53125 92.3987 1.53125 91.8467V87.1545H191.282V92.9508Z" fill="#338FBF"/>
<path d="M215 84.9949H135.371V92.9736H213.686C214.507 92.9736 215 92.3714 215 91.7693V84.9949Z" fill="#338FBF"/>
<path d="M195 84H0.383575C0.191787 84 0 84.5 0 85V88C0 88.5 0.191787 89 0.383575 89H195V84Z" fill="#338FBF"/>
<path d="M213.693 84.0001H137.162C136.581 84.0001 136 84.5001 136 85.0001V88.0001C136 88.5001 136.581 89.0001 137.162 89.0001H213.693C214.419 89.0001 215 88.5001 215 87.8751V85.2501C215 84.6251 214.419 84.0001 213.693 84.0001Z" fill="#338FBF"/>
<path fill-rule="evenodd" clip-rule="evenodd" d="M201.444 97.2234H140.408V210.286H201.444V97.2234ZM140.408 93.2549C138.209 93.2549 136.426 95.0317 136.426 97.2234V210.286C136.426 212.478 138.209 214.255 140.408 214.255H201.444C203.643 214.255 205.426 212.478 205.426 210.286V97.2234C205.426 95.0317 203.643 93.2549 201.444 93.2549H140.408Z" fill="#338FBF"/>
<path d="M109.202 20.8232L109.199 20.8347L109.195 20.8461C108.998 21.5226 108.919 22.2783 108.836 23.0911L108.833 23.1163L108.828 23.1412C108.611 24.1941 108.468 25.0931 108.447 26.0566L108.447 26.0711L108.446 26.0855C108.267 28.3587 108.295 30.4996 108.696 31.8424L108.7 31.8543L108.703 31.8665C109.14 33.6569 110.709 35.3151 112.914 36.3814C115.107 37.4415 117.853 37.8762 120.52 37.2851L120.521 37.285C123.993 36.5193 127.467 33.9479 129.362 28.7614C131.739 21.9858 131.041 17.407 128.523 14.5777C125.973 11.7131 121.426 10.4801 115.757 10.7525L115.757 10.7526L115.746 10.7529C114.269 10.7838 112.965 11.8775 111.838 13.7556C110.719 15.6216 109.843 18.1568 109.202 20.8232Z" fill="white" stroke="#338FBF"/>
<path d="M112.772 11.2274C112.984 11.1675 113.267 11.0954 113.614 11.0241C114.433 10.8557 115.607 10.6911 117.047 10.7016C119.928 10.7225 123.863 11.4452 128.11 14.2318L128.331 14.3768L128.321 14.6518L127.868 14.6372C128.321 14.6518 128.321 14.6518 128.321 14.6519L128.321 14.6522L128.321 14.6534L128.321 14.6581L128.32 14.6767L128.317 14.7493L128.307 15.0279C128.298 15.2695 128.284 15.6186 128.266 16.0489C128.231 16.9094 128.18 18.0947 128.116 19.3939C127.994 21.8734 127.826 24.7838 127.635 26.6383C127.722 26.7288 127.827 26.8521 127.934 27.0102C128.185 27.3785 128.444 27.9333 128.512 28.6928C128.634 30.0617 128.127 31.985 126.062 34.5755C126.448 34.4592 126.935 34.2418 127.499 33.8407C129.061 32.7304 131.23 30.1949 133.411 24.4518C135.264 19.5101 134.522 16.7623 133.451 15.2593C132.905 14.4925 132.249 14.0126 131.727 13.7242C131.466 13.5803 131.241 13.4853 131.084 13.4269C131.005 13.3978 130.944 13.3779 130.904 13.3657C130.884 13.3597 130.869 13.3555 130.86 13.3531L130.851 13.3507L130.851 13.3506L130.851 13.3505L130.851 13.3504L130.851 13.3504L130.529 13.2708L130.507 12.9229L130.507 12.9225L130.507 12.9224L130.507 12.9221L130.506 12.9157C130.505 12.9088 130.504 12.8968 130.503 12.8802C130.499 12.8469 130.493 12.7949 130.483 12.726C130.462 12.5882 130.426 12.3833 130.361 12.1273C130.231 11.6149 129.989 10.8991 129.543 10.104C128.655 8.52183 126.944 6.59684 123.63 5.34066C120.162 4.07841 117.084 4.57561 115.086 5.92437C113.224 7.18143 112.303 9.15794 112.772 11.2274Z" fill="white" stroke="#338FBF"/>
<path d="M119.863 21.8251C119.647 22.565 119.169 23.1528 118.704 23.0574C118.24 22.962 118.123 22.2027 118.207 21.3867C118.422 20.6468 118.901 20.059 119.365 20.1545C119.961 20.326 120.148 20.9525 119.863 21.8251Z" fill="#338FBF"/>
<path d="M112.936 20.9483C112.72 21.6881 112.242 22.2758 111.777 22.1804C111.313 22.085 111.196 21.3258 111.28 20.5099C111.495 19.7701 111.973 19.1823 112.438 19.2778C113.034 19.4492 113.151 20.2085 112.936 20.9483Z" fill="#338FBF"/>
<path d="M113.636 22.6761C113.636 22.6761 111.172 25.1391 109.951 24.267C108.73 23.3949 108.85 27.0092 113.023 27.0496C113.023 27.0496 114.489 25.531 113.636 22.6761Z" fill="#338FBF"/>
<path d="M121.911 25.1861C121.898 25.8469 121.305 26.3422 120.463 26.36C119.621 26.3779 118.921 25.8085 118.935 25.1477C118.949 24.487 119.542 23.9917 120.384 23.9738C121.225 23.9559 121.797 24.4518 121.911 25.1861Z" fill="#338FBF"/>
<path d="M110.652 23.7694C110.38 24.2884 109.464 24.436 108.819 24.0647C108.901 23.2674 109.112 22.5443 109.194 21.747C109.391 21.6916 109.649 21.8401 109.906 21.9887C110.551 22.3601 110.924 23.2504 110.652 23.7694Z" fill="#338FBF"/>
<path d="M122.121 17.5947C122.244 17.6633 122.308 17.5453 122.308 17.5453C122.495 17.496 122.435 17.3094 122.376 17.1229C121.461 15.8471 119.787 15.6823 119.664 15.6137C119.54 15.5451 119.29 15.7124 119.35 15.8989C119.286 16.0169 119.469 16.272 119.656 16.2227C119.656 16.2227 121.143 16.4369 121.875 17.4575C121.998 17.5261 121.998 17.5261 122.121 17.5947Z" fill="#338FBF"/>
<path d="M111.806 16.4546C111.935 16.5299 112.131 16.4781 112.197 16.3509C112.334 15.7673 113.371 16.0399 113.826 16.1386C113.955 16.2138 114.151 16.162 114.283 15.9078C114.35 15.7807 114.287 15.5783 114.028 15.4278C113.315 15.1786 112.016 15.0849 111.68 16.0499C111.548 16.3041 111.611 16.5065 111.806 16.4546Z" fill="#338FBF"/>
<path d="M126.423 26.9987C126.411 27.0062 126.4 27.0132 126.39 27.0197C126.373 27.0479 126.352 27.0828 126.328 27.1238C126.254 27.248 126.152 27.4274 126.035 27.6459C125.8 28.0851 125.514 28.6726 125.297 29.2817C125.076 29.9012 124.944 30.4937 124.975 30.9595C124.99 31.186 125.042 31.3624 125.124 31.4965C125.203 31.6254 125.324 31.7404 125.522 31.8246C125.897 31.9792 126.47 31.9422 127.157 31.6823C127.83 31.4277 128.541 30.9849 129.144 30.4444C129.751 29.9005 130.217 29.2863 130.438 28.7059C130.654 28.1406 130.629 27.6474 130.33 27.2294C129.642 26.267 128.703 26.1918 127.849 26.3947C127.421 26.4965 127.034 26.666 126.752 26.8128C126.611 26.8857 126.499 26.9517 126.423 26.9987Z" fill="white" stroke="#338FBF"/>
<path d="M109.701 30.8349L114.531 31.8144C114.531 31.8144 115.057 32.547 112.694 32.1336C110.34 31.6899 109.701 30.8349 109.701 30.8349Z" fill="#338FBF"/>
</svg>
