<svg width="965" height="877" viewBox="0 0 965 877" fill="none" xmlns="http://www.w3.org/2000/svg">
<path d="M816.593 222.583L727.063 195.782L682.699 248.736M682.699 248.736L641.317 209.128M682.699 248.736L679.888 275.934M641.317 209.128L656.879 194.853M641.317 209.128L679.888 275.934M679.888 275.934L713.653 348.16M679.888 275.934L727.379 326.124M679.888 275.934L674.004 314.608M679.888 275.934L619.851 216.231M713.653 348.16L727.379 326.124M713.653 348.16L692.812 388.414M713.653 348.16L674.004 314.608M713.653 348.16L713.166 448.098M727.379 326.124L747.067 323.577M727.379 326.124L740.766 395.122M692.812 388.414L619.375 339.093M692.812 388.414L674.004 314.608M692.812 388.414L642.022 300.442M692.812 388.414L713.166 448.098M619.375 339.093L642.022 300.442M619.375 339.093L581.683 409.959L509.948 312.478M619.375 339.093L509.948 312.478M642.022 300.442L621.262 296.553M642.022 300.442L619.851 216.231M642.022 300.442L674.004 314.608M674.004 314.608L619.851 216.231M619.851 216.231L613.097 189.263M619.851 216.231L575.956 186.012M613.097 189.263L637.756 155.623L628.283 134.635L660.587 74.5339M613.097 189.263L575.956 186.012M613.097 189.263L537.099 159.94M575.956 186.012L535.275 175.104M575.956 186.012L537.099 159.94M535.275 175.104L537.099 159.94M535.275 175.104L524.837 211.998M535.275 175.104L499.251 167.681M537.099 159.94L499.251 167.681M524.837 211.998L463.351 207.81M524.837 211.998L499.251 167.681M463.351 207.81L387.648 262.983L361.446 208.438M463.351 207.81L361.446 208.438M463.351 207.81L499.251 167.681M463.351 207.81L429.961 175.936M361.446 208.438C382.962 198.368 426.788 177.769 429.961 175.936M361.446 208.438L391.777 172.407M361.446 208.438L303.864 229.337L391.777 172.407M499.251 167.681L429.961 175.936M429.961 175.936L391.777 172.407M313.917 294.086L382.923 224.26L327.473 235.108L313.917 294.086ZM313.917 294.086C314.931 294.086 355.953 315.192 376.338 325.745L382.923 364.968M509.948 248.816L573.959 266.538L592.508 222.316L509.948 248.816ZM509.948 248.816L509.948 312.478M288.575 282.26L307.828 329.351M307.828 329.351L267.986 315.313M307.828 329.351L315.184 445.927L261.205 447.107M307.828 329.351L261.205 447.107M307.828 329.351L249.447 382.459M267.986 315.313L249.447 382.459M267.986 315.313L233.317 375.898M249.447 382.459L233.317 375.898M249.447 382.459L261.205 447.107M249.447 382.459L235.771 456.5M233.317 375.898L202.696 390.049L142.458 389.551M233.317 375.898L235.771 456.5M261.205 447.107L235.771 456.5M261.205 447.107L329.99 555.557M261.205 447.107L295.727 560.346M329.99 555.557L295.727 560.346M329.99 555.557L368.124 507.082M329.99 555.557L333.038 600.539M329.99 555.557L393.8 632.484M329.99 555.557L389.27 574.247M295.727 560.346L276.877 559.764M295.727 560.346L304.567 587.873M295.727 560.346L333.038 600.539M368.124 507.082L389.27 574.247M368.124 507.082L435.173 507.082L361.918 409.959L368.124 507.082ZM389.27 574.247L496.807 542.146M389.27 574.247L393.8 632.484M389.27 574.247L449.511 637.36M389.27 574.247L499.353 601.528M496.807 542.146L569.353 479.977M496.807 542.146C534.482 544.794 610.097 549.937 611.155 549.326M496.807 542.146C497.842 561.244 499.8 599.859 499.353 601.528M496.807 542.146C519.136 561.717 563.351 600.863 561.575 600.882M496.807 542.146L499.353 473.985M569.353 479.977L652.009 494.872L611.155 549.326M569.353 479.977L611.155 549.326M499.353 601.528L561.575 600.882M499.353 601.528L449.511 637.36M499.353 601.528L558.029 632.914M561.575 600.882C582.585 597.57 624.153 591.386 622.343 593.137C620.533 594.887 578.712 620.385 558.029 632.914M558.029 632.914L449.511 637.36M449.511 637.36L393.8 632.484M449.511 637.36C450.428 638.947 463.622 657.729 470.105 666.921L393.8 632.484M393.8 632.484L352.001 625.749M393.8 632.484L333.038 600.539M393.8 632.484L374.144 703.803L403.874 743.082M352.001 625.749L304.567 587.873M352.001 625.749L333.038 600.539M304.567 587.873L276.877 559.764M304.567 587.873L333.038 600.539M304.567 587.873L279.469 608.537L284.108 628.789L271.161 737.685M276.877 559.764L220.274 608.318L192.157 590.157L138.86 636.802M713.166 448.098L695.78 477.538L731.496 479.848M713.166 448.098L741.598 431.683M713.166 448.098L731.496 479.848M731.496 479.848L741.598 431.683M731.496 479.848L752.004 490.937M741.598 431.683L832.188 441.997M679.908 589.005L594.155 642.042L639.796 598.935L640.096 598.481M679.908 589.005L668.953 554.761L640.096 598.481M679.908 589.005L640.096 598.481M673.39 469.299L655.969 532.272L685.883 529.112L673.39 469.299ZM673.39 469.299L656.879 424.956M656.879 424.956L622.343 409.959L631.288 452.643L656.879 424.956ZM307.637 246.561C306.05 247.477 289.921 259.141 282.055 264.858L308.309 269.103L307.637 246.561ZM567.766 135.179L539.836 137.194L519.476 117.2L567.766 135.179ZM773.992 185.444L708.458 227.69L716.89 146.094L773.992 185.444ZM296.748 514.778L257.691 547.911L250.032 488.835L296.748 514.778ZM218.623 558.12L191.166 539.577L222.021 534.992L218.623 558.12ZM298.185 703.562C289.326 706.031 271.133 711.067 269.24 711.454C267.348 711.841 232.421 688.91 215.194 677.396L298.185 703.562ZM798.901 411.828L767.629 449.285L780.245 391.732L798.901 411.828ZM783.952 538.637C782.894 539.247 771.578 552.836 766.053 559.553L738.3 558.82L783.952 538.637ZM649.3 523.776L639.775 553.087L616.098 512.078L649.3 523.776ZM464.784 766.122L454.604 756.125L464.483 721.318L464.784 766.122ZM125.578 467.204L120.402 494.887L112.969 485.067L125.578 467.204Z" stroke="white"/>
<circle cx="142.187" cy="389.471" r="4.5179" fill="white"/>
<circle cx="202.81" cy="389.169" r="4.5179" fill="white"/>
<circle cx="233.673" cy="377.049" r="4.5179" fill="white"/>
<circle cx="249.921" cy="382.752" r="4.5179" fill="white"/>
<circle cx="267.557" cy="316.056" r="4.5179" fill="white"/>
<circle cx="287.889" cy="282.172" r="4.5179" fill="white"/>
<circle cx="308.22" cy="330.739" r="4.5179" fill="white"/>
<circle cx="313.866" cy="444.817" r="4.5179" fill="white"/>
<circle cx="261.91" cy="445.946" r="4.5179" fill="white"/>
<circle cx="235.934" cy="456.111" r="4.5179" fill="white"/>
<circle cx="313.866" cy="294.597" r="4.5179" fill="white"/>
<circle cx="281.113" cy="265.229" r="4.5179" fill="white"/>
<circle cx="308.22" cy="244.899" r="4.5179" fill="white"/>
<circle cx="308.22" cy="269.748" r="4.5179" fill="white"/>
<circle cx="303.701" cy="227.957" r="4.5179" fill="white"/>
<circle cx="392.929" cy="171.484" r="4.5179" fill="white"/>
<circle cx="362.434" cy="208.757" r="4.5179" fill="white"/>
<circle cx="388.412" cy="262.97" r="4.5179" fill="white"/>
<circle cx="427.944" cy="176.002" r="4.5179" fill="white"/>
<circle cx="500.23" cy="166.965" r="4.5179" fill="white"/>
<circle cx="523.95" cy="212.145" r="4.5179" fill="white"/>
<circle cx="509.267" cy="248.288" r="4.5179" fill="white"/>
<circle cx="592.847" cy="221.179" r="4.5179" fill="white"/>
<circle cx="573.647" cy="266.358" r="4.5179" fill="white"/>
<circle cx="575.905" cy="186.167" r="4.5179" fill="white"/>
<circle cx="612.048" cy="190.685" r="4.5179" fill="white"/>
<circle cx="638.026" cy="156.8" r="4.5179" fill="white"/>
<circle cx="640.285" cy="209.886" r="4.5179" fill="white"/>
<circle cx="658.357" cy="192.944" r="4.5179" fill="white"/>
<circle cx="619.954" cy="216.661" r="4.5179" fill="white"/>
<circle cx="679.817" cy="275.395" r="4.5179" fill="white"/>
<circle cx="683.203" cy="248.288" r="4.5179" fill="white"/>
<circle cx="709.183" cy="226.827" r="4.5179" fill="white"/>
<circle cx="715.962" cy="145.505" r="4.5179" fill="white"/>
<circle cx="773.268" cy="184.491" r="4.5179" fill="white"/>
<circle cx="817.613" cy="222.418" r="4.5179" fill="white"/>
<circle cx="727.955" cy="195.594" r="4.5179" fill="white"/>
<circle cx="674.17" cy="313.797" r="4.5179" fill="white"/>
<circle cx="642.544" cy="300.243" r="4.5179" fill="white"/>
<circle cx="621.085" cy="295.725" r="4.5179" fill="white"/>
<circle cx="618.824" cy="338.645" r="4.5179" fill="white"/>
<circle cx="693.371" cy="388.343" r="4.5179" fill="white"/>
<circle cx="621.388" cy="410.44" r="4.5179" fill="white"/>
<circle cx="631.77" cy="451.969" r="4.5179" fill="white"/>
<circle cx="655.996" cy="424.283" r="4.5179" fill="white"/>
<circle cx="581.012" cy="410.439" r="4.5179" fill="white"/>
<circle cx="726.548" cy="326.576" r="4.5179" fill="white"/>
<circle cx="748.844" cy="322.775" r="4.5179" fill="white"/>
<circle cx="740.599" cy="396.561" r="4.5179" fill="white"/>
<circle cx="779.852" cy="391.87" r="4.5179" fill="white"/>
<circle cx="799.355" cy="412.288" r="4.5179" fill="white"/>
<circle cx="767.488" cy="450.222" r="4.5179" fill="white"/>
<circle cx="833.655" cy="442.315" r="4.5179" fill="white"/>
<circle cx="742.511" cy="431.594" r="4.5179" fill="white"/>
<circle cx="732.306" cy="479.452" r="4.5179" fill="white"/>
<circle cx="754.234" cy="491.619" r="4.5179" fill="white"/>
<circle cx="784.805" cy="538.016" r="4.5179" fill="white"/>
<circle cx="738.323" cy="558.36" r="4.5179" fill="white"/>
<circle cx="592.586" cy="642.889" r="4.5179" fill="white"/>
<circle cx="559.443" cy="632.063" r="4.5179" fill="white"/>
<circle cx="471.549" cy="667.593" r="4.5179" fill="white"/>
<circle cx="392.303" cy="632.7" r="4.5179" fill="white"/>
<circle cx="404.318" cy="742.741" r="4.5179" fill="white"/>
<circle cx="374.686" cy="704.194" r="4.5179" fill="white"/>
<circle cx="464.391" cy="721.912" r="4.5179" fill="white"/>
<circle cx="454.821" cy="756.043" r="4.5179" fill="white"/>
<circle cx="465.401" cy="768.428" r="4.5179" fill="white"/>
<circle cx="766.895" cy="559.495" r="4.5179" fill="white"/>
<circle cx="712.572" cy="347.682" r="4.5179" fill="white"/>
<circle cx="712.572" cy="448.205" r="4.5179" fill="white"/>
<circle cx="695.63" cy="477.572" r="4.5179" fill="white"/>
<circle cx="673.04" cy="468.535" r="4.5179" fill="white"/>
<circle cx="686.594" cy="528.397" r="4.5179" fill="white"/>
<circle cx="656.097" cy="532.916" r="4.5179" fill="white"/>
<circle cx="652.71" cy="494.513" r="4.5179" fill="white"/>
<circle cx="612.049" cy="549.858" r="4.5179" fill="white"/>
<circle cx="569.128" cy="479.831" r="4.5179" fill="white"/>
<circle cx="616.565" cy="512.585" r="4.5179" fill="white"/>
<circle cx="649.321" cy="523.88" r="4.5179" fill="white"/>
<circle cx="640.285" cy="554.376" r="4.5179" fill="white"/>
<circle cx="496.843" cy="541.952" r="4.5179" fill="white"/>
<circle cx="668.523" cy="554.376" r="4.5179" fill="white"/>
<circle cx="679.816" cy="590.518" r="4.5179" fill="white"/>
<circle cx="640.285" cy="598.425" r="4.5179" fill="white"/>
<circle cx="621.085" cy="592.777" r="4.5179" fill="white"/>
<circle cx="561.221" cy="600.683" r="4.5179" fill="white"/>
<circle cx="499.1" cy="600.683" r="4.5179" fill="white"/>
<circle cx="389.541" cy="573.577" r="4.5179" fill="white"/>
<circle cx="368.082" cy="506.937" r="4.5179" fill="white"/>
<circle cx="329.68" cy="555.505" r="4.5179" fill="white"/>
<circle cx="362.976" cy="410.439" r="4.5179" fill="white"/>
<circle cx="436.809" cy="507.343" r="4.5179" fill="white"/>
<circle cx="499.104" cy="475.043" r="4.5179" fill="white"/>
<circle cx="508.334" cy="312.382" r="4.5179" fill="white"/>
<circle cx="382.588" cy="365.448" r="4.5179" fill="white"/>
<circle cx="377.974" cy="327.377" r="4.5179" fill="white"/>
<circle cx="333.069" cy="599.554" r="4.5179" fill="white"/>
<circle cx="351.577" cy="625.055" r="4.5179" fill="white"/>
<circle cx="277.841" cy="607.705" r="4.5179" fill="white"/>
<circle cx="284.738" cy="627.356" r="4.5179" fill="white"/>
<circle cx="271.542" cy="735.859" r="4.5179" fill="white"/>
<circle cx="298.338" cy="703.082" r="4.5179" fill="white"/>
<circle cx="215.679" cy="677.697" r="4.5179" fill="white"/>
<circle cx="268.594" cy="711.186" r="4.5179" fill="white"/>
<circle cx="303.701" cy="588.259" r="4.5179" fill="white"/>
<circle cx="294.665" cy="560.022" r="4.5179" fill="white"/>
<circle cx="276.594" cy="560.024" r="4.5179" fill="white"/>
<circle cx="295.796" cy="514.843" r="4.5179" fill="white"/>
<circle cx="250.615" cy="488.866" r="4.5179" fill="white"/>
<circle cx="258.522" cy="547.6" r="4.5179" fill="white"/>
<circle cx="222.378" cy="535.175" r="4.5179" fill="white"/>
<circle cx="190.753" cy="539.692" r="4.5179" fill="white"/>
<circle cx="218.991" cy="558.894" r="4.5179" fill="white"/>
<circle cx="190.754" cy="590.518" r="4.5179" fill="white"/>
<circle cx="137.873" cy="635.807" r="4.5179" fill="white"/>
<circle cx="120.726" cy="496.772" r="4.5179" fill="white"/>
<circle cx="112.82" cy="484.348" r="4.5179" fill="white"/>
<circle cx="125.243" cy="466.277" r="4.5179" fill="white"/>
<circle cx="628.992" cy="136.469" r="4.5179" fill="white"/>
<circle cx="661.087" cy="73.9095" r="4.5179" fill="white"/>
<circle cx="535.242" cy="174.871" r="4.5179" fill="white"/>
<circle cx="537.502" cy="157.93" r="4.5179" fill="white"/>
<circle cx="539.763" cy="136.469" r="4.5179" fill="white"/>
<circle cx="519.432" cy="117.267" r="4.5179" fill="white"/>
<circle cx="566.869" cy="134.211" r="4.5179" fill="white"/>
<circle cx="462.958" cy="208.757" r="4.5179" fill="white"/>
<circle cx="383.894" cy="223.439" r="4.5179" fill="white"/>
<circle cx="328.55" cy="235.864" r="4.5179" fill="white"/>
</svg>
