<svg width="1024" height="460" viewBox="0 0 1024 460" fill="none" xmlns="http://www.w3.org/2000/svg">
<g clip-path="url(#clip0)">
<path d="M709.345 546.569L718.169 555.235L717.908 516.397L709.345 546.569Z" fill="white"/>
<path fill-rule="evenodd" clip-rule="evenodd" d="M554.566 494.955L573.755 501.006C568.321 502.52 558.836 505.149 553.172 506.675C550.832 507.306 549.144 507.749 548.665 507.847C547.024 508.182 516.748 488.305 501.815 478.324L554.566 494.955Z" fill="white"/>
<path d="M1023.13 84.076L963.808 66.318M907.065 106.746L871.194 72.413M907.065 106.746L904.628 130.323M907.065 106.746L930.385 78.9111M871.194 72.413L884.684 60.0382M871.194 72.413L904.628 130.323M904.628 130.323L933.897 192.93M904.628 130.323L945.795 173.829M904.628 130.323L899.528 163.846M904.628 130.323L852.586 78.5694M933.897 192.93L945.795 173.829M933.897 192.93L915.832 227.824M933.897 192.93L899.528 163.846M933.897 192.93L933.475 279.561M945.795 173.829L962.862 171.621M945.795 173.829L957.4 233.639M915.832 227.824L852.173 185.071M915.832 227.824L899.528 163.846M915.832 227.824L871.805 151.567M915.832 227.824L933.475 279.561M852.173 185.071L871.805 151.567M852.173 185.071L819.501 246.5M852.173 185.071L757.319 162M871.805 151.567L853.81 148.195M871.805 151.567L852.586 78.5694M871.805 151.567L899.528 163.846M899.528 163.846L852.586 78.5694M852.586 78.5694L846.732 55.1926M852.586 78.5694L814.537 52.3751M846.732 55.1926L868.107 26.0329L859.896 7.83932L887.898 -44.2583M846.732 55.1926L814.537 52.3751M846.732 55.1926L780.855 29.775M814.537 52.3751L779.273 42.9198M814.537 52.3751L780.855 29.775M779.273 42.9198L780.855 29.775M779.273 42.9198L770.225 74.9004M779.273 42.9198L748.046 36.4852M780.855 29.775L748.046 36.4852M770.225 74.9004L716.927 71.2705M770.225 74.9004L748.046 36.4852M716.927 71.2705L651.304 119.096L639.115 93.7203M716.927 71.2705L628.592 71.8149M716.927 71.2705L748.046 36.4852M716.927 71.2705L687.983 43.6411M628.592 71.8149C647.243 63.0854 685.232 45.2295 687.983 43.6411M628.592 71.8149L654.884 40.5811M628.592 71.8149L578.678 89.9302L654.884 40.5811M628.592 71.8149L636.214 87.6808M748.046 36.4852L687.983 43.6411M687.983 43.6411L654.884 40.5811M587.392 146.057L599.143 94.9331L636.214 87.6808M587.392 146.057C588.271 146.057 623.831 164.352 641.501 173.5M587.392 146.057L639.115 93.7203M757.319 106.815L812.805 122.178L828.884 83.8445L757.319 106.815ZM757.319 106.815L757.319 162M757.319 106.815L714.001 222.662L757.319 162M565.425 135.806L582.114 176.626M582.114 176.626L547.577 164.458M582.114 176.626L588.49 277.679L541.699 278.701M582.114 176.626L541.699 278.701M582.114 176.626L531.508 222.662M547.577 164.458L531.508 222.662M547.577 164.458L517.525 216.975M531.508 222.662L517.525 216.975M531.508 222.662L541.699 278.701M531.508 222.662L519.652 286.843M517.525 216.975L490.981 229.242M517.525 216.975L519.652 286.843M541.699 278.701L519.652 286.843M541.699 278.701L601.324 372.71M541.699 278.701L556.948 328.719M601.324 372.71L571.624 376.861M601.324 372.71L634.381 330.69M601.324 372.71L603.967 411.702M601.324 372.71L656.637 439.393M601.324 372.71L652.71 388.911M571.624 376.861L555.284 376.356M571.624 376.861L579.287 400.723M571.624 376.861L603.967 411.702M571.624 376.861L562.239 346.074M634.381 330.69L652.71 388.911M634.381 330.69L692.501 330.69M634.381 330.69L629.001 246.5M652.71 388.911L745.928 361.084M652.71 388.911L656.637 439.393M652.71 388.911L704.93 443.619M652.71 388.911L748.135 412.559M745.928 361.084L808.813 307.194M745.928 361.084C778.586 363.38 844.132 367.838 845.049 367.309M745.928 361.084C746.825 377.64 748.522 411.112 748.135 412.559M745.928 361.084C765.284 378.049 803.61 411.983 802.071 411.999M745.928 361.084L748.135 302L714.001 228.809M808.813 307.194L880.462 320.106L865.104 340.577M808.813 307.194L845.049 367.309M845.049 367.309L858.005 350.039M748.135 412.559L802.071 411.999M748.135 412.559L704.93 443.619M748.135 412.559L798.997 439.766M802.071 411.999C820.283 409.128 856.316 403.767 854.747 405.285C853.177 406.803 816.926 428.904 798.997 439.766M798.997 439.766L704.93 443.619M704.93 443.619L656.637 439.393M704.93 443.619C705.725 444.995 717.162 461.276 722.781 469.244L656.637 439.393M656.637 439.393L620.405 433.555M656.637 439.393L603.967 411.702M656.637 439.393L639.599 501.215L665.37 535.263M620.405 433.555L579.287 400.723M620.405 433.555L603.967 411.702M579.287 400.723L555.284 376.356M579.287 400.723L603.967 411.702M579.287 400.723L557.531 418.635L561.553 436.189L554.566 494.955M555.284 376.356L506.219 418.445L481.846 402.702L435.647 443.136M550.329 530.585L553.172 506.675M933.475 279.561L918.404 305.08L949.364 307.082M933.475 279.561L958.121 265.331M933.475 279.561L949.364 307.082M949.364 307.082L958.121 265.331M949.364 307.082L967.142 316.695M958.121 265.331L983.399 268.209M1036.65 274.272L990.36 269.002M904.646 401.704L830.312 447.678L869.876 410.311L870.135 409.918M904.646 401.704L895.15 372.02L870.135 409.918M904.646 401.704L870.135 409.918M898.996 297.938L883.895 352.526L909.825 349.786L898.996 297.938ZM898.996 297.938L884.684 259.5M714.001 228.809L629.001 246.5M714.001 228.809L692.501 330.69M714.001 228.809L647.209 207.5L641.501 173.5M714.001 228.809L641.501 173.5M714.001 228.809L819.501 246.5M692.501 330.69L629.001 246.5M757.319 162L819.501 246.5M884.684 259.5L854.747 246.5L862.501 283.5L884.684 259.5ZM930.385 78.9111L936.703 17.7728L986.201 51.8827L963.808 66.318M930.385 78.9111L929.394 88.5029L963.808 66.318M930.385 78.9111L945.522 60.8438L963.808 66.318M983.399 268.209L991.622 230.7L1007.79 248.12L990.36 269.002M983.399 268.209L980.686 280.589L990.36 269.002M983.399 268.209L990.36 269.002M865.104 340.577L878.114 345.16L869.857 370.569L858.005 350.039M865.104 340.577L858.005 350.039M865.104 340.577L849.333 335.02L858.005 350.039M554.566 494.955L573.755 501.006C568.321 502.52 558.836 505.149 553.172 506.675M554.566 494.955L501.815 478.324C516.748 488.304 547.024 508.182 548.665 507.847C549.144 507.749 550.832 507.306 553.172 506.675M554.566 494.955L553.172 506.675M562.239 346.074L538.653 366.082L532.014 314.872L556.948 328.719M562.239 346.074L556.948 328.719M562.239 346.074L572.51 337.361L556.948 328.719M636.214 87.6808L647.209 85.5296L639.115 93.7203M636.214 87.6808L639.115 93.7203M581.948 104.861C580.573 105.655 566.591 115.765 559.773 120.722L582.531 124.401L581.948 104.861ZM807.438 8.31138L783.227 10.0578L765.578 -7.27403L807.438 8.31138ZM504.788 374.932L480.987 358.858L507.733 354.883L504.788 374.932ZM994.835 358.042C993.918 358.572 984.109 370.351 979.32 376.174L955.262 375.538L994.835 358.042ZM718.169 555.235L709.345 546.569L717.908 516.397L718.169 555.235ZM424.133 296.122L419.646 320.118L413.203 311.606L424.133 296.122Z" stroke="white"/>
<circle cx="491.08" cy="228.479" r="3.91628" fill="white"/>
<circle cx="517.834" cy="217.971" r="3.91628" fill="white"/>
<circle cx="531.918" cy="222.917" r="3.91628" fill="white"/>
<circle cx="547.205" cy="165.102" r="3.91628" fill="white"/>
<circle cx="564.829" cy="135.73" r="3.91628" fill="white"/>
<circle cx="582.452" cy="177.829" r="3.91628" fill="white"/>
<circle cx="587.347" cy="276.716" r="3.91628" fill="white"/>
<circle cx="542.31" cy="277.695" r="3.91628" fill="white"/>
<circle cx="519.792" cy="286.506" r="3.91628" fill="white"/>
<circle cx="587.347" cy="146.5" r="3.91628" fill="white"/>
<circle cx="558.955" cy="121.043" r="3.91628" fill="white"/>
<circle cx="582.452" cy="103.42" r="3.91628" fill="white"/>
<circle cx="582.453" cy="124.96" r="3.91628" fill="white"/>
<circle cx="578.536" cy="88.7344" r="3.91628" fill="white"/>
<circle cx="655.882" cy="39.7808" r="3.91628" fill="white"/>
<circle cx="629.447" cy="72.0901" r="3.91628" fill="white"/>
<circle cx="651.966" cy="119.085" r="3.91628" fill="white"/>
<circle cx="686.234" cy="43.6975" r="3.91628" fill="white"/>
<circle cx="748.894" cy="35.8648" r="3.91628" fill="white"/>
<circle cx="769.455" cy="75.0274" r="3.91628" fill="white"/>
<circle cx="756.726" cy="106.358" r="3.91628" fill="white"/>
<circle cx="829.178" cy="82.8601" r="3.91628" fill="white"/>
<circle cx="812.534" cy="122.023" r="3.91628" fill="white"/>
<circle cx="814.491" cy="52.5086" r="3.91628" fill="white"/>
<circle cx="845.822" cy="56.4251" r="3.91628" fill="white"/>
<circle cx="868.341" cy="27.053" r="3.91628" fill="white"/>
<circle cx="870.299" cy="73.0691" r="3.91628" fill="white"/>
<circle cx="885.965" cy="58.3831" r="3.91628" fill="white"/>
<circle cx="852.675" cy="78.9436" r="3.91628" fill="white"/>
<circle cx="904.566" cy="129.855" r="3.91628" fill="white"/>
<circle cx="907.503" cy="106.358" r="3.91628" fill="white"/>
<circle cx="930.022" cy="87.7549" r="3.91628" fill="white"/>
<circle cx="935.896" cy="17.2622" r="3.91628" fill="white"/>
<circle cx="985.573" cy="51.0567" r="3.91628" fill="white"/>
<circle cx="1024.01" cy="83.9324" r="3.91628" fill="white"/>
<circle cx="946.295" cy="60.6812" r="3.91628" fill="white"/>
<circle cx="899.671" cy="163.144" r="3.91628" fill="white"/>
<circle cx="872.256" cy="151.394" r="3.91628" fill="white"/>
<circle cx="853.655" cy="147.479" r="3.91628" fill="white"/>
<circle cx="851.696" cy="184.683" r="3.91628" fill="white"/>
<circle cx="916.316" cy="227.762" r="3.91628" fill="white"/>
<circle cx="853.918" cy="246.917" r="3.91628" fill="white"/>
<circle cx="862.918" cy="282.917" r="3.91628" fill="white"/>
<circle cx="883.918" cy="258.917" r="3.91628" fill="white"/>
<circle cx="818.918" cy="246.917" r="3.91628" fill="white"/>
<circle cx="945.073" cy="174.221" r="3.91628" fill="white"/>
<circle cx="964.401" cy="170.925" r="3.91628" fill="white"/>
<circle cx="957.254" cy="234.886" r="3.91628" fill="white"/>
<circle cx="991.28" cy="230.819" r="3.91628" fill="white"/>
<circle cx="1008.19" cy="248.52" r="3.91628" fill="white"/>
<circle cx="980.562" cy="281.402" r="3.91628" fill="white"/>
<circle cx="958.911" cy="265.255" r="3.91628" fill="white"/>
<circle cx="950.065" cy="306.74" r="3.91628" fill="white"/>
<circle cx="969.074" cy="317.286" r="3.91628" fill="white"/>
<circle cx="995.573" cy="357.505" r="3.91628" fill="white"/>
<circle cx="955.281" cy="375.139" r="3.91628" fill="white"/>
<circle cx="828.951" cy="448.413" r="3.91628" fill="white"/>
<circle cx="800.221" cy="439.028" r="3.91628" fill="white"/>
<circle cx="655.34" cy="439.58" r="3.91628" fill="white"/>
<circle cx="980.049" cy="376.123" r="3.91628" fill="white"/>
<circle cx="932.959" cy="192.516" r="3.91628" fill="white"/>
<circle cx="932.959" cy="279.653" r="3.91628" fill="white"/>
<circle cx="918.273" cy="305.109" r="3.91628" fill="white"/>
<circle cx="898.692" cy="297.276" r="3.91628" fill="white"/>
<circle cx="910.441" cy="349.167" r="3.91628" fill="white"/>
<circle cx="884.006" cy="353.084" r="3.91628" fill="white"/>
<circle cx="881.069" cy="319.795" r="3.91628" fill="white"/>
<circle cx="845.823" cy="367.769" r="3.91628" fill="white"/>
<circle cx="808.617" cy="307.067" r="3.91628" fill="white"/>
<circle cx="849.738" cy="335.46" r="3.91628" fill="white"/>
<circle cx="878.132" cy="345.251" r="3.91628" fill="white"/>
<circle cx="870.299" cy="371.685" r="3.91628" fill="white"/>
<circle cx="745.957" cy="360.916" r="3.91628" fill="white"/>
<circle cx="894.776" cy="371.685" r="3.91628" fill="white"/>
<circle cx="904.566" cy="403.016" r="3.91628" fill="white"/>
<circle cx="870.299" cy="409.869" r="3.91628" fill="white"/>
<circle cx="853.655" cy="404.973" r="3.91628" fill="white"/>
<circle cx="801.763" cy="411.827" r="3.91628" fill="white"/>
<circle cx="747.915" cy="411.827" r="3.91628" fill="white"/>
<circle cx="652.946" cy="388.329" r="3.91628" fill="white"/>
<circle cx="705.917" cy="442.916" r="3.91628" fill="white"/>
<circle cx="634.343" cy="330.564" r="3.91628" fill="white"/>
<circle cx="601.055" cy="372.665" r="3.91628" fill="white"/>
<circle cx="629.918" cy="246.917" r="3.91628" fill="white"/>
<circle cx="693.918" cy="330.917" r="3.91628" fill="white"/>
<circle cx="747.918" cy="302.917" r="3.91628" fill="white"/>
<circle cx="755.918" cy="161.917" r="3.91628" fill="white"/>
<circle cx="646.918" cy="207.917" r="3.91628" fill="white"/>
<circle cx="642.918" cy="174.917" r="3.91628" fill="white"/>
<circle cx="603.992" cy="410.848" r="3.91628" fill="white"/>
<circle cx="620.036" cy="432.953" r="3.91628" fill="white"/>
<circle cx="556.119" cy="417.913" r="3.91628" fill="white"/>
<circle cx="562.098" cy="434.947" r="3.91628" fill="white"/>
<circle cx="578.535" cy="401.058" r="3.91628" fill="white"/>
<circle cx="570.703" cy="376.581" r="3.91628" fill="white"/>
<circle cx="555.038" cy="376.581" r="3.91628" fill="white"/>
<circle cx="571.683" cy="337.418" r="3.91628" fill="white"/>
<circle cx="532.519" cy="314.899" r="3.91628" fill="white"/>
<circle cx="539.373" cy="365.811" r="3.91628" fill="white"/>
<circle cx="508.042" cy="355.041" r="3.91628" fill="white"/>
<circle cx="480.629" cy="358.958" r="3.91628" fill="white"/>
<circle cx="505.106" cy="375.602" r="3.91628" fill="white"/>
<circle cx="505.106" cy="416.916" r="3.91628" fill="white"/>
<circle cx="480.629" cy="403.016" r="3.91628" fill="white"/>
<circle cx="434.79" cy="442.273" r="3.91628" fill="white"/>
<circle cx="419.927" cy="321.753" r="3.91628" fill="white"/>
<circle cx="413.073" cy="310.983" r="3.91628" fill="white"/>
<circle cx="423.842" cy="295.318" r="3.91628" fill="white"/>
<circle cx="860.509" cy="9.42946" r="3.91628" fill="white"/>
<circle cx="779.245" cy="42.718" r="3.91628" fill="white"/>
<circle cx="781.203" cy="28.0322" r="3.91628" fill="white"/>
<circle cx="783.162" cy="9.42922" r="3.91628" fill="white"/>
<circle cx="806.659" cy="7.47194" r="3.91628" fill="white"/>
<circle cx="716.585" cy="72.0901" r="3.91628" fill="white"/>
<circle cx="648.05" cy="84.8179" r="3.91628" fill="white"/>
<circle cx="600.076" cy="95.5877" r="3.91628" fill="white"/>
<circle cx="852.503" cy="185.628" r="18.0092" fill="white"/>
<path d="M859.542 180.668C859.155 180.168 858.727 179.695 858.263 179.267L851.498 184.492L853.688 187.328L857.562 184.336C858.108 185.375 858.216 186.583 857.857 187.681L859.278 189.521L861.589 187.736C861.956 185.405 861.273 182.909 859.542 180.668Z" fill="#338FBF"/>
<path d="M858.211 193.184C860.145 191.69 861.273 189.778 861.592 187.734L857.86 187.679C857.564 188.625 856.93 189.521 855.963 190.267C854.092 191.713 851.504 191.642 849.589 190.339L847.204 192.181L848.669 194.078C851.807 195.624 855.499 195.278 858.211 193.184Z" fill="#338FBF"/>
<path d="M849.586 190.341C848.579 189.658 847.814 188.668 847.408 187.521L845.943 185.624L843.561 187.464C844.151 190.331 846.045 192.782 848.669 194.078L849.586 190.341Z" fill="#338FBF"/>
<path d="M849.087 181.369C850.097 180.563 851.39 180.195 852.691 180.349L853.114 176.665C850.852 176.416 848.6 177.058 846.836 178.455C844.124 180.549 842.856 184.034 843.562 187.464L847.409 187.521C846.628 185.338 847.216 182.815 849.087 181.369Z" fill="#338FBF"/>
<circle cx="758.528" cy="105.528" r="12.5281" transform="rotate(-56.489 758.528 105.528)" fill="white"/>
<path d="M761.402 98.5815C761.173 99.0434 760.876 99.4738 760.518 99.8659C760.725 99.2747 760.719 98.6307 760.479 98.0523C760.286 98.6032 759.996 99.1231 759.62 99.5975C758.933 99.533 758.213 99.7446 757.647 100.23C756.547 101.172 756.404 102.796 757.313 103.858C757.444 104.011 757.583 104.146 757.736 104.258C756.018 105.594 753.899 106.077 751.916 105.748C751.992 106.183 752.174 106.599 752.478 106.955C753.05 107.622 753.911 107.911 754.733 107.801C754.408 108.069 754.018 108.247 753.632 108.332C753.637 108.338 753.644 108.346 753.65 108.354C754.452 109.29 755.807 109.479 756.863 108.885C756.738 109.066 756.58 109.237 756.397 109.394C756.27 109.503 756.135 109.606 755.993 109.683C756.904 110.226 758.115 110.162 758.998 109.436C758.762 110.528 758.169 111.572 757.24 112.368C757.078 112.507 756.915 112.634 756.742 112.748C758.094 112.545 759.406 111.967 760.53 111.004C764.184 107.874 763.665 103.224 761.484 100.678C761.411 100.592 761.338 100.513 761.263 100.435C761.425 99.8256 761.466 99.2029 761.402 98.5815Z" fill="#338FBF"/>
<circle cx="899.485" cy="297.598" r="14.0941" fill="white"/>
<path d="M904.456 304.273L904.456 304.272L904.459 304.273L905.68 299.467C906.277 297.116 906.231 295.176 903.482 294.478C902.161 294.142 901.09 294.642 900.553 295.238L900.515 295.228L900.818 294.035L898.212 293.373L895.99 302.122L898.704 302.811L899.804 298.479C900.093 297.338 900.59 296.29 902.002 296.649C903.394 297.003 903.084 298.31 902.827 299.325L901.745 303.584L904.456 304.273Z" fill="#338FBF"/>
<path d="M893.792 292.252L896.509 292.942L894.287 301.691L891.57 301.001L893.792 292.252Z" fill="#338FBF"/>
<path d="M896.256 288.24C895.387 288.02 894.503 288.546 894.282 289.414C894.062 290.283 894.584 291.182 895.453 291.403C896.321 291.623 897.209 291.083 897.43 290.214C897.65 289.345 897.124 288.461 896.256 288.24V288.24Z" fill="#338FBF"/>
<circle cx="807.124" cy="304.68" r="17.2945" transform="rotate(-23.4066 807.124 304.68)" fill="white"/>
<path d="M800.325 296.013C798.729 297.329 798.839 298.935 798.286 303.714C797.828 307.682 796.676 311.579 800.191 312.935C801.289 313.356 811.314 314.515 812.478 314.353C814.031 314.139 815.4 313.057 815.815 310.942C815.872 310.647 816.99 300.98 817.001 300.673C817.085 298.38 815.838 296.908 814.025 296.43C813.609 296.32 813.527 296.292 811.359 296.037C803.67 295.152 802.024 294.615 800.325 296.013Z" fill="#338FBF"/>
<path d="M808.128 298.068C805.384 297.751 802.806 297.206 801.515 299.645C800.982 300.653 800.884 302.03 800.657 303.992C800.458 305.714 800.216 307.326 800.501 308.42C801.199 311.091 803.855 311.149 806.579 311.464C809.206 311.768 811.884 312.355 813.191 309.886C813.726 308.868 813.821 307.511 814.049 305.54C814.352 302.924 814.691 301.251 813.569 299.836C812.433 298.403 810.676 298.363 808.125 298.068L808.128 298.068ZM807.389 299.206C813.114 299.859 813.917 299.306 812.493 308.101C811.988 311.211 809.647 310.593 806.721 310.254C801.385 309.638 801.249 309.467 801.866 304.129C802.49 298.729 802.923 298.693 807.389 299.204L807.389 299.206ZM811.435 300.8C810.992 300.749 810.59 301.067 810.539 301.511C810.488 301.955 810.806 302.356 811.25 302.407C811.693 302.459 812.095 302.14 812.146 301.697C812.197 301.253 811.879 300.852 811.435 300.8ZM807.752 301.327C805.852 301.107 804.135 302.469 803.915 304.369C803.696 306.268 805.057 307.986 806.957 308.205C808.856 308.425 810.573 307.063 810.792 305.164C811.012 303.264 809.651 301.546 807.752 301.327ZM807.612 302.534C810.564 302.875 810.051 307.341 807.096 306.999C804.145 306.658 804.657 302.192 807.612 302.534Z" fill="white"/>
<circle cx="715.827" cy="220.5" r="53.5099" transform="rotate(-6.02054 715.827 220.5)" fill="white"/>
<path d="M697.895 192.502C700.06 191.794 702.261 191.192 704.488 190.698C706.798 190.165 709.139 189.773 711.497 189.525C714.041 189.22 716.607 189.159 719.16 189.343C721.44 189.53 723.664 190.111 725.725 191.06C727.608 191.998 729.224 193.365 730.435 195.044C731.77 197.033 732.561 199.32 732.732 201.691L735.712 229.948C733.41 230.817 730.575 231.839 727.34 232.854C723.869 233.971 720.285 234.721 716.652 235.09C714.278 235.326 711.886 235.319 709.517 235.071C707.355 234.931 705.258 234.311 703.39 233.26C701.577 232.346 700.054 230.976 698.982 229.293C697.754 227.261 697.157 225.239 696.882 222.624C696.606 220.009 696.733 218.215 697.545 216.146C698.344 214.374 699.586 212.819 701.158 211.622C702.878 210.379 704.801 209.427 706.847 208.806C712.14 207.25 718.149 206.597 723.669 207.032L723.242 202.981C723.106 201.698 722.913 200.577 722.267 199.54C721.621 198.503 720.691 197.661 719.579 197.104C717.058 196.275 714.367 196.031 711.723 196.391C709.522 196.61 707.345 197.017 705.217 197.607C702.988 198.228 701.05 198.769 699.314 199.338L697.895 192.502ZM724.382 213.798C723.075 213.695 722.115 213.595 720.025 213.631C716.22 213.848 713.98 214.124 711.225 214.848C710.136 215.117 709.103 215.568 708.173 216.182C707.273 216.765 706.592 217.615 706.234 218.603C705.733 219.811 705.656 221.166 705.787 222.408C705.918 223.65 706.08 224.64 706.684 225.599C707.288 226.558 708.161 227.331 709.202 227.829C711.337 228.76 713.313 229.034 716.033 228.747C717.668 228.574 719.618 228.269 721.375 227.846L725.581 226.584L724.382 213.798Z" fill="#338FBF"/>
<path fill-rule="evenodd" clip-rule="evenodd" d="M702.142 244.717C699.741 244.97 698 247.122 698.254 249.523C698.507 251.923 700.658 253.664 703.059 253.411L734.937 250.049C737.338 249.796 739.079 247.644 738.825 245.244C738.572 242.843 736.421 241.102 734.02 241.355L702.142 244.717Z" fill="#338FBF"/>
<path d="M699.702 249.369C699.533 247.769 700.65 246.339 702.196 246.176L727.39 243.519L728.001 249.315L702.807 251.972C701.261 252.135 699.871 250.97 699.702 249.369Z" fill="white"/>
<circle cx="655.206" cy="439.206" r="13.0092" transform="rotate(-16.7496 655.206 439.206)" fill="white"/>
<path d="M657.833 438.786C658.195 439.991 657.51 441.266 656.305 441.628C655.101 441.991 653.826 441.306 653.463 440.101C653.101 438.897 653.786 437.622 654.991 437.259C656.195 436.897 657.47 437.582 657.833 438.786ZM653.462 432.181C649.457 433.386 647.18 437.625 648.385 441.63C649.59 445.635 653.829 447.912 657.834 446.707C659.301 446.265 660.584 445.403 661.545 444.212L661.561 444.192L660.241 443.349L660.227 443.364C659.477 444.244 658.494 444.884 657.386 445.218C654.202 446.176 650.832 444.365 649.874 441.182C648.916 437.998 650.726 434.628 653.91 433.67C657.094 432.712 660.464 434.522 661.422 437.706C661.546 438.119 661.626 438.55 661.66 438.988C661.703 439.793 661.247 440.18 660.844 440.268C660.438 440.355 659.889 440.213 659.678 439.523L659.519 438.996L659.322 438.338C658.712 436.312 656.568 435.161 654.542 435.77C652.517 436.38 651.365 438.524 651.974 440.549C652.584 442.575 654.728 443.727 656.754 443.117C657.738 442.821 658.545 442.159 659.03 441.25C659.624 441.758 660.402 441.954 661.171 441.788C661.237 441.774 661.304 441.757 661.369 441.738C661.897 441.578 662.367 441.244 662.693 440.797C663.029 440.335 663.211 439.759 663.217 439.131C663.218 439.029 663.207 438.801 663.206 438.8L663.206 438.791C663.173 438.299 663.082 437.826 662.911 437.258C661.706 433.253 657.467 430.975 653.462 432.181Z" fill="#338FBF"/>
<circle cx="589.55" cy="146.55" r="14.0941" transform="rotate(-33.7602 589.55 146.55)" fill="white"/>
<path d="M590.844 145.697L590.206 146.124C589.203 146.794 587.742 146.715 586.523 144.891C585.253 142.991 585.647 141.607 586.574 140.987L587.349 140.469L590.844 145.697ZM587.702 138.826L585.97 139.984C584.267 141.122 583.688 143.379 585.364 145.886C586.369 147.391 587.81 148.033 589.422 147.747L589.9 153.496C589.916 153.683 590.063 153.739 590.184 153.658L591.263 152.936C591.354 152.876 591.395 152.804 591.375 152.708L590.734 147.177L591.494 146.67L594.247 150.788C594.278 150.834 594.364 150.864 594.425 150.823L595.367 150.194C595.458 150.133 595.458 150.067 595.407 149.991L587.971 138.866C587.9 138.76 587.809 138.755 587.702 138.826Z" fill="#338FBF"/>
<circle cx="634.359" cy="329.359" r="10.5118" transform="rotate(-30 634.359 329.359)" fill="white"/>
<path d="M631.759 324.614C630.332 325.438 629.843 327.262 630.667 328.689C631.491 330.116 633.315 330.605 634.742 329.781C636.169 328.957 636.658 327.133 635.834 325.706C635.01 324.279 633.186 323.79 631.759 324.614ZM633.867 328.265C633.277 328.606 632.523 328.404 632.183 327.814C631.842 327.224 632.044 326.47 632.634 326.129C633.224 325.789 633.978 325.991 634.319 326.581C634.659 327.171 634.457 327.925 633.867 328.265Z" fill="#338FBF"/>
<path d="M636.711 331.106C637.599 330.32 637.928 329.497 637.945 329.453C638.104 329.047 637.903 328.59 637.497 328.433C637.091 328.275 636.634 328.476 636.475 328.882C636.472 328.891 636.113 329.755 635.055 330.366C633.996 330.977 633.055 330.864 633.046 330.862C632.615 330.797 632.212 331.092 632.146 331.522C632.079 331.953 632.374 332.355 632.805 332.42C632.852 332.427 633.762 332.553 634.912 332.155L634.338 334.492C634.233 334.914 634.49 335.341 634.913 335.446C635.119 335.497 635.327 335.462 635.497 335.363C635.677 335.26 635.815 335.086 635.869 334.87L636.387 332.673L638.689 333.254C639.11 333.366 639.543 333.116 639.655 332.695C639.768 332.275 639.519 331.843 639.098 331.731L636.711 331.106Z" fill="#338FBF"/>
<path d="M635.056 330.366C635.053 330.368 635.059 330.364 635.056 330.366C635.053 330.368 635.059 330.364 635.056 330.366Z" fill="#338FBF"/>
<circle cx="531.999" cy="315" r="12" transform="rotate(28.4973 531.999 315)" fill="white"/>
<path d="M529.553 318.416L530.258 318.798C530.258 318.798 530.484 318.89 530.656 318.832C530.814 318.779 530.92 318.575 530.92 318.575C530.92 318.575 531.42 317.622 531.934 317.721C532.442 317.819 532.427 319.171 532.796 319.896C533.075 320.443 533.45 320.56 533.45 320.56L535.037 321.393C535.037 321.393 535.889 321.789 535.85 320.93C535.847 320.859 535.882 320.327 535.414 318.939C534.924 317.486 534.976 317.707 537.026 316.767C538.275 316.195 538.885 315.763 538.931 315.461C538.975 315.174 538.408 314.948 538.408 314.948L536.63 313.997C536.63 313.997 536.509 313.908 536.379 313.913C536.253 313.919 536.12 314.018 536.12 314.018C536.12 314.018 535.433 314.613 534.714 315.045C533.196 315.957 532.842 315.856 532.758 315.703C532.563 315.346 532.957 314.801 533.182 314.385C533.888 313.086 534.379 312.651 533.874 312.196C533.706 312.044 533.581 311.937 533.091 311.664C532.462 311.314 531.921 311.032 531.538 311.016C531.283 311.005 531.007 311.141 531.096 311.205C531.204 311.284 531.439 311.484 531.476 311.752C531.524 312.098 531.216 312.65 531.216 312.65C531.216 312.65 530.49 314.236 530.038 314.237C529.728 314.237 529.544 313.793 529.501 312.194C529.479 311.376 529.58 310.539 529.58 310.539C529.58 310.539 529.598 310.382 529.541 310.263C529.473 310.118 529.328 310.005 529.328 310.005L527.638 309.1C527.638 309.1 527.381 308.97 527.228 309.03C527.092 309.083 527.059 309.326 527.059 309.326C527.059 309.326 526.703 313.128 527.351 315.495C527.947 317.665 529.553 318.416 529.553 318.416Z" fill="#338FBF"/>
<circle cx="852" cy="403" r="12" transform="rotate(-21.8413 852 403)" fill="white"/>
<path d="M846.7 409.035C847.384 409.918 848.326 409.752 848.398 409.764C849.983 409.576 858 406.364 859.297 405.396C860.177 404.713 860.01 403.767 860.021 403.696C859.601 401.552 858.585 398.944 857.258 396.852L857.32 396.957C856.637 396.074 855.694 396.24 855.622 396.229C854.059 396.415 846.016 399.622 844.724 400.597C843.844 401.28 844.011 402.225 844 402.296C844.434 404.553 845.376 406.963 846.7 409.035ZM851.457 405.649L849.78 401.466L854.253 402.104L851.457 405.649Z" fill="#338FBF"/>
</g>
<defs>
<clipPath id="clip0">
<rect width="1024" height="460" fill="white"/>
</clipPath>
</defs>
</svg>
