<svg width="199" height="93" viewBox="0 0 199 93" fill="none" xmlns="http://www.w3.org/2000/svg">
<path d="M149.489 47.0209C142.733 47.0209 137.181 41.6579 137.181 34.0184C137.181 26.5332 142.267 21.0158 149.645 21.0158C155.935 21.0158 159.196 25.1442 160.244 26.6876L163.933 23.0221C162.846 21.6332 161.642 20.4371 160.244 19.3567C158.381 17.9677 154.847 16 149.645 16C145.801 16 140.714 16.926 136.56 21.2087C133.182 24.7198 131.629 29.3112 131.629 33.9026C131.629 38.494 133.027 42.9311 136.871 46.7509C139.783 49.6446 143.782 51.8053 149.334 51.8053C156.556 51.8053 160.555 47.8312 162.419 45.2461C162.574 45.0918 162.574 44.9374 162.729 44.7831L159.041 41.1177C157.177 44.7059 153.799 47.0209 149.489 47.0209Z" fill="#338FBF"/>
<path d="M92.2984 21.7868H78.5925V30.0437H85.5037V34.9437H78.5925V46.403H92.2984V51.303H73.2344V16.7324H92.2984V21.7868Z" fill="#338FBF"/>
<path d="M93.9688 51.3037L100.919 16L113.188 40.1145L125.807 16L131.98 51.3037H126.583L123.05 31.1246L112.916 52.0368L103.054 31.1246L99.3657 51.3037H93.9688Z" fill="#338FBF"/>
<path d="M61.7028 16.1553H0.472656V77.0011H61.7028V16.1553Z" fill="#338FBF"/>
<path d="M45.5501 27.3047L46.5984 28.6551L48.1515 28.9638L47.375 29.5811L48.4621 31.1244L46.9091 30.0441L45.9772 30.6614L45.8219 29.2724L44.1523 28.2307L45.6666 28.5008L45.5501 27.3047Z" fill="white"/>
<path d="M51.9954 35.4077L53.2378 37.0668H54.5968L54.1308 38.1471L55.5286 39.9991L53.8202 38.9188L53.2378 39.9991L52.6166 38.1471L50.9082 36.9125L52.306 37.0668L51.9954 35.4077Z" fill="white"/>
<path d="M53.6665 45.9404L55.3749 48.2169L57.0833 47.9468L56.6174 49.9145L58.4422 52.4996L56.1515 51.3035L55.5302 53.5799L54.7537 50.3775L52.4629 48.9885L54.2878 48.5255L53.6665 45.9404Z" fill="white"/>
<path d="M20.3128 21.4785L21.4 23.4849L24.6226 24.1022L21.9824 24.6809L23.0695 26.8416L20.1575 25.1439L17.0902 25.9156L18.2938 24.1022L15.5371 22.2502L19.2257 23.0218L20.3128 21.4785Z" fill="white"/>
<path d="M44.4629 57.2461L46.7537 61.0658L49.5492 59.9855L48.3067 63.8053L50.5975 68.2423L47.2196 66.7376L45.2394 71.5991L44.9288 65.5029L41.2402 63.6895L44.6182 61.9918L44.4629 57.2461Z" fill="white"/>
<path d="M12.0043 32.2051L13.2467 35.2532L17.9836 35.5618L13.9845 37.3752L15.0716 40.8863L10.7618 38.7642L5.24839 41.0406L8.00511 37.2209L3.69531 34.7902L9.71349 35.0988L12.0043 32.2051Z" fill="white"/>
<path d="M21.8666 51.1494L23.6914 55.5865L28.6224 54.5062L24.9339 58.7889L26.7587 63.9591L21.8666 61.837L16.3143 67.6631L18.6051 60.448L13.7129 58.0172L20.0029 56.3196L21.8666 51.1494Z" fill="white"/>
<path d="M34.2899 21.4795L35.377 23.0228L37.2407 23.4858L35.9982 23.9488L37.0854 25.4536L35.0664 24.2575L33.5521 24.6819L33.8239 23.4858L31.8438 22.0968L33.9792 22.7142L34.2899 21.4795Z" fill="white"/>
<path d="M78.1281 64.4229C78.1281 65.1946 77.9728 65.8119 77.5068 66.2749C77.0409 66.7379 76.4197 67.0466 75.6431 67.0466C74.8666 67.0466 74.2454 66.7379 73.7794 66.2749C73.1582 65.6576 73.1582 64.8859 73.1582 63.5355C73.1582 62.1465 73.1582 61.4134 73.7794 60.7961C74.2454 60.3331 74.8666 60.0244 75.6431 60.0244C76.575 60.0244 77.0409 60.3331 77.7786 60.9504L77.3127 61.4134C76.8468 60.9504 76.3808 60.6417 75.7596 60.6417C75.2937 60.6417 74.8278 60.7961 74.5171 61.1048C74.0512 61.5678 74.0512 62.4937 74.0512 63.5355V63.8442C74.0512 65.0788 74.2065 65.5418 74.5171 65.9662C74.8278 66.2749 75.2937 66.4292 75.7596 66.4292C76.2255 66.4292 76.8468 66.2749 77.1574 65.8119C77.468 65.5032 77.6233 65.0402 77.6233 64.5772V64.1142H75.6431V63.3426H78.0892V64.4229H78.1281Z" fill="#338FBF"/>
<path d="M82.1246 63.2268C83.0565 63.2268 83.5224 62.7638 83.5224 61.9922C83.5224 61.2205 83.0565 60.7575 82.1246 60.7575H80.2609V63.3426H82.1246V63.2268ZM83.6777 67.0466L82.1246 63.9985H80.2609V67.0466H79.4844V60.0244H82.0858C83.3282 60.0244 84.2213 60.7961 84.2213 61.9922C84.2213 62.6095 83.9106 63.0725 83.6 63.5355C83.4447 63.6898 83.1341 63.8442 82.8235 63.8442L84.5319 67.0466H83.6777Z" fill="#338FBF"/>
<path d="M89.0768 61.0651C88.7662 60.7565 88.3002 60.6021 87.8343 60.6021C87.3684 60.6021 86.9025 60.7565 86.5918 61.0651C86.1259 61.5281 86.1259 62.4541 86.1259 63.4959C86.1259 64.4219 86.1259 65.3479 86.5918 65.9266C86.9025 66.2353 87.3684 66.3896 87.8343 66.3896C88.3002 66.3896 88.7662 66.2353 89.0768 65.9266C89.698 65.3093 89.5427 64.5376 89.5427 63.4959C89.6592 62.6085 89.6592 61.6825 89.0768 61.0651ZM89.6592 66.4282C89.1932 66.8912 88.572 67.1999 87.7955 67.1999C87.0189 67.1999 86.3977 66.8912 85.9318 66.4282C85.3105 65.8109 85.3105 65.0392 85.3105 63.6888C85.3105 62.7628 85.3105 61.5667 85.9318 60.9494C86.3977 60.4864 87.0189 60.1777 87.7955 60.1777C88.4167 60.1777 89.1932 60.4864 89.6592 60.9494C90.4357 61.7211 90.2804 62.8014 90.2804 63.6888C90.2804 64.8849 90.2804 65.6566 89.6592 66.4282Z" fill="#338FBF"/>
<path d="M96.607 64.7311C96.607 66.1201 95.5199 67.0075 94.1609 67.0075C92.7632 67.0075 91.7148 66.0815 91.7148 64.7311V59.9854H92.4914V64.5768C92.4914 65.6571 93.1126 66.2744 94.1998 66.2744C95.2869 66.2744 95.9082 65.5028 95.9082 64.5768V59.9854H96.6847V64.7311H96.607Z" fill="#338FBF"/>
<path d="M100.762 63.5355C101.694 63.5355 102.315 63.0725 102.315 62.1465C102.315 61.2205 101.694 60.7576 100.762 60.7576H98.8986V63.497L100.762 63.5355ZM100.918 59.9859C102.16 59.9859 103.053 60.7575 103.053 61.9536C103.053 63.1883 102.121 63.9214 100.918 63.9214H99.0539V66.8151H98.2773V59.793H100.879V59.9859H100.918Z" fill="#338FBF"/>
<path d="M109.343 61.0651C109.032 60.7565 108.566 60.6021 108.1 60.6021C107.634 60.6021 107.168 60.7565 106.858 61.0651C106.392 61.6825 106.392 62.4541 106.392 63.4959C106.392 64.4219 106.392 65.3479 106.858 65.9266C107.168 66.2353 107.634 66.3896 108.1 66.3896C108.566 66.3896 109.032 66.2353 109.343 65.9266C109.964 65.3093 109.809 64.5376 109.809 63.4959C109.809 62.6085 109.809 61.6825 109.343 61.0651ZM109.964 66.4282C109.498 66.8912 108.877 67.1999 108.1 67.1999C107.324 67.1999 106.702 66.8912 106.236 66.4282C105.615 65.8109 105.615 65.0392 105.615 63.6888C105.615 62.7628 105.615 61.5667 106.236 60.9494C106.702 60.4864 107.324 60.1777 108.1 60.1777C108.721 60.1777 109.498 60.4864 109.964 60.9494C110.74 61.7211 110.585 62.8014 110.585 63.6888C110.585 64.8849 110.585 65.6566 109.964 66.4282Z" fill="#338FBF"/>
<path d="M112.761 60.7575V63.2268H115.828V63.9599H112.761V67.0466H111.984V59.9858H116.449V60.7575H112.761Z" fill="#338FBF"/>
<path d="M121.496 67.0466C120.719 67.0466 120.098 66.7379 119.632 66.2749C118.855 65.5032 119.011 64.5772 119.011 63.5355C119.011 62.1465 119.011 61.4134 119.632 60.7961C120.098 60.3331 120.719 60.0244 121.496 60.0244C122.427 60.0244 122.893 60.3331 123.476 60.9504L123.01 61.4134C122.544 60.9504 122.233 60.7961 121.612 60.7961C121.146 60.7961 120.68 60.9504 120.37 61.2591C119.904 61.7221 119.904 62.4937 119.904 63.6898V63.9985C119.904 65.2332 120.059 65.6962 120.37 66.1206C120.68 66.4292 121.146 66.5836 121.612 66.5836C122.233 66.5836 122.699 66.2749 123.01 65.9662L123.476 66.4292C122.738 66.7379 122.272 67.0466 121.496 67.0466Z" fill="#338FBF"/>
<path d="M127.979 61.0651C127.669 60.7565 127.203 60.6021 126.737 60.6021C126.271 60.6021 125.805 60.7565 125.494 61.0651C125.028 61.5281 125.028 62.4541 125.028 63.4959C125.028 64.4219 125.028 65.3479 125.494 65.9266C125.805 66.2353 126.271 66.3896 126.737 66.3896C127.203 66.3896 127.669 66.2353 127.979 65.9266C128.601 65.3093 128.445 64.5376 128.445 63.4959C128.445 62.6085 128.445 61.6825 127.979 61.0651ZM128.601 66.4282C128.135 66.8912 127.513 67.1999 126.737 67.1999C125.96 67.1999 125.339 66.8912 124.873 66.4282C124.252 65.8109 124.252 65.0392 124.252 63.6888C124.252 62.7628 124.252 61.5667 124.873 60.9494C125.339 60.4864 125.96 60.1777 126.737 60.1777C127.358 60.1777 128.135 60.4864 128.601 60.9494C129.377 61.7211 129.222 62.8014 129.222 63.6888C129.183 64.8849 129.183 65.6566 128.601 66.4282Z" fill="#338FBF"/>
<path d="M135.979 67.0461V61.683L133.96 65.9658H133.339L131.359 61.683V67.0461H130.582V59.9854H131.359L133.649 65.0398L135.979 59.9854H136.756V67.0461H135.979Z" fill="#338FBF"/>
<path d="M140.871 63.5355C141.803 63.5355 142.424 63.0725 142.424 62.1465C142.424 61.2205 141.803 60.7576 140.871 60.7576H139.007V63.497L140.871 63.5355ZM140.871 59.9859C142.113 59.9859 143.006 60.7575 143.006 61.9536C143.006 63.1883 142.074 63.9214 140.871 63.9214H139.007V66.8151H138.23V59.793H140.832V59.9859H140.871Z" fill="#338FBF"/>
<path d="M145.958 61.0662L144.56 64.7316H147.162L145.958 61.0662ZM147.977 67.0466L147.356 65.5032H144.288L143.667 67.0466H142.891L145.492 60.0244H146.113L148.715 67.0466H147.977Z" fill="#338FBF"/>
<path d="M154.266 67.0461L150.577 61.3743V67.0461H149.801V59.9854H150.422L154.266 65.6571V59.9854H154.887V67.0461H154.266Z" fill="#338FBF"/>
<path d="M157.333 59.9854H156.557V67.0075H157.333V59.9854Z" fill="#338FBF"/>
<path d="M159.041 67.0461V59.9854H163.351V60.757H159.818V63.2263H162.885V63.8051H159.818V66.4288H163.351V67.0461H159.041Z" fill="#338FBF"/>
<path d="M167.507 60.7575C167.196 60.6032 166.886 60.6032 166.575 60.6032C165.643 60.6032 165.022 61.0662 165.022 61.9922C165.022 62.6095 165.488 63.0725 166.264 63.2268L167.041 63.3812C167.662 63.5355 167.973 63.5355 168.283 63.8442C168.749 64.1528 168.905 64.6158 168.905 65.2332C168.905 66.4678 167.973 67.2009 166.459 67.2009C165.993 67.2009 165.527 67.0466 165.061 66.8922C164.75 66.7379 164.44 66.5836 164.129 66.2749L164.595 65.8119C164.905 66.1206 165.061 66.2749 165.371 66.4292C165.682 66.5836 165.993 66.5836 166.459 66.5836C167.546 66.5836 168.167 66.1206 168.167 65.1946C168.167 64.8859 168.012 64.5772 167.856 64.2686C167.701 64.1142 167.39 63.9599 166.924 63.9599L166.148 63.8056C164.905 63.6512 164.284 63.0339 164.284 61.9536C164.284 60.7189 165.216 59.9858 166.575 59.9858C167.041 59.9858 167.352 59.9858 167.662 60.1402C167.973 60.2945 168.128 60.4488 168.594 60.7575L168.128 61.2205C167.973 60.9118 167.817 60.9118 167.507 60.7575Z" fill="#338FBF"/>
<path d="M73.5059 76.8083V69.7861H77.9709V70.5578H74.2824V72.9885H77.3497V73.6059H74.2824V76.191H77.9709V76.8083H73.5059Z" fill="#338FBF"/>
<path d="M83.9879 74.5309C83.9879 75.9199 82.9008 76.8073 81.5418 76.8073C80.144 76.8073 79.0957 75.8813 79.0957 74.5309V69.7852H79.8722V74.3766C79.8722 75.4569 80.4935 76.0742 81.5806 76.0742C82.6678 76.0742 83.289 75.3026 83.289 74.3766V69.7852H84.0656V74.5309H83.9879Z" fill="#338FBF"/>
<path d="M88.1429 72.9885C89.0747 72.9885 89.5407 72.5255 89.5407 71.7539C89.5407 70.9822 89.0747 70.5192 88.1429 70.5192H86.2792V73.1043H88.1429V72.9885ZM89.6571 76.8083L88.1041 73.7602H86.3957V76.8083H85.6191V69.7861H88.2205C89.463 69.7861 90.356 70.5578 90.356 71.7539C90.356 72.3712 90.0454 72.9885 89.7348 73.2972C89.5795 73.4515 89.2689 73.6059 88.9583 73.6059L90.6666 76.8083H89.6571Z" fill="#338FBF"/>
<path d="M95.0555 71.0198C94.7449 70.7111 94.279 70.5568 93.813 70.5568C93.3471 70.5568 92.8812 70.7111 92.5706 71.0198C92.1047 71.4828 92.1047 72.4088 92.1047 73.4505C92.1047 74.3765 92.1047 75.3025 92.5706 75.8813C92.8812 76.1899 93.3471 76.3443 93.813 76.3443C94.279 76.3443 94.7449 76.1899 95.0555 75.8813C95.6767 75.2639 95.5214 74.3379 95.5214 73.4505C95.6767 72.3702 95.6767 71.4828 95.0555 71.0198ZM95.6767 76.1899C95.2108 76.6529 94.5896 76.9616 93.813 76.9616C93.0365 76.9616 92.4153 76.6529 91.9494 76.1899C91.3281 75.5726 91.3281 74.8009 91.3281 73.4505C91.3281 72.5245 91.3281 71.3285 91.9494 70.7111C92.4153 70.2481 93.0365 69.9395 93.813 69.9395C94.4343 69.9395 95.2108 70.2481 95.6767 70.7111C96.4533 71.4828 96.298 72.5631 96.298 73.4505C96.298 74.6852 96.298 75.4569 95.6767 76.1899Z" fill="#338FBF"/>
<path d="M100.297 73.2958C101.229 73.2958 101.851 72.8328 101.851 71.9068C101.851 70.9808 101.229 70.5178 100.297 70.5178H98.4337V73.2572H100.297V73.2958ZM100.453 69.7847C101.695 69.7847 102.588 70.5564 102.588 71.7525C102.588 72.9871 101.656 73.7202 100.453 73.7202H98.589V76.6139H97.8125V69.5918H100.414V69.7847H100.453Z" fill="#338FBF"/>
<path d="M103.674 76.8073V69.7852H108.139V70.5568H104.45V72.9876H107.518V73.6049H104.45V76.19H108.139V76.8073H103.674Z" fill="#338FBF"/>
<path d="M111.672 70.8655L110.274 74.5309H112.875L111.672 70.8655ZM113.807 76.8073L113.186 75.264H110.118L109.497 76.8073H108.721L111.322 69.7852H111.943L114.545 76.8073H113.807Z" fill="#338FBF"/>
<path d="M119.981 76.8073L116.292 71.1742V76.8073H115.516V69.7852H116.292L119.981 75.4569V69.7852H120.757V76.8073H119.981Z" fill="#338FBF"/>
<path d="M129.494 76.8073V71.4828L127.514 75.727H126.892L124.873 71.4828V76.8073H124.291V69.7852H124.873L127.203 74.8396L129.494 69.7852H130.27V76.8073H129.494Z" fill="#338FBF"/>
<path d="M131.98 76.8073V69.7852H136.29V70.5568H132.602V72.9876H135.669V73.6049H132.602V76.19H136.29V76.8073H131.98Z" fill="#338FBF"/>
<path d="M139.668 76.19C140.289 76.19 140.755 76.0357 141.066 75.727C141.376 75.4183 141.531 74.801 141.531 73.875V73.412C141.531 72.023 141.376 71.56 141.066 71.1356C140.755 70.8269 140.289 70.6726 139.668 70.6726H138.115V76.3443H139.668V76.19ZM139.823 69.7852C140.6 69.7852 141.221 69.9395 141.687 70.4025C142.308 71.0199 142.308 71.7915 142.308 72.5246V73.1419C142.308 74.0679 142.308 75.264 141.687 76.0357C141.221 76.4987 140.6 76.653 139.823 76.653H137.377V69.6309H139.823V69.7852Z" fill="#338FBF"/>
<path d="M144.597 69.7852H143.82V76.8073H144.597V69.7852Z" fill="#338FBF"/>
<path d="M148.443 76.8073C147.666 76.8073 147.045 76.4986 146.579 76.0356C145.803 75.264 145.958 74.338 145.958 73.2962C145.958 71.9072 145.958 71.1742 146.579 70.5568C147.045 70.0938 147.666 69.7852 148.443 69.7852C149.375 69.7852 149.841 70.0938 150.423 70.7112L149.957 71.1742C149.491 70.7112 149.181 70.5568 148.559 70.5568C148.093 70.5568 147.628 70.7111 147.317 71.0198C146.851 71.4828 146.851 72.2545 146.851 73.4506V73.7592C146.851 74.9939 147.006 75.4569 147.317 75.8813C147.628 76.19 148.093 76.3443 148.559 76.3443C149.181 76.3443 149.647 76.0356 149.957 75.727L150.423 76.19C149.802 76.4986 149.336 76.8073 148.443 76.8073Z" fill="#338FBF"/>
<path d="M153.957 70.8655L152.559 74.5309H155.161L153.957 70.8655ZM155.976 76.8073L155.355 75.264H152.287L151.666 76.8073H151.045L153.646 69.7852H154.268L156.869 76.8073H155.976Z" fill="#338FBF"/>
<path d="M157.799 76.8073V69.7852H158.575V76.19H162.109V76.8073H157.799Z" fill="#338FBF"/>
<path d="M167.197 76.8073C166.42 76.8073 165.799 76.4986 165.333 76.0356C164.557 75.264 164.712 74.338 164.712 73.2962C164.712 71.9072 164.712 71.1742 165.333 70.5568C165.799 70.0938 166.42 69.7852 167.197 69.7852C168.129 69.7852 168.595 70.0938 169.177 70.7112L168.711 71.1742C168.245 70.7112 167.935 70.5568 167.313 70.5568C166.847 70.5568 166.381 70.7111 166.071 71.0198C165.605 71.4828 165.605 72.2545 165.605 73.4506V73.7592C165.605 74.9939 165.76 75.4569 166.071 75.8813C166.381 76.19 166.847 76.3443 167.313 76.3443C167.935 76.3443 168.4 76.0356 168.711 75.727L169.177 76.19C168.439 76.4986 167.973 76.8073 167.197 76.8073Z" fill="#338FBF"/>
<path d="M170.264 76.8073V69.7852H174.729V70.5568H171.04V72.9876H174.108V73.6049H171.04V76.19H174.729V76.8073H170.264Z" fill="#338FBF"/>
<path d="M180.282 76.8073L176.554 71.1742V76.8073H175.816V69.7852H176.554L180.282 75.4569V69.7852H181.019V76.8073H180.282Z" fill="#338FBF"/>
<path d="M184.86 70.5568V76.8073H184.123V70.5568H182.104V69.7852H186.879V70.5568H184.86Z" fill="#338FBF"/>
<path d="M187.969 76.8073V69.7852H192.24V70.5568H188.706V72.9876H191.813V73.6049H188.706V76.19H192.24V76.8073H187.969Z" fill="#338FBF"/>
<path d="M196.123 72.9876C197.055 72.9876 197.52 72.5246 197.52 71.7529C197.52 70.9812 197.055 70.5182 196.123 70.5182H194.259V73.1033H196.123V72.9876ZM197.482 76.8073L195.929 73.7592H194.259V76.8073H193.482V69.7852H196.239C197.482 69.7852 198.375 70.5568 198.375 71.7529C198.375 72.3702 198.064 72.9876 197.753 73.2962C197.598 73.4506 197.287 73.6049 196.977 73.6049L198.685 76.8073H197.482Z" fill="#338FBF"/>
</svg>
