<svg width="320" height="568" viewBox="0 0 320 568" fill="none" xmlns="http://www.w3.org/2000/svg">
<g clip-path="url(#clip0)">
<rect width="320" height="568" fill="#338FBF"/>
<path d="M-241.694 625.455L-171.463 687.112L-109.074 657.45M-109.074 657.45L-87.9507 710.694M-109.074 657.45L-95.1896 633.894M-87.9507 710.694L-108.044 717.191M-87.9507 710.694L-95.1896 633.894M-95.1896 633.894L-95.8023 554.168M-95.1896 633.894L-117.46 568.483M-95.1896 633.894L-73.7322 601.185M-95.1896 633.894L-65.4767 713.179M-95.8023 554.168L-117.46 568.483M-95.8023 554.168L-60.0892 526.253M-95.8023 554.168L-73.7322 601.185M-95.8023 554.168L-53.7325 463.514M-117.46 568.483L-136.42 562.599M-117.46 568.483L-100.891 500.179M-60.0892 526.253L-13.8684 601.68M-60.0892 526.253L-73.7322 601.185M-60.0892 526.253L-50.5567 627.385M-60.0892 526.253L-53.7325 463.514M-13.8684 601.68L-50.5567 627.385M-13.8684 601.68L49.9157 552.953L74.5282 671.455M-13.8684 601.68L74.5282 671.455M-50.5567 627.385L-33.3038 639.568M-50.5567 627.385L-65.4767 713.179M-50.5567 627.385L-73.7322 601.185M-73.7322 601.185L-65.4767 713.179M-65.4767 713.179L-70.5695 740.509M-65.4767 713.179L-38.1573 758.934M-70.5695 740.509L-106.999 760.82L-107.13 783.847L-161.531 825.031M-70.5695 740.509L-38.1573 758.934M-70.5695 740.509L-13.6917 798.821M-38.1573 758.934L-5.71686 785.795M-38.1573 758.934L-13.6917 798.821M-5.71686 785.795L-13.6917 798.821M-5.71686 785.795L19.1394 756.602M-5.71686 785.795L23.9415 807.549M-13.6917 798.821L23.9415 807.549M19.1394 756.602L73.2937 786.02M19.1394 756.602L23.9415 807.549M73.2937 786.02L165.098 767.393L166.2 827.895M73.2937 786.02L166.2 827.895M73.2937 786.02L23.9415 807.549M73.2937 786.02L90.3729 828.905M166.2 827.895C142.444 828.088 94.0216 828.561 90.3729 828.905M166.2 827.895L123.617 848.019M166.2 827.895L227.254 832.88L123.617 848.019M23.9415 807.549L90.3729 828.905M90.3729 828.905L123.617 848.019M245.084 769.827L153.264 804.565L208.194 817.799L245.084 769.827ZM245.084 769.827C244.162 769.405 215.659 733.13 201.522 715.046L211.873 676.644M48.0114 729.332L-2.80048 686.558L-38.0836 719.035L48.0114 729.332ZM48.0114 729.332L74.5282 671.455M263.197 791.134L265.308 740.303M265.308 740.303L295.683 769.661M265.308 740.303L307.178 631.257L356.743 652.668M265.308 740.303L356.743 652.668M265.308 740.303L340.505 716.338M295.683 769.661L340.505 716.338M295.683 769.661L352.436 729.022M340.505 716.338L352.436 729.022M340.505 716.338L356.743 652.668M340.505 716.338L383.778 654.723M352.436 729.022L386.169 728.911L440.725 754.455M352.436 729.022L383.778 654.723M356.743 652.668L383.778 654.723M356.743 652.668L339.381 525.423M356.743 652.668L372.525 535.341M339.381 525.423L372.525 535.341M339.381 525.423L284.521 553.609M339.381 525.423L355.346 483.259M339.381 525.423L313.412 428.908M339.381 525.423L293.273 483.74M372.525 535.341L389.42 543.721M372.525 535.341L375.954 506.633M372.525 535.341L355.346 483.259M284.521 553.609L293.273 483.74M284.521 553.609L223.566 525.681L249.709 644.491L284.521 553.609ZM293.273 483.74L182.137 468.132M293.273 483.74L313.412 428.908M293.273 483.74L264.794 401.27M293.273 483.74L204.557 413.085M182.137 468.132L90.2892 494.434M182.137 468.132C148.989 450.032 82.3878 413.86 81.1716 413.975M182.137 468.132C189.151 450.338 203.455 414.417 204.557 413.085M182.137 468.132C169.989 441.039 146.098 387.033 147.72 387.756M182.137 468.132L151.432 529.038M90.2892 494.434L21.3492 446.464L81.1716 413.975M90.2892 494.434L81.1716 413.975M204.557 413.085L147.72 387.756M204.557 413.085L264.794 401.27M204.557 413.085L164.287 360.112M147.72 387.756C127.24 382.015 86.8733 370.324 89.2484 369.486C91.6235 368.648 140.264 362.887 164.287 360.112M164.287 360.112L264.794 401.27M264.794 401.27L313.412 428.908M264.794 401.27C264.622 399.445 260.45 376.875 258.385 365.818L313.412 428.908M313.412 428.908L348.607 452.441M313.412 428.908L355.346 483.259M313.412 428.908L360.988 372.257L350.32 324.165M348.607 452.441L375.954 506.633M348.607 452.441L355.346 483.259M375.954 506.633L389.42 543.721M375.954 506.633L355.346 483.259M375.954 506.633L407.378 498.301L411.596 477.957L468.725 384.35M389.42 543.721L461.102 523.156L479.1 551.378L546.982 531.171M-53.7325 463.514L-25.6641 443.991L-57.1728 427.015M-53.7325 463.514L-86.4183 466.595M-53.7325 463.514L-57.1728 427.015M-57.1728 427.015L-86.4183 466.595M-57.1728 427.015L-71.1984 408.391M-86.4183 466.595L-164.48 419.485M35.1941 349.265L135.245 336.766L75.7961 356.945L75.335 357.233M35.1941 349.265L30.8897 384.96L75.335 357.233M35.1941 349.265L75.335 357.233M-8.74125 460.808L33.3266 410.813L4.815 401.226L-8.74125 460.808ZM-8.74125 460.808L-12.2004 507.998M-12.2004 507.998L12.9503 536.017L22.5969 493.486L-12.2004 507.998ZM230.998 815.65C232.822 815.478 252.344 811.592 261.877 809.671L239.776 794.876L230.998 815.65ZM-51.8852 808.559L-25.654 818.361L-15.4724 845.018L-51.8852 808.559ZM-218.433 676.964L-141.258 665.854L-182.911 736.522L-218.433 676.964ZM352.616 576.342L401.925 562.488L384.281 619.386L352.616 576.342ZM441.695 569.48L458.933 597.774L428.973 589.091L441.695 569.48ZM429.943 404.115C439.026 405.561 457.663 408.56 459.545 408.997C461.426 409.433 483.628 444.829 494.494 462.472L429.943 404.115ZM-146.784 460.777L-102.753 439.75L-138.194 486.818L-146.784 460.777ZM-80.3745 351.719C-79.1583 351.605 -63.2115 343.964 -55.3901 340.159L-30.4641 352.385L-80.3745 351.719ZM35.8503 421.315L56.7191 398.635L61.1628 445.78L35.8503 421.315ZM304.542 277.848L309.633 291.177L286.153 318.706L304.542 277.848ZM488.416 690.889L504.652 667.879L507.319 679.902L488.416 690.889Z" stroke="white"/>
<circle cx="14.0192" cy="535.978" r="4.5179" transform="rotate(-155.385 14.0192 535.978)" fill="white"/>
<circle cx="21.8782" cy="493.898" r="4.5179" transform="rotate(-155.385 21.8782 493.898)" fill="white"/>
<circle cx="50.7255" cy="552.796" r="4.5179" transform="rotate(-155.385 50.7255 552.796)" fill="white"/>
<circle cx="137.025" cy="336.649" r="4.5179" transform="rotate(-155.385 137.025 336.649)" fill="white"/>
<circle cx="162.646" cy="360.296" r="4.5179" transform="rotate(-155.385 162.646 360.296)" fill="white"/>
<circle cx="257.352" cy="364.605" r="4.5179" transform="rotate(-155.385 257.352 364.605)" fill="white"/>
<circle cx="314.862" cy="429.335" r="4.5179" transform="rotate(-155.385 314.862 429.335)" fill="white"/>
<circle cx="286.484" cy="318.204" r="4.5179" transform="rotate(-155.385 286.484 318.204)" fill="white"/>
<circle cx="309.402" cy="291.161" r="4.5179" transform="rotate(-155.385 309.402 291.161)" fill="white"/>
<circle cx="304.941" cy="275.495" r="4.5179" transform="rotate(-155.385 304.941 275.495)" fill="white"/>
<circle cx="3.8708" cy="401.58" r="4.5179" transform="rotate(-155.385 3.8708 401.58)" fill="white"/>
<circle cx="33.478" cy="410.174" r="4.5179" transform="rotate(-155.385 33.478 410.174)" fill="white"/>
<circle cx="20.5615" cy="446.498" r="4.5179" transform="rotate(-155.385 20.5615 446.498)" fill="white"/>
<circle cx="80.5799" cy="413.119" r="4.5179" transform="rotate(-155.385 80.5799 413.119)" fill="white"/>
<circle cx="90.4329" cy="494.66" r="4.5179" transform="rotate(-155.385 90.4329 494.66)" fill="white"/>
<circle cx="60.9494" cy="445.125" r="4.5179" transform="rotate(-155.385 60.9494 445.125)" fill="white"/>
<circle cx="35.8751" cy="421.212" r="4.5179" transform="rotate(-155.385 35.8751 421.212)" fill="white"/>
<circle cx="56.7916" cy="397.251" r="4.5179" transform="rotate(-155.385 56.7916 397.251)" fill="white"/>
<circle cx="182.024" cy="468.294" r="4.5179" transform="rotate(-155.385 182.024 468.294)" fill="white"/>
<circle cx="31.1198" cy="385.489" r="4.5179" transform="rotate(-155.385 31.1198 385.489)" fill="white"/>
<circle cx="35.9072" cy="347.927" r="4.5179" transform="rotate(-155.385 35.9072 347.927)" fill="white"/>
<circle cx="75.1391" cy="357.205" r="4.5179" transform="rotate(-155.385 75.1391 357.205)" fill="white"/>
<circle cx="90.2424" cy="370.337" r="4.5179" transform="rotate(-155.385 90.2424 370.337)" fill="white"/>
<circle cx="147.959" cy="388.084" r="4.5179" transform="rotate(-155.385 147.959 388.084)" fill="white"/>
<circle cx="204.435" cy="413.959" r="4.5179" transform="rotate(-155.385 204.435 413.959)" fill="white"/>
<circle cx="292.747" cy="484.236" r="4.5179" transform="rotate(-155.385 292.747 484.236)" fill="white"/>
<circle cx="284.499" cy="553.758" r="4.5179" transform="rotate(-155.385 284.499 553.758)" fill="white"/>
<circle cx="222.187" cy="524.763" r="4.5179" transform="rotate(-155.385 222.187 524.763)" fill="white"/>
<circle cx="152.099" cy="528.18" r="4.5179" transform="rotate(-155.385 152.099 528.18)" fill="white"/>
</g>
<defs>
<clipPath id="clip0">
<rect width="320" height="568" fill="white"/>
</clipPath>
</defs>
</svg>
