<svg width="1361" height="1368" viewBox="0 0 1361 1368" fill="none" xmlns="http://www.w3.org/2000/svg">
<g opacity="0.5">
<path d="M1083.39 794.953L1041.64 705.952L969.005 708.286M969.005 708.286L971.053 648.066M969.005 708.286L945.705 725.151M971.053 648.066L993.159 650.261M971.053 648.066L945.705 725.151M945.705 725.151L912.737 802.268M945.705 725.151L939.641 797.583M945.705 725.151L911.251 747.651M945.705 725.151L950.433 636.211M912.737 802.268L939.641 797.583M912.737 802.268L866.558 814.146M912.737 802.268L911.251 747.651M912.737 802.268L834.022 871.953M939.641 797.583L955.442 811.236M939.641 797.583L894.918 856.456M866.558 814.146L853.749 721.977M866.558 814.146L911.251 747.651M866.558 814.146L899.938 712.638M866.558 814.146L834.022 871.953M853.749 721.977L899.938 712.638M853.749 721.977L771.749 742.102L797.901 617.503M853.749 721.977L797.901 617.503M899.938 712.638L888.433 693.632M899.938 712.638L950.433 636.211M899.938 712.638L911.251 747.651M911.251 747.651L950.433 636.211M950.433 636.211L966.847 612.007M950.433 636.211L943.356 580.602M966.847 612.007L1010.52 607.761L1020.33 585.617L1090.11 568.813M966.847 612.007L943.356 580.602M966.847 612.007L936.56 531.851M943.356 580.602L923.389 541.052M943.356 580.602L936.56 531.851M923.389 541.052L936.56 531.851M923.389 541.052L887.138 558.732M923.389 541.052L903.954 507.597M936.56 531.851L903.954 507.597M887.138 558.732L847.314 507.578M887.138 558.732L903.954 507.597M847.314 507.578L750.971 486.892L775.376 428.103M847.314 507.578L775.376 428.103M847.314 507.578L903.954 507.597M847.314 507.578L848.901 459.047M775.376 428.103C798.358 437.916 845.238 457.842 848.901 459.047M775.376 428.103L824.898 426.627M775.376 428.103L718.616 397.598L824.898 426.627M903.954 507.597L848.901 459.047M848.901 459.047L824.898 426.627M674.887 450.878L778.026 456.038L730.643 420.159L674.887 450.878ZM674.887 450.878C675.597 451.673 687.807 498.64 693.823 522.025L667.681 554.689M847.826 572.869L878.806 635.493L926.491 619.035L847.826 572.869ZM847.826 572.869L797.901 617.503M666.394 422.713L642.963 470.827M642.963 470.827L626.038 429.74M642.963 470.827L556.699 558.328L517.929 516.823M642.963 470.827L517.929 516.823M642.963 470.827L560.383 462.278M626.038 429.74L560.383 462.278M626.038 429.74L554.22 445.028M560.383 462.278L554.22 445.028M560.383 462.278L517.929 516.823M560.383 462.278L492.731 503.463M554.22 445.028L521.654 430.936L479.812 383.347M554.22 445.028L492.731 503.463M517.929 516.823L492.731 503.463M517.929 516.823L481.106 646.8M517.929 516.823L453.328 623.288M481.106 646.8L453.328 623.288M481.106 646.8L545.857 642.72M481.106 646.8L447.968 680.727M481.106 646.8L465.515 750.775M481.106 646.8L508.01 706.392M453.328 623.288L440.569 608.098M453.328 623.288L437.939 649.52M453.328 623.288L447.968 680.727M545.857 642.72L508.01 706.392M545.857 642.72L592.864 695.3L617.671 569.759L545.857 642.72ZM508.01 706.392L608.579 768.218M508.01 706.392L465.515 750.775M508.01 706.392L500.752 797.883M508.01 706.392L563.796 811.848M608.579 768.218L708.195 781.523M608.579 768.218C632.917 799.62 681.897 862.524 683.118 862.926M608.579 768.218C594.327 782.42 565.418 811.028 563.796 811.848M608.579 768.218C608.887 799.45 609.186 861.57 607.927 860.19M608.579 768.218L663.817 722.427M708.195 781.523L754.464 856.786L683.118 862.926M708.195 781.523L683.118 862.926M563.796 811.848L607.927 860.19M563.796 811.848L500.752 797.883M563.796 811.848L580.32 879.867M607.927 860.19C625.254 874.345 659.247 902.607 656.605 902.415C653.963 902.223 604.647 887.303 580.32 879.867M580.32 879.867L500.752 797.883M500.752 797.883L465.515 750.775M500.752 797.883C500.149 799.715 494.671 823.229 492.008 834.758L465.515 750.775M465.515 750.775L441.492 713.274M465.515 750.775L447.968 680.727M465.515 750.775L395.805 785.362L385.847 836.215M441.492 713.274L437.939 649.52M441.492 713.274L447.968 680.727M437.939 649.52L440.569 608.098M437.939 649.52L447.968 680.727M437.939 649.52L404.138 644.325L391.509 662.162L297.033 728.356M440.569 608.098L362.808 597.75L357.337 562.967L283.391 553.874M834.022 871.953L798.745 878.959L821.975 908.587M834.022 871.953L866.829 882.741M834.022 871.953L821.975 908.587M821.975 908.587L866.829 882.741M821.975 908.587L827.657 932.445M866.829 882.741L922.253 961.015M700.204 944.662L598.49 914.597L664.295 920.167L664.86 920.084M700.204 944.662L719.378 912.062L664.86 920.084M700.204 944.662L664.86 920.084M789.51 855.624L727.911 886.113L751.362 907.356L789.51 855.624ZM789.51 855.624L812.708 811.587M812.708 811.587L800.256 773.989L773.054 810.93L812.708 811.587ZM707.754 412.632C705.923 412.03 685.468 407.559 675.469 405.399L690.548 428.964L707.754 412.632ZM977.478 538.54L956.316 518.05L957.722 488.065L977.478 538.54ZM1082.64 735.506L1003.57 713.732L1073.47 663.138L1082.64 735.506ZM489.78 592.141L436.413 584.741L477.372 537.316L489.78 592.141ZM401.016 561.261L396.308 526.729L421.536 547.711L401.016 561.261ZM342.74 725.625C334.592 720.408 317.888 709.672 316.258 708.459C314.627 707.246 308.123 663.779 305.074 642.196L342.74 725.625ZM922.575 913.758L871.276 915.496L925.255 885.039L922.575 913.758ZM812.649 990.941C811.428 990.539 792.839 991.193 783.697 991.569L764.814 969.291L812.649 990.941ZM729.899 874.926L700.234 888.006L715.794 840.687L729.899 874.926ZM410.482 900.135L411.185 885.143L445.407 868.487L410.482 900.135ZM407.08 424.553L381.742 439.902L384.231 427.188L407.08 424.553Z" stroke="white"/>
<circle cx="479.684" cy="383.078" r="4.75248" transform="rotate(48.2027 479.684 383.078)" fill="white"/>
<circle cx="522.424" cy="430.408" r="4.75248" transform="rotate(48.2027 522.424 430.408)" fill="white"/>
<circle cx="553.567" cy="446.115" r="4.75248" transform="rotate(48.2027 553.567 446.115)" fill="white"/>
<circle cx="560.486" cy="462.855" r="4.75248" transform="rotate(48.2027 560.486 462.855)" fill="white"/>
<circle cx="625.155" cy="429.924" r="4.75248" transform="rotate(48.2027 625.155 429.924)" fill="white"/>
<circle cx="665.981" cy="422.113" r="4.75248" transform="rotate(48.2027 665.981 422.113)" fill="white"/>
<circle cx="642.148" cy="472.107" r="4.75248" transform="rotate(48.2027 642.148 472.107)" fill="white"/>
<circle cx="556.646" cy="556.516" r="4.75248" transform="rotate(48.2027 556.646 556.516)" fill="white"/>
<circle cx="519.334" cy="516.562" r="4.75248" transform="rotate(48.2027 519.334 516.562)" fill="white"/>
<circle cx="493.15" cy="503.318" r="4.75248" transform="rotate(48.2027 493.15 503.318)" fill="white"/>
<circle cx="674.451" cy="451.196" r="4.75248" transform="rotate(48.2027 674.451 451.196)" fill="white"/>
<circle cx="674.518" cy="404.92" r="4.75248" transform="rotate(48.2027 674.518 404.92)" fill="white"/>
<circle cx="709.466" cy="411.924" r="4.75248" transform="rotate(48.2027 709.466 411.924)" fill="white"/>
<circle cx="689.979" cy="429.346" r="4.75248" transform="rotate(48.2027 689.979 429.346)" fill="white"/>
<circle cx="719.584" cy="396.503" r="4.75248" transform="rotate(48.2027 719.584 396.503)" fill="white"/>
<circle cx="826.429" cy="426.883" r="4.75248" transform="rotate(48.2027 826.429 426.883)" fill="white"/>
<circle cx="775.819" cy="429.101" r="4.75248" transform="rotate(48.2027 775.819 429.101)" fill="white"/>
<circle cx="751.517" cy="487.483" r="4.75248" transform="rotate(48.2027 751.517 487.483)" fill="white"/>
<circle cx="847.436" cy="457.511" r="4.75248" transform="rotate(48.2027 847.436 457.511)" fill="white"/>
<circle cx="905.201" cy="507.862" r="4.75248" transform="rotate(48.2027 905.201 507.862)" fill="white"/>
<circle cx="886.401" cy="558.14" r="4.75248" transform="rotate(48.2027 886.401 558.14)" fill="white"/>
<circle cx="847.763" cy="571.965" r="4.75248" transform="rotate(48.2027 847.763 571.965)" fill="white"/>
<circle cx="927.62" cy="618.504" r="4.75248" transform="rotate(48.2027 927.62 618.504)" fill="white"/>
<circle cx="878.728" cy="635.122" r="4.75248" transform="rotate(48.2027 878.728 635.122)" fill="white"/>
<circle cx="943.199" cy="580.67" r="4.75248" transform="rotate(48.2027 943.199 580.67)" fill="white"/>
<circle cx="964.996" cy="612.182" r="4.75248" transform="rotate(48.2027 964.996 612.182)" fill="white"/>
<circle cx="1009.78" cy="608.797" r="4.75248" transform="rotate(48.2027 1009.78 608.797)" fill="white"/>
<circle cx="969.735" cy="647.788" r="4.75248" transform="rotate(48.2027 969.735 647.788)" fill="white"/>
<circle cx="995.692" cy="650.082" r="4.75248" transform="rotate(48.2027 995.692 650.082)" fill="white"/>
<circle cx="950.167" cy="636.593" r="4.75248" transform="rotate(48.2027 950.167 636.593)" fill="white"/>
<circle cx="946.078" cy="724.718" r="4.75248" transform="rotate(48.2027 946.078 724.718)" fill="white"/>
<circle cx="969.71" cy="708.368" r="4.75248" transform="rotate(48.2027 969.71 708.368)" fill="white"/>
<circle cx="1004.75" cy="713.696" r="4.75248" transform="rotate(48.2027 1004.75 713.696)" fill="white"/>
<circle cx="1073.28" cy="661.997" r="4.75248" transform="rotate(48.2027 1073.28 661.997)" fill="white"/>
<circle cx="1082.88" cy="734.271" r="4.75248" transform="rotate(48.2027 1082.88 734.271)" fill="white"/>
<circle cx="1084.23" cy="795.637" r="4.75248" transform="rotate(48.2027 1084.23 795.637)" fill="white"/>
<circle cx="1042.41" cy="706.519" r="4.75248" transform="rotate(48.2027 1042.41 706.519)" fill="white"/>
<circle cx="912.003" cy="747.213" r="4.75248" transform="rotate(48.2027 912.003 747.213)" fill="white"/>
<circle cx="900.46" cy="712.909" r="4.75248" transform="rotate(48.2027 900.46 712.909)" fill="white"/>
<circle cx="888.958" cy="692.912" r="4.75248" transform="rotate(48.2027 888.958 692.912)" fill="white"/>
<circle cx="853.714" cy="721.232" r="4.75248" transform="rotate(48.2027 853.714 721.232)" fill="white"/>
<circle cx="867.005" cy="814.535" r="4.75248" transform="rotate(48.2027 867.005 814.535)" fill="white"/>
<circle cx="799.208" cy="773.577" r="4.75248" transform="rotate(48.2027 799.208 773.577)" fill="white"/>
<circle cx="773.919" cy="810.835" r="4.75248" transform="rotate(48.2027 773.919 810.835)" fill="white"/>
<circle cx="812.617" cy="810.423" r="4.75248" transform="rotate(48.2027 812.617 810.423)" fill="white"/>
<circle cx="770.902" cy="741.913" r="4.75248" transform="rotate(48.2027 770.902 741.913)" fill="white"/>
<circle cx="938.703" cy="797.248" r="4.75248" transform="rotate(48.2027 938.703 797.248)" fill="white"/>
<circle cx="957.317" cy="812.068" r="4.75248" transform="rotate(48.2027 957.317 812.068)" fill="white"/>
<circle cx="893.672" cy="857.334" r="4.75248" transform="rotate(48.2027 893.672 857.334)" fill="white"/>
<circle cx="924.871" cy="884.827" r="4.75248" transform="rotate(48.2027 924.871 884.827)" fill="white"/>
<circle cx="922.532" cy="914.437" r="4.75248" transform="rotate(48.2027 922.532 914.437)" fill="white"/>
<circle cx="870.442" cy="916.042" r="4.75248" transform="rotate(48.2027 870.442 916.042)" fill="white"/>
<circle cx="923.033" cy="962.388" r="4.75248" transform="rotate(48.2027 923.033 962.388)" fill="white"/>
<circle cx="867.539" cy="883.395" r="4.75248" transform="rotate(48.2027 867.539 883.395)" fill="white"/>
<circle cx="822.853" cy="908.946" r="4.75248" transform="rotate(48.2027 822.853 908.946)" fill="white"/>
<circle cx="828.685" cy="934.672" r="4.75248" transform="rotate(48.2027 828.685 934.672)" fill="white"/>
<circle cx="813.733" cy="991.175" r="4.75248" transform="rotate(48.2027 813.733 991.175)" fill="white"/>
<circle cx="765.191" cy="968.987" r="4.75248" transform="rotate(48.2027 765.191 968.987)" fill="white"/>
<circle cx="596.724" cy="913.961" r="4.75248" transform="rotate(48.2027 596.724 913.961)" fill="white"/>
<circle cx="581.979" cy="880.38" r="4.75248" transform="rotate(48.2027 581.979 880.38)" fill="white"/>
<circle cx="492.493" cy="836.362" r="4.75248" transform="rotate(48.2027 492.493 836.362)" fill="white"/>
<circle cx="464.297" cy="749.752" r="4.75248" transform="rotate(48.2027 464.297 749.752)" fill="white"/>
<circle cx="386.424" cy="836.325" r="4.75248" transform="rotate(48.2027 386.424 836.325)" fill="white"/>
<circle cx="395.878" cy="786.061" r="4.75248" transform="rotate(48.2027 395.878 786.061)" fill="white"/>
<circle cx="444.877" cy="868.832" r="4.75248" transform="rotate(48.2027 444.877 868.832)" fill="white"/>
<circle cx="411.4" cy="885.256" r="4.75248" transform="rotate(48.2027 411.4 885.256)" fill="white"/>
<circle cx="409.106" cy="902.236" r="4.75248" transform="rotate(48.2027 409.106 902.236)" fill="white"/>
<circle cx="784.333" cy="992.189" r="4.75248" transform="rotate(48.2027 784.333 992.189)" fill="white"/>
<circle cx="912.354" cy="801.086" r="4.75248" transform="rotate(48.2027 912.354 801.086)" fill="white"/>
<circle cx="833.522" cy="871.563" r="4.75248" transform="rotate(48.2027 833.522 871.563)" fill="white"/>
<circle cx="798.614" cy="878.866" r="4.75248" transform="rotate(48.2027 798.614 878.866)" fill="white"/>
<circle cx="789.863" cy="854.814" r="4.75248" transform="rotate(48.2027 789.863 854.814)" fill="white"/>
<circle cx="752.421" cy="907.413" r="4.75248" transform="rotate(48.2027 752.421 907.413)" fill="white"/>
<circle cx="727.496" cy="886.665" r="4.75248" transform="rotate(48.2027 727.496 886.665)" fill="white"/>
<circle cx="755.238" cy="857.084" r="4.75248" transform="rotate(48.2027 755.238 857.084)" fill="white"/>
<circle cx="683.328" cy="864" r="4.75248" transform="rotate(48.2027 683.328 864)" fill="white"/>
<circle cx="708.152" cy="781.244" r="4.75248" transform="rotate(48.2027 708.152 781.244)" fill="white"/>
<circle cx="715.724" cy="841.408" r="4.75248" transform="rotate(48.2027 715.724 841.408)" fill="white"/>
<circle cx="729.831" cy="875.016" r="4.75248" transform="rotate(48.2027 729.831 875.016)" fill="white"/>
<circle cx="699.581" cy="889.311" r="4.75248" transform="rotate(48.2027 699.581 889.311)" fill="white"/>
<circle cx="608.756" cy="768.11" r="4.75248" transform="rotate(48.2027 608.756 768.11)" fill="white"/>
<circle cx="719.379" cy="911.455" r="4.75248" transform="rotate(48.2027 719.379 911.455)" fill="white"/>
<circle cx="698.953" cy="945.65" r="4.75248" transform="rotate(48.2027 698.953 945.65)" fill="white"/>
<circle cx="665.037" cy="920.193" r="4.75248" transform="rotate(48.2027 665.037 920.193)" fill="white"/>
<circle cx="656.004" cy="901.176" r="4.75248" transform="rotate(48.2027 656.004 901.176)" fill="white"/>
<circle cx="607.833" cy="859.773" r="4.75248" transform="rotate(48.2027 607.833 859.773)" fill="white"/>
<circle cx="564.28" cy="811.057" r="4.75248" transform="rotate(48.2027 564.28 811.057)" fill="white"/>
<circle cx="508.726" cy="706.136" r="4.75248" transform="rotate(48.2027 508.726 706.136)" fill="white"/>
<circle cx="545.941" cy="642.585" r="4.75248" transform="rotate(48.2027 545.941 642.585)" fill="white"/>
<circle cx="480.929" cy="646.521" r="4.75248" transform="rotate(48.2027 480.929 646.521)" fill="white"/>
<circle cx="618.036" cy="570.926" r="4.75248" transform="rotate(48.2027 618.036 570.926)" fill="white"/>
<circle cx="593.807" cy="696.766" r="4.75248" transform="rotate(48.2027 593.807 696.766)" fill="white"/>
<circle cx="662.812" cy="722.973" r="4.75248" transform="rotate(48.2027 662.812 722.973)" fill="white"/>
<circle cx="796.845" cy="616.169" r="4.75248" transform="rotate(48.2027 796.845 616.169)" fill="white"/>
<circle cx="667.069" cy="554.763" r="4.75248" transform="rotate(48.2027 667.069 554.763)" fill="white"/>
<circle cx="693.69" cy="524.452" r="4.75248" transform="rotate(48.2027 693.69 524.452)" fill="white"/>
<circle cx="448.761" cy="680.061" r="4.75248" transform="rotate(48.2027 448.761 680.061)" fill="white"/>
<circle cx="441.739" cy="712.454" r="4.75248" transform="rotate(48.2027 441.739 712.454)" fill="white"/>
<circle cx="403.648" cy="642.465" r="4.75248" transform="rotate(48.2027 403.648 642.465)" fill="white"/>
<circle cx="393.073" cy="661.652" r="4.75248" transform="rotate(48.2027 393.073 661.652)" fill="white"/>
<circle cx="298.732" cy="727.375" r="4.75248" transform="rotate(48.2027 298.732 727.375)" fill="white"/>
<circle cx="343.223" cy="725.409" r="4.75248" transform="rotate(48.2027 343.223 725.409)" fill="white"/>
<circle cx="305.178" cy="642.789" r="4.75248" transform="rotate(48.2027 305.178 642.789)" fill="white"/>
<circle cx="316.015" cy="707.764" r="4.75248" transform="rotate(48.2027 316.015 707.764)" fill="white"/>
<circle cx="437.029" cy="649.112" r="4.75248" transform="rotate(48.2027 437.029 649.112)" fill="white"/>
<circle cx="452.838" cy="622.229" r="4.75248" transform="rotate(48.2027 452.838 622.229)" fill="white"/>
<circle cx="440.167" cy="608.058" r="4.75248" transform="rotate(48.2027 440.167 608.058)" fill="white"/>
<circle cx="489.061" cy="591.44" r="4.75248" transform="rotate(48.2027 489.061 591.44)" fill="white"/>
<circle cx="477.755" cy="537.796" r="4.75248" transform="rotate(48.2027 477.755 537.796)" fill="white"/>
<circle cx="437.24" cy="585.175" r="4.75248" transform="rotate(48.2027 437.24 585.175)" fill="white"/>
<circle cx="421.643" cy="548.119" r="4.75248" transform="rotate(48.2027 421.643 548.119)" fill="white"/>
<circle cx="395.928" cy="526.485" r="4.75248" transform="rotate(48.2027 395.928 526.485)" fill="white"/>
<circle cx="400.667" cy="562.092" r="4.75248" transform="rotate(48.2027 400.667 562.092)" fill="white"/>
<circle cx="356.071" cy="562.121" r="4.75248" transform="rotate(48.2027 356.071 562.121)" fill="white"/>
<circle cx="283.478" cy="552.402" r="4.75248" transform="rotate(48.2027 283.478 552.402)" fill="white"/>
<circle cx="380.491" cy="441.478" r="4.75248" transform="rotate(48.2027 380.491 441.478)" fill="white"/>
<circle cx="384.691" cy="426.568" r="4.75248" transform="rotate(48.2027 384.691 426.568)" fill="white"/>
<circle cx="407.573" cy="423.64" r="4.75248" transform="rotate(48.2027 407.573 423.64)" fill="white"/>
<circle cx="1019.39" cy="587.459" r="4.75248" transform="rotate(48.2027 1019.39 587.459)" fill="white"/>
<circle cx="1090.95" cy="568.768" r="4.75248" transform="rotate(48.2027 1090.95 568.768)" fill="white"/>
<circle cx="923.548" cy="540.863" r="4.75248" transform="rotate(48.2027 923.548 540.863)" fill="white"/>
<circle cx="938.419" cy="530.757" r="4.75248" transform="rotate(48.2027 938.419 530.757)" fill="white"/>
<circle cx="956.833" cy="517.484" r="4.75248" transform="rotate(48.2027 956.833 517.484)" fill="white"/>
<circle cx="957.638" cy="488.078" r="4.75248" transform="rotate(48.2027 957.638 488.078)" fill="white"/>
<circle cx="977.608" cy="537.158" r="4.75248" transform="rotate(48.2027 977.608 537.158)" fill="white"/>
<circle cx="846.297" cy="507.934" r="4.75248" transform="rotate(48.2027 846.297 507.934)" fill="white"/>
<circle cx="779.35" cy="456.224" r="4.75248" transform="rotate(48.2027 779.35 456.224)" fill="white"/>
<circle cx="730.805" cy="421.534" r="4.75248" transform="rotate(48.2027 730.805 421.534)" fill="white"/>
</g>
</svg>
