<svg width="320" height="80" viewBox="0 0 320 80" fill="none" xmlns="http://www.w3.org/2000/svg">
<g clip-path="url(#clip0)">
<g opacity="0.5">
<path d="M563.493 352.001L501.796 275.465L431.798 294.985M431.798 294.985L419.483 236.002M431.798 294.985L413.17 316.902M419.483 236.002L441.477 232.883M419.483 236.002L413.17 316.902M413.17 316.902L399.464 399.642M413.17 316.902L424.486 388.701M413.17 316.902L385.048 346.942M413.17 316.902L396.637 229.384M399.464 399.642L424.486 388.701M399.464 399.642L357.429 422.15M399.464 399.642L385.048 346.942M399.464 399.642L339.555 486.031M424.486 388.701L443.078 398.21M424.486 388.701L395.027 456.512M357.429 422.15L323.092 335.661M357.429 422.15L385.048 346.942M357.429 422.15L365.741 315.619M357.429 422.15L339.555 486.031M323.092 335.661L365.741 315.619M323.092 335.661L248.22 374.689L244.027 247.443M323.092 335.661L244.027 247.443M365.741 315.619L350.051 299.889M365.741 315.619L396.637 229.384M365.741 315.619L385.048 346.942M385.048 346.942L396.637 229.384M396.637 229.384L406.832 201.974M396.637 229.384L376.553 177.048M406.832 201.974L448.242 187.476L452.519 163.634L516.311 130.736M406.832 201.974L376.553 177.048M406.832 201.974L358.371 131.306M376.553 177.048L347.763 143.372M376.553 177.048L358.371 131.306M347.763 143.372L358.371 131.306M347.763 143.372L316.75 169.158M347.763 143.372L320.937 115.492M358.371 131.306L320.937 115.492M316.75 169.158L265.915 128.927M316.75 169.158L320.937 115.492M265.915 128.927L167.415 131.718L177.157 68.8149M265.915 128.927L177.157 68.8149M265.915 128.927L320.937 115.492M265.915 128.927L255.927 81.408M177.157 68.8149C201.812 72.8876 252.084 81.1081 255.927 81.408M177.157 68.8149L224.911 55.6178M177.157 68.8149L114.776 52.6654L224.911 55.6178M320.937 115.492L255.927 81.408M255.927 81.408L224.911 55.6178M84.9538 114.808L186.367 95.3212L131.817 71.7241L84.9538 114.808ZM84.9538 114.808C85.8329 115.411 108.85 158.134 120.248 179.42L102.613 217.359M281.921 192.228L326.889 245.7L369.3 218.387L281.921 192.228ZM281.921 192.228L244.027 247.443M70.0137 89.466L58.6824 141.769M58.6824 141.769L32.4817 105.878M58.6824 141.769L-4.32818 247.256L-51.8473 216.149M58.6824 141.769L-51.8473 216.149M58.6824 141.769L-23.5644 153.081M32.4817 105.878L-23.5644 153.081M32.4817 105.878L-33.6493 137.788M-23.5644 153.081L-33.6493 137.788M-23.5644 153.081L-51.8473 216.149M-23.5644 153.081L-79.4973 209.156M-33.6493 137.788L-68.6306 131.835L-120.579 95.5473M-33.6493 137.788L-79.4973 209.156M-51.8473 216.149L-79.4973 209.156M-51.8473 216.149L-56.7421 351.152M-51.8473 216.149L-89.3095 334.912M-56.7421 351.152L-89.3095 334.912M-56.7421 351.152L5.18624 331.808M-56.7421 351.152L-80.873 391.98M-56.7421 351.152L-47.1887 455.854M-56.7421 351.152L-16.4528 402.648M-89.3095 334.912L-105.312 323.187M-89.3095 334.912L-98.0275 364.048M-89.3095 334.912L-80.873 391.98M5.18624 331.808L-16.4528 402.648M5.18624 331.808L63.3383 371.718L57.6142 243.877L5.18624 331.808ZM-16.4528 402.648L95.924 438.816M-16.4528 402.648L-47.1887 455.854M-16.4528 402.648L-1.77093 493.244M-16.4528 402.648L62.786 491.835M95.924 438.816L195.849 428.078M95.924 438.816C127.024 463.538 189.544 513.007 190.826 513.107M95.924 438.816C85.4535 455.996 64.1671 490.653 62.786 491.835M95.924 438.816C103.641 469.081 118.688 529.351 117.137 528.31M95.924 438.816L138.704 381.214M195.849 428.078L258.671 490.196L190.826 513.107M195.849 428.078L190.826 513.107M62.786 491.835L117.137 528.31M62.786 491.835L-1.77093 493.244M62.786 491.835L94.9939 553.982M117.137 528.31C137.33 537.944 177.064 557.323 174.452 557.764C171.84 558.205 120.391 555.426 94.9939 553.982M94.9939 553.982L-1.77093 493.244M-1.77093 493.244L-47.1887 455.854M-1.77093 493.244C-1.92092 495.167 -1.65646 519.31 -1.50548 531.141L-47.1887 455.854M-47.1887 455.854L-79.4319 425.133M-47.1887 455.854L-80.873 391.98M-47.1887 455.854L-106.688 506.011L-104.282 557.774M-79.4319 425.133L-98.0275 364.048M-79.4319 425.133L-80.873 391.98M-98.0275 364.048L-105.312 323.187M-98.0275 364.048L-80.873 391.98M-98.0275 364.048L-132.095 367.031L-140.126 387.357L-216.174 474.098M-105.312 323.187L-183.305 331.607L-196.882 299.119L-270.872 307.851M339.555 486.031L306.952 501.216L336.555 524.478M339.555 486.031L373.986 488.717M339.555 486.031L336.555 524.478M336.555 524.478L373.986 488.717M336.555 524.478L347.742 546.303M373.986 488.717L446.417 551.585M226.838 588.445L120.894 583.402L186.138 573.181L186.668 572.966M226.838 588.445L237.72 552.224L186.668 572.966M226.838 588.445L186.668 572.966M292.438 480.742L239.845 524.991L267.67 540.056L292.438 480.742ZM292.438 480.742L304.512 432.455M304.512 432.455L283.485 398.891L265.837 441.236L304.512 432.455ZM107.796 69.8498C105.874 69.6999 84.9422 70.2156 74.7165 70.4923L94.9608 89.8008L107.796 69.8498ZM399.708 128.085L374.284 113.207L368.527 83.7468L399.708 128.085ZM548.651 294.432L466.666 292.065L522.548 226.315L548.651 294.432ZM-61.3 295.998L-114.897 301.486L-86.3758 245.689L-61.3 295.998ZM-154.858 287.086L-167.634 254.661L-138.145 269.049L-154.858 287.086ZM-172.424 460.588C-181.578 457.456 -200.354 450.995 -202.226 450.204C-204.098 449.414 -220.741 408.735 -228.829 388.495L-172.424 460.588ZM435.504 505.605L386.086 519.478L431.285 477.071L435.504 505.605ZM347.058 606.69C345.777 606.59 327.874 611.64 319.084 614.178L295.449 597.022L347.058 606.69ZM239.118 513.652L213.409 533.404L217.284 483.743L239.118 513.652ZM-65.1683 614.013L-68.0469 599.283L-38.7603 574.974L-65.1683 614.013ZM-181.441 152.85L-202.408 173.778L-203.01 160.838L-181.441 152.85Z" stroke="white"/>
<circle cx="73.6788" cy="70.2529" r="4.75248" transform="rotate(34.4615 73.6788 70.2529)" fill="white"/>
<circle cx="109.29" cy="68.7554" r="4.75248" transform="rotate(34.4615 109.29 68.7554)" fill="white"/>
<circle cx="115.456" cy="51.3716" r="4.75248" transform="rotate(34.4615 115.456 51.3716)" fill="white"/>
<circle cx="226.459" cy="55.5027" r="4.75248" transform="rotate(34.4615 226.459 55.5027)" fill="white"/>
<circle cx="177.825" cy="69.6792" r="4.75248" transform="rotate(34.4615 177.825 69.6792)" fill="white"/>
<circle cx="254.14" cy="80.2637" r="4.75248" transform="rotate(34.4615 254.14 80.2637)" fill="white"/>
<circle cx="132.301" cy="73.0207" r="4.75248" transform="rotate(34.4615 132.301 73.0207)" fill="white"/>
</g>
</g>
<defs>
<clipPath id="clip0">
<rect width="320" height="80" fill="white"/>
</clipPath>
</defs>
</svg>
