<svg width="230" height="93" viewBox="0 0 230 93" fill="none" xmlns="http://www.w3.org/2000/svg">
<path d="M30.4033 76.6573C28.3545 76.6865 25.8397 76.5894 23.3248 76.3468C19.6156 75.9878 15.9646 75.3474 12.5176 73.8434C8.15778 71.9415 5.05058 68.788 3.17656 64.4118C1.92397 61.4911 1.26369 58.4249 0.875292 55.2907C0.409213 51.5452 0.292694 47.79 0.409214 44.0252C0.525734 40.5223 0.778191 37.0291 1.54528 33.5941C2.15701 30.819 3.03091 28.1409 4.53596 25.7053C6.22549 22.9787 8.49763 20.8828 11.3621 19.4176C14.4693 17.8262 17.7998 17.0403 21.2274 16.5745C25.3542 16.0117 29.51 15.9341 33.6659 16.0408C37.6276 16.1476 41.5698 16.4969 45.415 17.5448C48.1435 18.292 50.7166 19.3788 52.979 21.1351C55.1444 22.8137 56.7659 24.9194 57.9408 27.3646C59.3002 30.1882 60.0285 33.1866 60.4751 36.2625C60.8344 38.7466 60.9898 41.2403 61.0966 43.7341C61.1937 46.0628 61.1646 48.3916 61.048 50.7107C60.8441 54.8152 60.3586 58.8809 59.0089 62.801C57.7564 66.4398 55.7464 69.5642 52.5809 71.8542C50.4739 73.3776 48.1241 74.3868 45.6189 75.0563C42.6185 75.8714 39.5501 76.2789 36.4429 76.473C34.5981 76.5991 32.7434 76.6573 30.4033 76.6573ZM9.71137 62.2965C9.70166 62.2674 9.71137 62.1897 9.6434 62.2577C9.67253 62.2771 9.69195 62.2868 9.71137 62.2965C9.69195 62.3838 9.72108 62.4517 9.78905 62.5002C9.80847 62.5585 9.82789 62.6264 9.85702 62.6749C11.6728 65.6053 14.3042 67.478 17.5085 68.6133C20.9652 69.8359 24.5579 70.1852 28.1798 70.3114C31.753 70.4278 35.3263 70.3696 38.8704 69.8553C41.1329 69.5254 43.3467 69.0112 45.4441 68.0893C49.6291 66.2457 52.1537 62.966 53.4743 58.6771C54.5132 55.3004 54.8045 51.8072 54.9113 48.3043C55.0084 45.3739 54.8822 42.4532 54.5715 39.5422C54.3093 37.1552 53.8529 34.8264 53.0276 32.5656C51.542 28.5193 48.8523 25.6471 44.8032 24.0849C42.0165 23.0078 39.1035 22.5323 36.1516 22.3286C32.8794 22.0957 29.5974 22.0763 26.3154 22.2898C23.5966 22.4644 20.9167 22.804 18.3047 23.59C16.6734 24.0849 15.1198 24.7447 13.7022 25.7441C13.7701 25.8024 13.809 25.8509 13.8575 25.8897C14.9645 26.7339 16.1685 27.4131 17.392 28.0729C18.965 28.9171 20.606 29.5672 22.3538 29.9845C24.9366 30.6055 27.5583 30.9354 30.1897 31.2265C33.6271 31.6049 37.0547 31.9931 40.4629 32.6044C43.5604 33.1575 46.6481 33.7688 49.6291 34.8361C50.134 35.0205 50.5127 35.3116 50.8428 35.7288C52.8237 38.1935 53.6976 41.1627 54.6686 44.0931C54.7754 44.423 54.62 44.5006 54.3287 44.4618C53.8238 44.3939 53.3674 44.2095 52.8917 44.0543C52.5712 43.9475 52.2799 43.7438 51.9012 43.7243C51.9304 43.8117 51.9401 43.8602 51.9595 43.899C53.1344 46.0046 53.7558 48.314 54.5132 50.5846C54.688 51.1183 54.6686 51.0989 54.1248 51.0697C53.4743 51.0309 52.8431 50.9145 52.212 50.7786C52.0857 50.7495 51.9401 50.6816 51.8041 50.8175C52.7654 52.467 53.3286 54.2621 53.785 56.0961C53.9209 56.6491 53.8141 56.8238 53.2606 56.9694C52.6198 57.144 51.9595 57.2119 51.2992 57.2508C48.8814 57.406 46.4928 57.765 44.143 58.4054C41.696 59.075 39.3851 60.0841 37.0935 61.103C33.5202 62.6943 29.9858 64.3536 26.4222 65.974C25.7328 66.2845 25.0629 66.7115 24.3152 66.8182C22.4509 67.0802 20.5866 67.1384 18.7028 66.9541C16.2171 66.7115 13.9546 65.9449 11.9835 64.3536C11.2456 63.752 10.6047 63.0533 9.86673 62.442C9.82789 62.3838 9.79876 62.3062 9.71137 62.2965ZM13.0128 26.2972C12.9448 26.3263 12.8574 26.336 12.7991 26.3846C11.1387 27.7333 9.91528 29.412 9.01225 31.3429C8.1772 33.1283 7.68199 35.0108 7.31301 36.932C6.98287 38.6495 6.82751 40.3864 6.71099 42.1233C6.70128 42.2883 6.59447 42.492 6.89548 42.5891C8.26459 43.0257 9.58514 43.5885 10.9834 43.9669C12.9642 44.5103 14.9548 45.0052 17.023 45.0149C19.0621 45.0246 21.0915 44.8499 23.1111 44.6074C27.3059 44.0931 31.4714 43.3071 35.6856 42.9481C38.618 42.6958 41.531 42.3659 44.4828 42.4629C46.0558 42.5211 47.6094 42.6376 49.1436 42.9675C49.8621 43.1227 50.5807 43.2974 51.3283 43.4624C51.2118 43.2586 51.0273 43.181 50.8623 43.0936C49.8136 42.5211 48.7455 41.9875 47.6288 41.5411C43.5507 39.9012 39.2491 39.3191 34.9088 38.9212C32.9279 38.7369 30.9471 38.601 28.976 38.3972C25.8979 38.0867 22.8101 37.7471 19.7709 37.1649C17.0327 36.6409 14.3819 35.8356 11.8379 34.6906C11.6728 34.613 11.5174 34.5353 11.4689 34.3316C11.2941 33.6329 11.0902 32.9343 11.0416 32.1968C10.9154 30.1591 11.6922 28.4125 12.7603 26.7533C12.8671 26.6077 13.0225 26.501 13.0128 26.2972C13.0904 26.3069 13.1584 26.2875 13.1778 26.2002C13.1778 26.1905 13.1681 26.1614 13.1584 26.1614C13.071 26.1614 13.0322 26.2196 13.0128 26.2972ZM6.7207 42.8802C6.69157 43.1325 6.63331 43.3847 6.6236 43.637C6.5265 47.6348 6.57505 51.6131 7.3033 55.5624C7.66257 57.4836 8.1772 59.3661 9.03168 61.1418C9.11907 61.3164 9.13849 61.5396 9.4395 61.5396C10.828 61.5784 12.2165 61.6755 13.6051 61.6852C15.382 61.6949 17.091 61.2776 18.7902 60.8022C21.3731 60.0744 23.8588 59.0653 26.3349 58.0173C30.1412 56.3969 33.8892 54.6697 37.7732 53.2336C40.3464 52.2827 42.9486 51.4191 45.6577 50.8951C47.221 50.5943 48.794 50.4196 50.3865 50.4002C50.27 50.3226 50.1534 50.2741 50.0369 50.2353C46.8229 49.3426 43.541 49.2164 40.2396 49.4105C37.3848 49.5851 34.5689 50.1091 31.753 50.5749C27.7428 51.2347 23.752 52.0304 19.7029 52.4282C16.7026 52.729 13.7022 52.7775 10.7115 52.37C10.4105 52.3312 10.1775 52.2147 9.97354 51.9625C8.96371 50.7107 8.26459 49.3037 7.7888 47.79C7.25475 46.189 7.00229 44.5394 6.7207 42.8802Z" fill="#338FBF"/>
<path d="M112.832 46.1694C112.832 43.4719 112.842 40.7744 112.822 38.0672C112.822 37.6791 112.91 37.5335 113.327 37.5529C114.162 37.5917 115.007 37.5917 115.852 37.5529C116.318 37.5335 116.425 37.7082 116.415 38.1351C116.396 39.9496 116.415 41.7544 116.396 43.569C116.396 43.9765 116.502 44.1026 116.91 44.0832C117.619 44.0541 118.338 44.0444 119.046 44.0832C119.493 44.1123 119.61 43.8989 119.629 43.5301C119.678 42.6665 119.901 41.8418 120.192 41.0364C120.969 38.8823 122.532 37.6597 124.756 37.2327C126.688 36.864 128.611 36.9028 130.514 37.4268C132.747 38.0381 134.107 39.5615 134.679 41.7447C135.437 44.6557 135.427 47.5958 134.592 50.4874C133.738 53.4372 131.64 55.0092 128.582 55.2323C126.785 55.3585 125.028 55.2614 123.358 54.5434C121.581 53.7768 120.493 52.4087 119.94 50.5747C119.639 49.5947 119.503 48.5953 119.483 47.5764C119.474 47.3532 119.415 47.2562 119.173 47.2659C118.367 47.2756 117.551 47.2853 116.745 47.2659C116.376 47.2562 116.425 47.4891 116.425 47.7123C116.425 49.8955 116.415 52.0788 116.434 54.262C116.444 54.7278 116.279 54.8345 115.842 54.8248C114.997 54.7957 114.162 54.786 113.317 54.8248C112.91 54.8442 112.793 54.6986 112.842 54.3396C112.842 54.3105 112.842 54.2717 112.842 54.2426C112.832 51.5354 112.832 48.8573 112.832 46.1694ZM131.397 46.412C131.407 44.8886 131.378 43.6466 130.999 42.4434C130.669 41.4051 130.009 40.7162 128.941 40.4736C127.97 40.2504 126.979 40.2989 125.999 40.4057C125.164 40.493 124.465 40.8811 123.998 41.6186C123.668 42.1426 123.513 42.7442 123.396 43.3458C123.105 44.8692 123.173 46.4023 123.222 47.9354C123.251 48.7311 123.377 49.5365 123.668 50.3031C124.037 51.254 124.668 51.8944 125.688 52.137C126.504 52.3213 127.31 52.3407 128.135 52.2437C129.64 52.0593 130.543 51.3219 130.97 49.8761C131.359 48.6341 131.407 47.3921 131.397 46.412Z" fill="#338FBF"/>
<path d="M183.463 37.0674C184.968 37.1256 186.444 37.2809 187.872 37.8339C190.726 38.9595 191.756 42.4818 189.92 44.9562C189.746 45.189 189.668 45.3055 189.959 45.5287C192.833 47.7216 192.581 52.9711 188.648 54.5139C186.804 55.2417 184.871 55.4163 182.9 55.3387C181.463 55.2805 180.036 55.1349 178.618 54.9312C178.171 54.8632 178.074 54.708 178.074 54.2907C178.084 51.4768 178.084 48.6628 178.074 45.8489C178.065 43.3939 178.065 40.939 178.016 38.4744C178.006 37.9407 178.171 37.766 178.676 37.6593C180.249 37.3294 181.842 37.1353 183.463 37.0674ZM181.589 49.672C181.589 50.3318 181.609 51.0013 181.58 51.6612C181.56 52.0493 181.686 52.2045 182.094 52.2045C183.221 52.1948 184.357 52.2822 185.483 52.0978C186.551 51.9231 187.522 51.5932 187.988 50.4676C188.6 49.0121 187.988 47.7216 186.464 47.382C184.949 47.0521 183.405 47.1976 181.881 47.1782C181.599 47.1782 181.599 47.3723 181.599 47.5761C181.589 48.2844 181.589 48.9733 181.589 49.672ZM181.589 42.3363C181.589 42.8506 181.599 43.3745 181.58 43.8888C181.57 44.1702 181.677 44.2575 181.949 44.2478C182.745 44.2381 183.531 44.2672 184.328 44.2284C184.939 44.1896 185.541 44.1217 186.143 43.947C187.308 43.6074 187.425 42.181 187.056 41.4727C186.755 40.9002 186.211 40.6964 185.638 40.5703C184.395 40.2889 183.143 40.318 181.881 40.4538C181.648 40.4829 181.589 40.5703 181.589 40.7935C181.599 41.3077 181.589 41.822 181.589 42.3363Z" fill="#338FBF"/>
<path d="M229.731 46.2471C229.789 47.7123 229.624 49.1775 229.206 50.5845C228.478 53.02 226.866 54.5628 224.371 55.1062C222.196 55.572 220.011 55.572 217.836 55.0674C214.981 54.3979 213.466 52.4766 212.962 49.6821C212.515 47.2077 212.495 44.7431 213.059 42.2784C213.69 39.4839 215.671 37.6694 218.613 37.1842C220.526 36.864 222.448 36.8446 224.332 37.3103C227.012 37.9605 228.663 39.6877 229.342 42.3464C229.663 43.6175 229.779 44.9177 229.731 46.2471ZM225.963 46.412C225.973 45.4805 225.953 44.549 225.759 43.6175C225.41 41.9 224.38 40.8229 222.671 40.493C221.613 40.2893 220.555 40.3087 219.496 40.5124C217.923 40.8035 216.962 41.7448 216.671 43.2973C216.282 45.3738 216.263 47.4697 216.729 49.5365C217.04 50.9047 217.914 51.7489 219.322 52.0205C220.438 52.2437 221.565 52.2534 222.691 52.0982C224.419 51.8556 225.41 50.8853 225.759 49.1484C225.953 48.246 225.963 47.3242 225.963 46.412Z" fill="#338FBF"/>
<path d="M171.946 47.0135C171.946 48.3234 171.937 49.6334 171.946 50.9433C171.946 51.739 172.082 51.8846 172.859 51.9137C173.179 51.9234 173.238 52.0495 173.228 52.3212C173.189 53.1751 173.15 54.029 173.131 54.8829C173.121 55.1158 173.005 55.2031 172.791 55.1934C171.587 55.0964 170.305 55.3098 169.286 54.388C169.13 54.2425 168.985 54.3104 168.839 54.3589C167.295 54.8538 165.742 55.2613 164.12 55.368C162.887 55.4457 161.663 55.3875 160.527 54.8247C159.343 54.2425 158.644 53.2818 158.381 52.001C158.139 50.8269 158.003 49.6431 158.207 48.4496C158.537 46.4798 159.751 45.3251 161.615 44.7623C162.615 44.4615 163.644 44.3645 164.664 44.2675C165.8 44.1607 166.936 43.9861 168.082 43.957C168.286 43.957 168.383 43.8502 168.373 43.6562C168.334 43.0157 168.354 42.3656 168.15 41.7446C167.897 40.9586 167.344 40.5317 166.509 40.4735C164.547 40.3376 162.693 40.7937 160.887 41.4923C160.508 41.6379 160.333 41.6282 160.149 41.24C159.819 40.5123 159.43 39.7942 159.061 39.0859C158.925 38.8336 158.954 38.6978 159.226 38.5522C160.489 37.9021 161.848 37.5528 163.236 37.3393C164.751 37.1064 166.276 36.99 167.81 37.2811C169.956 37.6886 171.383 39.1344 171.752 41.2788C171.869 41.9678 171.927 42.6567 171.937 43.3456C171.946 44.5489 171.937 45.7812 171.946 47.0135C171.937 47.0135 171.946 47.0135 171.946 47.0135ZM168.373 49.1967C168.373 48.7116 168.373 48.2264 168.373 47.7412C168.373 46.9941 168.354 46.9941 167.625 47.0717C166.538 47.1785 165.45 47.2658 164.353 47.3531C162.664 47.4793 161.625 48.0518 161.761 50.0021C161.77 50.0797 161.761 50.1671 161.761 50.2447C161.78 51.4867 162.547 52.2242 163.8 52.1563C165.256 52.0786 166.664 51.7196 168.072 51.3897C168.305 51.3315 168.383 51.2247 168.383 50.9919C168.363 50.3902 168.373 49.7886 168.373 49.1967Z" fill="#338FBF"/>
<path d="M107.491 46.1888C107.491 48.8863 107.482 51.5838 107.501 54.291C107.501 54.7083 107.404 54.8538 106.967 54.8344C106.113 54.7956 105.248 54.8053 104.394 54.8344C104.006 54.8441 103.908 54.7277 103.908 54.3493C103.918 49.9246 103.918 45.4902 103.918 41.0655C103.918 40.3571 103.918 40.3183 103.219 40.2989C101.86 40.2504 100.51 40.1922 99.1505 40.3765C98.8495 40.4153 98.6553 40.493 98.6359 40.8617C98.5777 41.9096 98.4417 42.9479 98.3835 43.9958C98.2378 46.3829 98.0436 48.7602 97.4513 51.0793C97.092 52.4862 96.4318 53.6991 95.0432 54.3687C94.2664 54.7374 93.4411 54.8441 92.5963 54.8538C92.3827 54.8538 92.2662 54.8053 92.2467 54.5724C92.1788 53.8156 92.0914 53.0684 92.0137 52.3116C91.9943 52.1272 92.1205 52.0884 92.2565 52.0787C93.4605 52.0302 93.8683 51.1472 94.2082 50.2157C94.6257 49.0707 94.7713 47.8578 94.8781 46.6545C95.1306 43.8309 95.3539 40.9975 95.5773 38.1739C95.6064 37.7566 95.7132 37.5043 96.2278 37.417C98.665 37.0095 101.093 36.8833 103.559 37.058C104.714 37.1453 105.86 37.3006 107.016 37.4558C107.423 37.514 107.501 37.679 107.501 38.0477C107.482 40.7549 107.482 43.4719 107.491 46.1888C107.482 46.1888 107.482 46.1888 107.491 46.1888Z" fill="#338FBF"/>
<path d="M88.7816 37.5625C88.1213 38.397 87.5193 39.1441 86.927 39.901C85.5579 41.6088 84.1791 43.3263 82.81 45.034C82.674 45.2087 82.5089 45.3446 82.7711 45.5968C84.0625 46.7806 84.9559 48.2555 85.8492 49.7401C86.2279 50.3709 86.6066 51.0113 87.1697 51.5256C87.4222 51.7584 87.6844 51.9816 88.0339 52.0301C88.2961 52.0689 88.3446 52.2242 88.3544 52.428C88.3932 53.1363 88.432 53.8446 88.4806 54.553C88.4903 54.6985 88.5097 54.815 88.3155 54.8247C86.9464 54.8635 85.5676 54.9217 84.4801 53.8738C83.8295 53.243 83.3731 52.4474 82.8682 51.7002C82.0817 50.5261 81.4408 49.2453 80.5087 48.1585C80.1203 47.7024 79.6639 47.324 79.0328 47.2367C78.5084 47.1688 78.4307 47.2173 78.4307 47.7316C78.4307 49.9342 78.421 52.1272 78.4405 54.3298C78.4405 54.7373 78.3239 54.8538 77.9258 54.8441C77.0325 54.815 76.1489 54.8247 75.2556 54.8441C74.9643 54.8441 74.8672 54.7568 74.8672 54.4559C74.8769 48.9639 74.8769 43.4621 74.8672 37.97C74.8672 37.6304 75.0031 37.5722 75.2944 37.5722C76.1975 37.5916 77.1102 37.5916 78.0132 37.5722C78.3725 37.5625 78.4405 37.708 78.4405 38.0283C78.4308 40.0465 78.4308 42.0745 78.4405 44.0928C78.4405 44.2869 78.3142 44.578 78.5861 44.6362C78.8871 44.7041 79.2076 44.7526 79.46 44.4227C80.567 42.9963 81.6933 41.5894 82.81 40.163C83.4314 39.377 84.0431 38.591 84.6549 37.7954C84.7325 37.6886 84.8199 37.5916 84.9656 37.5916C86.1987 37.5625 87.4416 37.5625 88.7816 37.5625Z" fill="#338FBF"/>
<path d="M153.121 46.1689C153.121 48.8568 153.111 51.5349 153.131 54.2227C153.131 54.6205 153.024 54.7564 152.616 54.7369C151.742 54.7078 150.868 54.7078 149.995 54.7369C149.635 54.7466 149.519 54.6496 149.528 54.2809C149.548 52.7963 149.528 51.302 149.548 49.8174C149.558 49.3904 149.402 49.3322 149.043 49.4195C147.548 49.7786 146.023 49.9726 144.479 49.8756C142.848 49.7689 141.401 49.2546 140.508 47.7603C139.954 46.8482 139.731 45.8196 139.644 44.762C139.449 42.4914 139.585 40.2111 139.537 37.9308C139.527 37.6397 139.615 37.533 139.916 37.5427C140.857 37.5621 141.79 37.5621 142.731 37.5427C143.071 37.533 143.13 37.6689 143.13 37.9697C143.12 39.6871 143.13 41.3949 143.13 43.1124C143.13 43.811 143.207 44.4903 143.314 45.1792C143.411 45.8293 143.809 46.1495 144.411 46.2951C145.722 46.6347 147.014 46.4115 148.295 46.1398C149.548 45.8681 149.538 45.8487 149.538 44.5873C149.538 42.4041 149.548 40.2208 149.528 38.0376C149.528 37.6689 149.606 37.5233 150.004 37.5427C150.878 37.5718 151.752 37.5718 152.626 37.5427C153.053 37.5233 153.131 37.6883 153.121 38.0667C153.111 40.7739 153.121 43.4714 153.121 46.1689Z" fill="#338FBF"/>
<path d="M200.319 47.5954C200.319 45.3636 200.309 43.1319 200.329 40.9001C200.329 40.5508 200.261 40.4344 199.882 40.4441C198.688 40.4732 197.493 40.5702 196.309 40.7255C195.901 40.7837 195.639 40.7449 195.425 40.3082C195.037 39.4737 194.551 38.6878 194.104 37.8921C193.959 37.6398 193.959 37.504 194.328 37.4652C197.95 37.0285 201.581 36.9897 205.222 37.1061C206.757 37.1547 208.281 37.2905 209.805 37.4749C210.106 37.5137 210.165 37.5913 210.039 37.863C209.631 38.746 209.233 39.6193 208.844 40.512C208.66 40.9389 208.32 40.7546 208.048 40.7352C206.844 40.6187 205.64 40.512 204.426 40.4635C203.95 40.4441 203.824 40.5896 203.824 41.0554C203.844 45.3248 203.834 49.5943 203.834 53.8637C203.834 54.7467 203.844 54.7467 202.921 54.7467C202.222 54.7467 201.533 54.7176 200.833 54.7564C200.377 54.7855 200.309 54.6206 200.309 54.2131C200.329 51.991 200.319 49.7981 200.319 47.5954Z" fill="#338FBF"/>
</svg>
