<svg width="80" height="58" viewBox="0 0 80 58" fill="none" xmlns="http://www.w3.org/2000/svg">
<path d="M0 58H80V4.93386e-06H0V58Z" fill="#333333"/>
<path d="M13.8823 42.1479C13.7455 41.6406 13.474 40.6577 12.0467 40.6577C11.2171 40.6577 9.96328 41.26 9.96328 43.6302C9.96328 45.1353 10.59 46.53 12.0467 46.53C13.0053 46.53 13.6778 45.9426 13.8823 44.9132H15.6054C15.264 46.742 14.0891 48.0132 12.0152 48.0132C9.81653 48.0132 8.24243 46.4958 8.24243 43.6061C8.24243 40.6677 9.9076 39.1776 12.0368 39.1776C14.5121 39.1776 15.5113 40.9113 15.6054 42.1479H13.8823Z" fill="white"/>
<path d="M17.7137 43.9311L19.7393 41.5705H21.7122L19.5589 43.9749L21.77 47.7937H19.8424L18.3814 45.1208L17.7137 45.8282V47.7937H16.106V41.5705H17.7137V43.9311Z" fill="white"/>
<path d="M27.6516 44.67C27.6516 46.9132 26.169 47.957 24.5276 47.957C22.8887 47.957 21.394 46.9285 21.394 44.6845C21.394 42.4387 22.8887 41.4088 24.5276 41.4088C26.169 41.4088 27.6516 42.4264 27.6516 44.67ZM23.0471 44.67C23.0471 45.4672 23.2854 46.5768 24.5276 46.5768C25.7702 46.5768 25.9981 45.4795 25.9981 44.6845C25.9981 43.8846 25.7702 42.7869 24.5276 42.7869C23.2854 42.7869 23.0471 43.8723 23.0471 44.67Z" fill="white"/>
<path d="M33.6927 41.5698V47.7935H32.0849V42.8796H30.3645V44.7986C30.3645 47.1789 29.6584 47.9297 28.5288 47.9297C28.2478 47.9297 27.7886 47.8837 27.5508 47.7935V46.5766C27.584 46.6007 27.7886 46.623 28.0264 46.623C28.5094 46.623 28.7593 46.3812 28.7593 44.4863V41.5698H33.6927Z" fill="white"/>
<path d="M36.1224 43.9311L38.148 41.5705H40.1209L37.9654 43.9749L40.1787 47.7937H38.2512L36.7927 45.1208L36.1224 45.8282V47.7937H34.5146V41.5705H36.1224V43.9311Z" fill="white"/>
<path d="M46.0597 44.67C46.0597 46.9132 44.5797 47.957 42.9382 47.957C41.2968 47.957 39.8047 46.9285 39.8047 44.6845C39.8047 42.4387 41.2968 41.4088 42.9382 41.4088C44.5797 41.4088 46.0597 42.4264 46.0597 44.67ZM41.4582 44.67C41.4582 45.4672 41.696 46.5768 42.9382 46.5768C44.1752 46.5768 44.4113 45.4795 44.4113 44.6845C44.4113 43.8846 44.1752 42.7869 42.9382 42.7869C41.696 42.7869 41.4582 43.8723 41.4582 44.67Z" fill="white"/>
<path d="M46.5806 41.5706H49.3489C50.7185 41.5706 51.7202 42.1392 51.7202 43.1782C51.7202 43.8948 51.2183 44.3556 50.5786 44.519C51.2057 44.671 51.9024 45.0775 51.9024 46.0951C51.9024 47.248 51.0426 47.7947 49.6537 47.7947H46.5806V41.5706ZM48.1853 44.0902H49.2333C49.7667 44.0902 50.1444 43.8734 50.1444 43.3854C50.1444 42.8777 49.781 42.6929 49.2453 42.6929H48.1853V44.0902ZM48.1853 46.6729H49.3675C49.9614 46.6729 50.3291 46.4876 50.3291 45.8726C50.3291 45.329 49.942 45.0775 49.3489 45.0775H48.1853V46.6729Z" fill="white"/>
<path d="M58.3384 44.67C58.3384 46.9132 56.8605 47.957 55.2169 47.957C53.5777 47.957 52.0808 46.9285 52.0808 44.6845C52.0808 42.4387 53.5777 41.4088 55.2169 41.4088C56.8605 41.4088 58.3384 42.4264 58.3384 44.67ZM53.7343 44.67C53.7343 45.4672 53.9765 46.5768 55.2169 46.5768C56.4591 46.5768 56.6853 45.4795 56.6853 44.6845C56.6853 43.8846 56.4591 42.7869 55.2169 42.7869C53.9765 42.7869 53.7343 43.8723 53.7343 44.67Z" fill="white"/>
<path d="M19.9295 37.77C21.2995 37.77 24.673 37.5265 27.194 35.6582V37.0753H32.2806L32.2858 30.8442L34.4098 28.6129L39.0333 37.0753H45.1363L38.132 24.9837L44.9542 17.3628H38.7065L32.2858 24.8401V10.476H27.194V12.7485C25.6437 11.059 23.1304 9.78125 19.2113 9.78125C10.7283 9.78125 9.13567 15.0188 9.13567 17.9506C9.13567 21.9792 11.2696 24.218 14.9866 25.1327L20.2567 26.4494C23.0363 27.1468 25.0239 27.6588 25.0239 29.7469C25.0239 32.532 22.1334 33.1903 19.5333 33.1903C14.7678 33.1903 13.9749 30.3707 13.9749 28.8691H8.73901C8.73901 32.1658 10.3994 37.77 19.9295 37.77ZM23.3971 21.9087L17.0101 20.3305C15.9241 20.0747 14.227 19.6331 14.227 17.5481C14.227 15.1656 16.7192 14.3587 18.8125 14.3587C23.5775 14.3587 24.0126 17.1823 24.1542 18.3895H27.194V23.3477C26.0787 22.6867 24.7623 22.2574 23.3971 21.9087Z" fill="white"/>
</svg>
