<svg width="219" height="93" viewBox="0 0 219 93" fill="none" xmlns="http://www.w3.org/2000/svg">
<path d="M0.804688 53.147L12.089 52.1307C12.5467 53.4507 13.2014 54.4039 14.0319 54.9662C14.8624 55.5285 15.996 55.8111 17.3933 55.8111C18.9209 55.8111 20.0999 55.4864 20.9274 54.8369C21.5821 54.3618 21.9094 53.7544 21.9094 53.0388C21.9094 52.2149 21.473 51.5895 20.6213 51.1565C20.009 50.8317 18.3723 50.4408 15.7323 49.9868C11.7829 49.2952 9.05503 48.6668 7.5062 48.0804C5.97858 47.4971 4.69041 46.5229 3.62047 45.1367C2.57175 43.7505 2.04739 42.1689 2.04739 40.3949C2.04739 38.4464 2.61419 36.7806 3.75081 35.3734C4.88742 33.9662 6.45748 32.9258 8.44277 32.2342C10.4281 31.5426 13.0923 31.1938 16.4506 31.1938C19.9848 31.1938 22.6035 31.4524 24.2857 31.9937C25.9679 32.5349 27.3834 33.3588 28.4988 34.4834C29.6324 35.6079 30.5508 37.1234 31.3146 39.0298L20.4667 40.1543C20.1818 39.2012 19.7241 38.4885 19.0906 38.0315C18.1965 37.4241 17.1265 37.1234 15.8838 37.1234C14.6169 37.1234 13.6803 37.3609 13.1135 37.7939C12.5255 38.248 12.2406 38.8103 12.2406 39.4387C12.2406 40.1543 12.6104 40.7166 13.353 41.0835C14.0956 41.4503 15.7111 41.7991 18.1965 42.0787C21.9731 42.5117 24.7858 43.0951 26.6196 43.8528C28.4533 44.6105 29.8718 45.693 30.8539 47.1002C31.8359 48.5074 32.3148 50.0439 32.3148 51.7338C32.3148 53.4447 31.7904 55.0895 30.766 56.6921C29.7415 58.2948 28.1048 59.5727 25.877 60.5229C23.6492 61.4731 20.6182 61.9512 16.7992 61.9512C11.3859 61.9512 7.5456 61.1934 5.23296 59.6569C2.94456 58.1264 1.45938 55.9374 0.804688 53.123V53.147Z" fill="#338FBF"/>
<path d="M46.5029 40.7407C47.594 39.4627 48.9701 38.8133 50.628 38.8133C52.1981 38.8133 53.5075 39.4417 54.5774 40.6956C55.6474 41.9524 56.1717 43.8768 56.1717 46.4537C56.1717 49.2261 55.6474 51.2377 54.5774 52.4945C53.5287 53.7514 52.1769 54.3768 50.5401 54.3768C48.9034 54.3768 47.5728 53.7484 46.4816 52.4705C45.4117 51.1926 44.8661 49.2441 44.8661 46.583C44.8661 43.964 45.4117 42.0156 46.4816 40.7377H46.5029V40.7407ZM38.9102 58.385C41.8564 60.7875 45.7178 61.9782 50.4765 61.9782C55.8232 61.9782 60.015 60.5289 63.0248 57.6483C66.0588 54.7467 67.5652 51.0452 67.5652 46.4988C67.5652 42.4726 66.3437 39.0719 63.8977 36.3236C60.8637 32.9018 56.3687 31.1938 50.431 31.1938C45.2359 31.1938 41.1107 32.6432 38.0555 35.5658C35.0003 38.4885 33.4727 42.19 33.4727 46.6732C33.4727 51.5023 35.2852 55.3992 38.886 58.385H38.9102Z" fill="#338FBF"/>
<path d="M82.8848 31.8651H88.2981V40.1581H82.8848V61.3114H71.4913V40.1551H67.1934V31.8651H71.4913V30.5451C71.4913 29.3544 71.6216 28.0344 71.8853 26.582C72.146 25.1538 72.6279 23.9631 73.3463 23.052C74.0646 22.1409 75.0709 21.4072 76.3803 20.8449C77.6472 20.2826 79.5022 20 81.9452 20H82.1846C84.1699 20 87.0524 20.2375 90.7835 20.6916L89.4954 27.4901C88.1193 27.2736 87.0281 27.1654 86.2007 27.1654C85.1762 27.1654 84.4336 27.3398 83.9759 27.6856C83.5182 28.0314 83.2121 28.5726 83.0151 29.3093C82.9272 29.7212 82.8848 30.5662 82.8848 31.8862V31.8651Z" fill="#338FBF"/>
<path d="M103.313 40.1555V50.6134C103.313 51.8703 103.422 52.6911 103.662 53.1031C104.032 53.7315 104.686 54.0563 105.605 54.0563C106.435 54.0563 107.611 53.8187 109.118 53.3406L109.948 61.0923C107.132 61.6997 104.514 62.0004 102.071 62.0004C99.2337 62.0004 97.1605 61.6336 95.8087 60.9179C94.4781 60.2023 93.4748 59.0988 92.8413 57.6284C92.2078 56.1581 91.8805 53.7977 91.8805 50.5051V40.1555H87.7129V31.8655H91.8805V26.4532L103.274 20.6499V40.1344L103.313 40.1555Z" fill="#338FBF"/>
<path d="M112.541 20.6704H123.935V61.3293H112.541V20.6704Z" fill="#338FBF"/>
<path d="M128.738 61.3296H140.129V31.8652H128.738V61.3296Z" fill="#338FBF"/>
<path d="M128.738 20.6704V28.4011H140.129V20.6704H128.738Z" fill="#338FBF"/>
<path d="M144.47 31.8654H155.099V36.6704C156.67 34.7009 158.285 33.3147 159.901 32.4698C161.516 31.6248 163.501 31.2129 165.814 31.2129C168.957 31.2129 171.421 32.145 173.191 34.0063C174.958 35.8675 175.853 38.7271 175.853 42.624V61.3508H164.459V45.1588C164.459 43.3186 164.111 41.9985 163.435 41.2408C162.738 40.4831 161.777 40.0922 160.531 40.0922C159.155 40.0922 158.043 40.6124 157.17 41.6497C156.318 42.6901 155.881 44.5514 155.881 47.2125V61.3718H144.467V31.9285V31.8654H144.47Z" fill="#338FBF"/>
<path d="M190.105 44.0753C190.281 42.3012 190.718 40.9782 191.415 40.0701C192.485 38.6419 193.924 37.9052 195.737 37.9052C197.286 37.9052 198.553 38.3803 199.514 39.3335C200.474 40.2866 201.062 41.8652 201.281 44.0753H190.13H190.105ZM212.759 48.1676C212.759 44.2707 212.125 41.1105 210.837 38.684C209.549 36.2574 207.694 34.3962 205.23 33.1213C202.763 31.8433 199.426 31.1938 195.191 31.1938C189.975 31.1938 185.874 32.6221 182.904 35.4576C179.936 38.3141 178.451 42.0396 178.451 46.6281C178.451 49.8545 179.194 52.69 180.655 55.0714C182.14 57.4739 183.995 59.2059 186.241 60.3094C188.49 61.4129 191.566 61.9542 195.494 61.9542C200.011 61.9542 203.46 61.3047 205.882 60.0268C208.303 58.7488 210.355 56.629 212.059 53.6612L200.884 52.6449C200.186 53.5319 199.532 54.1603 198.919 54.5061C197.916 55.0684 196.867 55.33 195.776 55.33C194.03 55.33 192.612 54.7016 191.521 53.4237C190.757 52.5366 190.254 51.1926 190.06 49.3975H212.756V48.1195V48.1676H212.759Z" fill="#338FBF"/>
<path d="M53.0732 24.6335C66.058 26.0197 71.2531 27.1232 83.3649 30.3496C93.4702 33.0558 109.531 31.8861 109.531 31.8861C109.531 31.8861 109.531 37.0158 109.531 40.1791C103.245 41.0451 89.5845 40.7414 78.2365 36.628C57.9198 29.2882 48.7086 27.7938 37.8395 27.015C23.1089 25.9746 5.56252 28.1847 5.56252 28.1847L5.38672 26.7113C5.38672 26.7113 30.7894 22.2521 53.0732 24.6335Z" fill="#338FBF"/>
<path d="M213.193 21.4946C215.9 21.4946 218.103 23.5724 218.279 26.1914V26.928C218.082 29.547 215.879 31.6248 213.193 31.6248C210.377 31.6248 208.086 29.3516 208.086 26.5582C208.086 23.7648 210.377 21.4946 213.193 21.4946ZM213.193 30.4581C215.354 30.4581 217.121 28.7051 217.121 26.5612C217.121 24.4173 215.354 22.6643 213.193 22.6643C211.032 22.6643 209.265 24.4173 209.265 26.5612C209.265 28.7051 211.032 30.4581 213.193 30.4581ZM213.542 24.0054C214.7 24.0054 215.288 24.6128 215.288 25.4126C215.288 26.1282 214.763 26.5161 214.284 26.6033V26.6244C214.59 26.7116 214.787 27.0784 214.83 27.1656L215.682 29.1802H214.306L213.63 27.5354C213.608 27.4693 213.433 27.1235 212.954 27.1235H212.56V29.1802H211.293V24.0264H213.563L213.542 24.0054ZM212.538 26.1493H213.105C213.911 26.1493 213.999 25.7373 213.999 25.5208C213.999 24.9585 213.236 24.9796 213.105 24.9796H212.538V26.1493Z" fill="#338FBF"/>
</svg>
