<svg width="1308" height="1262" viewBox="0 0 1308 1262" fill="none" xmlns="http://www.w3.org/2000/svg">
<path d="M1067.85 574.599L994.489 509.163L928.617 539.85M928.617 539.85L906.837 483.668M928.617 539.85L913.818 564.513M906.837 483.668L928.027 477M906.837 483.668L913.818 564.513M913.818 564.513L913.805 648.381M913.818 564.513L936.704 633.502M913.818 564.513L890.977 598.742M913.818 564.513L883.218 480.869M913.805 648.381L936.704 633.502M913.805 648.381L876.008 677.45M913.805 648.381L890.977 598.742M913.805 648.381L868.804 743.392M936.704 633.502L956.599 639.848M936.704 633.502L918.712 705.213M876.008 677.45L828.011 597.728M876.008 677.45L890.977 598.742M876.008 677.45L866.815 570.991M876.008 677.45L868.804 743.392M828.011 597.728L866.815 570.991M828.011 597.728L760.515 648.456L735.604 523.602M828.011 597.728L735.604 523.602M866.815 570.991L848.768 558.034M866.815 570.991L883.218 480.869M866.815 570.991L890.977 598.742M890.977 598.742L883.218 480.869M883.218 480.869L888.8 452.163M883.218 480.869L854.858 432.514M888.8 452.163L927.288 431.099L927.615 406.878L985.179 364.006M888.8 452.163L854.858 432.514M888.8 452.163L829.452 390.355M854.858 432.514L820.956 403.992M854.858 432.514L829.452 390.355M820.956 403.992L829.452 390.355M820.956 403.992L794.569 434.494M820.956 403.992L789.938 380.865M829.452 390.355L789.938 380.865M794.569 434.494L737.848 403.104M794.569 434.494L789.938 380.865M737.848 403.104L641.126 421.939L640.467 358.289M737.848 403.104L640.467 358.289M737.848 403.104L789.938 380.865M737.848 403.104L720.236 357.852M640.467 358.289C665.456 358.282 716.395 358.184 720.236 357.852M640.467 358.289L685.425 337.472M640.467 358.289L576.286 352.541L685.425 337.472M789.938 380.865L720.236 357.852M720.236 357.852L685.425 337.472M557.01 418.719L653.881 382.936L596.21 368.562L557.01 418.719ZM557.01 418.719C557.976 419.17 587.659 457.562 602.38 476.702L591.176 517.011M763.974 462.941L817.07 508.354L854.451 474.483L763.974 462.941ZM763.974 462.941L735.604 523.602M538.133 396.156L535.493 449.607M535.493 449.607L503.784 418.476M535.493 449.607L490.551 563.967L438.59 541.035M535.493 449.607L438.59 541.035M535.493 449.607L456.197 474.196M503.784 418.476L456.197 474.196M503.784 418.476L443.75 460.755M456.197 474.196L443.75 460.755M456.197 474.196L438.59 541.035M456.197 474.196L410.17 538.651M443.75 460.755L408.266 460.593L351.09 433.274M443.75 460.755L410.17 538.651M438.59 541.035L410.17 538.651M438.59 541.035L455.803 675.026M438.59 541.035L421.021 664.321M455.803 675.026L421.021 664.321M455.803 675.026L513.742 645.831M455.803 675.026L438.662 719.246M455.803 675.026L482.323 776.764M455.803 675.026L503.959 719.253M421.021 664.321L403.319 655.366M421.021 664.321L417.177 694.49M421.021 664.321L438.662 719.246M513.742 645.831L503.959 719.253M513.742 645.831L577.63 675.711L551.11 550.52L513.742 645.831ZM503.959 719.253L620.733 736.588M503.959 719.253L482.323 776.764M503.959 719.253L533.236 806.237M503.959 719.253L596.696 794.306M620.733 736.588L717.564 709.679M620.733 736.588C655.452 755.901 725.211 794.499 726.491 794.388M620.733 736.588C613.208 755.247 597.866 792.915 596.696 794.306M620.733 736.588C633.288 765.187 657.973 822.192 656.273 821.418M620.733 736.588L653.535 672.775M717.564 709.679L789.685 760.707L726.491 794.388M717.564 709.679L726.491 794.388M596.696 794.306L656.273 821.418M596.696 794.306L533.236 806.237M596.696 794.306L638.619 850.36M656.273 821.418C677.768 827.626 720.133 840.257 717.628 841.119C715.123 841.98 663.911 847.639 638.619 850.36M638.619 850.36L533.236 806.237M533.236 806.237L482.323 776.764M533.236 806.237C533.402 808.158 537.604 831.934 539.685 843.581L482.323 776.764M482.323 776.764L445.496 751.719M482.323 776.764L438.662 719.246M482.323 776.764L431.811 835.961L442.636 886.637M445.496 751.719L417.177 694.49M445.496 751.719L438.662 719.246M417.177 694.49L403.319 655.366M417.177 694.49L438.662 719.246M417.177 694.49L384.054 702.995L379.449 724.359L318.583 822.352M403.319 655.366L327.747 676.407L309.048 646.571L237.477 667.267M868.804 743.392L839.118 763.696L872.121 781.813M868.804 743.392L903.211 740.421M868.804 743.392L872.121 781.813M872.121 781.813L903.211 740.421M872.121 781.813L886.721 801.519M903.211 740.421L984.934 790.62M774.32 862.835L668.974 875.157L731.675 854.421L732.162 854.123M774.32 862.835L779.142 825.324L732.162 854.123M774.32 862.835L732.162 854.123M821.456 745.867L776.792 798.109L806.704 808.429L821.456 745.867ZM821.456 745.867L825.484 696.257M825.484 696.257L799.259 666.576L788.761 711.234L825.484 696.257ZM572.205 370.635C570.285 370.8 549.718 374.727 539.675 376.669L562.8 392.413L572.205 370.635ZM869.708 380.428L842.196 369.901L831.707 341.776L869.708 380.428ZM1043.81 520.226L962.541 531.275L1006.94 457.284L1043.81 520.226ZM442.301 621.356L390.32 635.522L409.348 575.817L442.301 621.356ZM348.543 627.839L330.645 597.935L362.088 607.316L348.543 627.839ZM359.541 801.881C349.998 800.286 330.419 796.977 328.443 796.502C326.468 796.028 303.406 758.612 292.122 739.964L359.541 801.881ZM966.661 747.038L920.171 768.794L957.84 719.575L966.661 747.038ZM895.906 861.207C894.625 861.318 877.788 869.223 869.529 873.162L843.411 860.095L895.906 861.207ZM774.224 787.041L752.086 810.726L747.8 761.098L774.224 787.041ZM490.407 935.735L485.162 921.673L510.087 892.909L490.407 935.735ZM300.4 499.744L283.132 523.815L280.426 511.146L300.4 499.744Z" stroke="white"/>
<circle cx="350.867" cy="433.077" r="4.75248" transform="rotate(25.0649 350.867 433.077)" fill="white"/>
<circle cx="408.767" cy="459.805" r="4.75248" transform="rotate(25.0649 408.767 459.805)" fill="white"/>
<circle cx="443.577" cy="462.01" r="4.75248" transform="rotate(25.0649 443.577 462.01)" fill="white"/>
<circle cx="456.518" cy="474.686" r="4.75248" transform="rotate(25.0649 456.518 474.686)" fill="white"/>
<circle cx="503.045" cy="418.992" r="4.75248" transform="rotate(25.0649 503.045 418.992)" fill="white"/>
<circle cx="537.518" cy="395.767" r="4.75248" transform="rotate(25.0649 537.518 395.767)" fill="white"/>
<circle cx="535.247" cy="451.105" r="4.75248" transform="rotate(25.0649 535.247 451.105)" fill="white"/>
<circle cx="489.79" cy="562.321" r="4.75248" transform="rotate(25.0649 489.79 562.321)" fill="white"/>
<circle cx="439.78" cy="540.243" r="4.75248" transform="rotate(25.0649 439.78 540.243)" fill="white"/>
<circle cx="410.497" cy="538.353" r="4.75248" transform="rotate(25.0649 410.497 538.353)" fill="white"/>
<circle cx="556.734" cy="419.183" r="4.75248" transform="rotate(25.0649 556.734 419.183)" fill="white"/>
<circle cx="538.612" cy="376.603" r="4.75248" transform="rotate(25.0649 538.612 376.603)" fill="white"/>
<circle cx="573.501" cy="369.311" r="4.75248" transform="rotate(25.0649 573.501 369.311)" fill="white"/>
<circle cx="562.427" cy="392.989" r="4.75248" transform="rotate(25.0649 562.427 392.989)" fill="white"/>
<circle cx="576.745" cy="351.154" r="4.75248" transform="rotate(25.0649 576.745 351.154)" fill="white"/>
<circle cx="686.934" cy="337.106" r="4.75248" transform="rotate(25.0649 686.934 337.106)" fill="white"/>
<circle cx="641.266" cy="359.033" r="4.75248" transform="rotate(25.0649 641.266 359.033)" fill="white"/>
<circle cx="641.859" cy="422.268" r="4.75248" transform="rotate(25.0649 641.859 422.268)" fill="white"/>
<circle cx="718.286" cy="357.016" r="4.75248" transform="rotate(25.0649 718.286 357.016)" fill="white"/>
<circle cx="791.19" cy="380.618" r="4.75248" transform="rotate(25.0649 791.19 380.618)" fill="white"/>
<circle cx="793.658" cy="434.24" r="4.75248" transform="rotate(25.0649 793.658 434.24)" fill="white"/>
<circle cx="763.561" cy="462.135" r="4.75248" transform="rotate(25.0649 763.561 462.135)" fill="white"/>
<circle cx="855.282" cy="473.551" r="4.75248" transform="rotate(25.0649 855.282 473.551)" fill="white"/>
<circle cx="816.853" cy="508.044" r="4.75248" transform="rotate(25.0649 816.853 508.044)" fill="white"/>
<circle cx="854.741" cy="432.639" r="4.75248" transform="rotate(25.0649 854.741 432.639)" fill="white"/>
<circle cx="887.167" cy="453.051" r="4.75248" transform="rotate(25.0649 887.167 453.051)" fill="white"/>
<circle cx="927.02" cy="432.34" r="4.75248" transform="rotate(25.0649 927.02 432.34)" fill="white"/>
<circle cx="905.516" cy="483.931" r="4.75248" transform="rotate(25.0649 905.516 483.931)" fill="white"/>
<circle cx="930.286" cy="475.84" r="4.75248" transform="rotate(25.0649 930.286 475.84)" fill="white"/>
<circle cx="883.124" cy="481.325" r="4.75248" transform="rotate(25.0649 883.124 481.325)" fill="white"/>
<circle cx="913.991" cy="563.969" r="4.75248" transform="rotate(25.0649 913.991 563.969)" fill="white"/>
<circle cx="929.298" cy="539.648" r="4.75248" transform="rotate(25.0649 929.298 539.648)" fill="white"/>
<circle cx="963.617" cy="530.776" r="4.75248" transform="rotate(25.0649 963.617 530.776)" fill="white"/>
<circle cx="1006.32" cy="456.309" r="4.75248" transform="rotate(25.0649 1006.32 456.309)" fill="white"/>
<circle cx="1043.55" cy="518.995" r="4.75248" transform="rotate(25.0649 1043.55 518.995)" fill="white"/>
<circle cx="1068.9" cy="574.896" r="4.75248" transform="rotate(25.0649 1068.9 574.896)" fill="white"/>
<circle cx="995.422" cy="509.381" r="4.75248" transform="rotate(25.0649 995.422 509.381)" fill="white"/>
<circle cx="891.496" cy="598.044" r="4.75248" transform="rotate(25.0649 891.496 598.044)" fill="white"/>
<circle cx="867.402" cy="571.034" r="4.75248" transform="rotate(25.0649 867.402 571.034)" fill="white"/>
<circle cx="848.967" cy="557.166" r="4.75248" transform="rotate(25.0649 848.967 557.166)" fill="white"/>
<circle cx="827.687" cy="597.056" r="4.75248" transform="rotate(25.0649 827.687 597.056)" fill="white"/>
<circle cx="876.572" cy="677.633" r="4.75248" transform="rotate(25.0649 876.572 677.633)" fill="white"/>
<circle cx="798.134" cy="666.609" r="4.75248" transform="rotate(25.0649 798.134 666.609)" fill="white"/>
<circle cx="789.52" cy="710.808" r="4.75248" transform="rotate(25.0649 789.52 710.808)" fill="white"/>
<circle cx="824.943" cy="695.222" r="4.75248" transform="rotate(25.0649 824.943 695.222)" fill="white"/>
<circle cx="759.662" cy="648.615" r="4.75248" transform="rotate(25.0649 759.662 648.615)" fill="white"/>
<circle cx="935.71" cy="633.562" r="4.75248" transform="rotate(25.0649 935.71 633.562)" fill="white"/>
<circle cx="958.65" cy="639.875" r="4.75248" transform="rotate(25.0649 958.65 639.875)" fill="white"/>
<circle cx="917.912" cy="706.51" r="4.75248" transform="rotate(25.0649 917.912 706.51)" fill="white"/>
<circle cx="957.404" cy="719.531" r="4.75248" transform="rotate(25.0649 957.404 719.531)" fill="white"/>
<circle cx="966.889" cy="747.679" r="4.75248" transform="rotate(25.0649 966.889 747.679)" fill="white"/>
<circle cx="919.619" cy="769.623" r="4.75248" transform="rotate(25.0649 919.619 769.623)" fill="white"/>
<circle cx="986.191" cy="791.577" r="4.75248" transform="rotate(25.0649 986.191 791.577)" fill="white"/>
<circle cx="904.121" cy="740.743" r="4.75248" transform="rotate(25.0649 904.121 740.743)" fill="white"/>
<circle cx="873.069" cy="781.798" r="4.75248" transform="rotate(25.0649 873.069 781.798)" fill="white"/>
<circle cx="888.542" cy="803.163" r="4.75248" transform="rotate(25.0649 888.542 803.163)" fill="white"/>
<circle cx="896.995" cy="860.997" r="4.75248" transform="rotate(25.0649 896.995 860.997)" fill="white"/>
<circle cx="843.638" cy="859.667" r="4.75248" transform="rotate(25.0649 843.638 859.667)" fill="white"/>
<circle cx="667.101" cy="875.265" r="4.75248" transform="rotate(25.0649 667.101 875.265)" fill="white"/>
<circle cx="640.346" cy="850.18" r="4.75248" transform="rotate(25.0649 640.346 850.18)" fill="white"/>
<circle cx="540.761" cy="844.866" r="4.75248" transform="rotate(25.0649 540.761 844.866)" fill="white"/>
<circle cx="480.801" cy="776.302" r="4.75248" transform="rotate(25.0649 480.801 776.302)" fill="white"/>
<circle cx="443.21" cy="886.511" r="4.75248" transform="rotate(25.0649 443.21 886.511)" fill="white"/>
<circle cx="432.153" cy="836.575" r="4.75248" transform="rotate(25.0649 432.153 836.575)" fill="white"/>
<circle cx="509.734" cy="893.435" r="4.75248" transform="rotate(25.0649 509.734 893.435)" fill="white"/>
<circle cx="485.404" cy="921.692" r="4.75248" transform="rotate(25.0649 485.404 921.692)" fill="white"/>
<circle cx="489.967" cy="938.207" r="4.75248" transform="rotate(25.0649 489.967 938.207)" fill="white"/>
<circle cx="870.358" cy="873.481" r="4.75248" transform="rotate(25.0649 870.358 873.481)" fill="white"/>
<circle cx="912.988" cy="647.445" r="4.75248" transform="rotate(25.0649 912.988 647.445)" fill="white"/>
<circle cx="868.191" cy="743.229" r="4.75248" transform="rotate(25.0649 868.191 743.229)" fill="white"/>
<circle cx="838.96" cy="763.662" r="4.75248" transform="rotate(25.0649 838.96 763.662)" fill="white"/>
<circle cx="821.462" cy="744.984" r="4.75248" transform="rotate(25.0649 821.462 744.984)" fill="white"/>
<circle cx="807.701" cy="808.064" r="4.75248" transform="rotate(25.0649 807.701 808.064)" fill="white"/>
<circle cx="776.628" cy="798.78" r="4.75248" transform="rotate(25.0649 776.628 798.78)" fill="white"/>
<circle cx="790.514" cy="760.677" r="4.75248" transform="rotate(25.0649 790.514 760.677)" fill="white"/>
<circle cx="727.106" cy="795.293" r="4.75248" transform="rotate(25.0649 727.106 795.293)" fill="white"/>
<circle cx="717.415" cy="709.44" r="4.75248" transform="rotate(25.0649 717.415 709.44)" fill="white"/>
<circle cx="748.019" cy="761.789" r="4.75248" transform="rotate(25.0649 748.019 761.789)" fill="white"/>
<circle cx="774.197" cy="787.15" r="4.75248" transform="rotate(25.0649 774.197 787.15)" fill="white"/>
<circle cx="751.998" cy="812.181" r="4.75248" transform="rotate(25.0649 751.998 812.181)" fill="white"/>
<circle cx="620.854" cy="736.419" r="4.75248" transform="rotate(25.0649 620.854 736.419)" fill="white"/>
<circle cx="778.905" cy="824.765" r="4.75248" transform="rotate(25.0649 778.905 824.765)" fill="white"/>
<circle cx="773.559" cy="864.236" r="4.75248" transform="rotate(25.0649 773.559 864.236)" fill="white"/>
<circle cx="732.368" cy="854.154" r="4.75248" transform="rotate(25.0649 732.368 854.154)" fill="white"/>
<circle cx="716.589" cy="840.215" r="4.75248" transform="rotate(25.0649 716.589 840.215)" fill="white"/>
<circle cx="656.024" cy="821.072" r="4.75248" transform="rotate(25.0649 656.024 821.072)" fill="white"/>
<circle cx="596.831" cy="793.388" r="4.75248" transform="rotate(25.0649 596.831 793.388)" fill="white"/>
<circle cx="504.517" cy="718.736" r="4.75248" transform="rotate(25.0649 504.517 718.736)" fill="white"/>
<circle cx="513.767" cy="645.674" r="4.75248" transform="rotate(25.0649 513.767 645.674)" fill="white"/>
<circle cx="455.531" cy="674.839" r="4.75248" transform="rotate(25.0649 455.531 674.839)" fill="white"/>
<circle cx="551.904" cy="551.449" r="4.75248" transform="rotate(25.0649 551.904 551.449)" fill="white"/>
<circle cx="579.072" cy="676.688" r="4.75248" transform="rotate(25.0649 579.072 676.688)" fill="white"/>
<circle cx="652.825" cy="673.672" r="4.75248" transform="rotate(25.0649 652.825 673.672)" fill="white"/>
<circle cx="734.108" cy="522.791" r="4.75248" transform="rotate(25.0649 734.108 522.791)" fill="white"/>
<circle cx="590.642" cy="517.319" r="4.75248" transform="rotate(25.0649 590.642 517.319)" fill="white"/>
<circle cx="603.211" cy="478.986" r="4.75248" transform="rotate(25.0649 603.211 478.986)" fill="white"/>
<circle cx="439.13" cy="718.322" r="4.75248" transform="rotate(25.0649 439.13 718.322)" fill="white"/>
<circle cx="445.401" cy="750.868" r="4.75248" transform="rotate(25.0649 445.401 750.868)" fill="white"/>
<circle cx="382.873" cy="701.477" r="4.75248" transform="rotate(25.0649 382.873 701.477)" fill="white"/>
<circle cx="380.688" cy="723.275" r="4.75248" transform="rotate(25.0649 380.688 723.275)" fill="white"/>
<circle cx="319.761" cy="820.783" r="4.75248" transform="rotate(25.0649 319.761 820.783)" fill="white"/>
<circle cx="359.9" cy="801.492" r="4.75248" transform="rotate(25.0649 359.9 801.492)" fill="white"/>
<circle cx="292.45" cy="740.468" r="4.75248" transform="rotate(25.0649 292.45 740.468)" fill="white"/>
<circle cx="327.947" cy="795.958" r="4.75248" transform="rotate(25.0649 327.947 795.958)" fill="white"/>
<circle cx="416.18" cy="694.472" r="4.75248" transform="rotate(25.0649 416.18 694.472)" fill="white"/>
<circle cx="420.154" cy="663.539" r="4.75248" transform="rotate(25.0649 420.154 663.539)" fill="white"/>
<circle cx="402.934" cy="655.487" r="4.75248" transform="rotate(25.0649 402.934 655.487)" fill="white"/>
<circle cx="441.365" cy="620.994" r="4.75248" transform="rotate(25.0649 441.365 620.994)" fill="white"/>
<circle cx="409.889" cy="576.107" r="4.75248" transform="rotate(25.0649 409.889 576.107)" fill="white"/>
<circle cx="391.25" cy="635.595" r="4.75248" transform="rotate(25.0649 391.25 635.595)" fill="white"/>
<circle cx="362.347" cy="607.649" r="4.75248" transform="rotate(25.0649 362.347 607.649)" fill="white"/>
<circle cx="330.2" cy="597.86" r="4.75248" transform="rotate(25.0649 330.2 597.86)" fill="white"/>
<circle cx="348.549" cy="628.74" r="4.75248" transform="rotate(25.0649 348.549 628.74)" fill="white"/>
<circle cx="307.551" cy="646.29" r="4.75248" transform="rotate(25.0649 307.551 646.29)" fill="white"/>
<circle cx="236.979" cy="665.879" r="4.75248" transform="rotate(25.0649 236.979 665.879)" fill="white"/>
<circle cx="282.601" cy="525.757" r="4.75248" transform="rotate(25.0649 282.601 525.757)" fill="white"/>
<circle cx="280.604" cy="510.395" r="4.75248" transform="rotate(25.0649 280.604 510.395)" fill="white"/>
<circle cx="300.495" cy="498.712" r="4.75248" transform="rotate(25.0649 300.495 498.712)" fill="white"/>
<circle cx="927.472" cy="408.941" r="4.75248" transform="rotate(25.0649 927.472 408.941)" fill="white"/>
<circle cx="985.934" cy="363.634" r="4.75248" transform="rotate(25.0649 985.934 363.634)" fill="white"/>
<circle cx="821.029" cy="403.755" r="4.75248" transform="rotate(25.0649 821.029 403.755)" fill="white"/>
<circle cx="830.732" cy="388.619" r="4.75248" transform="rotate(25.0649 830.732 388.619)" fill="white"/>
<circle cx="842.45" cy="369.178" r="4.75248" transform="rotate(25.0649 842.45 369.178)" fill="white"/>
<circle cx="831.634" cy="341.821" r="4.75248" transform="rotate(25.0649 831.634 341.821)" fill="white"/>
<circle cx="869.284" cy="379.106" r="4.75248" transform="rotate(25.0649 869.284 379.106)" fill="white"/>
<circle cx="737.052" cy="403.83" r="4.75248" transform="rotate(25.0649 737.052 403.83)" fill="white"/>
<circle cx="655.171" cy="382.586" r="4.75248" transform="rotate(25.0649 655.171 382.586)" fill="white"/>
<circle cx="596.899" cy="369.762" r="4.75248" transform="rotate(25.0649 596.899 369.762)" fill="white"/>
</svg>
