<svg width="85" height="24" viewBox="0 0 85 24" fill="none" xmlns="http://www.w3.org/2000/svg">
<path d="M44.52 6.8V18H42.44V13.2H36.648V18H34.568V6.8H36.648V11.424H42.44V6.8H44.52ZM50.4718 9.36C51.7304 9.36 52.6904 9.664 53.3518 10.272C54.0238 10.8693 54.3598 11.776 54.3598 12.992V18H52.4718V16.96C52.2264 17.3333 51.8744 17.6213 51.4158 17.824C50.9678 18.016 50.4238 18.112 49.7838 18.112C49.1438 18.112 48.5838 18.0053 48.1038 17.792C47.6238 17.568 47.2504 17.264 46.9838 16.88C46.7278 16.4853 46.5998 16.0427 46.5998 15.552C46.5998 14.784 46.8824 14.1707 47.4478 13.712C48.0238 13.2427 48.9251 13.008 50.1518 13.008H52.3598V12.88C52.3598 12.2827 52.1784 11.824 51.8158 11.504C51.4638 11.184 50.9358 11.024 50.2318 11.024C49.7518 11.024 49.2771 11.0987 48.8078 11.248C48.3491 11.3973 47.9598 11.6053 47.6398 11.872L46.8558 10.416C47.3038 10.0747 47.8424 9.81333 48.4718 9.632C49.1011 9.45067 49.7678 9.36 50.4718 9.36ZM50.1998 16.656C50.7011 16.656 51.1438 16.544 51.5278 16.32C51.9224 16.0853 52.1998 15.7547 52.3598 15.328V14.336H50.2958C49.1438 14.336 48.5678 14.7147 48.5678 15.472C48.5678 15.8347 48.7118 16.1227 48.9998 16.336C49.2878 16.5493 49.6878 16.656 50.1998 16.656ZM61.6793 13.552C62.2126 13.7013 62.6233 13.9467 62.9113 14.288C63.2099 14.6187 63.3593 15.0187 63.3593 15.488C63.3593 16.0107 63.1833 16.4747 62.8313 16.88C62.4793 17.2747 61.9939 17.584 61.3753 17.808C60.7566 18.032 60.0526 18.144 59.2633 18.144C58.6019 18.144 57.9566 18.0693 57.3273 17.92C56.6979 17.76 56.1273 17.536 55.6153 17.248L56.1913 15.76C56.6073 15.9947 57.0766 16.176 57.5993 16.304C58.1219 16.432 58.6446 16.496 59.1673 16.496C59.8393 16.496 60.3619 16.3947 60.7353 16.192C61.1193 15.9787 61.3113 15.6907 61.3113 15.328C61.3113 14.9973 61.1619 14.7413 60.8633 14.56C60.5753 14.3787 60.1646 14.288 59.6313 14.288H57.9673V12.944H59.4713C59.9726 12.944 60.3619 12.8587 60.6393 12.688C60.9273 12.5173 61.0713 12.2773 61.0713 11.968C61.0713 11.6587 60.9006 11.4133 60.5593 11.232C60.2179 11.0507 59.7486 10.96 59.1513 10.96C58.2979 10.96 57.3966 11.168 56.4473 11.584L55.9353 10.112C57.0553 9.58933 58.1859 9.328 59.3273 9.328C60.0526 9.328 60.7033 9.42933 61.2793 9.632C61.8553 9.824 62.3033 10.1013 62.6233 10.464C62.9539 10.816 63.1193 11.2213 63.1193 11.68C63.1193 12.096 62.9913 12.4693 62.7353 12.8C62.4793 13.12 62.1273 13.3707 61.6793 13.552ZM68.4686 9.36C69.7273 9.36 70.6873 9.664 71.3486 10.272C72.0206 10.8693 72.3566 11.776 72.3566 12.992V18H70.4686V16.96C70.2233 17.3333 69.8713 17.6213 69.4126 17.824C68.9646 18.016 68.4206 18.112 67.7806 18.112C67.1406 18.112 66.5806 18.0053 66.1006 17.792C65.6206 17.568 65.2473 17.264 64.9806 16.88C64.7246 16.4853 64.5966 16.0427 64.5966 15.552C64.5966 14.784 64.8793 14.1707 65.4446 13.712C66.0206 13.2427 66.922 13.008 68.1486 13.008H70.3566V12.88C70.3566 12.2827 70.1753 11.824 69.8126 11.504C69.4606 11.184 68.9326 11.024 68.2286 11.024C67.7486 11.024 67.274 11.0987 66.8046 11.248C66.346 11.3973 65.9566 11.6053 65.6366 11.872L64.8526 10.416C65.3006 10.0747 65.8393 9.81333 66.4686 9.632C67.098 9.45067 67.7646 9.36 68.4686 9.36ZM68.1966 16.656C68.698 16.656 69.1406 16.544 69.5246 16.32C69.9193 16.0853 70.1966 15.7547 70.3566 15.328V14.336H68.2926C67.1406 14.336 66.5646 14.7147 66.5646 15.472C66.5646 15.8347 66.7086 16.1227 66.9966 16.336C67.2846 16.5493 67.6846 16.656 68.1966 16.656ZM83.8015 16.304V19.904H81.9295V18H75.3375V19.904H73.4815V16.304H73.8815C74.4255 16.2827 74.7935 15.936 74.9855 15.264C75.1882 14.5813 75.3215 13.6213 75.3855 12.384L75.4975 9.456H82.5375V16.304H83.8015ZM77.2095 12.528C77.1668 13.5093 77.0868 14.3093 76.9695 14.928C76.8522 15.5467 76.6388 16.0053 76.3295 16.304H80.5375V11.152H77.2575L77.2095 12.528Z" fill="#6D7587"/>
<path d="M0.292892 13.7071C-0.0976315 13.3166 -0.0976315 12.6834 0.292892 12.2929L6.65685 5.92893C7.04738 5.53841 7.68054 5.53841 8.07107 5.92893C8.46159 6.31946 8.46159 6.95262 8.07107 7.34315L2.41421 13L8.07107 18.6569C8.46159 19.0474 8.46159 19.6805 8.07107 20.0711C7.68054 20.4616 7.04738 20.4616 6.65685 20.0711L0.292892 13.7071ZM25 14H1V12H25V14Z" fill="#6D7587"/>
</svg>
