<svg width="1024" height="927" viewBox="0 0 1024 927" fill="none" xmlns="http://www.w3.org/2000/svg">
<path d="M118.306 546.455L188.536 608.112L250.926 578.45M250.926 578.45L272.049 631.694M250.926 578.45L264.81 554.894M272.049 631.694L251.956 638.191M272.049 631.694L264.81 554.894M264.81 554.894L264.198 475.168M264.81 554.894L242.54 489.483M264.81 554.894L286.268 522.185M264.81 554.894L294.523 634.179M264.198 475.168L242.54 489.483M264.198 475.168L299.911 447.253M264.198 475.168L286.268 522.185M264.198 475.168L306.267 384.514M242.54 489.483L223.58 483.599M242.54 489.483L259.109 421.179M299.911 447.253L346.132 522.68M299.911 447.253L286.268 522.185M299.911 447.253L309.443 548.385M299.911 447.253L306.267 384.514M346.132 522.68L309.443 548.385M346.132 522.68L409.916 473.953L434.528 592.455M346.132 522.68L434.528 592.455M309.443 548.385L326.696 560.568M309.443 548.385L294.523 634.179M309.443 548.385L286.268 522.185M286.268 522.185L294.523 634.179M294.523 634.179L289.43 661.509M294.523 634.179L321.843 679.934M289.43 661.509L253 681.82L252.87 704.847L198.469 746.031M289.43 661.509L321.843 679.934M289.43 661.509L346.308 719.821M321.843 679.934L354.283 706.795M321.843 679.934L346.308 719.821M354.283 706.795L346.308 719.821M354.283 706.795L379.139 677.602M354.283 706.795L383.941 728.549M346.308 719.821L383.941 728.549M379.139 677.602L433.294 707.02M379.139 677.602L383.941 728.549M433.294 707.02L525.098 688.393L526.199 748.895M433.294 707.02L526.199 748.895M433.294 707.02L383.941 728.549M433.294 707.02L450.373 749.905M526.199 748.895C502.444 749.088 454.021 749.561 450.373 749.905M526.199 748.895L483.617 769.019M526.199 748.895L587.254 753.88L483.617 769.019M383.941 728.549L450.373 749.905M450.373 749.905L483.617 769.019M605.084 690.827L513.264 725.565L568.194 738.799L605.084 690.827ZM605.084 690.827C604.162 690.405 575.659 654.13 561.522 636.046L571.872 597.644M408.011 650.332L357.199 607.558L321.916 640.035L408.011 650.332ZM408.011 650.332L434.528 592.455M623.197 712.134L625.308 661.303M625.308 661.303L655.683 690.661M625.308 661.303L667.178 552.257L716.743 573.668M625.308 661.303L716.743 573.668M625.308 661.303L700.504 637.338M655.683 690.661L700.504 637.338M655.683 690.661L712.436 650.022M700.504 637.338L712.436 650.022M700.504 637.338L716.743 573.668M700.504 637.338L743.778 575.723M712.436 650.022L746.169 649.911L800.725 675.455M712.436 650.022L743.778 575.723M716.743 573.668L743.778 575.723M716.743 573.668L699.381 446.423M716.743 573.668L732.525 456.341M699.381 446.423L732.525 456.341M699.381 446.423L644.521 474.609M699.381 446.423L715.346 404.259M699.381 446.423L673.412 349.908M699.381 446.423L653.273 404.74M732.525 456.341L749.42 464.721M732.525 456.341L735.954 427.633M732.525 456.341L715.346 404.259M644.521 474.609L653.273 404.74M644.521 474.609L583.566 446.681L609.709 565.491L644.521 474.609ZM653.273 404.74L542.137 389.132M653.273 404.74L673.412 349.908M653.273 404.74L624.794 322.27M653.273 404.74L564.557 334.085M542.137 389.132L450.289 415.434M542.137 389.132C508.989 371.032 442.388 334.86 441.171 334.975M542.137 389.132C549.151 371.338 563.455 335.417 564.557 334.085M542.137 389.132C529.989 362.039 506.098 308.033 507.72 308.756M542.137 389.132L511.431 450.038M450.289 415.434L381.349 367.464L441.171 334.975M450.289 415.434L441.171 334.975M564.557 334.085L507.72 308.756M564.557 334.085L624.794 322.27M564.557 334.085L524.287 281.112M507.72 308.756C487.24 303.015 446.873 291.324 449.248 290.486C451.623 289.648 500.263 283.887 524.287 281.112M524.287 281.112L624.794 322.27M624.794 322.27L673.412 349.908M624.794 322.27C624.622 320.445 620.449 297.875 618.385 286.818L673.412 349.908M673.412 349.908L708.607 373.441M673.412 349.908L715.346 404.259M673.412 349.908L720.988 293.257L710.32 245.165M708.607 373.441L735.954 427.633M708.607 373.441L715.346 404.259M735.954 427.633L749.42 464.721M735.954 427.633L715.346 404.259M735.954 427.633L767.378 419.301L771.596 398.957L828.725 305.35M749.42 464.721L821.102 444.156L839.1 472.378L906.982 452.171M306.267 384.514L334.336 364.991L302.827 348.015M306.267 384.514L273.582 387.595M306.267 384.514L302.827 348.015M302.827 348.015L273.582 387.595M302.827 348.015L288.801 329.391M273.582 387.595L195.52 340.485M395.194 270.265L495.245 257.766L435.796 277.945L435.335 278.233M395.194 270.265L390.89 305.96L435.335 278.233M395.194 270.265L435.335 278.233M351.259 381.808L393.326 331.813L364.815 322.226L351.259 381.808ZM351.259 381.808L347.799 428.998M347.799 428.998L372.95 457.017L382.597 414.486L347.799 428.998ZM590.998 736.65C592.822 736.478 612.344 732.592 621.877 730.671L599.776 715.876L590.998 736.65ZM308.115 729.559L334.346 739.361L344.527 766.018L308.115 729.559ZM141.567 597.964L218.742 586.854L177.089 657.522L141.567 597.964ZM712.616 497.342L761.925 483.488L744.281 540.386L712.616 497.342ZM801.695 490.48L818.933 518.774L788.973 510.091L801.695 490.48ZM789.943 325.115C799.026 326.561 817.663 329.56 819.545 329.997C821.426 330.433 843.628 365.829 854.494 383.472L789.943 325.115ZM213.216 381.777L257.247 360.75L221.806 407.818L213.216 381.777ZM279.625 272.719C280.842 272.605 296.788 264.964 304.61 261.159L329.536 273.385L279.625 272.719ZM395.85 342.315L416.719 319.635L421.163 366.78L395.85 342.315ZM664.542 198.848L669.633 212.177L646.153 239.706L664.542 198.848ZM848.416 611.889L864.652 588.879L867.319 600.902L848.416 611.889Z" stroke="white"/>
<circle cx="800.938" cy="675.641" r="4.5179" transform="rotate(-155.385 800.938 675.641)" fill="white"/>
<circle cx="745.698" cy="650.664" r="4.5179" transform="rotate(-155.385 745.698 650.664)" fill="white"/>
<circle cx="712.59" cy="648.828" r="4.5179" transform="rotate(-155.385 712.59 648.828)" fill="white"/>
<circle cx="700.195" cy="636.875" r="4.5179" transform="rotate(-155.385 700.195 636.875)" fill="white"/>
<circle cx="656.381" cy="690.164" r="4.5179" transform="rotate(-155.385 656.381 690.164)" fill="white"/>
<circle cx="623.784" cy="712.5" r="4.5179" transform="rotate(-155.385 623.784 712.5)" fill="white"/>
<circle cx="625.53" cy="659.878" r="4.5179" transform="rotate(-155.385 625.53 659.878)" fill="white"/>
<circle cx="667.912" cy="553.816" r="4.5179" transform="rotate(-155.385 667.912 553.816)" fill="white"/>
<circle cx="715.617" cy="574.43" r="4.5179" transform="rotate(-155.385 715.617 574.43)" fill="white"/>
<circle cx="743.467" cy="576.008" r="4.5179" transform="rotate(-155.385 743.467 576.008)" fill="white"/>
<circle cx="605.342" cy="690.384" r="4.5179" transform="rotate(-155.385 605.342 690.384)" fill="white"/>
<circle cx="622.887" cy="730.726" r="4.5179" transform="rotate(-155.385 622.887 730.726)" fill="white"/>
<circle cx="589.775" cy="737.918" r="4.5179" transform="rotate(-155.385 589.775 737.918)" fill="white"/>
<circle cx="600.125" cy="715.327" r="4.5179" transform="rotate(-155.385 600.125 715.327)" fill="white"/>
<circle cx="525.433" cy="748.194" r="4.5179" transform="rotate(-155.385 525.433 748.194)" fill="white"/>
<circle cx="524.398" cy="688.087" r="4.5179" transform="rotate(-155.385 524.398 688.087)" fill="white"/>
<circle cx="382.753" cy="728.792" r="4.5179" transform="rotate(-155.385 382.753 728.792)" fill="white"/>
<circle cx="380.006" cy="677.838" r="4.5179" transform="rotate(-155.385 380.006 677.838)" fill="white"/>
<circle cx="408.41" cy="651.096" r="4.5179" transform="rotate(-155.385 408.41 651.096)" fill="white"/>
<circle cx="321.133" cy="640.927" r="4.5179" transform="rotate(-155.385 321.133 640.927)" fill="white"/>
<circle cx="357.407" cy="607.851" r="4.5179" transform="rotate(-155.385 357.407 607.851)" fill="white"/>
<circle cx="321.953" cy="679.815" r="4.5179" transform="rotate(-155.385 321.953 679.815)" fill="white"/>
<circle cx="290.976" cy="660.653" r="4.5179" transform="rotate(-155.385 290.976 660.653)" fill="white"/>
<circle cx="253.245" cy="680.638" r="4.5179" transform="rotate(-155.385 253.245 680.638)" fill="white"/>
<circle cx="273.302" cy="631.435" r="4.5179" transform="rotate(-155.385 273.302 631.435)" fill="white"/>
<circle cx="249.816" cy="639.311" r="4.5179" transform="rotate(-155.385 249.816 639.311)" fill="white"/>
<circle cx="294.608" cy="633.745" r="4.5179" transform="rotate(-155.385 294.608 633.745)" fill="white"/>
<circle cx="264.649" cy="555.413" r="4.5179" transform="rotate(-155.385 264.649 555.413)" fill="white"/>
<circle cx="250.28" cy="578.647" r="4.5179" transform="rotate(-155.385 250.28 578.647)" fill="white"/>
<circle cx="217.722" cy="587.336" r="4.5179" transform="rotate(-155.385 217.722 587.336)" fill="white"/>
<circle cx="177.687" cy="658.444" r="4.5179" transform="rotate(-155.385 177.687 658.444)" fill="white"/>
<circle cx="141.827" cy="599.132" r="4.5179" transform="rotate(-155.385 141.827 599.132)" fill="white"/>
<circle cx="117.31" cy="546.181" r="4.5179" transform="rotate(-155.385 117.31 546.181)" fill="white"/>
<circle cx="187.647" cy="607.912" r="4.5179" transform="rotate(-155.385 187.647 607.912)" fill="white"/>
<circle cx="285.779" cy="522.853" r="4.5179" transform="rotate(-155.385 285.779 522.853)" fill="white"/>
<circle cx="308.885" cy="548.349" r="4.5179" transform="rotate(-155.385 308.885 548.349)" fill="white"/>
<circle cx="326.512" cy="561.395" r="4.5179" transform="rotate(-155.385 326.512 561.395)" fill="white"/>
<circle cx="346.444" cy="523.316" r="4.5179" transform="rotate(-155.385 346.444 523.316)" fill="white"/>
<circle cx="299.372" cy="447.084" r="4.5179" transform="rotate(-155.385 299.372 447.084)" fill="white"/>
<circle cx="374.019" cy="456.978" r="4.5179" transform="rotate(-155.385 374.019 456.978)" fill="white"/>
<circle cx="381.878" cy="414.898" r="4.5179" transform="rotate(-155.385 381.878 414.898)" fill="white"/>
<circle cx="348.321" cy="429.978" r="4.5179" transform="rotate(-155.385 348.321 429.978)" fill="white"/>
<circle cx="410.725" cy="473.796" r="4.5179" transform="rotate(-155.385 410.725 473.796)" fill="white"/>
<circle cx="243.483" cy="489.419" r="4.5179" transform="rotate(-155.385 243.483 489.419)" fill="white"/>
<circle cx="221.63" cy="483.588" r="4.5179" transform="rotate(-155.385 221.63 483.588)" fill="white"/>
<circle cx="259.859" cy="419.941" r="4.5179" transform="rotate(-155.385 259.859 419.941)" fill="white"/>
<circle cx="222.22" cy="407.857" r="4.5179" transform="rotate(-155.385 222.22 407.857)" fill="white"/>
<circle cx="212.994" cy="381.17" r="4.5179" transform="rotate(-155.385 212.994 381.17)" fill="white"/>
<circle cx="257.765" cy="359.957" r="4.5179" transform="rotate(-155.385 257.765 359.957)" fill="white"/>
<circle cx="194.317" cy="339.585" r="4.5179" transform="rotate(-155.385 194.317 339.585)" fill="white"/>
<circle cx="272.714" cy="387.295" r="4.5179" transform="rotate(-155.385 272.714 387.295)" fill="white"/>
<circle cx="301.925" cy="348.037" r="4.5179" transform="rotate(-155.385 301.925 348.037)" fill="white"/>
<circle cx="287.058" cy="327.842" r="4.5179" transform="rotate(-155.385 287.058 327.842)" fill="white"/>
<circle cx="278.591" cy="272.928" r="4.5179" transform="rotate(-155.385 278.591 272.928)" fill="white"/>
<circle cx="329.322" cy="273.794" r="4.5179" transform="rotate(-155.385 329.322 273.794)" fill="white"/>
<circle cx="497.024" cy="257.649" r="4.5179" transform="rotate(-155.385 497.024 257.649)" fill="white"/>
<circle cx="522.645" cy="281.296" r="4.5179" transform="rotate(-155.385 522.645 281.296)" fill="white"/>
<circle cx="617.351" cy="285.605" r="4.5179" transform="rotate(-155.385 617.351 285.605)" fill="white"/>
<circle cx="674.862" cy="350.336" r="4.5179" transform="rotate(-155.385 674.862 350.336)" fill="white"/>
<circle cx="709.773" cy="245.29" r="4.5179" transform="rotate(-155.385 709.773 245.29)" fill="white"/>
<circle cx="720.657" cy="292.676" r="4.5179" transform="rotate(-155.385 720.657 292.676)" fill="white"/>
<circle cx="646.483" cy="239.204" r="4.5179" transform="rotate(-155.385 646.483 239.204)" fill="white"/>
<circle cx="669.401" cy="212.161" r="4.5179" transform="rotate(-155.385 669.401 212.161)" fill="white"/>
<circle cx="664.941" cy="196.495" r="4.5179" transform="rotate(-155.385 664.941 196.495)" fill="white"/>
<circle cx="303.819" cy="260.861" r="4.5179" transform="rotate(-155.385 303.819 260.861)" fill="white"/>
<circle cx="264.98" cy="476.052" r="4.5179" transform="rotate(-155.385 264.98 476.052)" fill="white"/>
<circle cx="306.85" cy="384.664" r="4.5179" transform="rotate(-155.385 306.85 384.664)" fill="white"/>
<circle cx="334.485" cy="365.022" r="4.5179" transform="rotate(-155.385 334.485 365.022)" fill="white"/>
<circle cx="351.258" cy="382.648" r="4.5179" transform="rotate(-155.385 351.258 382.648)" fill="white"/>
<circle cx="363.87" cy="322.58" r="4.5179" transform="rotate(-155.385 363.87 322.58)" fill="white"/>
<circle cx="393.477" cy="331.174" r="4.5179" transform="rotate(-155.385 393.477 331.174)" fill="white"/>
<circle cx="380.561" cy="367.499" r="4.5179" transform="rotate(-155.385 380.561 367.499)" fill="white"/>
<circle cx="440.579" cy="334.12" r="4.5179" transform="rotate(-155.385 440.579 334.12)" fill="white"/>
<circle cx="450.432" cy="415.66" r="4.5179" transform="rotate(-155.385 450.432 415.66)" fill="white"/>
<circle cx="420.949" cy="366.125" r="4.5179" transform="rotate(-155.385 420.949 366.125)" fill="white"/>
<circle cx="395.874" cy="342.212" r="4.5179" transform="rotate(-155.385 395.874 342.212)" fill="white"/>
<circle cx="416.791" cy="318.251" r="4.5179" transform="rotate(-155.385 416.791 318.251)" fill="white"/>
<circle cx="542.023" cy="389.294" r="4.5179" transform="rotate(-155.385 542.023 389.294)" fill="white"/>
<circle cx="391.119" cy="306.489" r="4.5179" transform="rotate(-155.385 391.119 306.489)" fill="white"/>
<circle cx="395.906" cy="268.928" r="4.5179" transform="rotate(-155.385 395.906 268.928)" fill="white"/>
<circle cx="435.138" cy="278.205" r="4.5179" transform="rotate(-155.385 435.138 278.205)" fill="white"/>
<circle cx="450.242" cy="291.337" r="4.5179" transform="rotate(-155.385 450.242 291.337)" fill="white"/>
<circle cx="507.959" cy="309.084" r="4.5179" transform="rotate(-155.385 507.959 309.084)" fill="white"/>
<circle cx="564.435" cy="334.959" r="4.5179" transform="rotate(-155.385 564.435 334.959)" fill="white"/>
<circle cx="652.746" cy="405.236" r="4.5179" transform="rotate(-155.385 652.746 405.236)" fill="white"/>
<circle cx="644.498" cy="474.758" r="4.5179" transform="rotate(-155.385 644.498 474.758)" fill="white"/>
<circle cx="699.64" cy="446.599" r="4.5179" transform="rotate(-155.385 699.64 446.599)" fill="white"/>
<circle cx="608.946" cy="564.614" r="4.5179" transform="rotate(-155.385 608.946 564.614)" fill="white"/>
<circle cx="582.186" cy="445.763" r="4.5179" transform="rotate(-155.385 582.186 445.763)" fill="white"/>
<circle cx="512.098" cy="449.18" r="4.5179" transform="rotate(-155.385 512.098 449.18)" fill="white"/>
<circle cx="435.955" cy="593.215" r="4.5179" transform="rotate(-155.385 435.955 593.215)" fill="white"/>
<circle cx="572.377" cy="597.347" r="4.5179" transform="rotate(-155.385 572.377 597.347)" fill="white"/>
<circle cx="560.714" cy="633.881" r="4.5179" transform="rotate(-155.385 560.714 633.881)" fill="white"/>
<circle cx="714.907" cy="405.142" r="4.5179" transform="rotate(-155.385 714.907 405.142)" fill="white"/>
<circle cx="708.702" cy="374.249" r="4.5179" transform="rotate(-155.385 708.702 374.249)" fill="white"/>
<circle cx="768.511" cy="420.735" r="4.5179" transform="rotate(-155.385 768.511 420.735)" fill="white"/>
<circle cx="770.426" cy="399.997" r="4.5179" transform="rotate(-155.385 770.426 399.997)" fill="white"/>
<circle cx="827.617" cy="306.851" r="4.5179" transform="rotate(-155.385 827.617 306.851)" fill="white"/>
<circle cx="789.603" cy="325.488" r="4.5179" transform="rotate(-155.385 789.603 325.488)" fill="white"/>
<circle cx="854.177" cy="382.995" r="4.5179" transform="rotate(-155.385 854.177 382.995)" fill="white"/>
<circle cx="820.02" cy="330.51" r="4.5179" transform="rotate(-155.385 820.02 330.51)" fill="white"/>
<circle cx="736.901" cy="427.643" r="4.5179" transform="rotate(-155.385 736.901 427.643)" fill="white"/>
<circle cx="733.354" cy="457.077" r="4.5179" transform="rotate(-155.385 733.354 457.077)" fill="white"/>
<circle cx="749.784" cy="464.603" r="4.5179" transform="rotate(-155.385 749.784 464.603)" fill="white"/>
<circle cx="713.509" cy="497.68" r="4.5179" transform="rotate(-155.385 713.509 497.68)" fill="white"/>
<circle cx="743.763" cy="540.115" r="4.5179" transform="rotate(-155.385 743.763 540.115)" fill="white"/>
<circle cx="761.039" cy="483.425" r="4.5179" transform="rotate(-155.385 761.039 483.425)" fill="white"/>
<circle cx="788.723" cy="509.776" r="4.5179" transform="rotate(-155.385 788.723 509.776)" fill="white"/>
<circle cx="819.356" cy="518.842" r="4.5179" transform="rotate(-155.385 819.356 518.842)" fill="white"/>
<circle cx="801.682" cy="489.623" r="4.5179" transform="rotate(-155.385 801.682 489.623)" fill="white"/>
<circle cx="840.524" cy="472.634" r="4.5179" transform="rotate(-155.385 840.524 472.634)" fill="white"/>
<circle cx="907.465" cy="453.487" r="4.5179" transform="rotate(-155.385 907.465 453.487)" fill="white"/>
<circle cx="865.141" cy="587.029" r="4.5179" transform="rotate(-155.385 865.141 587.029)" fill="white"/>
<circle cx="867.154" cy="601.617" r="4.5179" transform="rotate(-155.385 867.154 601.617)" fill="white"/>
<circle cx="848.333" cy="612.872" r="4.5179" transform="rotate(-155.385 848.333 612.872)" fill="white"/>
<circle cx="252.99" cy="702.885" r="4.5179" transform="rotate(-155.385 252.99 702.885)" fill="white"/>
<circle cx="197.753" cy="746.39" r="4.5179" transform="rotate(-155.385 197.753 746.39)" fill="white"/>
<circle cx="354.215" cy="707.021" r="4.5179" transform="rotate(-155.385 354.215 707.021)" fill="white"/>
<circle cx="345.104" cy="721.482" r="4.5179" transform="rotate(-155.385 345.104 721.482)" fill="white"/>
<circle cx="334.109" cy="740.05" r="4.5179" transform="rotate(-155.385 334.109 740.05)" fill="white"/>
<circle cx="308.526" cy="730.813" r="4.5179" transform="rotate(-155.385 308.526 730.813)" fill="white"/>
<circle cx="434.044" cy="706.323" r="4.5179" transform="rotate(-155.385 434.044 706.323)" fill="white"/>
<circle cx="512.039" cy="725.907" r="4.5179" transform="rotate(-155.385 512.039 725.907)" fill="white"/>
<circle cx="567.529" cy="737.663" r="4.5179" transform="rotate(-155.385 567.529 737.663)" fill="white"/>
</svg>
