<svg width="12" height="10" viewBox="0 0 12 10" fill="none" xmlns="http://www.w3.org/2000/svg">
<path d="M11.2955 0.705301C11.0825 0.492276 10.7371 0.492276 10.5241 0.705301L3.9892 7.24024L1.4773 4.72834C1.2643 4.51532 0.918958 4.51534 0.705912 4.72834C0.492886 4.94135 0.492886 5.28669 0.705912 5.49971L3.60351 8.39727C3.81645 8.61027 4.16204 8.61012 4.3749 8.39727L11.2955 1.47669C11.5085 1.26369 11.5085 0.918327 11.2955 0.705301Z" fill="#338FBF"/>
<path fill-rule="evenodd" clip-rule="evenodd" d="M10.1377 0.31951C10.5638 -0.106482 11.2545 -0.106537 11.6805 0.319548C12.1064 0.74554 12.1066 1.43625 11.6805 1.86231C11.6805 1.86231 11.6805 1.86232 11.6805 1.86233L4.7599 8.78288C4.33417 9.20862 3.64316 9.20905 3.21707 8.78283L0.319532 5.88533L0.319529 5.88533C-0.106499 5.4593 -0.106527 4.76858 0.319548 4.34255L0.319567 4.34253C0.745566 3.91662 1.43624 3.91648 1.86231 4.34257C1.86231 4.34258 1.86232 4.34258 1.86233 4.34259L3.98851 6.46878L10.1377 0.319531L10.1377 0.31951ZM10.9091 1.09094L10.5234 0.705223L10.9091 1.0909L10.9091 1.0909L10.9091 1.09094Z" fill="#338FBF"/>
</svg>
