<svg width="215" height="258" viewBox="0 0 215 258" fill="none" xmlns="http://www.w3.org/2000/svg">
<path d="M91.4561 179.111C91.4561 185.112 96.3321 189.988 102.333 189.988H150.719C156.721 189.988 161.597 185.112 161.597 179.111V134.101C161.597 128.099 156.721 123.223 150.719 123.223H102.333C96.3321 123.223 91.4561 128.099 91.4561 134.101V179.111V179.111Z" fill="#338FBF"/>
<path d="M85.0791 179.111C85.0791 185.112 89.9552 189.988 95.9565 189.988H144.342C150.344 189.988 155.22 185.112 155.22 179.111V134.101C155.22 128.099 150.344 123.223 144.342 123.223H95.9565C89.9552 123.223 85.0791 128.099 85.0791 134.101V179.111Z" fill="#338FBF"/>
<path d="M56.3232 221.995C56.3232 224.62 58.4487 226.746 61.0743 226.746C63.6999 226.746 65.8254 224.62 65.8254 221.995V157.605C65.8254 154.98 63.6999 152.854 61.0743 152.854C58.4487 152.854 56.3232 154.98 56.3232 157.605V221.995Z" fill="#FFE8B0"/>
<path d="M55.8232 219.62C55.8232 223.871 59.199 227.247 63.4499 227.247H78.0782C82.3291 227.247 85.7049 223.871 85.7049 219.62V155.856C85.7049 151.605 82.3291 148.229 78.0782 148.229H63.4499C59.199 148.229 55.8232 151.605 55.8232 155.856V219.62Z" fill="#BF6060"/>
<path d="M62.9502 219.62C62.9502 223.871 66.9511 227.247 71.9522 227.247H80.8292C85.8303 227.247 89.8312 223.871 89.8312 219.62V155.856C89.8312 151.605 85.8303 148.229 80.8292 148.229H71.9522C66.9511 148.229 62.9502 151.605 62.9502 155.856V219.62Z" fill="#338FBF"/>
<path d="M139.591 253.752C139.591 255.252 140.966 256.502 142.717 256.502C144.467 256.502 145.842 255.252 145.842 253.752V226.495C145.842 224.995 144.467 223.745 142.717 223.745C140.966 223.745 139.591 224.995 139.591 226.495V253.752Z" fill="#338FBF"/>
<path d="M157.052 253.752C157.052 255.252 158.427 256.502 160.177 256.502C161.928 256.502 163.303 255.252 163.303 253.752V226.495C163.303 224.995 161.928 223.745 160.177 223.745C158.427 223.745 157.052 224.995 157.052 226.495V253.752Z" fill="#338FBF"/>
<path d="M62.9502 253.752C62.9502 255.252 64.3255 256.502 66.0759 256.502C67.8263 256.502 69.2016 255.252 69.2016 253.752V226.495C69.2016 224.995 67.8263 223.745 66.0759 223.745C64.3255 223.745 62.9502 224.995 62.9502 226.495V253.752Z" fill="#338FBF"/>
<path d="M79.4541 253.001C79.4541 254.502 80.8294 255.627 82.4548 255.627C84.0801 255.627 85.4554 254.377 85.4554 253.001V226.495C85.4554 224.995 84.0801 223.87 82.4548 223.87C80.8294 223.87 79.4541 225.12 79.4541 226.495V253.001Z" fill="#338FBF"/>
<path d="M56.3232 219.619C56.3232 223.87 59.699 227.245 63.9499 227.245H150.094C154.345 227.245 157.721 223.87 157.721 219.619V192.863C157.721 188.612 154.345 185.236 150.094 185.236H63.9499C59.699 185.236 56.3232 188.612 56.3232 192.863V219.619Z" fill="#338FBF"/>
<path d="M80.7683 131.819L81.0977 132.195L81.3012 132.017L81.2633 131.749C79.7692 121.187 78.749 113.774 78.8902 108.28C79.0245 103.053 80.2093 99.6456 82.9928 96.9515C83.0087 96.9711 83.0252 96.9913 83.0421 97.0122C83.2882 97.3158 83.6411 97.7586 84.0662 98.3129C84.917 99.4219 86.0554 100.975 87.2072 102.753C88.3598 104.532 89.5208 106.528 90.4204 108.523C91.3225 110.524 91.9476 112.493 92.0562 114.226C92.0632 114.339 92.0705 114.454 92.0778 114.571C92.3083 118.238 92.67 123.995 92.3699 129.172C92.215 131.846 91.8848 134.335 91.2816 136.291C90.6708 138.271 89.8195 139.576 88.7189 140.076L88.6069 140.127L88.5313 140.224C88.1713 140.686 87.5113 141.263 86.5912 141.928C85.6799 142.586 84.5452 143.307 83.2647 144.062C80.7042 145.572 77.5864 147.2 74.5622 148.702C71.5395 150.203 68.617 151.575 66.4497 152.572C65.3662 153.07 64.4719 153.475 63.8486 153.754C63.5671 153.881 63.3408 153.981 63.1775 154.054L58.5144 149.638C59.0288 149.397 59.6149 149.069 60.2501 148.679C61.2276 148.079 62.3506 147.313 63.5547 146.444C65.9633 144.707 68.716 142.544 71.3126 140.434C73.9101 138.325 76.3561 136.265 78.1524 134.733C79.0506 133.967 79.7866 133.333 80.2982 132.89C80.554 132.669 80.7537 132.495 80.8895 132.377L81.0444 132.242L81.0841 132.207L81.0942 132.198L81.0968 132.196L81.0974 132.195C81.0976 132.195 81.0977 132.195 80.7683 131.819Z" fill="white" stroke="#338FBF"/>
<path d="M49.7573 152.718V154.216H60.1335L61.4988 151.764C61.4988 151.764 56.7203 150.402 52.6244 151.628C52.6244 151.628 50.8495 152.309 50.5765 152.581C50.44 152.718 50.1669 152.445 49.7573 152.718Z" fill="#DD8866"/>
<path d="M62.7275 153.126C62.3179 153.807 61.0891 154.897 59.7239 154.625C58.3586 154.352 56.7202 154.625 56.7202 154.625C56.7202 154.625 56.3106 154.08 57.2663 153.807C58.2221 153.535 59.8604 152.717 59.8604 152.172L57.1298 151.764C57.1298 151.764 55.7645 151.9 55.2184 152.172C54.6723 152.445 54.5358 153.535 53.8531 154.08C53.1705 154.625 52.7609 154.488 52.7609 154.488C52.7609 154.488 53.1705 152.854 53.5801 152.309C53.7166 152.173 54.2627 151.764 54.2627 151.764C54.2627 151.764 53.1705 151.9 52.7609 152.581C52.3513 153.262 52.3513 153.671 52.2148 154.08C52.0782 154.352 51.6687 154.761 51.2591 154.625C51.2591 154.625 51.6687 152.854 51.8052 152.172C51.8052 152.172 51.1225 154.216 50.986 154.488C50.713 154.897 50.4399 154.488 50.5764 152.581C50.5764 152.581 50.1668 153.399 50.1668 154.08C50.1668 154.08 49.6207 154.488 49.6207 153.807C49.6207 153.262 49.4842 152.172 50.713 152.172C50.713 152.172 51.3956 150.81 52.4878 151.355C52.4878 151.355 54.1262 150.538 54.9453 150.265C55.7645 150.129 56.8568 150.265 56.8568 150.265C56.8568 150.265 64.6389 150.129 62.7275 153.126Z" fill="#F3A17A"/>
<path d="M122.574 91.7717C123.952 92.089 125.041 92.5083 125.784 93.0323C128.83 95.2507 129.593 99.4275 128.71 103.433C127.825 107.448 125.342 111.026 122.234 112.039C121.546 112.263 120.55 112.189 119.265 111.796C117.995 111.407 116.514 110.731 114.901 109.845C111.675 108.075 107.981 105.504 104.481 102.853C100.984 100.204 97.694 97.486 95.2771 95.4294C94.0689 94.4013 93.0796 93.539 92.3927 92.934C92.2962 92.8491 92.2058 92.7692 92.1215 92.6947C92.1773 92.6869 92.2352 92.6788 92.295 92.6705C93.0855 92.5607 94.2228 92.4089 95.6083 92.2411C98.3799 91.9056 102.142 91.5065 106.106 91.2519C110.072 90.9971 114.229 90.8878 117.794 91.1283C119.577 91.2486 121.201 91.4556 122.574 91.7717Z" fill="white" stroke="#338FBF"/>
<path d="M101.137 254.978L101.137 254.979L101.023 257.363H88.5334C88.6025 256.687 88.7083 255.87 88.9121 255.056C89.1768 254 89.5919 253.014 90.2479 252.36C91.5572 251.053 92.2388 249.468 92.5941 248.227C92.7724 247.604 92.8706 247.061 92.9244 246.672C92.9411 246.551 92.9536 246.445 92.9628 246.356C92.968 246.353 92.9733 246.351 92.9786 246.349C93.1663 246.272 93.435 246.163 93.7577 246.038C94.4042 245.787 95.2617 245.472 96.1154 245.213C96.9794 244.951 97.8004 244.759 98.3883 244.73C98.6901 244.715 98.8642 244.748 98.9437 244.785C98.9462 244.786 98.9485 244.787 98.9506 244.788C98.9195 245.322 99.0682 246.07 99.2699 246.869C99.4445 247.56 99.6748 248.347 99.9115 249.155C99.9622 249.328 100.013 249.502 100.064 249.677C100.354 250.673 100.64 251.684 100.845 252.614C101.052 253.551 101.168 254.366 101.137 254.978Z" fill="white" stroke="#338FBF"/>
<path d="M64.1412 257.5H41.534C41.5755 256.88 41.6979 256.092 41.9762 255.392C42.3368 254.485 42.9072 253.834 43.8055 253.729L43.8055 253.729L43.8091 253.728C45.448 253.524 47.9315 253.178 50.1843 252.247C52.4371 251.316 54.5441 249.764 55.2864 247.105C55.6282 245.961 56.2134 245.329 56.8674 244.984C57.5388 244.63 58.3402 244.549 59.1477 244.62C59.9522 244.692 60.7231 244.912 61.2994 245.119C61.5859 245.221 61.8203 245.319 61.982 245.391C62.0063 245.402 62.0291 245.412 62.05 245.422C62.0587 245.446 62.0681 245.474 62.0782 245.503C62.14 245.683 62.2287 245.949 62.3349 246.289C62.5474 246.969 62.83 247.946 63.1084 249.124C63.6458 251.399 64.1638 254.411 64.1412 257.5Z" fill="white" stroke="#338FBF"/>
<path d="M44.1538 171.92L44.1546 171.919C52.0533 166.867 64.1881 163.713 74.405 161.824C79.5027 160.882 84.1035 160.257 87.4298 159.869C89.0927 159.674 90.4365 159.539 91.364 159.452C91.8277 159.409 92.1873 159.378 92.4307 159.358C92.5523 159.347 92.6449 159.34 92.7069 159.335L92.7705 159.33L122.647 160.655C122.638 160.672 122.628 160.689 122.618 160.706C122.339 161.192 121.93 161.891 121.408 162.744C120.364 164.452 118.87 166.772 117.071 169.227C113.454 174.164 108.674 179.545 103.892 181.666L103.889 181.668C101.463 182.762 97.5452 183.656 92.9852 184.377C88.4392 185.096 83.3031 185.636 78.4711 186.035C73.6402 186.435 69.1195 186.694 65.8061 186.854C64.1495 186.933 62.7952 186.988 61.8552 187.023C61.3852 187.04 61.0189 187.053 60.7702 187.061C60.6458 187.065 60.5509 187.068 60.4871 187.07L60.4151 187.072L60.397 187.072L60.3925 187.072L60.3914 187.073C60.3912 187.073 60.3911 187.073 60.4052 187.572L60.3911 187.073L59.8694 187.087L59.9065 187.608L64.1007 246.465H53.3002C53.2762 246.353 53.2472 246.217 53.2135 246.059C53.1022 245.535 52.9397 244.767 52.7352 243.788C52.3261 241.829 51.7489 239.027 51.0762 235.651C49.7307 228.898 48.0038 219.853 46.4776 210.682C44.9508 201.508 43.627 192.22 43.0847 184.977C42.8134 181.352 42.7394 178.259 42.9284 175.955C43.0231 174.802 43.1821 173.868 43.4051 173.172C43.6334 172.459 43.9024 172.08 44.1538 171.92Z" fill="white" stroke="#338FBF"/>
<path d="M135.117 159.131C135.114 159.223 135.11 159.326 135.105 159.438C135.08 160.01 135.033 160.836 134.942 161.848C134.76 163.873 134.404 166.637 133.711 169.597C132.317 175.551 129.591 182.144 124.32 185.234C118.888 188.418 114.275 190.381 111.024 191.546C109.399 192.129 108.115 192.513 107.239 192.75C106.802 192.868 106.466 192.95 106.242 193.003C106.129 193.029 106.045 193.047 105.989 193.059C105.975 193.062 105.963 193.065 105.953 193.067C105.942 193.069 105.934 193.071 105.927 193.072L105.912 193.075L105.909 193.076L105.909 193.076L105.909 193.076L135.117 159.131ZM135.117 159.131C134.823 159.171 134.424 159.226 133.932 159.293C132.804 159.449 131.189 159.675 129.237 159.957C125.333 160.521 120.085 161.308 114.705 162.201C109.324 163.094 103.818 164.093 99.3962 165.08C97.1846 165.573 95.2525 166.062 93.7463 166.531C92.993 166.766 92.3533 166.993 91.8417 167.211C91.3261 167.431 90.9693 167.629 90.758 167.798C90.7131 167.837 90.6327 167.936 90.5356 168.148C90.4403 168.356 90.345 168.636 90.2528 168.992C90.0683 169.704 89.9084 170.67 89.7733 171.864C89.5033 174.25 89.3384 177.486 89.2553 181.29C89.0892 188.894 89.251 198.722 89.541 208.451C89.831 218.178 90.249 227.8 90.5945 234.99C90.7672 238.585 90.9219 241.572 91.0333 243.66C91.089 244.705 91.1339 245.524 91.1649 246.082C91.173 246.228 91.1801 246.356 91.1863 246.466H100.363L135.117 159.131Z" fill="white" stroke="#338FBF"/>
<path d="M101.387 92.9889L101.389 92.9889C108.157 92.6512 113.738 93.563 117.623 94.5575C119.566 95.0547 121.084 95.5723 122.113 95.9643C122.628 96.1603 123.02 96.3248 123.282 96.4396C123.414 96.497 123.512 96.5419 123.577 96.5721C123.607 96.586 123.63 96.5967 123.645 96.6042C127.275 98.9666 129.891 103.498 131.737 109.226C133.583 114.953 134.632 121.794 135.185 128.646C136.262 141.987 135.451 155.288 135.031 160.305C135.027 160.306 135.023 160.306 135.019 160.307C134.76 160.348 134.378 160.407 133.889 160.479C132.91 160.624 131.503 160.822 129.791 161.037C126.366 161.466 121.724 161.958 116.851 162.213C111.974 162.468 106.882 162.483 102.552 161.965C100.387 161.705 98.426 161.314 96.784 160.759C95.1953 160.222 93.936 159.541 93.0746 158.707C93.0556 158.635 93.0289 158.532 92.9949 158.402C92.9204 158.114 92.811 157.689 92.6719 157.14C92.3938 156.04 91.997 154.442 91.523 152.448C90.5748 148.46 89.3178 142.89 88.082 136.564C85.626 123.99 83.2628 108.469 83.5618 96.4394C83.6817 96.3658 83.8629 96.262 84.1155 96.136C84.6722 95.8583 85.5756 95.4724 86.9337 95.0626C89.6506 94.2426 94.1823 93.328 101.387 92.9889Z" fill="white" stroke="#338FBF"/>
<path d="M105.122 100.452C105.048 100.547 104.979 100.633 104.917 100.709L103.11 98.569L102.76 98.1537L102.375 98.5375L99.5704 101.336L95.6903 97.8389L95.0812 97.29L94.8721 98.0828L94.5714 99.2229C94.1723 97.836 94.2123 96.4142 94.3989 95.2227C94.5219 94.437 94.7067 93.765 94.8606 93.2902C94.9374 93.0532 95.0061 92.8663 95.0551 92.7401C95.0697 92.7022 95.0826 92.6698 95.0934 92.6432C96.8751 90.9849 99.7091 90.3083 102.274 90.5351C103.568 90.6494 104.756 90.9911 105.674 91.5214C106.588 92.0501 107.203 92.7466 107.433 93.5701C107.859 95.2833 107.19 97.145 106.338 98.6445C105.918 99.384 105.468 100.01 105.122 100.452Z" fill="white" stroke="#338FBF"/>
<path d="M105.753 118.188C105.737 117.981 105.725 117.798 105.715 117.645H111.74L113.485 126.352C113.366 126.39 113.224 126.435 113.063 126.482C112.554 126.631 111.863 126.803 111.128 126.9C110.388 126.999 109.632 127.018 108.98 126.881C108.333 126.745 107.828 126.465 107.514 125.994C107.15 125.451 106.843 124.637 106.592 123.684C106.343 122.74 106.158 121.697 106.023 120.721C105.888 119.746 105.804 118.845 105.753 118.188Z" fill="white" stroke="#338FBF"/>
<path d="M105.511 93.2332C105.632 93.4143 105.742 93.5605 105.832 93.6716C104.957 95.6273 103.368 97.3345 101.939 98.5837C101.195 99.2339 100.506 99.7509 100.003 100.105C99.8424 100.218 99.7011 100.314 99.5834 100.393L97.5503 97.5288L93.3159 90.446C97.5725 89.8472 99.9848 87.6363 101.326 85.5018C102.032 84.3791 102.437 83.2854 102.666 82.4725C102.688 82.3958 102.708 82.3216 102.726 82.2501C102.754 82.2787 102.783 82.307 102.811 82.3349C103.145 82.6637 103.529 82.9727 103.886 83.2358C104.245 83.4999 104.585 83.7234 104.835 83.8808C104.854 83.8928 104.872 83.9045 104.89 83.9157C103.782 87.0995 104.012 89.5538 104.56 91.2459C104.845 92.122 105.211 92.7851 105.511 93.2332Z" fill="white" stroke="#338FBF"/>
<path d="M112.458 93.0788C112.471 93.0299 112.484 92.984 112.496 92.9411C112.584 92.9609 112.683 92.9838 112.794 93.0098C113.274 93.1223 113.965 93.2932 114.807 93.5254C116.492 93.9901 118.776 94.6993 121.177 95.6775C123.579 96.6565 126.083 97.8993 128.216 99.4267C130.353 100.957 132.084 102.749 132.99 104.815L132.99 104.815L132.992 104.818C133.464 105.874 133.971 107.663 134.487 110.031C135.001 112.388 135.516 115.286 136.011 118.541C137.001 125.05 137.908 132.965 138.565 140.789C139.221 148.613 139.625 156.337 139.61 162.465C139.603 165.53 139.49 168.184 139.255 170.248C139.137 171.281 138.989 172.155 138.812 172.855C138.632 173.564 138.431 174.054 138.226 174.346C136.234 177.195 134.056 178.636 132.393 179.368C131.56 179.735 130.853 179.925 130.36 180.023C130.287 180.037 130.219 180.05 130.156 180.06C130.285 176.654 129.573 172.293 128.378 167.459C127.11 162.324 125.287 156.612 123.306 150.869C121.814 146.545 120.235 142.209 118.733 138.085C116.235 131.225 113.95 124.949 112.631 120.28C110.536 112.865 110.535 105.916 111.06 100.817C111.322 98.2682 111.715 96.1852 112.042 94.7417C112.206 94.02 112.352 93.4584 112.458 93.0788Z" fill="white" stroke="#338FBF"/>
<path d="M83.5682 96.0308L83.2224 95.9934C83.3016 95.9656 83.4095 95.9245 83.5423 95.8725C83.5591 95.9225 83.5682 95.9758 83.5682 96.0308ZM85.0124 135.2C82.8983 122.123 81.3559 106.613 83.4947 96.4264C83.5145 96.419 83.5348 96.4113 83.5555 96.4034C83.7456 96.3312 84.0121 96.2244 84.3299 96.0972C84.3528 96.088 84.3761 96.0787 84.3996 96.0693C85.1013 95.7884 86.0545 95.408 87.0786 95.0365C88.1043 94.6643 89.1908 94.3048 90.1583 94.064C90.807 93.9026 91.368 93.8037 91.8088 93.7777C91.7686 93.9076 91.7233 94.0572 91.6735 94.2264C91.4632 94.9418 91.1736 96.0076 90.8534 97.4186C90.2129 100.241 89.4499 104.443 88.9529 109.983C87.9674 120.969 88.0283 137.21 92.1629 158.376L89.7312 158.57C89.7257 158.547 89.7199 158.524 89.714 158.5C89.6364 158.185 89.523 157.72 89.3803 157.12C89.0948 155.92 88.6918 154.182 88.2221 152.033C87.2827 147.733 86.0772 141.787 85.0124 135.2Z" fill="white" stroke="#338FBF"/>
<path d="M102.671 95.5342C103.667 94.6354 104.793 93.3592 105.275 91.8448C105.34 91.8652 105.41 91.8904 105.483 91.9216C105.828 92.0685 106.231 92.3431 106.498 92.8692C107.016 93.8893 107.122 96.0779 104.69 100.602L102.974 98.5696L102.624 98.1543L102.239 98.5382L100.179 100.594L100.73 97.0166C100.844 96.9442 101 96.8419 101.186 96.712C101.581 96.4371 102.115 96.0368 102.671 95.5342Z" fill="white" stroke="#338FBF"/>
<path d="M110.905 112.123C110.114 108.99 110.08 104.891 110.529 101.079C110.783 98.9306 111.187 96.8941 111.686 95.1992C112.188 93.49 112.773 92.1778 113.36 91.4376L113.36 91.4376L113.362 91.4354C113.564 91.1773 113.982 90.9425 114.656 90.7865C115.316 90.634 116.148 90.5738 117.082 90.6007C118.948 90.6546 121.14 91.0538 122.999 91.6696C123.929 91.9773 124.762 92.3346 125.423 92.7213C126.095 93.1136 126.546 93.5101 126.767 93.8761C126.967 94.2067 126.981 94.5012 126.79 94.8238C126.57 95.1946 126.051 95.6452 125.041 96.124C120.753 98.1583 117.072 102.475 114.485 106.219C113.185 108.1 112.148 109.856 111.436 111.141C111.232 111.51 111.055 111.84 110.905 112.123Z" fill="white" stroke="#338FBF"/>
<path d="M100.867 125.922C100.96 126.944 101.053 127.968 101.152 128.982C101.033 127.983 100.908 126.972 100.768 125.944C100.683 125.015 100.612 124.085 100.545 123.157C100.634 124.088 100.737 125.014 100.867 125.922Z" fill="white" stroke="#338FBF"/>
<path d="M92.6529 92.6746C92.5359 92.9939 92.3698 93.4572 92.1705 94.0408C91.769 95.2168 91.2326 96.8825 90.6919 98.8436C89.8072 102.052 88.9056 106.07 88.5708 110.037C88.1594 108.768 87.6564 107.115 87.2041 105.341C86.7122 103.411 86.2834 101.352 86.095 99.4964C85.9046 97.6222 85.9688 96.0348 86.3958 94.9979C87.2506 92.9902 88.8716 92.4399 90.3535 92.3927C91.101 92.3689 91.7995 92.4763 92.3147 92.5916C92.4396 92.6196 92.553 92.6479 92.6529 92.6746Z" fill="white" stroke="#338FBF"/>
<path d="M126.295 137.377C125.781 136.842 125.266 135.871 124.784 134.512C124.307 133.167 123.88 131.494 123.515 129.603C122.787 125.821 122.316 121.209 122.185 116.692C122.054 112.171 122.263 107.772 122.884 104.411C123.195 102.727 123.604 101.331 124.11 100.316C124.585 99.363 125.103 98.827 125.628 98.6299C125.666 98.6415 125.712 98.6558 125.764 98.6728C125.946 98.7317 126.21 98.823 126.536 98.9512C127.187 99.2077 128.079 99.6102 129.035 100.192C130.953 101.36 133.093 103.225 134.124 106.047C135.181 108.942 136.003 114.746 136.47 120.708C136.936 126.658 137.042 132.67 136.702 135.952C136.537 137.548 136.067 138.69 135.429 139.45C134.797 140.203 133.974 140.612 133.027 140.706C131.103 140.897 128.6 139.781 126.295 137.377Z" fill="white" stroke="#338FBF"/>
<path d="M123.678 135.022C123.681 135.022 123.684 135.022 123.688 135.022C123.755 135.019 123.855 135.016 123.984 135.014C124.243 135.009 124.619 135.009 125.078 135.025C126 135.058 127.253 135.16 128.59 135.433C131.201 135.965 133.99 137.12 135.352 139.541C135.348 139.546 135.344 139.551 135.34 139.556C135.2 139.731 134.95 140.015 134.528 140.413C133.681 141.211 132.15 142.464 129.438 144.239C124.043 147.769 114.004 153.345 95.4539 161.506L92.866 158.857C92.9464 158.76 93.044 158.643 93.1585 158.507C93.5372 158.058 94.1002 157.406 94.8348 156.597C96.3041 154.978 98.4587 152.73 101.196 150.221C106.657 145.216 114.422 139.185 123.678 135.022ZM135.494 139.342L135.495 139.34C135.495 139.339 135.495 139.34 135.494 139.342Z" fill="white" stroke="#338FBF"/>
<path d="M90.4919 166.061H55.47C54.3896 166.061 53.1423 165.362 52.7438 164.523L42.821 143.906C42.4226 143.067 42.9759 142.368 44.0562 142.368H79.0781C80.1585 142.368 81.4059 143.067 81.8043 143.906L91.7271 164.523C92.1256 165.362 91.6623 166.061 90.4919 166.061Z" fill="#338FBF"/>
<path d="M89.2439 166.064H54.222C53.1416 166.064 51.8942 165.365 51.4958 164.526L41.573 143.909C41.1746 143.07 41.7278 142.371 42.8082 142.371H77.8301C78.9105 142.371 80.1578 143.07 80.5563 143.909L90.4791 164.526C90.8775 165.365 90.4143 166.064 89.2439 166.064Z" fill="#338FBF"/>
<path d="M84.7115 84.2664L84.717 84.277L84.722 84.2879C85.0018 84.8989 85.4182 85.4736 85.8693 86.0932L85.8841 86.1135L85.8967 86.1357C86.4001 87.021 86.8597 87.7439 87.4506 88.4152L87.46 88.426L87.4688 88.4373C88.7699 90.1264 90.1375 91.5624 91.2749 92.1674L91.2857 92.1731L91.2961 92.1795C92.7385 93.0589 94.9334 92.9827 97.2291 92.0115C99.5107 91.0462 101.807 89.2283 103.4 86.7732L103.4 86.7728C105.475 83.5804 106.417 79.1558 104.549 74.1635C102.034 67.7105 98.6387 65.1339 95.0104 65.1448C91.334 65.1558 87.207 67.8144 83.197 72.3699L83.1971 72.37L83.1881 72.3797C82.1273 73.5292 81.8531 75.2694 82.2051 77.4167C82.5547 79.5493 83.5046 81.9527 84.7115 84.2664Z" fill="white" stroke="#338FBF"/>
<path d="M80.9467 74.9428C81.0644 74.7422 81.2229 74.4848 81.4249 74.1831C81.9225 73.4398 82.6853 72.4259 83.7531 71.3286C85.891 69.1318 89.2482 66.6046 94.1357 65.2445L94.405 65.1695L94.5812 65.3762L94.2181 65.7348C94.5812 65.3762 94.5812 65.3763 94.5812 65.3763L94.5814 65.3765L94.5821 65.3774L94.585 65.3807L94.5962 65.3939L94.64 65.4454L94.8078 65.6429C94.9532 65.8143 95.1631 66.0622 95.4211 66.3684C95.9373 66.9807 96.6463 67.8262 97.4178 68.7587C98.8863 70.5336 100.591 72.6361 101.62 74.0449C101.74 74.0406 101.892 74.0445 102.066 74.0691C102.486 74.1285 103.032 74.3084 103.564 74.7768C104.515 75.613 105.347 77.2941 105.472 80.5789C105.667 80.2144 105.867 79.7219 106.017 79.0723C106.465 77.1294 106.467 73.7494 104.457 68.175C102.711 63.401 100.44 62.1103 98.7166 61.9096C97.8362 61.807 97.0549 61.9825 96.4913 62.1855C96.2102 62.2868 95.9858 62.3941 95.8342 62.4745C95.7585 62.5146 95.7012 62.5479 95.6644 62.5701C95.646 62.5812 95.6328 62.5895 95.6249 62.5945L95.6173 62.5994L95.6172 62.5995L95.6169 62.5997L95.6165 62.5999L95.3123 62.8038L95.0628 62.5708L95.0627 62.5707L95.0625 62.5705L95.0624 62.5704L95.062 62.5701L95.0581 62.5666C95.0534 62.5624 95.0453 62.5552 95.0337 62.5454C95.0105 62.5257 94.9736 62.4952 94.923 62.4564C94.8218 62.3789 94.6664 62.2684 94.4582 62.1446C94.0416 61.8968 93.4149 61.5962 92.5883 61.3978C90.9441 61.0032 88.4778 61.0044 85.2516 62.687C81.9091 64.4826 79.9634 67.172 79.3444 69.6099C78.7703 71.8707 79.327 73.8976 80.9467 74.9428Z" fill="white" stroke="#338FBF"/>
<path d="M93.0317 76.5913C93.3406 77.2654 93.3579 78.0393 92.953 78.3338C92.5481 78.6284 91.9802 78.1989 91.5255 77.5747C91.2167 76.9006 91.1994 76.1267 91.6043 75.8322C92.155 75.4877 92.6902 75.7724 93.0317 76.5913Z" fill="#338FBF"/>
<path d="M87.3196 80.5394C87.6284 81.2134 87.6457 81.9873 87.2409 82.2818C86.8361 82.5763 86.2682 82.1468 85.8136 81.5227C85.5048 80.8487 85.4875 80.0749 85.8923 79.7804C86.4429 79.436 87.0108 79.8654 87.3196 80.5394Z" fill="#338FBF"/>
<path d="M89.1417 81.362C89.1417 81.362 88.8777 84.9324 87.4289 85.2762C85.9801 85.62 88.3454 87.9893 91.4451 84.8116C91.4451 84.8116 91.5688 82.6509 89.1417 81.362Z" fill="#338FBF"/>
<path d="M96.8682 77.6588C97.2744 78.1179 97.1503 78.9067 96.5423 79.5615C95.9343 80.2162 95.0605 80.3641 94.6543 79.905C94.248 79.4459 94.3721 78.6571 94.9801 78.0023C95.5881 77.3476 96.3215 77.2475 96.8682 77.6588Z" fill="#338FBF"/>
<path d="M87.5572 84.1015C87.6839 84.6641 87.102 85.4689 86.3934 85.7111C85.9515 85.1047 85.6514 84.4499 85.2096 83.8436C85.3196 83.6545 85.603 83.5576 85.8865 83.4607C86.5951 83.2185 87.4304 83.5389 87.5572 84.1015Z" fill="#338FBF"/>
<path d="M91.7299 71.8908C91.8653 71.8463 91.8385 71.7335 91.8385 71.7335C91.9472 71.5762 91.785 71.508 91.6229 71.4397C90.1351 71.3211 88.7795 72.3746 88.6441 72.4191C88.5087 72.4636 88.4268 72.7336 88.589 72.8019C88.6157 72.9146 88.9133 72.9384 89.0219 72.7811C89.0219 72.7811 90.2689 71.8849 91.4591 71.9798C91.5945 71.9353 91.5945 71.9353 91.7299 71.8908Z" fill="#338FBF"/>
<path d="M83.3288 78.1774C83.4731 78.1219 83.5901 77.9354 83.5626 77.8044C83.3086 77.3359 84.2641 76.6856 84.6697 76.3883C84.8141 76.3328 84.931 76.1463 84.8761 75.8843C84.8487 75.7533 84.6769 75.6778 84.3882 75.7887C83.6939 76.197 82.6489 77.1647 82.9852 78.0263C83.0401 78.2883 83.2119 78.3638 83.3288 78.1774Z" fill="#338FBF"/>
<path d="M101.605 76.4126C101.602 76.4246 101.598 76.4358 101.595 76.4463C101.6 76.4776 101.607 76.5154 101.614 76.5591C101.638 76.7004 101.676 76.9023 101.727 77.1418C101.831 77.6232 101.99 78.2451 102.213 78.8282C102.44 79.4219 102.716 79.9248 103.029 80.2158C103.181 80.3571 103.328 80.435 103.468 80.4623C103.602 80.4886 103.76 80.4744 103.955 80.381C104.322 80.2003 104.719 79.7385 105.062 79.0315C105.398 78.3398 105.644 77.4896 105.748 76.6559C105.853 75.8169 105.81 75.0412 105.609 74.4782C105.413 73.931 105.089 73.6209 104.615 73.5673C103.51 73.4426 102.776 74.1085 102.275 74.9036C102.024 75.3023 101.846 75.7156 101.73 76.0332C101.673 76.1909 101.631 76.3222 101.605 76.4126Z" fill="white" stroke="#338FBF"/>
<path d="M91.8205 90.1794L95.9501 87.4401C95.9501 87.4401 96.839 87.6214 94.8646 89.0121C92.8749 90.3736 91.8205 90.1794 91.8205 90.1794Z" fill="#338FBF"/>
<path d="M131.714 219.62C131.714 223.871 135.09 227.247 139.341 227.247H153.969C158.22 227.247 161.595 223.871 161.595 219.62V155.856C161.595 151.605 158.22 148.229 153.969 148.229H139.341C135.09 148.229 131.714 151.605 131.714 155.856V219.62Z" fill="#338FBF"/>
<path d="M139.091 219.62C139.091 223.871 142.467 227.247 146.718 227.247H161.346C165.597 227.247 168.972 223.871 168.972 219.62V155.856C168.972 151.605 165.597 148.229 161.346 148.229H146.718C142.467 148.229 139.091 151.605 139.091 155.856V219.62Z" fill="#338FBF"/>
<path d="M97.4737 160.41C97.1939 161.944 93.4793 161.194 93.4793 161.194C93.4793 161.194 91.3877 161.084 90.273 161.018C90.273 161.018 90.3018 162.239 89.6119 162.122C89.0491 162.149 88.9586 160.066 88.9586 160.066C88.9586 160.066 87.6693 161.916 87.2662 161.726C86.8632 161.536 87.0487 159.499 87.0487 159.499C87.0487 159.499 85.8068 159.29 85.6361 159.626C85.6252 159.745 85.2947 160.298 84.9751 160.73C84.6555 161.163 84.3468 161.476 84.0817 161.309C83.5625 160.857 84.0567 158.507 84.0567 158.507C84.0567 158.507 83.3668 158.391 83.0799 158.464C82.793 158.537 82.0884 160.121 81.2207 158.879C81.2207 158.879 81.5114 157.225 83.2654 156.427C84.1369 156.088 87.1109 155.739 88.9156 155.922C91.4102 156.222 94.8161 157.284 95.3462 157.617C96.0143 157.973 97.7535 158.876 97.4737 160.41Z" fill="white" stroke="#338FBF"/>
<path d="M88.9015 160.144C88.9015 160.144 88.7304 158.819 89.4587 158.688C90.187 158.556 91.469 158.651 91.469 158.651C91.469 158.651 89.9157 158.379 88.905 158.461C87.8943 158.543 88.0953 161.168 88.0953 161.168L88.9015 160.144Z" fill="white" stroke="#338FBF"/>
<path d="M88.8414 157.675C88.6996 157.65 87.826 157.758 87.5088 158.093C87.1915 158.428 86.9378 159.685 86.9378 159.685C86.9378 159.685 85.6611 159.462 85.4857 159.822C85.4745 159.95 85.1348 160.541 84.8064 161.005C84.8287 160.748 85.116 159.106 85.7617 158.307C86.7023 157.43 88.5577 157.625 88.8414 157.675Z" fill="white" stroke="#338FBF"/>
<path d="M85.9962 157.257C85.9962 157.257 84.3839 157.864 84.1783 158.589C84.1783 158.589 83.4805 158.468 83.1903 158.545C84.1709 157.067 85.9962 157.257 85.9962 157.257Z" fill="white" stroke="#338FBF"/>
<path d="M97.3327 160.309C97.0541 161.782 93.3613 161.061 93.3613 161.061C93.3613 161.061 91.282 160.954 90.1738 160.889C90.0801 160.407 90.3653 160.337 90.5351 160.014C90.5351 160.014 92.044 160.261 92.4773 160.098C92.4773 160.098 93.9644 160.575 94.5457 160.32C95.1379 159.95 96.1156 161.395 97.3327 160.309Z" fill="white" stroke="#338FBF"/>
</svg>
