<svg width="10" height="11" viewBox="0 0 10 11" fill="none" xmlns="http://www.w3.org/2000/svg">
<path d="M5.67673 5.50005L9.40539 1.77139C9.59223 1.58453 9.59223 1.28158 9.40539 1.09474C9.21853 0.907875 8.91557 0.907875 8.72872 1.09474L5.00005 4.8234L1.27139 1.09474C1.08453 0.907875 0.781579 0.907875 0.594735 1.09474C0.407892 1.2816 0.407875 1.58454 0.594735 1.77139L4.32339 5.50005L0.594735 9.22871C0.407875 9.41557 0.407875 9.71852 0.594735 9.90536C0.781596 10.0922 1.08454 10.0922 1.27139 9.90536L5.00005 6.1767L8.72869 9.90536C8.91555 10.0922 9.21851 10.0922 9.40536 9.90536C9.5922 9.7185 9.5922 9.41555 9.40536 9.22871L5.67673 5.50005Z" fill="#338FBF"/>
<path fill-rule="evenodd" clip-rule="evenodd" d="M0.273264 0.773294C0.63763 0.408893 1.22839 0.408915 1.59275 0.773279L5 4.18053L8.40725 0.773294C8.40726 0.773289 8.40725 0.7733 8.40725 0.773294C8.77162 0.408909 9.3624 0.408921 9.72676 0.773279C10.0911 1.13764 10.0911 1.72838 9.72678 2.09274L6.31951 5.5L9.72673 8.90725C10.0911 9.27162 10.0911 9.86235 9.72674 10.2267C9.3624 10.5911 8.77161 10.5911 8.40723 10.2267L5 6.81948L1.59275 10.2267C1.22841 10.5911 0.637662 10.5911 0.273279 10.2267C-0.0911066 9.86236 -0.0910794 9.27161 0.273279 8.90725L3.68053 5.5L0.273294 2.09277C0.273289 2.09277 0.273299 2.09278 0.273294 2.09277C-0.0911105 1.72838 -0.091037 1.13763 0.273264 0.773294ZM0.94993 1.4161C0.940572 1.40675 0.925439 1.40677 0.916119 1.41609C0.906738 1.42547 0.906786 1.44061 0.916088 1.44992L4.96617 5.5L0.916103 9.55008C0.906745 9.55943 0.906767 9.57457 0.916088 9.58389C0.925427 9.59323 0.940587 9.59325 0.94993 9.5839L5 5.53383L9.05006 9.5839C9.05939 9.59324 9.07454 9.59325 9.08388 9.58392C9.09325 9.57456 9.09322 9.5594 9.0839 9.55008L5.03387 5.5L9.08392 1.44995C9.09328 1.44058 9.09326 1.42543 9.08394 1.4161C9.07458 1.40675 9.05943 1.40677 9.05011 1.41609L5 5.46618L0.94993 1.4161Z" fill="#338FBF"/>
</svg>
