<svg width="1024" height="292" viewBox="0 0 1024 292" fill="none" xmlns="http://www.w3.org/2000/svg">
<g clip-path="url(#clip0)">
<path d="M315.593 165.583L226.063 138.782L181.699 191.736M181.699 191.736L140.317 152.128M181.699 191.736L178.888 218.934M140.317 152.128L155.879 137.853M140.317 152.128L178.888 218.934M178.888 218.934L212.653 291.16M178.888 218.934L226.379 269.124M178.888 218.934L173.004 257.608M178.888 218.934L118.851 159.231M212.653 291.16L226.379 269.124M212.653 291.16L191.812 331.414M212.653 291.16L173.004 257.608M212.653 291.16L212.166 391.098M226.379 269.124L246.067 266.577M226.379 269.124L239.766 338.122M191.812 331.414L118.375 282.093M191.812 331.414L173.004 257.608M191.812 331.414L141.022 243.442M191.812 331.414L212.166 391.098M118.375 282.093L141.022 243.442M118.375 282.093L80.6826 352.959L8.94788 255.478M118.375 282.093L8.94788 255.478M141.022 243.442L120.262 239.553M141.022 243.442L118.851 159.231M141.022 243.442L173.004 257.608M173.004 257.608L118.851 159.231M118.851 159.231L112.097 132.263M118.851 159.231L74.9559 129.012M112.097 132.263L136.756 98.6233L127.283 77.6348L159.587 17.5339M112.097 132.263L74.9559 129.012M112.097 132.263L36.0995 102.94M74.9559 129.012L34.2751 118.104M74.9559 129.012L36.0995 102.94M34.2751 118.104L36.0995 102.94M34.2751 118.104L23.8373 154.998M34.2751 118.104L-1.74887 110.681M36.0995 102.94L-1.74887 110.681M23.8373 154.998L-37.6488 150.81M23.8373 154.998L-1.74887 110.681M-37.6488 150.81L-113.352 205.983L-139.554 151.438M-37.6488 150.81L-139.554 151.438M-37.6488 150.81L-1.74887 110.681M-37.6488 150.81L-71.0386 118.936M-139.554 151.438C-118.038 141.368 -74.2124 120.769 -71.0386 118.936M-139.554 151.438L-109.223 115.407M-139.554 151.438L-197.136 172.337L-109.223 115.407M-1.74887 110.681L-71.0386 118.936M-71.0386 118.936L-109.223 115.407M-187.083 237.086L-118.077 167.26L-173.527 178.108L-187.083 237.086ZM-187.083 237.086C-186.069 237.086 -145.047 258.192 -124.662 268.745L-118.077 307.968M8.94787 191.816L72.9587 209.538L91.5078 165.316L8.94787 191.816ZM8.94787 191.816L8.94788 255.478M-212.425 225.26L-193.172 272.351M-193.172 272.351L-233.014 258.313M-193.172 272.351L-185.816 388.927L-239.795 390.107M-193.172 272.351L-239.795 390.107M-193.172 272.351L-251.553 325.459M-233.014 258.313L-251.553 325.459M-233.014 258.313L-267.683 318.898M-251.553 325.459L-267.683 318.898M-251.553 325.459L-239.795 390.107M-251.553 325.459L-265.229 399.5M-267.683 318.898L-298.304 333.049L-358.542 332.551M-267.683 318.898L-265.229 399.5M-239.795 390.107L-265.229 399.5M-239.795 390.107L-171.01 498.557M-239.795 390.107L-205.273 503.346M-171.01 498.557L-205.273 503.346M-171.01 498.557L-132.876 450.082M-171.01 498.557L-167.962 543.539M-171.01 498.557L-107.2 575.484M-171.01 498.557L-111.73 517.247M-205.273 503.346L-224.123 502.764M-205.273 503.346L-196.433 530.873M-205.273 503.346L-167.962 543.539M-132.876 450.082L-111.73 517.247M-132.876 450.082L-65.8273 450.082L-139.082 352.959L-132.876 450.082ZM-111.73 517.247L-4.19288 485.146M-111.73 517.247L-107.2 575.484M-111.73 517.247L-51.4886 580.36M-111.73 517.247L-1.64658 544.528M-4.19288 485.146L68.353 422.977M-4.19288 485.146C33.4823 487.794 109.097 492.937 110.155 492.326M-4.19288 485.146C-3.15789 504.244 -1.19966 542.859 -1.64658 544.528M-4.19288 485.146C18.1365 504.717 62.3511 543.863 60.5749 543.882M-4.19288 485.146L-1.64657 416.985M68.353 422.977L151.009 437.872L110.155 492.326M68.353 422.977L110.155 492.326M-1.64658 544.528L60.5749 543.882M-1.64658 544.528L-51.4886 580.36M-1.64658 544.528L57.0286 575.914M60.5749 543.882C81.5853 540.57 123.153 534.386 121.343 536.137C119.533 537.887 77.7125 563.385 57.0286 575.914M57.0286 575.914L-51.4886 580.36M-51.4886 580.36L-107.2 575.484M-51.4886 580.36C-50.5721 581.947 -37.3778 600.729 -30.8952 609.921L-107.2 575.484M-107.2 575.484L-148.999 568.749M-107.2 575.484L-167.962 543.539M-107.2 575.484L-126.856 646.803L-97.1259 686.082M-148.999 568.749L-196.433 530.873M-148.999 568.749L-167.962 543.539M-196.433 530.873L-224.123 502.764M-196.433 530.873L-167.962 543.539M-196.433 530.873L-221.531 551.537L-216.892 571.789L-229.839 680.685M-224.123 502.764L-280.726 551.318L-308.843 533.157L-362.14 579.802M212.166 391.098L194.78 420.538L230.496 422.848M212.166 391.098L240.598 374.683M212.166 391.098L230.496 422.848M230.496 422.848L240.598 374.683M230.496 422.848L251.004 433.937M240.598 374.683L331.188 384.997M178.908 532.005L93.1551 585.042L138.796 541.935L139.096 541.481M178.908 532.005L167.953 497.761L139.096 541.481M178.908 532.005L139.096 541.481M172.39 412.299L154.969 475.272L184.883 472.112L172.39 412.299ZM172.39 412.299L155.879 367.956M155.879 367.956L121.343 352.959L130.288 395.643L155.879 367.956ZM-193.363 189.561C-194.95 190.477 -211.079 202.141 -218.945 207.858L-192.691 212.103L-193.363 189.561ZM66.7663 78.1794L38.8361 80.1941L18.4762 60.1997L66.7663 78.1794ZM272.992 128.444L207.458 170.69L215.89 89.0943L272.992 128.444ZM-204.252 457.778L-243.309 490.911L-250.968 431.835L-204.252 457.778ZM-282.377 501.12L-309.834 482.577L-278.979 477.992L-282.377 501.12ZM-202.815 646.562C-211.674 649.031 -229.867 654.067 -231.76 654.454C-233.652 654.841 -268.579 631.91 -285.806 620.396L-202.815 646.562ZM297.901 354.828L266.629 392.285L279.245 334.732L297.901 354.828ZM282.952 481.637C281.894 482.247 270.578 495.836 265.053 502.553L237.3 501.82L282.952 481.637ZM148.3 466.776L138.775 496.087L115.098 455.078L148.3 466.776ZM-36.2159 709.122L-46.3959 699.125L-36.5169 664.318L-36.2159 709.122ZM-375.422 410.204L-380.598 437.887L-388.031 428.067L-375.422 410.204Z" stroke="white"/>
<circle cx="-0.770182" cy="109.965" r="4.5179" fill="white"/>
<circle cx="22.9503" cy="155.145" r="4.5179" fill="white"/>
<circle cx="8.26668" cy="191.288" r="4.5179" fill="white"/>
<circle cx="91.8475" cy="164.179" r="4.5179" fill="white"/>
<circle cx="72.6468" cy="209.358" r="4.5179" fill="white"/>
<circle cx="74.9046" cy="129.167" r="4.5179" fill="white"/>
<circle cx="111.048" cy="133.685" r="4.5179" fill="white"/>
<circle cx="137.026" cy="99.7999" r="4.5179" fill="white"/>
<circle cx="139.285" cy="152.886" r="4.5179" fill="white"/>
<circle cx="157.357" cy="135.944" r="4.5179" fill="white"/>
<circle cx="118.954" cy="159.661" r="4.5179" fill="white"/>
<circle cx="178.817" cy="218.395" r="4.5179" fill="white"/>
<circle cx="182.203" cy="191.288" r="4.5179" fill="white"/>
<circle cx="208.183" cy="169.827" r="4.5179" fill="white"/>
<circle cx="214.962" cy="88.5051" r="4.5179" fill="white"/>
<circle cx="272.268" cy="127.491" r="4.5179" fill="white"/>
<circle cx="316.613" cy="165.418" r="4.5179" fill="white"/>
<circle cx="226.955" cy="138.594" r="4.5179" fill="white"/>
<circle cx="173.17" cy="256.797" r="4.5179" fill="white"/>
<circle cx="141.544" cy="243.243" r="4.5179" fill="white"/>
<circle cx="120.085" cy="238.725" r="4.5179" fill="white"/>
<circle cx="117.824" cy="281.645" r="4.5179" fill="white"/>
<circle cx="225.548" cy="269.576" r="4.5179" fill="white"/>
<circle cx="247.844" cy="265.775" r="4.5179" fill="white"/>
<circle cx="211.572" cy="290.682" r="4.5179" fill="white"/>
<circle cx="7.33358" cy="255.382" r="4.5179" fill="white"/>
<circle cx="127.992" cy="79.469" r="4.5179" fill="white"/>
<circle cx="160.087" cy="16.9095" r="4.5179" fill="white"/>
<circle cx="34.2425" cy="117.871" r="4.5179" fill="white"/>
<circle cx="36.502" cy="100.93" r="4.5179" fill="white"/>
<circle cx="38.763" cy="79.469" r="4.5179" fill="white"/>
<circle cx="18.4322" cy="60.2674" r="4.5179" fill="white"/>
<circle cx="65.8692" cy="77.2111" r="4.5179" fill="white"/>
</g>
<defs>
<clipPath id="clip0">
<rect width="1024" height="292" fill="white"/>
</clipPath>
</defs>
</svg>
