<svg width="17" height="18" viewBox="0 0 17 18" fill="none" xmlns="http://www.w3.org/2000/svg">
<g clip-path="url(#clip0)">
<path d="M16.9912 9.16838C16.9912 8.43093 16.9334 7.89279 16.8082 7.33472H8.66948V10.6632H13.4467C13.3504 11.4904 12.8303 12.7361 11.6745 13.5732L11.6583 13.6846L14.2316 15.7472L14.4099 15.7656C16.0473 14.201 16.9912 11.899 16.9912 9.16838Z" fill="#4285F4"/>
<path d="M8.6695 17.9381C11.0099 17.9381 12.9748 17.1408 14.4099 15.7656L11.6745 13.5731C10.9425 14.1013 9.9601 14.47 8.6695 14.47C6.37719 14.47 4.43162 12.9055 3.73807 10.7429L3.63642 10.7519L0.960652 12.8945L0.925659 12.9951C2.35112 15.925 5.27914 17.9381 8.6695 17.9381Z" fill="#34A853"/>
<path d="M3.73739 10.7431C3.55439 10.185 3.44849 9.58704 3.44849 8.9692C3.44849 8.35129 3.55439 7.75338 3.72776 7.19531L3.72292 7.07645L1.01362 4.89941L0.924978 4.94304C0.337476 6.15886 0.000366211 7.52419 0.000366211 8.9692C0.000366211 10.4142 0.337476 11.7795 0.924978 12.9953L3.73739 10.7431Z" fill="#FBBC05"/>
<path d="M8.66949 3.46802C10.2972 3.46802 11.3952 4.19551 12.0213 4.80346L14.4677 2.33196C12.9652 0.886946 11.0099 0 8.66949 0C5.27914 0 2.35112 2.01305 0.925659 4.94292L3.72844 7.19519C4.43161 5.03265 6.37718 3.46802 8.66949 3.46802Z" fill="#EB4335"/>
</g>
<defs>
<clipPath id="clip0">
<rect width="17" height="18" fill="white"/>
</clipPath>
</defs>
</svg>
