<svg width="394" height="173" viewBox="0 0 394 173" fill="none" xmlns="http://www.w3.org/2000/svg">
<path d="M23.5001 28.9998L38 43.5001L370 43.5001" stroke="#338FBF" stroke-width="2"/>
<path d="M5 60L129.518 60L146 43.5177" stroke="#338FBF" stroke-width="2"/>
<path d="M5.50048 107L37.0002 75.5001L370 75.5001M160 59.5L307.5 59.5" stroke="#338FBF" stroke-width="2"/>
<path d="M116 91.0001L341.5 91L358 107.5" stroke="#338FBF" stroke-width="2"/>
<line x1="35" y1="107" x2="370" y2="107" stroke="#338FBF" stroke-width="2"/>
<path d="M203 107L186 124H41" stroke="#338FBF" stroke-width="2"/>
<path d="M28.0001 160L48.4999 139.5L370 139.5M215.5 123.5L324 123.5" stroke="#338FBF" stroke-width="2"/>
<g filter="url(#filter0_d)">
<path d="M257.002 23.1409L358.226 3.55035C360.397 3.13018 362.498 4.54953 362.918 6.72057L389.546 144.306C389.966 146.477 388.547 148.578 386.376 148.998L285.152 168.588L257.002 23.1409Z" fill="#338FBF"/>
<rect opacity="0.4" x="257.044" y="23.1208" width="2.05777" height="148.159" transform="rotate(-10.9534 257.044 23.1208)" fill="#307BA2"/>
<mask id="mask0" mask-type="alpha" maskUnits="userSpaceOnUse" x="257" y="2" width="134" height="167">
<path d="M257 23.1289L358.224 3.53839C360.395 3.11821 362.495 4.53757 362.915 6.70861L389.543 144.294C389.963 146.465 388.544 148.566 386.373 148.986L285.149 168.576L257 23.1289Z" fill="white" fill-opacity="0.95"/>
</mask>
<g mask="url(#mask0)">
<path d="M298.628 50.954C301.226 49.85 303.877 48.8728 306.573 48.0263C309.366 47.122 312.213 46.3893 315.097 45.8325C318.203 45.1848 321.364 44.8363 324.533 44.7921C327.367 44.7789 330.173 45.2596 332.818 46.211C335.241 47.168 337.381 48.6829 339.054 50.6256C340.914 52.9375 342.133 55.6753 342.597 58.5838L349.284 93.1347C346.535 94.4525 343.145 96.0152 339.262 97.6131C335.097 99.3612 330.755 100.668 326.311 101.51C323.406 102.054 320.455 102.301 317.505 102.247C314.821 102.304 312.168 101.763 309.751 100.665C307.416 99.7295 305.391 98.2008 303.888 96.2384C302.157 93.8626 301.206 91.4309 300.587 88.2335C299.968 85.036 299.933 82.8076 300.716 80.1691C301.513 77.897 302.879 75.8458 304.692 74.201C306.681 72.4841 308.954 71.104 311.412 70.12C317.779 67.636 325.124 66.1906 331.981 66.139L331.023 61.1865C330.719 59.6168 330.361 58.2542 329.454 57.0438C328.546 55.8334 327.309 54.8925 325.877 54.3243C322.679 53.5699 319.332 53.5551 316.106 54.281C313.415 54.7855 310.772 55.5196 308.208 56.4746C305.523 57.4777 303.189 58.3526 301.108 59.239L298.628 50.954ZM333.583 74.4126C331.958 74.4248 330.763 74.4042 328.188 74.6708C323.516 75.3434 320.781 75.9235 317.458 77.1101C316.143 77.5577 314.917 78.2248 313.835 79.0808C312.785 79.8962 312.036 81.0177 311.699 82.2746C311.209 83.8194 311.259 85.4992 311.553 87.0177C311.847 88.5363 312.153 89.7412 313 90.8601C313.848 91.9791 315.007 92.84 316.345 93.344C319.078 94.2651 321.545 94.3927 324.871 93.749C326.871 93.362 329.244 92.7768 331.367 92.0686L336.424 90.0625L333.583 74.4126Z" fill="white"/>
<path fill-rule="evenodd" clip-rule="evenodd" d="M309.435 114.936C306.5 115.504 304.58 118.344 305.148 121.28C305.717 124.216 308.557 126.135 311.493 125.567L350.472 118.023C353.407 117.455 355.327 114.614 354.758 111.679C354.19 108.743 351.35 106.824 348.414 107.392L309.435 114.936Z" fill="white"/>
<path d="M306.913 120.937C306.534 118.98 307.76 117.097 309.65 116.731L340.457 110.769L341.828 117.856L311.022 123.818C309.131 124.184 307.292 122.894 306.913 120.937Z" fill="#338FBF"/>
</g>
</g>
<circle cx="4.5" cy="59.5" r="4.5" transform="rotate(-90 4.5 59.5)" fill="#338FBF"/>
<circle cx="158.5" cy="59.5" r="4.5" transform="rotate(-90 158.5 59.5)" fill="#338FBF"/>
<circle cx="4.5" cy="107.5" r="4.5" transform="rotate(-90 4.5 107.5)" fill="#338FBF"/>
<circle cx="40.5" cy="123.5" r="4.5" transform="rotate(-90 40.5 123.5)" fill="#338FBF"/>
<circle cx="215.5" cy="123.5" r="4.5" transform="rotate(-90 215.5 123.5)" fill="#338FBF"/>
<circle cx="27.5" cy="160.5" r="4.5" transform="rotate(-90 27.5 160.5)" fill="#338FBF"/>
<circle cx="115.5" cy="91.5" r="4.5" transform="rotate(-90 115.5 91.5)" fill="#338FBF"/>
<circle cx="34.5" cy="107.5" r="4.5" transform="rotate(-90 34.5 107.5)" fill="#338FBF"/>
<circle cx="23.5" cy="29.5" r="4.5" transform="rotate(-90 23.5 29.5)" fill="#338FBF"/>
<defs>
<filter id="filter0_d" x="254.002" y="0.789551" width="139.304" height="171.799" filterUnits="userSpaceOnUse" color-interpolation-filters="sRGB">
<feFlood flood-opacity="0" result="BackgroundImageFix"/>
<feColorMatrix in="SourceAlpha" type="matrix" values="0 0 0 0 0 0 0 0 0 0 0 0 0 0 0 0 0 0 127 0"/>
<feOffset dy="1"/>
<feGaussianBlur stdDeviation="1.5"/>
<feColorMatrix type="matrix" values="0 0 0 0 0 0 0 0 0 0 0 0 0 0 0 0 0 0 0.25 0"/>
<feBlend mode="normal" in2="BackgroundImageFix" result="effect1_dropShadow"/>
<feBlend mode="normal" in="SourceGraphic" in2="effect1_dropShadow" result="shape"/>
</filter>
</defs>
</svg>
