<svg width="30" height="45" viewBox="0 0 30 45" fill="none" xmlns="http://www.w3.org/2000/svg">
<path d="M4.03166 1.10217C5.62903 0.760434 7.24323 0.496751 8.86811 0.312123C10.5548 0.105449 12.2533 0.00219217 13.9535 0.00297334C15.7898 -0.0234365 17.6243 0.126142 19.4301 0.449519C21.0417 0.753709 22.5836 1.33547 23.982 2.16701C25.2538 2.9774 26.3033 4.07356 27.0404 5.36156C27.8428 6.87988 28.2343 8.56972 28.1784 10.2736V30.6431C26.4714 31.0896 24.3732 31.6049 21.9905 32.0858C19.4319 32.6212 16.8204 32.8861 14.2024 32.8758C12.492 32.8656 10.7875 32.6814 9.11705 32.3262C7.58596 32.0636 6.13797 31.4642 4.88515 30.5744C3.66095 29.7861 2.6784 28.6947 2.04018 27.4142C1.31788 25.8737 1.04443 24.3872 1.04443 22.5022C1.04443 20.6171 1.26984 19.347 2.00461 17.9336C2.70736 16.7301 3.70961 15.7148 4.92071 14.9795C6.24 14.2226 7.68313 13.6883 9.18817 13.3994C13.0793 12.6881 17.4122 12.6745 21.3149 13.3994V10.4797C21.3149 9.55422 21.2615 8.74059 20.8789 7.95294C20.4963 7.16529 19.8966 6.49455 19.1456 6.0142C17.4108 5.23372 15.5107 4.85723 13.5979 4.91501C12.0128 4.90568 10.43 5.03212 8.86811 5.29285C7.23225 5.56765 5.80976 5.80811 4.52953 6.08291L4.03166 1.10217ZM21.3149 18.2771C20.3902 18.1054 19.7137 17.9623 18.221 17.8306C15.4919 17.6989 13.8742 17.7278 11.8553 18.0367C11.0588 18.1464 10.2884 18.3906 9.57935 18.758C8.89351 19.106 8.34409 19.6608 8.01462 20.3381C7.56624 21.1621 7.41006 22.1221 7.41006 23.0174C7.41006 23.9127 7.4512 24.631 7.80973 25.36C8.16826 26.0891 8.73229 26.7058 9.43711 27.1394C10.8891 27.9635 12.2771 28.3073 14.238 28.3073C15.417 28.3073 16.8297 28.2357 18.1143 28.0668L21.2082 27.4829L21.3149 18.2771Z" fill="white"/>
<path fill-rule="evenodd" clip-rule="evenodd" d="M26.114 39.6932H21.1758V43.8715H26.114C27.2678 43.8715 28.2031 42.9361 28.2031 41.7824C28.2031 40.6286 27.2678 39.6932 26.114 39.6932ZM3.13368 38.6487C1.40299 38.6487 0 40.0517 0 41.7824C0 43.513 1.403 44.916 3.13368 44.916H26.114C27.8447 44.916 29.2476 43.513 29.2476 41.7824C29.2476 40.0517 27.8447 38.6487 26.114 38.6487H3.13368Z" fill="white"/>
</svg>
