<svg width="837" height="760" viewBox="0 0 837 760" fill="none" xmlns="http://www.w3.org/2000/svg">
<path fill-rule="evenodd" clip-rule="evenodd" d="M258.755 610.006L239.566 603.955L238.172 615.675C243.836 614.149 253.321 611.52 258.755 610.006Z" fill="white"/>
<path d="M708.129 193.076L648.808 175.318M592.065 215.746L556.194 181.413M592.065 215.746L589.628 239.323M592.065 215.746L615.385 187.911M556.194 181.413L569.684 169.038M556.194 181.413L589.628 239.323M589.628 239.323L618.897 301.93M589.628 239.323L630.795 282.829M589.628 239.323L584.528 272.846M589.628 239.323L537.586 187.569M618.897 301.93L630.795 282.829M618.897 301.93L600.832 336.824M618.897 301.93L584.528 272.846M618.897 301.93L618.475 388.561M630.795 282.829L647.862 280.621M630.795 282.829L642.4 342.639M600.832 336.824L537.173 294.071M600.832 336.824L584.528 272.846M600.832 336.824L556.805 260.567M600.832 336.824L618.475 388.561M537.173 294.071L556.805 260.567M537.173 294.071L504.501 355.5M537.173 294.071L442.319 271M556.805 260.567L538.81 257.195M556.805 260.567L537.586 187.569M556.805 260.567L584.528 272.846M584.528 272.846L537.586 187.569M537.586 187.569L531.732 164.193M537.586 187.569L499.537 161.375M531.732 164.193L553.107 135.033L544.896 116.839L572.898 64.7417M531.732 164.193L499.537 161.375M531.732 164.193L465.855 138.775M499.537 161.375L464.273 151.92M499.537 161.375L465.855 138.775M464.273 151.92L465.855 138.775M464.273 151.92L455.225 183.9M464.273 151.92L433.046 145.485M465.855 138.775L433.046 145.485M455.225 183.9L401.927 180.27M455.225 183.9L433.046 145.485M401.927 180.27L336.304 228.096L324.115 202.72M401.927 180.27L313.592 180.815M401.927 180.27L433.046 145.485M401.927 180.27L372.983 152.641M313.592 180.815C332.243 172.085 370.232 154.229 372.983 152.641M313.592 180.815L339.884 149.581M313.592 180.815L263.678 198.93L339.884 149.581M313.592 180.815L321.214 196.681M433.046 145.485L372.983 152.641M372.983 152.641L339.884 149.581M272.392 255.057L284.143 203.933L321.214 196.681M272.392 255.057C273.271 255.057 308.831 273.352 326.501 282.5M272.392 255.057L324.115 202.72M442.319 215.815L497.805 231.178L513.884 192.845L442.319 215.815ZM442.319 215.815L442.319 271M442.319 215.815L399.001 331.662L442.319 271M250.425 244.806L267.114 285.626M267.114 285.626L232.577 273.458M267.114 285.626L273.49 386.679L226.699 387.701M267.114 285.626L226.699 387.701M267.114 285.626L216.508 331.662M232.577 273.458L216.508 331.662M232.577 273.458L202.525 325.975M216.508 331.662L202.525 325.975M216.508 331.662L226.699 387.701M216.508 331.662L204.652 395.843M202.525 325.975L175.981 338.242M202.525 325.975L204.652 395.843M226.699 387.701L204.652 395.843M226.699 387.701L286.324 481.71M226.699 387.701L241.948 437.719M286.324 481.71L256.624 485.861M286.324 481.71L319.381 439.69M286.324 481.71L288.967 520.702M286.324 481.71L341.637 548.393M286.324 481.71L337.71 497.911M256.624 485.861L240.284 485.356M256.624 485.861L264.287 509.723M256.624 485.861L288.967 520.702M256.624 485.861L247.239 455.074M319.381 439.69L337.71 497.911M319.381 439.69L377.501 439.69M319.381 439.69L314.001 355.5M337.71 497.911L430.928 470.084M337.71 497.911L341.637 548.393M337.71 497.911L389.93 552.619M337.71 497.911L433.135 521.559M430.928 470.084L493.813 416.194M430.928 470.084C463.586 472.38 529.132 476.838 530.049 476.309M430.928 470.084C431.825 486.64 433.522 520.112 433.135 521.559M430.928 470.084C450.284 487.049 488.61 520.983 487.071 520.999M430.928 470.084L433.135 411L399.001 337.809M493.813 416.194L565.462 429.106L550.104 449.577M493.813 416.194L530.049 476.309M530.049 476.309L543.005 459.039M433.135 521.559L487.071 520.999M433.135 521.559L389.93 552.619M433.135 521.559L483.997 548.766M487.071 520.999C505.283 518.128 541.316 512.767 539.747 514.285C538.177 515.803 501.926 537.904 483.997 548.766M483.997 548.766L389.93 552.619M389.93 552.619L341.637 548.393M389.93 552.619C390.725 553.995 402.162 570.276 407.781 578.244L341.637 548.393M341.637 548.393L305.405 542.555M341.637 548.393L288.967 520.702M341.637 548.393L324.599 610.215L350.37 644.263M305.405 542.555L264.287 509.723M305.405 542.555L288.967 520.702M264.287 509.723L240.284 485.356M264.287 509.723L288.967 520.702M264.287 509.723L242.531 527.635L246.553 545.189L239.566 603.955M240.284 485.356L191.219 527.445L166.846 511.702L120.647 552.136M235.329 639.585L238.172 615.675M618.475 388.561L603.404 414.08L634.364 416.082M618.475 388.561L643.121 374.331M618.475 388.561L634.364 416.082M634.364 416.082L643.121 374.331M634.364 416.082L652.142 425.695M643.121 374.331L668.399 377.209M721.648 383.272L675.36 378.002M589.646 510.704L515.312 556.678L554.876 519.311L555.135 518.918M589.646 510.704L580.15 481.02L555.135 518.918M589.646 510.704L555.135 518.918M583.996 406.938L568.895 461.526L594.825 458.786L583.996 406.938ZM583.996 406.938L569.684 368.5M399.001 337.809L314.001 355.5M399.001 337.809L377.501 439.69M399.001 337.809L332.209 316.5L326.501 282.5M399.001 337.809L326.501 282.5M399.001 337.809L504.501 355.5M377.501 439.69L314.001 355.5M442.319 271L504.501 355.5M569.684 368.5L539.747 355.5L547.501 392.5L569.684 368.5ZM615.385 187.911L621.703 126.773L671.201 160.883L648.808 175.318M615.385 187.911L614.394 197.503L648.808 175.318M615.385 187.911L630.522 169.844L648.808 175.318M668.399 377.209L676.622 339.7L692.793 357.12L675.36 378.002M668.399 377.209L665.686 389.589L675.36 378.002M668.399 377.209L675.36 378.002M550.104 449.577L563.114 454.16L554.857 479.569L543.005 459.039M550.104 449.577L543.005 459.039M550.104 449.577L534.333 444.02L543.005 459.039M239.566 603.955L258.755 610.006C253.321 611.52 243.836 614.149 238.172 615.675M239.566 603.955L186.815 587.324C201.748 597.304 232.024 617.182 233.665 616.847C234.144 616.749 235.832 616.306 238.172 615.675M239.566 603.955L238.172 615.675M247.239 455.074L223.653 475.082L217.014 423.872L241.948 437.719M247.239 455.074L241.948 437.719M247.239 455.074L257.51 446.361L241.948 437.719M321.214 196.681L332.209 194.53L324.115 202.72M321.214 196.681L324.115 202.72M266.948 213.861C265.573 214.655 251.591 224.765 244.773 229.722L267.531 233.401L266.948 213.861ZM492.438 117.311L468.227 119.058L450.578 101.726L492.438 117.311ZM189.788 483.932L165.987 467.858L192.733 463.883L189.788 483.932ZM679.835 467.042C678.918 467.572 669.109 479.351 664.32 485.174L640.262 484.538L679.835 467.042ZM403.169 664.235L394.345 655.569L402.908 625.397L403.169 664.235ZM109.133 405.122L104.646 429.118L98.2032 420.606L109.133 405.122Z" stroke="white"/>
<circle cx="176.08" cy="337.479" r="3.91628" fill="white"/>
<circle cx="202.834" cy="326.971" r="3.91628" fill="white"/>
<circle cx="216.918" cy="331.917" r="3.91628" fill="white"/>
<circle cx="232.205" cy="274.102" r="3.91628" fill="white"/>
<circle cx="249.829" cy="244.73" r="3.91628" fill="white"/>
<circle cx="267.452" cy="286.829" r="3.91628" fill="white"/>
<circle cx="272.347" cy="385.716" r="3.91628" fill="white"/>
<circle cx="227.31" cy="386.695" r="3.91628" fill="white"/>
<circle cx="204.792" cy="395.506" r="3.91628" fill="white"/>
<circle cx="272.347" cy="255.5" r="3.91628" fill="white"/>
<circle cx="243.955" cy="230.043" r="3.91628" fill="white"/>
<circle cx="267.452" cy="212.42" r="3.91628" fill="white"/>
<circle cx="267.453" cy="233.96" r="3.91628" fill="white"/>
<circle cx="263.536" cy="197.734" r="3.91628" fill="white"/>
<circle cx="340.882" cy="148.781" r="3.91628" fill="white"/>
<circle cx="314.447" cy="181.09" r="3.91628" fill="white"/>
<circle cx="336.966" cy="228.085" r="3.91628" fill="white"/>
<circle cx="371.234" cy="152.698" r="3.91628" fill="white"/>
<circle cx="433.894" cy="144.865" r="3.91628" fill="white"/>
<circle cx="454.455" cy="184.027" r="3.91628" fill="white"/>
<circle cx="441.726" cy="215.358" r="3.91628" fill="white"/>
<circle cx="514.178" cy="191.86" r="3.91628" fill="white"/>
<circle cx="497.534" cy="231.023" r="3.91628" fill="white"/>
<circle cx="499.491" cy="161.509" r="3.91628" fill="white"/>
<circle cx="530.822" cy="165.425" r="3.91628" fill="white"/>
<circle cx="553.341" cy="136.053" r="3.91628" fill="white"/>
<circle cx="555.299" cy="182.069" r="3.91628" fill="white"/>
<circle cx="570.965" cy="167.383" r="3.91628" fill="white"/>
<circle cx="537.675" cy="187.944" r="3.91628" fill="white"/>
<circle cx="589.566" cy="238.855" r="3.91628" fill="white"/>
<circle cx="592.503" cy="215.358" r="3.91628" fill="white"/>
<circle cx="615.022" cy="196.755" r="3.91628" fill="white"/>
<circle cx="620.896" cy="126.262" r="3.91628" fill="white"/>
<circle cx="670.573" cy="160.057" r="3.91628" fill="white"/>
<circle cx="709.012" cy="192.932" r="3.91628" fill="white"/>
<circle cx="631.295" cy="169.681" r="3.91628" fill="white"/>
<circle cx="584.671" cy="272.144" r="3.91628" fill="white"/>
<circle cx="557.256" cy="260.394" r="3.91628" fill="white"/>
<circle cx="538.655" cy="256.479" r="3.91628" fill="white"/>
<circle cx="536.696" cy="293.683" r="3.91628" fill="white"/>
<circle cx="601.316" cy="336.762" r="3.91628" fill="white"/>
<circle cx="538.918" cy="355.917" r="3.91628" fill="white"/>
<circle cx="547.918" cy="391.917" r="3.91628" fill="white"/>
<circle cx="568.918" cy="367.917" r="3.91628" fill="white"/>
<circle cx="503.918" cy="355.917" r="3.91628" fill="white"/>
<circle cx="630.073" cy="283.221" r="3.91628" fill="white"/>
<circle cx="649.401" cy="279.925" r="3.91628" fill="white"/>
<circle cx="642.254" cy="343.886" r="3.91628" fill="white"/>
<circle cx="676.28" cy="339.819" r="3.91628" fill="white"/>
<circle cx="693.186" cy="357.52" r="3.91628" fill="white"/>
<circle cx="665.562" cy="390.402" r="3.91628" fill="white"/>
<circle cx="722.919" cy="383.548" r="3.91628" fill="white"/>
<circle cx="643.911" cy="374.255" r="3.91628" fill="white"/>
<circle cx="635.065" cy="415.74" r="3.91628" fill="white"/>
<circle cx="654.074" cy="426.286" r="3.91628" fill="white"/>
<circle cx="680.573" cy="466.505" r="3.91628" fill="white"/>
<circle cx="640.281" cy="484.139" r="3.91628" fill="white"/>
<circle cx="513.951" cy="557.413" r="3.91628" fill="white"/>
<circle cx="485.221" cy="548.028" r="3.91628" fill="white"/>
<circle cx="409.032" cy="578.826" r="3.91628" fill="white"/>
<circle cx="340.34" cy="548.58" r="3.91628" fill="white"/>
<circle cx="350.753" cy="643.967" r="3.91628" fill="white"/>
<circle cx="325.067" cy="610.553" r="3.91628" fill="white"/>
<circle cx="402.827" cy="625.912" r="3.91628" fill="white"/>
<circle cx="394.531" cy="655.498" r="3.91628" fill="white"/>
<circle cx="403.703" cy="666.235" r="3.91628" fill="white"/>
<circle cx="665.049" cy="485.123" r="3.91628" fill="white"/>
<circle cx="617.959" cy="301.516" r="3.91628" fill="white"/>
<circle cx="617.959" cy="388.653" r="3.91628" fill="white"/>
<circle cx="603.273" cy="414.109" r="3.91628" fill="white"/>
<circle cx="583.692" cy="406.276" r="3.91628" fill="white"/>
<circle cx="595.441" cy="458.167" r="3.91628" fill="white"/>
<circle cx="569.006" cy="462.084" r="3.91628" fill="white"/>
<circle cx="566.069" cy="428.795" r="3.91628" fill="white"/>
<circle cx="530.823" cy="476.769" r="3.91628" fill="white"/>
<circle cx="493.617" cy="416.067" r="3.91628" fill="white"/>
<circle cx="534.738" cy="444.46" r="3.91628" fill="white"/>
<circle cx="563.132" cy="454.251" r="3.91628" fill="white"/>
<circle cx="555.299" cy="480.685" r="3.91628" fill="white"/>
<circle cx="430.957" cy="469.916" r="3.91628" fill="white"/>
<circle cx="579.776" cy="480.685" r="3.91628" fill="white"/>
<circle cx="589.566" cy="512.016" r="3.91628" fill="white"/>
<circle cx="555.299" cy="518.869" r="3.91628" fill="white"/>
<circle cx="538.655" cy="513.973" r="3.91628" fill="white"/>
<circle cx="486.763" cy="520.827" r="3.91628" fill="white"/>
<circle cx="432.915" cy="520.827" r="3.91628" fill="white"/>
<circle cx="337.946" cy="497.329" r="3.91628" fill="white"/>
<circle cx="390.917" cy="551.916" r="3.91628" fill="white"/>
<circle cx="319.343" cy="439.564" r="3.91628" fill="white"/>
<circle cx="286.055" cy="481.665" r="3.91628" fill="white"/>
<circle cx="314.918" cy="355.917" r="3.91628" fill="white"/>
<circle cx="378.918" cy="439.917" r="3.91628" fill="white"/>
<circle cx="432.918" cy="411.917" r="3.91628" fill="white"/>
<circle cx="440.918" cy="270.917" r="3.91628" fill="white"/>
<circle cx="331.918" cy="316.917" r="3.91628" fill="white"/>
<circle cx="327.918" cy="283.917" r="3.91628" fill="white"/>
<circle cx="288.992" cy="519.848" r="3.91628" fill="white"/>
<circle cx="305.036" cy="541.953" r="3.91628" fill="white"/>
<circle cx="241.119" cy="526.913" r="3.91628" fill="white"/>
<circle cx="247.098" cy="543.947" r="3.91628" fill="white"/>
<circle cx="235.659" cy="638.001" r="3.91628" fill="white"/>
<circle cx="258.887" cy="609.588" r="3.91628" fill="white"/>
<circle cx="187.235" cy="587.585" r="3.91628" fill="white"/>
<circle cx="233.104" cy="616.614" r="3.91628" fill="white"/>
<circle cx="263.535" cy="510.058" r="3.91628" fill="white"/>
<circle cx="255.703" cy="485.581" r="3.91628" fill="white"/>
<circle cx="240.038" cy="485.581" r="3.91628" fill="white"/>
<circle cx="256.683" cy="446.418" r="3.91628" fill="white"/>
<circle cx="217.519" cy="423.899" r="3.91628" fill="white"/>
<circle cx="224.373" cy="474.811" r="3.91628" fill="white"/>
<circle cx="193.042" cy="464.041" r="3.91628" fill="white"/>
<circle cx="165.629" cy="467.958" r="3.91628" fill="white"/>
<circle cx="190.106" cy="484.602" r="3.91628" fill="white"/>
<circle cx="190.106" cy="525.916" r="3.91628" fill="white"/>
<circle cx="165.629" cy="512.016" r="3.91628" fill="white"/>
<circle cx="119.79" cy="551.273" r="3.91628" fill="white"/>
<circle cx="104.927" cy="430.753" r="3.91628" fill="white"/>
<circle cx="98.073" cy="419.983" r="3.91628" fill="white"/>
<circle cx="108.842" cy="404.318" r="3.91628" fill="white"/>
<circle cx="545.509" cy="118.429" r="3.91628" fill="white"/>
<circle cx="573.331" cy="64.2002" r="3.91628" fill="white"/>
<circle cx="464.245" cy="151.718" r="3.91628" fill="white"/>
<circle cx="466.204" cy="137.032" r="3.91628" fill="white"/>
<circle cx="468.162" cy="118.429" r="3.91628" fill="white"/>
<circle cx="450.539" cy="101.785" r="3.91628" fill="white"/>
<circle cx="491.659" cy="116.472" r="3.91628" fill="white"/>
<circle cx="401.585" cy="181.09" r="3.91628" fill="white"/>
<circle cx="333.05" cy="193.818" r="3.91628" fill="white"/>
<circle cx="285.076" cy="204.588" r="3.91628" fill="white"/>
<circle cx="537.503" cy="294.628" r="18.0092" fill="white"/>
<path d="M544.542 289.668C544.155 289.168 543.727 288.695 543.263 288.267L536.498 293.492L538.688 296.328L542.562 293.336C543.108 294.375 543.216 295.583 542.857 296.681L544.278 298.521L546.589 296.736C546.956 294.405 546.273 291.909 544.542 289.668Z" fill="#338FBF"/>
<path d="M543.211 302.184C545.145 300.69 546.273 298.778 546.592 296.734L542.86 296.679C542.564 297.625 541.93 298.521 540.963 299.267C539.092 300.713 536.504 300.642 534.589 299.339L532.204 301.181L533.669 303.078C536.807 304.624 540.499 304.278 543.211 302.184Z" fill="#338FBF"/>
<path d="M534.586 299.341C533.579 298.658 532.814 297.668 532.408 296.521L530.943 294.624L528.561 296.464C529.151 299.331 531.045 301.782 533.669 303.078L534.586 299.341Z" fill="#338FBF"/>
<path d="M534.087 290.369C535.097 289.563 536.39 289.195 537.691 289.349L538.114 285.665C535.852 285.416 533.6 286.058 531.836 287.455C529.124 289.549 527.856 293.034 528.562 296.464L532.409 296.521C531.628 294.338 532.216 291.815 534.087 290.369Z" fill="#338FBF"/>
<circle cx="443.528" cy="214.528" r="12.5281" transform="rotate(-56.489 443.528 214.528)" fill="white"/>
<path d="M446.402 207.581C446.173 208.043 445.876 208.474 445.518 208.866C445.725 208.275 445.719 207.631 445.479 207.052C445.286 207.603 444.996 208.123 444.62 208.597C443.933 208.533 443.213 208.745 442.647 209.23C441.547 210.172 441.404 211.796 442.313 212.858C442.444 213.011 442.583 213.146 442.736 213.258C441.018 214.594 438.899 215.077 436.916 214.748C436.992 215.183 437.174 215.599 437.478 215.955C438.05 216.622 438.911 216.911 439.733 216.801C439.408 217.069 439.018 217.247 438.632 217.332C438.637 217.338 438.644 217.346 438.65 217.354C439.452 218.29 440.807 218.479 441.863 217.885C441.738 218.066 441.58 218.237 441.397 218.394C441.27 218.503 441.135 218.606 440.993 218.683C441.904 219.226 443.115 219.162 443.998 218.436C443.762 219.528 443.169 220.572 442.24 221.368C442.078 221.507 441.915 221.634 441.742 221.748C443.094 221.545 444.406 220.967 445.53 220.004C449.184 216.874 448.665 212.224 446.484 209.678C446.411 209.592 446.338 209.513 446.263 209.435C446.425 208.826 446.466 208.203 446.402 207.581Z" fill="#338FBF"/>
<circle cx="584.485" cy="406.598" r="14.0941" fill="white"/>
<path d="M589.456 413.273L589.456 413.272L589.459 413.273L590.68 408.467C591.277 406.116 591.231 404.176 588.482 403.478C587.161 403.142 586.09 403.642 585.553 404.238L585.515 404.228L585.818 403.035L583.212 402.373L580.99 411.122L583.704 411.811L584.804 407.479C585.093 406.338 585.59 405.29 587.002 405.649C588.394 406.003 588.084 407.31 587.827 408.325L586.745 412.584L589.456 413.273Z" fill="#338FBF"/>
<path d="M578.792 401.252L581.509 401.942L579.287 410.691L576.57 410.001L578.792 401.252Z" fill="#338FBF"/>
<path d="M581.256 397.24C580.387 397.02 579.503 397.546 579.282 398.414C579.062 399.283 579.584 400.182 580.453 400.403C581.321 400.623 582.209 400.083 582.43 399.214C582.65 398.345 582.124 397.461 581.256 397.24V397.24Z" fill="#338FBF"/>
<circle cx="492.124" cy="413.68" r="17.2945" transform="rotate(-23.4066 492.124 413.68)" fill="white"/>
<path d="M485.325 405.013C483.729 406.329 483.839 407.935 483.286 412.714C482.828 416.682 481.676 420.579 485.191 421.935C486.289 422.356 496.314 423.515 497.478 423.353C499.031 423.139 500.4 422.057 500.815 419.942C500.872 419.647 501.99 409.98 502.001 409.673C502.085 407.38 500.837 405.908 499.025 405.43C498.609 405.32 498.527 405.292 496.359 405.037C488.67 404.152 487.024 403.615 485.325 405.013V405.013Z" fill="#338FBF"/>
<path d="M493.128 407.068C490.384 406.751 487.806 406.206 486.515 408.645C485.982 409.653 485.884 411.03 485.657 412.992C485.458 414.714 485.216 416.326 485.501 417.42C486.199 420.091 488.855 420.149 491.579 420.464C494.206 420.768 496.884 421.355 498.191 418.886C498.726 417.868 498.821 416.511 499.049 414.54C499.352 411.924 499.691 410.251 498.569 408.836C497.433 407.403 495.676 407.363 493.125 407.068L493.128 407.068ZM492.389 408.206C498.114 408.859 498.917 408.306 497.493 417.101C496.988 420.211 494.647 419.593 491.721 419.254C486.385 418.638 486.249 418.467 486.866 413.129C487.49 407.729 487.923 407.693 492.389 408.204L492.389 408.206ZM496.435 409.8C495.992 409.749 495.59 410.067 495.539 410.511C495.488 410.955 495.806 411.356 496.25 411.407C496.693 411.459 497.095 411.14 497.146 410.697C497.197 410.253 496.879 409.852 496.435 409.8V409.8ZM492.752 410.327C490.852 410.107 489.135 411.469 488.915 413.369C488.696 415.268 490.057 416.986 491.957 417.205C493.856 417.425 495.573 416.063 495.792 414.164C496.012 412.264 494.651 410.546 492.752 410.327V410.327ZM492.612 411.534C495.564 411.875 495.051 416.341 492.096 415.999C489.145 415.658 489.657 411.192 492.612 411.534Z" fill="white"/>
<circle cx="400.827" cy="329.5" r="53.5099" transform="rotate(-6.02054 400.827 329.5)" fill="white"/>
<path d="M382.895 301.502C385.06 300.794 387.261 300.192 389.488 299.698C391.798 299.165 394.139 298.773 396.497 298.525C399.041 298.22 401.607 298.159 404.16 298.343C406.44 298.53 408.664 299.111 410.725 300.06C412.608 300.998 414.224 302.365 415.435 304.044C416.77 306.033 417.561 308.32 417.732 310.691L420.712 338.948C418.41 339.817 415.575 340.839 412.34 341.854C408.869 342.971 405.285 343.721 401.652 344.09C399.278 344.326 396.886 344.319 394.517 344.071C392.355 343.931 390.258 343.311 388.39 342.26C386.577 341.346 385.054 339.976 383.982 338.293C382.754 336.261 382.157 334.239 381.882 331.624C381.606 329.009 381.733 327.215 382.545 325.146C383.344 323.374 384.586 321.819 386.158 320.622C387.878 319.379 389.801 318.427 391.847 317.806C397.14 316.25 403.149 315.597 408.669 316.032L408.242 311.981C408.106 310.698 407.913 309.577 407.267 308.54C406.621 307.503 405.691 306.661 404.579 306.104C402.058 305.275 399.367 305.031 396.723 305.391C394.522 305.61 392.345 306.017 390.217 306.607C387.988 307.228 386.05 307.769 384.314 308.338L382.895 301.502ZM409.382 322.798C408.075 322.695 407.115 322.595 405.025 322.631C401.22 322.848 398.98 323.124 396.225 323.848C395.136 324.117 394.103 324.568 393.173 325.182C392.273 325.765 391.592 326.615 391.234 327.603C390.733 328.811 390.656 330.166 390.787 331.408C390.918 332.65 391.08 333.64 391.684 334.599C392.288 335.558 393.161 336.331 394.202 336.829C396.337 337.76 398.313 338.034 401.033 337.747C402.668 337.574 404.618 337.269 406.375 336.846L410.581 335.584L409.382 322.798Z" fill="#338FBF"/>
<path fill-rule="evenodd" clip-rule="evenodd" d="M387.142 353.717C384.741 353.97 383 356.122 383.254 358.523C383.507 360.923 385.658 362.664 388.059 362.411L419.937 359.049C422.338 358.796 424.079 356.644 423.825 354.244C423.572 351.843 421.421 350.102 419.02 350.355L387.142 353.717Z" fill="#338FBF"/>
<path d="M384.702 358.369C384.533 356.769 385.65 355.339 387.196 355.176L412.39 352.519L413.001 358.315L387.807 360.972C386.261 361.135 384.871 359.97 384.702 358.369V358.369Z" fill="white"/>
<circle cx="340.206" cy="548.206" r="13.0092" transform="rotate(-16.7496 340.206 548.206)" fill="white"/>
<path d="M342.833 547.786C343.195 548.991 342.51 550.266 341.305 550.628C340.101 550.991 338.826 550.306 338.463 549.101C338.101 547.897 338.786 546.622 339.991 546.259C341.195 545.897 342.47 546.582 342.833 547.786ZM338.462 541.181C334.457 542.386 332.18 546.625 333.385 550.63C334.59 554.635 338.829 556.912 342.834 555.707C344.301 555.265 345.584 554.403 346.545 553.212L346.561 553.192L345.241 552.349L345.227 552.364C344.477 553.244 343.494 553.884 342.386 554.218C339.202 555.176 335.832 553.365 334.874 550.182C333.916 546.998 335.726 543.628 338.91 542.67C342.094 541.712 345.464 543.522 346.422 546.706C346.546 547.119 346.626 547.55 346.66 547.988C346.703 548.793 346.247 549.18 345.844 549.268C345.438 549.355 344.889 549.213 344.678 548.523L344.519 547.996L344.322 547.338C343.712 545.312 341.568 544.161 339.542 544.77C337.517 545.38 336.365 547.524 336.974 549.549C337.584 551.575 339.728 552.727 341.754 552.117C342.738 551.821 343.545 551.159 344.03 550.25C344.624 550.758 345.402 550.954 346.171 550.788C346.237 550.774 346.304 550.757 346.369 550.738C346.897 550.578 347.367 550.244 347.693 549.797C348.029 549.335 348.211 548.759 348.217 548.131C348.218 548.029 348.207 547.801 348.206 547.8L348.206 547.791C348.173 547.299 348.082 546.826 347.911 546.258C346.706 542.253 342.467 539.975 338.462 541.181" fill="#338FBF"/>
<circle cx="274.55" cy="255.55" r="14.0941" transform="rotate(-33.7602 274.55 255.55)" fill="white"/>
<path d="M275.844 254.697L275.206 255.124C274.203 255.794 272.742 255.715 271.523 253.891C270.253 251.991 270.647 250.607 271.574 249.987L272.349 249.469L275.844 254.697ZM272.702 247.826L270.97 248.984C269.267 250.122 268.688 252.379 270.364 254.886C271.369 256.391 272.81 257.033 274.422 256.747L274.9 262.496C274.916 262.683 275.063 262.739 275.184 262.658L276.263 261.936C276.354 261.876 276.395 261.804 276.375 261.708L275.734 256.177L276.494 255.67L279.247 259.788C279.278 259.834 279.364 259.864 279.425 259.823L280.367 259.194C280.458 259.133 280.458 259.067 280.407 258.991L272.971 247.866C272.9 247.76 272.809 247.755 272.702 247.826" fill="#338FBF"/>
<circle cx="319.359" cy="438.359" r="10.5118" transform="rotate(-30 319.359 438.359)" fill="white"/>
<path d="M316.759 433.614C315.332 434.438 314.843 436.262 315.667 437.689C316.491 439.116 318.315 439.605 319.742 438.781C321.169 437.957 321.658 436.133 320.834 434.706C320.01 433.279 318.186 432.79 316.759 433.614ZM318.867 437.265C318.277 437.606 317.523 437.404 317.183 436.814C316.842 436.224 317.044 435.47 317.634 435.129C318.224 434.789 318.978 434.991 319.319 435.581C319.659 436.171 319.457 436.925 318.867 437.265Z" fill="#338FBF"/>
<path d="M321.711 440.106C322.599 439.32 322.928 438.497 322.945 438.453C323.104 438.047 322.903 437.59 322.497 437.433C322.091 437.275 321.634 437.476 321.475 437.882C321.472 437.891 321.113 438.755 320.055 439.366C318.996 439.977 318.055 439.864 318.046 439.862C317.615 439.797 317.212 440.092 317.146 440.522C317.079 440.953 317.374 441.355 317.805 441.42C317.852 441.427 318.762 441.553 319.912 441.155L319.338 443.492C319.233 443.914 319.49 444.341 319.913 444.446C320.119 444.497 320.327 444.462 320.497 444.363C320.677 444.26 320.815 444.086 320.869 443.87L321.387 441.673L323.689 442.254C324.11 442.366 324.543 442.116 324.655 441.695C324.768 441.275 324.519 440.843 324.098 440.731L321.711 440.106Z" fill="#338FBF"/>
<path d="M320.056 439.366C320.053 439.368 320.059 439.364 320.056 439.366C320.053 439.368 320.059 439.364 320.056 439.366Z" fill="#338FBF"/>
<circle cx="216.999" cy="424" r="12" transform="rotate(28.4973 216.999 424)" fill="white"/>
<path d="M214.553 427.416L215.258 427.798C215.258 427.798 215.484 427.89 215.656 427.832C215.814 427.779 215.92 427.575 215.92 427.575C215.92 427.575 216.42 426.622 216.934 426.721C217.442 426.819 217.427 428.171 217.796 428.896C218.075 429.443 218.45 429.56 218.45 429.56L220.037 430.393C220.037 430.393 220.889 430.789 220.85 429.93C220.847 429.859 220.882 429.327 220.414 427.939C219.924 426.486 219.976 426.707 222.026 425.767C223.275 425.195 223.885 424.763 223.931 424.461C223.975 424.174 223.408 423.948 223.408 423.948L221.63 422.997C221.63 422.997 221.509 422.908 221.379 422.913C221.253 422.919 221.12 423.018 221.12 423.018C221.12 423.018 220.433 423.613 219.714 424.045C218.196 424.957 217.842 424.856 217.758 424.703C217.563 424.346 217.957 423.801 218.182 423.385C218.888 422.086 219.379 421.651 218.874 421.196C218.706 421.044 218.581 420.937 218.091 420.664C217.462 420.314 216.921 420.032 216.538 420.016C216.283 420.005 216.007 420.141 216.096 420.205C216.204 420.284 216.439 420.484 216.476 420.752C216.524 421.098 216.216 421.65 216.216 421.65C216.216 421.65 215.49 423.236 215.038 423.237C214.728 423.237 214.544 422.793 214.501 421.194C214.479 420.376 214.58 419.539 214.58 419.539C214.58 419.539 214.598 419.382 214.541 419.263C214.473 419.118 214.328 419.005 214.328 419.005L212.638 418.1C212.638 418.1 212.381 417.97 212.228 418.03C212.092 418.083 212.059 418.326 212.059 418.326C212.059 418.326 211.703 422.128 212.351 424.495C212.947 426.665 214.553 427.416 214.553 427.416Z" fill="#338FBF"/>
<circle cx="537" cy="512" r="12" transform="rotate(-21.8413 537 512)" fill="white"/>
<path d="M531.7 518.035C532.384 518.918 533.326 518.752 533.398 518.764C534.983 518.576 543 515.364 544.297 514.396C545.177 513.713 545.01 512.767 545.021 512.696C544.601 510.552 543.585 507.944 542.258 505.852L542.32 505.957C541.637 505.074 540.694 505.24 540.622 505.229C539.059 505.415 531.016 508.622 529.724 509.597C528.844 510.28 529.011 511.225 529 511.296C529.434 513.553 530.376 515.963 531.7 518.035V518.035ZM536.457 514.649L534.78 510.466L539.253 511.104L536.457 514.649Z" fill="#338FBF"/>
</svg>
