<svg width="286" height="253" viewBox="0 0 286 253" fill="none" xmlns="http://www.w3.org/2000/svg">
<circle cx="159.5" cy="126" r="120" stroke="#338FBF" stroke-width="12"/>
<circle cx="159.5" cy="126" r="114.043" stroke="#338FBF" stroke-width="2"/>
<path d="M149 40.4076C148.767 43.9267 148.534 47.8563 148.302 52.1965C148.185 56.4194 148.011 60.8182 147.778 65.393C147.661 69.9677 147.545 74.6012 147.429 79.2933C147.312 83.9853 147.254 88.5601 147.254 93.0176V103.751V117.123C147.254 123.34 147.312 129.733 147.429 136.302C147.661 142.871 147.952 150.437 148.302 159C145.974 158.765 143.704 158.648 141.492 158.648C139.28 158.648 137.011 158.648 134.683 158.648C132.354 158.648 130.026 158.648 127.698 158.648C125.487 158.648 123.217 158.765 120.889 159C121.005 157.123 121.18 154.425 121.413 150.906C121.646 147.387 121.82 143.516 121.937 139.293C122.169 134.953 122.344 130.378 122.46 125.569C122.693 120.76 122.81 115.891 122.81 110.965V61.346C121.995 61.6979 120.772 62.2845 119.143 63.1056C117.513 63.9267 115.709 64.8651 113.73 65.9208C111.868 66.8592 109.947 67.8563 107.968 68.912C105.989 69.8504 104.185 70.6716 102.556 71.3754C101.275 69.6158 99.7619 67.7977 98.0159 65.9208C96.3862 63.9267 95.0476 62.5191 94 61.6979C103.079 58.4135 111.693 55.0117 119.841 51.4927C127.989 47.8563 136.603 43.6921 145.683 39L149 40.4076Z" fill="#338FBF"/>
<path d="M220.706 102.819C213.888 97.4537 212.183 90.4219 212.183 87.5766C211.777 84.7314 212.914 78.919 220.706 78.4312C228.497 77.9435 231.257 84.3249 231.663 87.5766C232.068 91.0602 231.297 99.7869 224.967 106.825C226.453 108.376 228.08 110.186 229.775 112.151C229.726 110.349 235.477 99.6147 238.359 94.4729C238.764 88.5159 236.776 75.7482 225.575 72.334C214.375 68.9197 207.922 78.6341 206.096 83.9181C199.765 71.386 205.081 60.4056 208.531 56.4819C210.154 58.1078 216.444 58.6497 218.879 56.4819C223.262 52.5799 223.14 47.5398 222.532 45.5074C225.941 41.1177 230.039 42.8654 231.663 44.2881C228.254 46.7267 229.025 49.7753 229.836 50.9947C230.851 52.2142 233.489 53.9215 235.924 50.9947C238.967 47.3361 235.315 42.4591 231.663 40.0203C228.01 37.5816 221.923 37.5816 214.009 38.801C207.679 39.7765 206.096 48.9625 206.096 53.4336C192.947 69.5295 201.835 88.1861 207.922 95.5024C204.627 94.6368 201.586 94.16 198.791 94.018C196.137 93.8831 193.704 94.0502 191.486 94.4729C189.487 94.8539 187.663 95.4426 186.008 96.2051C169.648 103.743 169.86 128.262 181.747 136.962C178.703 141.23 181.138 147.326 189.66 147.326C196.478 147.326 199.4 150.172 200.009 151.594C200.983 148.18 199.603 142.449 198.791 140.01C197.98 138.384 195.626 134.767 192.704 133.303C189.782 131.84 188.24 128.629 187.834 127.206C184.912 128.182 183.776 131.678 183.573 133.303C173.346 120.134 180.935 107.493 186.008 102.819C187.412 101.935 189.27 101.095 191.486 100.491C193.294 99.9976 195.34 99.6607 197.574 99.5832C204.873 99.3302 214.169 101.849 223.664 110.745C225.385 112.357 227.112 114.179 228.835 116.232C229.169 116.63 229.503 117.036 229.836 117.451C232.104 120.275 234.733 123.509 236.532 125.987C238.119 128.172 238.925 129.635 240.185 131.587C249.789 146.468 250.409 155.089 249.778 165.007C249.653 166.969 249.479 168.982 249.316 171.104C248.342 183.786 242.011 195.878 238.967 200.339C241.676 201.949 241.761 204.601 241.402 205.857C246.249 199.509 252.876 186.439 254.377 170.314C255.044 163.147 254.698 155.377 252.733 147.326C251.9 143.914 250.777 140.451 249.316 136.962C247.312 134.225 244.556 130.549 241.494 126.597C240.477 125.284 239.427 123.941 238.359 122.592C235.517 119.002 232.553 115.369 229.775 112.151C228.08 110.186 226.453 108.376 224.967 106.825C223.352 105.14 221.901 103.76 220.706 102.819Z" fill="#338FBF"/>
<path d="M207.922 95.5024C187.834 85.7476 177.486 55.2628 195.139 59.5305C194.944 56.219 193.221 50.7417 187.932 54.1587C187.693 54.3387 187.456 54.5039 187.225 54.6532C187.468 54.4711 187.703 54.3066 187.932 54.1587C191.279 51.6432 195.105 46.2467 187.834 41.2397C183.979 42.6625 177.729 47.3371 183.573 54.6532C180.326 52.0112 173.346 49.0438 171.398 58.3111C173.63 56.6853 178.46 54.4091 179.921 58.3111C179.312 65.2476 182.234 82.0999 198.791 94.018C201.586 94.16 204.627 94.6368 207.922 95.5024Z" fill="#338FBF"/>
<path d="M191.486 94.4729C178.338 89.1948 175.862 81.5792 176.268 78.4312C174.239 82.1513 173.346 90.9141 186.008 96.2051C187.663 95.4426 189.487 94.8539 191.486 94.4729Z" fill="#338FBF"/>
<path d="M191.486 100.491C189.27 101.095 187.412 101.935 186.008 102.819C179.677 111.111 181.747 118.061 184.79 118.061C195.504 118.061 197.777 105.743 197.574 99.5832C195.34 99.6607 193.294 99.9976 191.486 100.491C192.298 102.689 192.704 108.306 187.834 113.184C181.747 119.28 188.443 102.431 191.486 100.491Z" fill="#338FBF"/>
<path d="M245.055 108.916C243.594 112.33 244.446 115.216 245.055 116.232C243.406 117.102 239.757 119.592 238.359 122.592C239.427 123.941 240.477 125.284 241.494 126.597C242.054 123.67 245.724 121.313 247.49 120.5C249.925 123.914 255.403 123.955 257.838 123.548C265.143 121.597 262.911 115.137 260.882 112.151C259.912 112.154 258.897 112.273 257.838 112.529C259.258 114.373 261.247 118.305 257.838 119.28C254.429 120.256 251.548 117.655 250.533 116.232C253.153 114.238 255.594 113.074 257.838 112.529C258.897 112.273 259.912 112.154 260.882 112.151C267.407 112.13 271.863 117.36 273.665 121.11C274.639 119.159 273.259 115.013 272.448 113.184C266.117 102.941 255.2 107.29 250.533 110.745C252.359 105.867 259.664 104.404 262.099 98.5509C264.534 92.6978 263.114 82.699 262.099 78.4312C262.099 84.7722 259.258 90.4218 257.838 92.4539C254.186 96.5186 246.516 105.501 245.055 108.916Z" fill="#338FBF"/>
<path d="M249.316 171.104C249.479 168.982 249.653 166.969 249.778 165.007C240.894 161.593 239.681 141.304 240.185 131.587C238.925 129.635 238.119 128.172 236.532 125.987C235.315 129.645 235.315 135.742 235.315 135.742C234.3 135.335 231.541 134.766 228.619 135.742C230.851 136.555 235.802 140.864 237.75 151.594C240.185 165.007 246.272 171.104 249.316 171.104Z" fill="#338FBF"/>
<path d="M254.377 170.314C256.342 168.342 260.151 163.422 259.664 159.52C259.177 155.618 257.026 152.61 256.012 151.594C256.823 150.578 258.325 148.302 257.838 147.326C257.229 146.107 255.403 142.449 253.577 141.229C251.751 140.01 254.933 144.278 252.733 147.326C254.698 155.377 255.044 163.147 254.377 170.314Z" fill="#338FBF"/>
<path d="M226.793 210.734C225.819 214.636 223.14 219.677 221.923 221.709C226.184 219.27 226.793 217.441 228.619 215.002C230.08 213.051 232.068 206.873 232.88 204.028C233.692 203.215 235.802 201.833 237.75 202.808C239.698 203.784 238.562 207.686 237.75 209.515L241.402 205.857C241.761 204.601 241.676 201.949 238.967 200.339C238.609 200.126 238.205 199.931 237.75 199.76C233.854 198.297 230.851 200.37 229.836 201.589C229.228 203.012 227.767 206.833 226.793 210.734Z" fill="#338FBF"/>
<path d="M217.662 205.857C214.74 223.904 192.501 234.919 181.747 238.171C196.843 235.732 211.98 227.806 217.662 224.148C219.61 217.807 218.473 209.312 217.662 205.857Z" fill="#338FBF"/>
<path d="M186.008 225.977C183.573 230.367 172.819 237.155 167.746 240L181.747 238.171C184.669 234.757 185.805 228.619 186.008 225.977Z" fill="#338FBF"/>
<path d="M48.4349 151.592C49.2466 145.902 52.4525 134.399 58.7833 133.911C65.1141 133.424 67.5085 138.179 67.9143 140.618C67.9143 129.034 58.7833 114.403 46 133.911C46.2029 137.569 46.974 146.225 48.4349 151.592Z" fill="#338FBF"/>
<path d="M56.9577 174.761C55.1315 169.274 53.5488 156.348 61.8275 148.544C58.5808 150.373 51.9656 155.738 51.4786 162.567C52.4935 165.818 55.0102 172.808 56.9577 174.761Z" fill="#338FBF"/>
<path d="M229.836 128.426C228.375 125.499 228.56 119.077 228.835 116.232C227.112 114.179 225.385 112.357 223.664 110.745C222.622 118.061 227.345 125.581 229.836 128.426Z" fill="#338FBF"/>
<path d="M83.3514 193.976V190.859H81V188.034H83.3514V185.763H81V182.151H83.3514V173.181H90.053C92.7571 173.181 94.7265 173.725 95.961 174.812C97.2151 175.899 97.8421 177.394 97.8421 179.297C97.8421 180.423 97.5874 181.481 97.0779 182.472C96.5684 183.462 95.716 184.258 94.5207 184.86C93.345 185.462 91.7382 185.763 89.7003 185.763H87.7898V188.034H92.3162V190.859H87.7898V193.976H83.3514ZM87.7898 182.151H89.2594C90.5135 182.151 91.503 181.938 92.2281 181.51C92.9727 181.083 93.345 180.394 93.345 179.443C93.345 177.676 92.1693 176.792 89.8179 176.792H87.7898V182.151Z" fill="#338FBF"/>
<path d="M112.371 173L103.66 198H99.8133L108.525 173H112.371Z" fill="#338FBF"/>
<path d="M115.907 174.138H124.963L128.436 186.211L132.038 174.138H141.252V176.882H140.262C139.726 176.882 139.353 176.996 139.143 177.224C138.942 177.442 138.841 177.859 138.841 178.475V189.738C138.841 190.231 138.87 190.539 138.927 190.662C139.013 190.852 139.133 190.984 139.286 191.06C139.497 191.174 139.774 191.231 140.118 191.231H141.252V193.976H131.622V191.231H132.368C132.914 191.231 133.282 191.188 133.474 191.103C133.665 191.018 133.804 190.89 133.89 190.719C133.985 190.539 134.033 190.212 134.033 189.738V177.536L129.154 193.976H126.384L121.662 178.063V190.122C121.662 190.397 121.71 190.61 121.805 190.762C121.911 190.913 122.054 191.032 122.236 191.117C122.427 191.193 122.729 191.231 123.14 191.231H124.102V193.976H115.907V191.231H116.71C117.218 191.231 117.562 191.188 117.744 191.103C117.935 191.008 118.074 190.866 118.16 190.676C118.256 190.477 118.303 190.117 118.303 189.596V178.475C118.303 177.963 118.27 177.631 118.203 177.48C118.117 177.271 117.988 177.119 117.816 177.024C117.643 176.93 117.371 176.882 116.997 176.882H115.907V174.138Z" fill="#338FBF"/>
<path d="M142.908 174.138H159.613L161.895 180.409L159.298 181.333C158.857 180.309 158.341 179.485 157.747 178.859C157.164 178.233 156.513 177.821 155.796 177.622C155.088 177.413 154.26 177.309 153.313 177.309H150.256V182.258H151.26C152.016 182.258 152.523 182.206 152.782 182.101C153.05 181.987 153.241 181.817 153.356 181.589C153.471 181.352 153.528 180.888 153.528 180.196V179.442H156.083V187.832H153.528V186.979C153.528 186.401 153.456 185.979 153.313 185.713C153.179 185.448 152.992 185.268 152.753 185.173C152.514 185.078 151.983 185.031 151.16 185.031H150.256V189.581C150.256 190.065 150.28 190.359 150.328 190.463C150.375 190.567 150.466 190.648 150.6 190.705C150.744 190.762 151.045 190.79 151.504 190.79H153.184C154.437 190.79 155.494 190.615 156.355 190.264C157.216 189.904 157.982 189.33 158.652 188.543C159.331 187.747 159.852 186.804 160.216 185.713L162.842 186.609L160.216 193.976H142.908V191.231H143.41C144.08 191.231 144.529 191.184 144.759 191.089C144.989 190.994 145.151 190.828 145.247 190.591C145.295 190.449 145.319 190.046 145.319 189.382V178.575C145.319 177.987 145.276 177.603 145.19 177.423C145.113 177.243 144.989 177.11 144.816 177.024C144.644 176.93 144.304 176.882 143.797 176.882H142.908V174.138Z" fill="#338FBF"/>
<path d="M178.907 174.138H180.945L182.911 181.262L180.242 182.03C179.352 180.333 178.515 179.129 177.73 178.418C176.639 177.442 175.458 176.953 174.185 176.953C173.257 176.953 172.387 177.209 171.573 177.721C170.77 178.233 170.128 178.987 169.65 179.982C169.181 180.978 168.947 182.144 168.947 183.481C168.947 185.519 169.487 187.273 170.569 188.742C171.659 190.212 173.085 190.947 174.845 190.947C175.965 190.947 177.041 190.629 178.075 189.994C179.366 189.207 180.481 188.15 181.419 186.823L183.643 188.458C182.198 190.411 180.878 191.771 179.682 192.539C177.835 193.724 175.778 194.317 173.511 194.317C171.626 194.317 169.918 193.871 168.387 192.98C166.866 192.079 165.651 190.823 164.742 189.212C163.833 187.6 163.378 185.841 163.378 183.936C163.378 182.04 163.818 180.314 164.699 178.759C165.588 177.195 166.794 175.977 168.315 175.105C169.846 174.232 171.549 173.796 173.425 173.796C175.329 173.796 176.998 174.195 178.433 174.991L178.907 174.138Z" fill="#338FBF"/>
<path d="M205.377 174.138H193.034C192.24 174.138 191.369 174.209 190.422 174.351C189.485 174.493 188.633 174.806 187.868 175.29C187.112 175.773 186.523 176.385 186.102 177.124C185.681 177.863 185.471 178.698 185.471 179.627C185.471 181.134 186.011 182.357 187.093 183.296C188.183 184.225 189.47 184.832 190.953 185.116L186.834 189.866L186.662 190.079C186.394 190.401 186.15 190.643 185.93 190.804C185.71 190.956 185.49 191.065 185.27 191.131C185.05 191.198 184.744 191.231 184.351 191.231H183.49V193.976H189.906L196.335 185.429H198V189.382C198 190.065 197.962 190.501 197.885 190.691C197.809 190.871 197.684 191.008 197.512 191.103C197.349 191.188 197.015 191.231 196.507 191.231H195.589V193.976H205.377V191.231H204.487C204.018 191.231 203.683 191.184 203.482 191.089C203.291 190.984 203.148 190.833 203.052 190.634C203.004 190.52 202.98 190.164 202.98 189.567V178.404C202.98 177.968 203.014 177.66 203.081 177.48C203.157 177.29 203.277 177.167 203.439 177.11C203.669 177.005 203.932 176.953 204.229 176.953L204.631 176.968H205.377V174.138ZM198 177.394V182.528H195.029C193.862 182.528 192.986 182.424 192.403 182.215C191.829 181.997 191.393 181.689 191.097 181.291C190.81 180.892 190.666 180.409 190.666 179.84C190.666 179.319 190.8 178.873 191.068 178.503C191.345 178.124 191.733 177.845 192.231 177.664C192.738 177.484 193.56 177.394 194.699 177.394H198Z" fill="#338FBF"/>
<path d="M228.89 191.231L231 197.076L228.402 198C227.953 196.853 227.307 195.895 226.465 195.127C225.623 194.359 224.274 193.976 222.418 193.976H206.889V191.231H207.778C208.42 191.231 208.831 191.127 209.013 190.918C209.195 190.7 209.285 190.174 209.285 189.34V178.788C209.285 177.973 209.204 177.451 209.041 177.224C208.888 176.996 208.467 176.882 207.778 176.882H206.889V174.138H216.662V176.882H215.758C215.127 176.882 214.715 176.977 214.524 177.167C214.333 177.356 214.237 177.854 214.237 178.66V190.861H221.528V178.404C221.528 177.797 221.456 177.394 221.312 177.195C221.169 176.987 220.681 176.882 219.849 176.882H219.088V174.138H228.89V176.882H228.072C227.374 176.882 226.934 176.982 226.752 177.181C226.57 177.38 226.479 177.873 226.479 178.66V189.468C226.479 190.245 226.565 190.733 226.737 190.932C226.919 191.131 227.364 191.231 228.072 191.231H228.89Z" fill="#338FBF"/>
<path d="M40.2508 29.31L40.2502 29.3141C39.1854 36.2554 35.6982 43.3343 32.4532 48.7007C30.8337 51.3788 29.2812 53.6198 28.1339 55.1907C27.5604 55.976 27.0885 56.5934 26.7605 57.0138C26.627 57.1849 26.5174 57.3233 26.4345 57.4272C26.3956 57.4197 26.3529 57.4113 26.3066 57.402C26.0375 57.3481 25.6464 57.2639 25.1631 57.1436C24.196 56.9029 22.8635 56.5186 21.4038 55.9449C18.4699 54.7917 15.0928 52.9007 13.0895 49.9385C12.1219 48.4723 11.7056 46.4733 11.6192 44.0983C11.5329 41.7281 11.7762 39.0499 12.0733 36.2654C12.1204 35.8234 12.1689 35.3787 12.2176 34.9325C12.4743 32.5802 12.7358 30.1828 12.8292 27.8977C12.9402 25.1802 12.8164 22.5745 12.1449 20.3409C11.5955 18.5138 12.6791 16.7247 15.0107 14.9832C17.3133 13.2635 20.6503 11.7393 24.1103 10.4693C27.5615 9.20254 31.0977 8.20189 33.7741 7.51751C35.1116 7.17552 36.2326 6.91294 37.0187 6.73598C37.3783 6.65502 37.6677 6.592 37.8757 6.5475C37.8852 6.56785 37.8951 6.58911 37.9054 6.61128C38.0307 6.88156 38.2088 7.28668 38.4162 7.81851C38.8312 8.88224 39.3634 10.4523 39.8252 12.4638C40.7488 16.4863 41.3906 22.2735 40.2508 29.31Z" fill="white" stroke="#338FBF"/>
<path d="M40.2461 42.4759C40.1927 41.8258 40.1542 41.3146 40.1289 40.9643C43.7456 41.0954 46.3892 41.869 48.4452 43.318C50.605 44.8401 52.1769 47.1499 53.5253 50.4072C54.5296 52.8405 57.0816 59.5109 59.3861 65.5827C60.5376 68.6164 61.6261 71.4976 62.4267 73.6205C62.8271 74.6819 63.1554 75.5536 63.3837 76.16L63.6475 76.8612L63.7165 77.0447L63.7341 77.0916L63.7386 77.1035L63.7397 77.1064L63.74 77.1072C63.7401 77.1073 63.7401 77.1074 64.2081 76.9315L63.7401 77.1074L63.8968 77.5245L64.3274 77.4171L64.3278 77.417L64.3284 77.4168L64.3288 77.4168L64.3291 77.4166L64.3407 77.4141C64.3526 77.4115 64.3722 77.4074 64.3985 77.4026C64.4513 77.3929 64.5303 77.3804 64.6284 77.3707C64.8267 77.3512 65.0916 77.3442 65.3699 77.3892C65.9086 77.4764 66.4731 77.7467 66.7562 78.5247C67.2876 80.2944 67.6982 82.1707 67.8072 83.9351C67.9168 85.7089 67.7189 87.3282 67.0726 88.6096C66.4369 89.87 65.349 90.8427 63.5795 91.3164C61.788 91.796 59.2795 91.7676 55.8301 90.9515L55.8271 90.9508C54.3323 90.6067 52.9398 89.6114 51.6449 88.0607C50.3507 86.5107 49.1806 84.4368 48.1284 82.0004C46.024 77.128 44.4262 70.8898 43.2321 64.7178C42.0391 58.5511 41.2536 52.4752 40.7665 47.939C40.5229 45.6715 40.354 43.79 40.2461 42.4759Z" fill="white" stroke="#338FBF"/>
<path d="M64.3201 73.4089L64.324 73.4092C64.464 73.4174 64.5836 73.478 64.7005 73.6281C64.8277 73.7916 64.9416 74.0531 65.0208 74.4185C65.1786 75.1474 65.1674 76.1446 65.0108 77.1607C64.8544 78.1746 64.5615 79.1537 64.1948 79.8463C64.0108 80.1941 63.8227 80.4416 63.6482 80.5896C63.4789 80.7331 63.3568 80.7568 63.2677 80.7449C63.1739 80.7324 63.0693 80.6793 62.956 80.5128C62.8368 80.3378 62.7312 80.0666 62.6573 79.699C62.51 78.9666 62.5141 77.9811 62.6533 76.9827C62.7924 75.9851 63.0597 75.0233 63.4055 74.3352C63.579 73.9901 63.7591 73.7404 63.9299 73.5865C64.0965 73.4364 64.2237 73.4025 64.3201 73.4089Z" fill="white" stroke="#338FBF"/>
<path d="M25.1439 238.618L25.1439 238.618L25.1456 238.626C25.3417 239.486 25.8104 240.514 26.405 241.574C27.0039 242.64 27.7484 243.77 28.5207 244.84C30.0557 246.966 31.741 248.911 32.6551 249.671L32.794 249.787H32.9747C32.9714 249.787 32.9727 249.787 32.979 249.788C32.9979 249.792 33.062 249.804 33.181 249.843C33.3218 249.889 33.5041 249.961 33.7124 250.061C34.1256 250.259 34.6212 250.555 35.0826 250.947C35.1291 250.994 35.1747 251.039 35.2197 251.085H26.6739C26.4766 250.912 26.261 250.665 26.0169 250.336C25.7238 249.94 25.4089 249.452 25.0493 248.878L25.045 248.871C24.1579 247.503 22.9009 246.98 21.8871 246.802C21.3825 246.713 20.934 246.708 20.611 246.725C20.4489 246.734 20.317 246.748 20.2235 246.76C20.1767 246.767 20.1395 246.773 20.1128 246.777L20.0807 246.783L20.0708 246.785L20.0674 246.785L20.0661 246.785L20.0656 246.786C20.0654 246.786 20.0651 246.786 20.163 247.276L20.0651 246.786L19.9169 246.815L19.8098 246.922C19.498 247.233 19.2992 247.727 19.1588 248.209C19.0122 248.712 18.9048 249.295 18.8225 249.861C18.7398 250.429 18.6804 250.995 18.6331 251.468C18.6263 251.535 18.6199 251.6 18.6136 251.662C18.5977 251.822 18.5835 251.965 18.5703 252.09H18.2009C17.9706 251.462 17.6006 250.273 17.3027 249.01C17.1254 248.258 16.9769 247.493 16.8989 246.817C16.8193 246.126 16.8203 245.582 16.9052 245.243L16.9081 245.232L16.9105 245.22C17.0481 244.533 17.3985 243.376 17.7789 242.165C17.8609 241.904 17.9441 241.641 18.0264 241.381C18.3204 240.452 18.6026 239.56 18.7739 238.934L18.774 238.934L18.7761 238.925C19.1741 237.364 19.567 236.003 19.9501 234.676C20.5911 232.456 21.2048 230.331 21.7689 227.517C22.6753 222.996 23.4687 216.649 24.117 205.077C24.2481 202.775 24.3314 200.585 24.4106 198.502C24.5503 194.826 24.6774 191.483 25.0322 188.446C25.5857 183.707 26.6852 179.834 29.1867 176.784L29.2221 176.741L29.2471 176.691C29.2827 176.62 29.3013 176.536 29.3061 176.516C29.3169 176.471 29.3288 176.414 29.3416 176.348C29.3674 176.215 29.3994 176.031 29.4361 175.796C29.5097 175.324 29.6034 174.64 29.7041 173.742C29.9056 171.946 30.1359 169.291 30.2893 165.77C30.5938 158.783 30.5957 148.384 29.4687 134.521L57.6029 118.957C59.1903 135.081 55.2409 148.027 50.659 157.926C48.4527 162.693 46.1014 166.75 44.1446 170.127C44.0366 170.313 43.9298 170.497 43.8243 170.68C42.8178 172.418 41.9243 173.976 41.2331 175.344C40.5456 176.704 40.0396 177.911 39.8273 178.947C39.6026 179.954 38.4744 184.231 36.9338 190.072C35.4984 195.514 33.705 202.314 31.9509 209.089C30.1333 216.109 28.3598 223.097 27.0765 228.502C26.4351 231.204 25.9149 233.515 25.5729 235.238C25.402 236.099 25.2743 236.819 25.1983 237.372C25.1604 237.647 25.1344 237.888 25.123 238.086C25.1123 238.272 25.1113 238.463 25.1439 238.618Z" fill="white" stroke="#338FBF"/>
<path d="M22.654 248.77L22.6418 248.759L22.6288 248.749C21.9362 248.211 21.3724 247.962 20.9557 247.852C20.7478 247.798 20.579 247.779 20.4524 247.775C20.3893 247.774 20.3372 247.776 20.2964 247.78C20.276 247.782 20.2585 247.784 20.2439 247.786L20.2243 247.789L20.2161 247.79L20.2125 247.791L20.2107 247.791L20.2099 247.791C20.2095 247.792 20.2091 247.792 20.3069 248.282L20.2091 247.792L20.0608 247.821L19.9538 247.928C19.4227 248.458 19.0719 249.36 18.8529 250.161C18.6936 250.744 18.5881 251.335 18.5404 251.804H18.2009C17.9706 251.175 17.6006 249.987 17.3027 248.724C17.1254 247.972 16.9769 247.207 16.8989 246.53C16.8193 245.839 16.8203 245.295 16.9052 244.956L16.9081 244.945L16.9105 244.933C17.0067 244.453 17.1681 243.914 17.3572 243.281C17.4407 243.002 17.5296 242.705 17.6207 242.387C17.8921 241.439 18.1678 240.351 18.3243 239.128C18.9783 238.839 19.6108 238.899 20.289 239.228C21.0754 239.609 21.8999 240.344 22.8016 241.315C23.3975 241.957 24.0017 242.672 24.6365 243.424C24.9617 243.809 25.2949 244.204 25.6392 244.603C26.6436 245.767 27.725 246.948 28.9065 247.943C30.11 248.993 31.1184 249.432 31.8588 249.596C32.2282 249.678 32.5254 249.69 32.74 249.679C32.802 249.676 32.8569 249.671 32.9045 249.664C32.9121 249.667 32.9195 249.67 32.9267 249.672C33.0038 249.698 33.0941 249.722 33.185 249.744C33.2804 249.767 33.4019 249.794 33.5336 249.824C33.6415 249.848 33.7563 249.874 33.869 249.9C34.3917 250.022 35.0258 250.189 35.6209 250.449C36.5031 250.994 36.9524 251.42 37.2109 251.739C37.2287 251.761 37.2457 251.782 37.262 251.804H26.4969C26.3892 251.804 26.1828 251.741 25.8627 251.545C25.5584 251.359 25.2127 251.091 24.8425 250.775C24.4742 250.46 24.0946 250.107 23.7214 249.757C23.6641 249.704 23.6068 249.65 23.5497 249.596C23.2387 249.304 22.9333 249.017 22.654 248.77Z" fill="white" stroke="#338FBF"/>
<path d="M51.9038 92.1764C51.931 92.2205 51.9608 92.2695 51.993 92.3232C52.1818 92.6379 52.4545 93.1165 52.7843 93.7637C53.4439 95.058 54.3317 97.0266 55.2323 99.7058C57.0333 105.063 58.8869 113.266 59.066 124.606C59.4232 147.216 53.1242 182.316 26.4457 232.211L21.9455 229.467C21.9438 229.411 21.9418 229.348 21.9396 229.275C21.9305 228.974 21.9179 228.529 21.9039 227.958C21.8758 226.817 21.8421 225.172 21.8196 223.159C21.7747 219.133 21.7747 213.637 21.9544 207.757C22.1341 201.876 22.4933 195.618 23.1656 190.064C23.8398 184.494 24.8229 179.689 26.2264 176.678C26.9717 175.079 27.6557 172.637 28.2869 169.622C28.9201 166.598 29.5068 162.963 30.0474 158.957C31.1289 150.945 32.0294 141.428 32.7495 132.304C33.4696 123.179 34.0097 114.44 34.3697 107.983C34.5497 104.755 34.6848 102.096 34.7748 100.245C34.8198 99.3194 34.8535 98.5954 34.8761 98.1028C34.8834 97.9421 34.8896 97.8059 34.8945 97.6955L51.9038 92.1764Z" fill="white" stroke="#338FBF"/>
<path d="M34.9879 121.169C29.5178 98.4759 14.6907 120.882 14.6907 135.676C14.6907 148.467 18.7611 155.219 22.1976 160.92C24.3951 164.565 26.3335 167.781 26.7827 171.871C27.9343 182.499 29.9496 187.095 35.9956 198.873L34.9879 121.169ZM34.9879 121.169C39.1822 138.123 40.6447 158.043 41.4763 169.371C41.7579 173.205 41.9671 176.055 42.1856 177.472C43.0493 183.074 51.5425 222.141 56.4368 238.515L34.9879 121.169ZM57.6588 251.085L57.6001 251.041C57.3699 250.869 57.1161 250.591 56.8206 250.192C56.5275 249.796 56.2126 249.308 55.853 248.734L55.8487 248.728C54.9615 247.36 53.7045 246.836 52.6908 246.658C52.1862 246.569 51.7377 246.564 51.4146 246.582C51.2526 246.59 51.1206 246.604 51.0272 246.617C50.9804 246.623 50.9431 246.629 50.9164 246.633L50.8844 246.639L50.8745 246.641L50.8711 246.642L50.8698 246.642L50.8693 246.642C50.869 246.642 50.8688 246.642 50.9667 247.132L50.8688 246.642L50.7205 246.672L50.6135 246.778C50.3017 247.09 50.1029 247.583 49.9625 248.065C49.8159 248.569 49.7085 249.151 49.6261 249.718C49.5435 250.286 49.4841 250.852 49.4367 251.324C49.43 251.391 49.4235 251.456 49.4173 251.519C49.4014 251.678 49.3872 251.822 49.3739 251.947H49.0045C48.7742 251.318 48.4042 250.13 48.1064 248.867C47.929 248.115 47.7806 247.35 47.7026 246.673C47.6229 245.982 47.624 245.438 47.7089 245.1L47.7118 245.088L47.7141 245.076C47.8517 244.39 48.2022 243.233 48.5826 242.022C48.6646 241.761 48.7478 241.498 48.8302 241.238C49.122 240.315 49.4023 239.429 49.5739 238.804L49.5804 238.784C49.7169 238.376 49.8832 237.879 49.8832 237.366V237.306L49.8689 237.247L49.8486 237.164C48.5281 231.747 44.0608 213.421 36.4401 198.644C30.4046 186.887 28.4216 182.355 27.2798 171.817L27.2797 171.816C26.9824 169.109 26.0534 166.784 24.8495 164.507C24.2485 163.37 23.5762 162.24 22.879 161.082C22.7949 160.942 22.7105 160.802 22.6257 160.662C22.0059 159.633 21.3698 158.578 20.7406 157.46C17.8932 152.399 15.1907 146.056 15.1907 135.676C15.1907 132.053 16.1001 127.941 17.5594 124.157C19.0196 120.37 21.0138 116.955 23.1502 114.71C25.3123 112.437 27.4664 111.507 29.3238 112.246C30.2712 112.623 31.2249 113.459 32.1178 114.93C33.0109 116.401 33.8252 118.479 34.5019 121.286L34.5026 121.289C37.3007 132.6 38.8814 145.246 39.8703 155.777C40.3589 160.98 40.7027 165.662 40.9778 169.408L40.9874 169.54C41.2631 173.294 41.4716 176.123 41.6914 177.548C42.5588 183.174 51.0572 222.263 55.9578 238.658L55.9577 238.658L55.9605 238.667C56.4897 240.326 57.934 242.714 59.429 244.835C60.9238 246.956 62.5397 248.907 63.4587 249.671L63.5977 249.787H63.7784C63.7751 249.787 63.7764 249.787 63.7827 249.788C63.8016 249.792 63.8657 249.804 63.9847 249.843C64.1254 249.889 64.3077 249.961 64.5161 250.061C64.9292 250.259 65.4249 250.555 65.8863 250.947C65.9328 250.994 65.9784 251.039 66.0234 251.085H57.6588Z" fill="white" stroke="#338FBF"/>
<path d="M53.4575 248.77L53.4452 248.759L53.4323 248.749C52.7397 248.211 52.1759 247.962 51.7592 247.852C51.5512 247.798 51.3825 247.779 51.2559 247.775C51.1928 247.774 51.1406 247.776 51.0998 247.78C51.0795 247.782 51.062 247.784 51.0474 247.786L51.0277 247.789L51.0196 247.79L51.0159 247.791L51.0142 247.791L51.0134 247.791C51.013 247.792 51.0126 247.792 51.1104 248.282L51.0126 247.792L50.8643 247.821L50.7572 247.928C50.2262 248.458 49.8754 249.36 49.6564 250.161C49.4971 250.744 49.3915 251.335 49.3439 251.804H49.0043C48.774 251.175 48.404 249.987 48.1062 248.724C47.9288 247.972 47.7804 247.207 47.7024 246.53C47.6227 245.839 47.6238 245.295 47.7087 244.956L47.7116 244.945L47.7139 244.933C47.8102 244.453 47.9716 243.914 48.1607 243.281C48.2442 243.002 48.3331 242.705 48.4241 242.387C48.6955 241.439 48.9713 240.351 49.1277 239.128C49.7817 238.839 50.4143 238.899 51.0925 239.228C51.8789 239.609 52.7034 240.344 53.6051 241.315C54.201 241.957 54.8052 242.672 55.44 243.424C55.7652 243.809 56.0984 244.204 56.4427 244.603C57.447 245.767 58.5284 246.948 59.71 247.943C60.9135 248.993 61.9218 249.432 62.6623 249.596C63.0317 249.678 63.3289 249.69 63.5435 249.679C63.6055 249.676 63.6604 249.671 63.7079 249.664C63.7155 249.667 63.7229 249.67 63.7301 249.672C63.8072 249.698 63.8976 249.722 63.9885 249.744C64.0838 249.767 64.2054 249.794 64.337 249.824C64.445 249.848 64.5597 249.874 64.6725 249.9C65.1951 250.022 65.8293 250.189 66.4243 250.449C67.3065 250.994 67.7558 251.42 68.0144 251.739C68.0322 251.761 68.0492 251.782 68.0655 251.804H57.3003C57.1926 251.804 56.9862 251.741 56.6661 251.545C56.3619 251.359 56.0162 251.091 55.646 250.775C55.2776 250.46 54.8981 250.107 54.5249 249.757C54.4675 249.704 54.4102 249.65 54.3531 249.596C54.0421 249.304 53.7368 249.017 53.4575 248.77Z" fill="white" stroke="#338FBF"/>
<path d="M43.2531 135.775L43.1049 135.942L43.1306 136.164L54.022 230.25L47.1938 232.178C47.0867 231.971 46.935 231.677 46.7425 231.299C46.3285 230.488 45.7256 229.294 44.9709 227.762C43.4616 224.7 41.3453 220.29 38.9188 214.904C34.0652 204.132 27.9733 189.46 23.0148 173.856C18.0543 158.246 14.2375 141.731 13.9151 127.265C13.594 112.854 16.7411 100.593 25.5355 93.2231L51.6385 92.1029C51.6459 92.3396 51.6547 92.6566 51.663 93.0461C51.6829 93.9751 51.7003 95.3159 51.6902 96.9603C51.67 100.25 51.5399 104.75 51.1006 109.598C50.6612 114.448 49.9135 119.632 48.6618 124.294C47.4073 128.966 45.66 133.06 43.2531 135.775Z" fill="white" stroke="#338FBF"/>
<path d="M53.3148 73.4881C53.2233 73.7207 53.1581 73.8623 53.1351 73.9039L52.6266 73.8914L51.7782 91.1039C45.7711 93.6747 39.3285 93.9836 34.3393 93.6331C31.8092 93.4553 29.6622 93.1086 28.1492 92.8067C27.3929 92.6557 26.7956 92.5161 26.3887 92.4146C26.2725 92.3857 26.1719 92.3598 26.0875 92.3377C25.1245 84.7198 20.8531 77.0689 18.8432 74.2039L53.3148 73.4881ZM53.3148 73.4881C53.2505 73.4527 53.1848 73.4261 53.1289 73.4168C53.0251 73.4272 52.8764 73.4839 52.8304 73.514C52.806 73.5332 52.769 73.5675 52.7559 73.5815C52.7328 73.6072 52.718 73.6293 52.714 73.6353C52.7078 73.6445 52.7035 73.6517 52.7015 73.655C52.6982 73.6606 52.6964 73.6641 52.6964 73.6641C52.6964 73.6641 52.6977 73.6615 52.7006 73.6556C52.7108 73.6349 52.7293 73.595 52.7553 73.5347C52.8067 73.4155 52.882 73.229 52.9717 72.9801C53.1509 72.4827 53.3857 71.7413 53.6013 70.7974C54.0326 68.9092 54.3855 66.2175 54.0681 63.05C53.4376 56.7595 50.1572 48.5252 39.4295 40.9457L39.3788 40.9442C39.2452 40.9406 39.0444 40.9356 38.7766 40.93C38.2411 40.9188 37.438 40.9054 36.3694 40.8964C34.2324 40.8785 31.0339 40.8785 26.7918 40.9502C25.2412 40.98 23.7562 40.9363 22.352 40.895C22.0482 40.8861 21.7482 40.8773 21.4521 40.8694C19.7792 40.8245 18.2322 40.8076 16.7906 40.948C13.9327 41.2262 11.518 42.1176 9.46573 44.6424C6.49541 48.3484 7.38027 53.7261 9.8402 59.3157C12.2392 64.7668 16.038 70.1952 18.7015 74.0013L18.8429 74.2034L53.3148 73.4881Z" fill="white" stroke="#338FBF"/>
<path d="M31.6719 40.8803C31.6719 40.6649 31.6571 40.4616 31.6348 40.276C33.9292 41.7718 35.1736 43.8368 35.8508 45.6182C36.2237 46.5989 36.4225 47.4892 36.5282 48.1416L30.4768 43.7293C31.4248 42.825 31.6719 41.7535 31.6719 40.8803Z" fill="white" stroke="#338FBF"/>
<path d="M53.6265 73.1977V72.6977H53.1265H51.2551C50.805 72.6977 50.3965 72.9172 50.1102 73.2028C49.8241 73.4883 49.6035 73.8965 49.6035 74.3467V77.9375C49.6035 78.3878 49.8241 78.7959 50.1102 79.0814C50.3965 79.367 50.805 79.5865 51.2551 79.5865H53.1265H53.6265V79.0865V73.1977ZM51.2551 72.5487H53.6342V79.7356H51.2551C50.2347 79.7356 49.4519 78.9529 49.4519 77.9375V74.3467C49.4519 73.3313 50.2347 72.5487 51.2551 72.5487Z" fill="white" stroke="#338FBF"/>
<path d="M62.9163 81.6019H53.8474C53.7377 81.6019 53.6445 81.5649 53.5853 81.5124C53.5355 81.4682 53.4836 81.3914 53.4836 81.2402V71.1861C53.4836 71.0775 53.5205 70.9851 53.5729 70.9262C53.6172 70.8765 53.6947 70.8243 53.8474 70.8243H62.9163C63.026 70.8243 63.1192 70.8614 63.1784 70.9138C63.2282 70.9581 63.28 71.0349 63.28 71.1861V81.1749C63.2233 81.375 63.1552 81.4805 63.103 81.5325C63.059 81.5764 63.0089 81.6019 62.9163 81.6019Z" fill="white" stroke="#338FBF"/>
<path d="M44.0596 77.5059C44.0596 77.5059 46.0749 74.4896 47.3705 74.346C48.6661 74.2024 48.954 74.0588 48.954 74.0588V75.7823C48.954 75.7823 52.8407 74.6333 52.9846 75.7823C53.1286 76.9314 52.2649 77.2186 52.2649 78.3676C52.2649 79.5167 51.4011 81.3839 50.3935 81.8148C49.3858 82.2456 44.4914 82.102 44.4914 82.102L44.0596 77.5059Z" fill="white" stroke="#338FBF"/>
<path d="M16.2742 85.4052L15.7765 85.3565L15.6964 86.1741L16.4595 85.8696L16.2742 85.4052ZM16.2742 85.4052C15.7765 85.3565 15.7766 85.3564 15.7766 85.3562L15.7767 85.355L15.7772 85.35L15.7791 85.3298L15.7868 85.2488C15.7935 85.177 15.8034 85.0702 15.8159 84.9305C15.8409 84.6511 15.8764 84.2401 15.9183 83.7151C16.0021 82.6651 16.1115 81.1592 16.2136 79.3381C16.4178 75.6946 16.5926 70.7939 16.4761 65.7575C16.3594 60.7161 15.9511 55.562 14.9973 51.4027C14.5204 49.3228 13.9116 47.5126 13.1476 46.0959C12.4628 44.8259 11.6711 43.9049 10.7688 43.3712C10.6248 43.5338 10.4248 43.7651 10.1822 44.0594C9.65986 44.6932 8.94108 45.6183 8.15976 46.7788C6.59492 49.1031 4.79043 52.3549 3.80182 56.0891C2.79986 59.8738 0.650633 69.8846 0.507517 79.4341C0.435914 84.2119 0.867548 88.8336 2.17006 92.4931C3.47009 96.1456 5.60952 98.7729 8.92573 99.7182C12.309 100.683 16.259 100.116 20.3303 98.6643C24.3942 97.2153 28.5223 94.9046 32.2293 92.4567C35.9336 90.0105 39.202 87.4376 41.5451 85.4752C42.7163 84.4944 43.6553 83.6669 44.3009 83.0852C44.6236 82.7944 44.873 82.5651 45.0413 82.4088C45.1141 82.3412 45.1717 82.2873 45.2136 82.248C45.7367 80.8158 45.3952 79.5378 44.8921 78.5824C44.6343 78.0929 44.3378 77.6967 44.1054 77.423C44.0233 77.3264 43.9498 77.2456 43.8895 77.1821C38.7085 78.1328 31.9276 80.2725 26.389 82.197C23.5783 83.1736 21.095 84.0921 19.3146 84.7664C18.4244 85.1035 17.7101 85.3795 17.2186 85.5712C16.9728 85.667 16.7828 85.7417 16.6543 85.7924L16.5085 85.8501L16.4716 85.8648L16.4624 85.8684L16.4602 85.8693L16.4596 85.8695C16.4595 85.8696 16.4595 85.8696 16.2742 85.4052Z" fill="white" stroke="#338FBF"/>
<path d="M62.4831 75.6392L63.4907 76.0701C63.4907 76.0701 61.7633 76.6447 61.6193 76.9319C61.4754 77.2192 60.7556 77.9373 60.7556 77.9373C60.7556 77.9373 61.1875 78.6555 61.7633 78.081C62.3391 77.6501 63.4907 77.5064 63.4907 77.5064C63.4907 77.5064 62.4831 78.0809 62.4831 78.5118C62.3391 78.9427 62.0512 79.8045 62.0512 79.8045C62.0512 79.8045 62.3391 80.2354 62.771 79.6609L62.9149 79.5172C63.0589 79.23 63.2028 79.0864 63.3468 78.9427C63.6347 78.9427 64.4984 78.5118 64.6423 78.081C64.7863 77.6501 64.3544 77.5064 64.3544 77.5064C64.3544 77.5064 64.9302 77.3628 65.0742 76.9319C65.2181 76.3574 64.6423 76.0701 64.6423 76.0701C64.6423 76.0701 65.3621 75.6393 65.2181 75.2084C65.0742 74.7775 64.3544 74.6338 64.3544 74.6338C64.3544 74.6338 64.7863 74.4902 64.9302 73.9157C64.9302 73.6284 64.7863 73.3412 64.6423 73.1976C64.2105 73.0539 63.7786 73.0539 63.6347 73.0539C62.9149 73.1976 61.1875 74.4902 61.1875 74.4902C61.1875 74.4902 61.4754 75.352 62.0512 74.9211C62.627 74.4902 63.2028 74.3466 64.0665 74.6338L62.4831 74.9211L60.8996 75.9265C60.8996 75.9265 61.3314 76.7883 61.6193 76.501C61.6193 76.0701 62.4831 75.6392 62.4831 75.6392Z" fill="white" stroke="#338FBF"/>
<path d="M58.8726 58.5114C58.9569 58.2593 59.0396 58.0144 59.1391 57.7538L59.124 57.8293C59.0278 58.0719 58.9465 58.3004 58.8726 58.5114Z" fill="white" stroke="#338FBF"/>
<path d="M28.381 34.3476L28.3778 34.3475C25.9126 34.2802 23.2859 32.9588 20.9 30.8422C18.5212 28.7319 16.4295 25.872 15.0353 22.8258C13.6392 19.7753 12.9609 16.5793 13.3529 13.7899C13.74 11.0355 15.17 8.65911 18.0499 7.15849L18.0549 7.15683C18.0832 7.1477 18.1259 7.13405 18.1824 7.11655C18.2952 7.08153 18.4627 7.03109 18.6778 6.97051C19.1081 6.84929 19.7283 6.68765 20.483 6.52755C21.9952 6.20676 24.0345 5.89491 26.1627 5.92123C28.2947 5.9476 30.4804 6.31306 32.312 7.31629C34.1274 8.31061 35.6225 9.9452 36.3766 12.5788C37.9383 18.0325 37.9278 23.5988 36.5102 27.7373C35.0953 31.8679 32.3306 34.4812 28.381 34.3476Z" fill="white" stroke="#338FBF"/>
<path d="M29.0082 18.7344C29.0178 18.7152 29.0266 18.6997 29.0344 18.6872H29.083C29.0819 18.6872 29.0821 18.6872 29.0835 18.6876C29.0938 18.6902 29.1691 18.7096 29.266 18.8493C29.3671 18.9948 29.4467 19.2176 29.4467 19.4799C29.4467 19.7801 29.3853 20.0162 29.3088 20.158C29.2682 20.2333 29.2373 20.2614 29.2223 20.2709C29.2026 20.2651 29.1322 20.2377 29.044 20.1105C28.943 19.9649 28.8633 19.7422 28.8633 19.4799C28.8633 19.1753 28.9262 18.898 29.0082 18.7344ZM29.2122 20.2752C29.2121 20.2749 29.2142 20.2738 29.2185 20.2731C29.2145 20.2753 29.2123 20.2756 29.2122 20.2752Z" fill="white" stroke="#338FBF"/>
<path d="M27.2947 23.152L27.254 23.1452H27.2127C26.6142 23.1452 26.2996 22.7904 26.2748 22.4026C26.3813 22.0091 26.7997 21.7459 27.2588 21.8375L27.3073 21.8472H27.3567C27.9809 21.8472 28.2962 22.2331 28.2962 22.6398C28.2962 22.7169 28.2397 22.8663 28.0455 22.9995C27.862 23.1254 27.5964 23.2022 27.2947 23.152Z" fill="white" stroke="#338FBF"/>
<mask id="path-26-inside-1" fill="white">
<path d="M27.9331 19.1928C27.9331 19.1928 28.365 17.6129 28.9408 17.4692C29.5166 17.3256 30.5242 18.4746 30.5242 18.4746L31.5319 17.7565L30.5242 18.1874C30.5242 18.1874 29.6605 16.8947 28.7968 17.182C27.9331 17.4692 27.9331 19.1928 27.9331 19.1928Z"/>
</mask>
<path d="M27.9331 19.1928C27.9331 19.1928 28.365 17.6129 28.9408 17.4692C29.5166 17.3256 30.5242 18.4746 30.5242 18.4746L31.5319 17.7565L30.5242 18.1874C30.5242 18.1874 29.6605 16.8947 28.7968 17.182C27.9331 17.4692 27.9331 19.1928 27.9331 19.1928Z" fill="white"/>
<path d="M27.9331 19.1928L26.9331 19.1928L28.8977 19.4565L27.9331 19.1928ZM30.5242 18.4746L29.7724 19.134L30.3684 19.8137L31.1046 19.289L30.5242 18.4746ZM31.5319 17.7565L32.1123 18.5709L31.1388 16.837L31.5319 17.7565ZM30.5242 18.1874L29.6928 18.7429L30.154 19.4333L30.9174 19.1069L30.5242 18.1874ZM27.9331 19.1928C28.8977 19.4565 28.8977 19.4566 28.8976 19.4567C28.8976 19.4568 28.8976 19.4569 28.8976 19.457C28.8975 19.4571 28.8975 19.4573 28.8975 19.4574C28.8974 19.4576 28.8974 19.4577 28.8974 19.4577C28.8974 19.4578 28.8974 19.4575 28.8976 19.4568C28.898 19.4555 28.8988 19.4528 28.8999 19.4488C28.9022 19.4407 28.906 19.4275 28.9113 19.4097C28.9219 19.3742 28.9381 19.3211 28.9595 19.2563C29.0028 19.1246 29.064 18.9536 29.1378 18.7844C29.2146 18.6081 29.2894 18.4701 29.3513 18.3843C29.4395 18.2621 29.3965 18.3862 29.1828 18.4395L28.6987 16.499C28.1972 16.6241 27.8842 16.9996 27.7295 17.214C27.5485 17.4648 27.4074 17.7487 27.3043 17.9854C27.1981 18.2291 27.1153 18.4621 27.0597 18.6311C27.0316 18.7166 27.0096 18.7881 26.9943 18.8395C26.9866 18.8653 26.9806 18.8861 26.9763 18.9013C26.9741 18.9088 26.9724 18.915 26.9711 18.9197C26.9704 18.922 26.9699 18.924 26.9695 18.9256C26.9693 18.9264 26.9691 18.927 26.9689 18.9276C26.9688 18.9279 26.9687 18.9282 26.9687 18.9285C26.9686 18.9286 26.9686 18.9287 26.9686 18.9288C26.9685 18.929 26.9685 18.9291 27.9331 19.1928ZM29.1828 18.4395C28.9751 18.4913 28.8759 18.4063 28.9847 18.4606C29.0624 18.4993 29.1751 18.5756 29.3091 18.687C29.4371 18.7934 29.5555 18.9075 29.6439 18.9976C29.6873 19.0419 29.7217 19.0785 29.7443 19.103C29.7555 19.1152 29.7637 19.1243 29.7685 19.1297C29.771 19.1324 29.7725 19.1341 29.7732 19.1349C29.7735 19.1352 29.7736 19.1354 29.7735 19.1352C29.7734 19.1351 29.7733 19.135 29.7731 19.1348C29.773 19.1347 29.7729 19.1346 29.7728 19.1344C29.7727 19.1344 29.7726 19.1343 29.7726 19.1342C29.7725 19.1341 29.7724 19.134 30.5242 18.4746C31.2761 17.8153 31.276 17.8152 31.2759 17.815C31.2758 17.815 31.2757 17.8148 31.2756 17.8147C31.2754 17.8145 31.2752 17.8143 31.275 17.8141C31.2746 17.8136 31.2741 17.813 31.2736 17.8124C31.2725 17.8112 31.2711 17.8096 31.2695 17.8078C31.2663 17.8043 31.2622 17.7996 31.257 17.7939C31.2468 17.7825 31.2328 17.767 31.2154 17.7481C31.1806 17.7103 31.1317 17.6583 31.0717 17.5971C30.9532 17.4763 30.7837 17.3121 30.5878 17.1492C30.3979 16.9913 30.1507 16.8072 29.8775 16.6709C29.6355 16.5502 29.1943 16.3754 28.6987 16.499L29.1828 18.4395ZM31.1046 19.289L32.1123 18.5709L30.9516 16.9421L29.9439 17.6603L31.1046 19.289ZM31.1388 16.837L30.1311 17.2679L30.9174 19.1069L31.9251 18.676L31.1388 16.837ZM30.5242 18.1874C31.3557 17.6318 31.3556 17.6316 31.3554 17.6314C31.3553 17.6313 31.3552 17.631 31.3551 17.6308C31.3548 17.6305 31.3546 17.6301 31.3543 17.6297C31.3538 17.629 31.3532 17.6281 31.3526 17.6272C31.3513 17.6253 31.3498 17.6231 31.3481 17.6206C31.3447 17.6156 31.3404 17.6093 31.3353 17.6019C31.325 17.5871 31.3112 17.5676 31.2941 17.5441C31.2601 17.4974 31.2125 17.4342 31.153 17.3607C31.0362 17.2164 30.8633 17.0198 30.648 16.8288C30.2917 16.5128 29.47 15.9042 28.4812 16.2331L29.1124 18.1309C29.0482 18.1522 29.0151 18.1285 29.0604 18.1467C29.1166 18.1691 29.2072 18.2243 29.3209 18.3251C29.4294 18.4214 29.5265 18.53 29.5985 18.6191C29.6335 18.6623 29.6602 18.6978 29.6768 18.7207C29.685 18.732 29.6906 18.74 29.6934 18.744C29.6948 18.746 29.6954 18.7469 29.6953 18.7468C29.6953 18.7467 29.6951 18.7464 29.6946 18.7457C29.6944 18.7454 29.6942 18.745 29.6939 18.7446C29.6937 18.7443 29.6935 18.7441 29.6933 18.7438C29.6933 18.7437 29.6931 18.7435 29.6931 18.7434C29.6929 18.7432 29.6928 18.7429 30.5242 18.1874ZM28.4812 16.2331C27.9656 16.4046 27.6382 16.7733 27.4405 17.102C27.2445 17.428 27.1334 17.7819 27.0668 18.0698C26.9985 18.365 26.9659 18.6406 26.9499 18.838C26.9417 18.9382 26.9376 19.022 26.9354 19.0828C26.9343 19.1133 26.9338 19.1382 26.9335 19.1568C26.9333 19.166 26.9332 19.1737 26.9332 19.1798C26.9331 19.1828 26.9331 19.1854 26.9331 19.1876C26.9331 19.1887 26.9331 19.1896 26.9331 19.1905C26.9331 19.1909 26.9331 19.1914 26.9331 19.1917C26.9331 19.1919 26.9331 19.1922 26.9331 19.1923C26.9331 19.1925 26.9331 19.1928 27.9331 19.1928C28.9331 19.1928 28.9331 19.193 28.9331 19.1933C28.9331 19.1933 28.9331 19.1936 28.9331 19.1937C28.9331 19.194 28.9331 19.1942 28.9331 19.1944C28.9331 19.1949 28.9331 19.1953 28.9331 19.1955C28.9331 19.196 28.9331 19.1962 28.9331 19.1959C28.9331 19.1954 28.9331 19.1934 28.9332 19.19C28.9333 19.1831 28.9336 19.1707 28.9342 19.1535C28.9354 19.1189 28.938 19.0658 28.9433 19C28.9543 18.8653 28.9757 18.692 29.0153 18.5204C29.0567 18.3415 29.1076 18.2107 29.1545 18.1327C29.1997 18.0575 29.1962 18.103 29.1124 18.1309L28.4812 16.2331Z" fill="#338FBF" mask="url(#path-26-inside-1)"/>
<path d="M35.4884 18.3308V18.2691L35.4734 18.2093C35.44 18.0756 35.4704 17.8849 35.5663 17.7175C35.6119 17.6378 35.6611 17.5842 35.6986 17.5553C35.7068 17.5489 35.7134 17.5445 35.7184 17.5415C35.7437 17.5505 35.8098 17.5829 35.8912 17.7002C35.9922 17.8458 36.0719 18.0685 36.0719 18.3308C36.0719 18.6311 36.0105 18.8671 35.934 19.009C35.8933 19.0843 35.8624 19.1123 35.8474 19.1219C35.8278 19.116 35.7574 19.0886 35.6692 18.9614C35.5681 18.8158 35.4884 18.5931 35.4884 18.3308ZM35.8374 19.1262C35.8373 19.1258 35.8393 19.1247 35.8437 19.124C35.8396 19.1262 35.8374 19.1265 35.8374 19.1262Z" fill="white" stroke="#338FBF"/>
<mask id="path-29-inside-2" fill="white">
<path d="M34.5532 18.1871C34.5532 18.1871 34.9851 16.6071 35.5609 16.4635C36.1367 16.3199 37.1443 17.4689 37.1443 17.4689L38.152 16.7508L37.1443 17.1817C37.1443 17.1817 36.2806 15.889 35.4169 16.1763C34.5532 16.4635 34.5532 18.1871 34.5532 18.1871Z"/>
</mask>
<path d="M34.5532 18.1871C34.5532 18.1871 34.9851 16.6071 35.5609 16.4635C36.1367 16.3199 37.1443 17.4689 37.1443 17.4689L38.152 16.7508L37.1443 17.1817C37.1443 17.1817 36.2806 15.889 35.4169 16.1763C34.5532 16.4635 34.5532 18.1871 34.5532 18.1871Z" fill="white"/>
<path d="M34.5532 18.1871L33.5532 18.1871L35.5178 18.4507L34.5532 18.1871ZM37.1443 17.4689L36.3925 18.1283L36.9885 18.8079L37.7247 18.2833L37.1443 17.4689ZM38.152 16.7508L38.7324 17.5651L37.7588 15.8313L38.152 16.7508ZM37.1443 17.1817L36.3129 17.7372L36.7741 18.4276L37.5375 18.1011L37.1443 17.1817ZM34.5532 18.1871C35.5178 18.4507 35.5178 18.4509 35.5178 18.451C35.5177 18.451 35.5177 18.4512 35.5177 18.4513C35.5177 18.4514 35.5176 18.4515 35.5176 18.4516C35.5175 18.4519 35.5175 18.452 35.5175 18.452C35.5175 18.4521 35.5176 18.4517 35.5177 18.4511C35.5181 18.4498 35.5189 18.4471 35.52 18.443C35.5223 18.435 35.5261 18.4217 35.5314 18.404C35.542 18.3684 35.5582 18.3154 35.5796 18.2506C35.6229 18.1189 35.6841 17.9479 35.7579 17.7786C35.8347 17.6023 35.9095 17.4644 35.9714 17.3786C36.0596 17.2564 36.0166 17.3805 35.8029 17.4338L35.3189 15.4932C34.8173 15.6184 34.5043 15.9938 34.3496 16.2082C34.1686 16.4591 34.0275 16.743 33.9244 16.9797C33.8182 17.2234 33.7354 17.4563 33.6798 17.6254C33.6517 17.7109 33.6297 17.7824 33.6144 17.8338C33.6067 17.8595 33.6007 17.8804 33.5964 17.8955C33.5943 17.9031 33.5925 17.9093 33.5912 17.914C33.5906 17.9163 33.59 17.9183 33.5896 17.9198C33.5894 17.9206 33.5892 17.9213 33.589 17.9219C33.5889 17.9222 33.5889 17.9225 33.5888 17.9227C33.5888 17.9229 33.5887 17.923 33.5887 17.9231C33.5887 17.9232 33.5886 17.9234 34.5532 18.1871ZM35.8029 17.4338C35.5952 17.4856 35.496 17.4005 35.6048 17.4548C35.6825 17.4936 35.7952 17.5699 35.9292 17.6813C36.0572 17.7877 36.1756 17.9018 36.264 17.9919C36.3074 18.0362 36.3418 18.0728 36.3644 18.0973C36.3756 18.1095 36.3838 18.1186 36.3886 18.1239C36.391 18.1266 36.3926 18.1284 36.3933 18.1291C36.3936 18.1295 36.3937 18.1296 36.3936 18.1295C36.3935 18.1294 36.3934 18.1293 36.3932 18.1291C36.3931 18.129 36.393 18.1289 36.3929 18.1287C36.3928 18.1286 36.3927 18.1285 36.3927 18.1285C36.3926 18.1284 36.3925 18.1283 37.1443 17.4689C37.8962 16.8096 37.8961 16.8094 37.896 16.8093C37.8959 16.8093 37.8958 16.8091 37.8957 16.809C37.8955 16.8088 37.8953 16.8086 37.8951 16.8083C37.8947 16.8079 37.8942 16.8073 37.8937 16.8067C37.8926 16.8054 37.8912 16.8039 37.8896 16.8021C37.8864 16.7985 37.8823 16.7938 37.8771 16.7882C37.8669 16.7768 37.8529 16.7613 37.8355 16.7424C37.8007 16.7046 37.7518 16.6526 37.6918 16.5914C37.5733 16.4705 37.4038 16.3064 37.2079 16.1434C37.018 15.9855 36.7708 15.8015 36.4976 15.6652C36.2556 15.5444 35.8144 15.3696 35.3189 15.4932L35.8029 17.4338ZM37.7247 18.2833L38.7324 17.5651L37.5716 15.9364L36.564 16.6546L37.7247 18.2833ZM37.7588 15.8313L36.7512 16.2622L37.5375 18.1011L38.5452 17.6702L37.7588 15.8313ZM37.1443 17.1817C37.9758 16.6261 37.9757 16.6259 37.9755 16.6256C37.9754 16.6255 37.9753 16.6253 37.9752 16.6251C37.9749 16.6248 37.9747 16.6244 37.9744 16.624C37.9739 16.6232 37.9733 16.6224 37.9727 16.6214C37.9714 16.6196 37.9699 16.6174 37.9682 16.6149C37.9648 16.6099 37.9605 16.6036 37.9554 16.5962C37.9451 16.5814 37.9313 16.5619 37.9142 16.5384C37.8802 16.4917 37.8326 16.4285 37.7732 16.355C37.6563 16.2106 37.4834 16.0141 37.2681 15.8231C36.9118 15.5071 36.0901 14.8985 35.1013 15.2274L35.7325 17.1252C35.6683 17.1465 35.6352 17.1228 35.6805 17.1409C35.7367 17.1634 35.8273 17.2186 35.941 17.3194C36.0495 17.4156 36.1466 17.5243 36.2186 17.6134C36.2536 17.6566 36.2803 17.6921 36.2969 17.7149C36.3051 17.7263 36.3107 17.7343 36.3135 17.7382C36.3149 17.7402 36.3155 17.7412 36.3154 17.7411C36.3154 17.741 36.3152 17.7406 36.3147 17.74C36.3145 17.7397 36.3143 17.7393 36.314 17.7388C36.3138 17.7386 36.3136 17.7384 36.3134 17.7381C36.3134 17.7379 36.3132 17.7377 36.3132 17.7377C36.313 17.7374 36.3129 17.7372 37.1443 17.1817ZM35.1013 15.2274C34.5857 15.3989 34.2583 15.7675 34.0606 16.0963C33.8646 16.4223 33.7535 16.7762 33.6869 17.064C33.6186 17.3593 33.586 17.6349 33.57 17.8323C33.5619 17.9325 33.5577 18.0163 33.5555 18.0771C33.5545 18.1076 33.5539 18.1325 33.5536 18.151C33.5534 18.1603 33.5533 18.168 33.5533 18.1741C33.5533 18.1771 33.5532 18.1797 33.5532 18.1818C33.5532 18.1829 33.5532 18.1839 33.5532 18.1848C33.5532 18.1852 33.5532 18.1856 33.5532 18.186C33.5532 18.1862 33.5532 18.1865 33.5532 18.1866C33.5532 18.1868 33.5532 18.1871 34.5532 18.1871C35.5532 18.1871 35.5532 18.1873 35.5532 18.1875C35.5532 18.1876 35.5532 18.1878 35.5532 18.188C35.5532 18.1882 35.5532 18.1885 35.5532 18.1887C35.5532 18.1892 35.5532 18.1895 35.5532 18.1898C35.5532 18.1903 35.5532 18.1904 35.5532 18.1902C35.5532 18.1897 35.5532 18.1877 35.5533 18.1842C35.5534 18.1774 35.5537 18.165 35.5543 18.1478C35.5555 18.1132 35.5581 18.0601 35.5634 17.9943C35.5744 17.8595 35.5958 17.6863 35.6355 17.5147C35.6768 17.3358 35.7277 17.2049 35.7746 17.127C35.8198 17.0518 35.8163 17.0973 35.7325 17.1252L35.1013 15.2274Z" fill="#338FBF" mask="url(#path-29-inside-2)"/>
<mask id="path-31-inside-3" fill="white">
<path d="M27.0682 15.4573C27.2122 15.4573 27.2122 15.4573 27.3561 15.3136C28.0759 14.3082 29.2275 14.4519 29.2275 14.4519C29.3715 14.4519 29.5154 14.3082 29.6594 14.1646C29.6594 14.021 29.5154 13.8774 29.3715 13.7337C29.3715 13.7337 27.644 13.5901 26.7803 14.8828C26.6364 15.0264 26.7803 15.17 26.9243 15.3136C26.9243 15.4573 26.9243 15.4573 27.0682 15.4573Z"/>
</mask>
<path d="M27.0682 15.4573C27.2122 15.4573 27.2122 15.4573 27.3561 15.3136C28.0759 14.3082 29.2275 14.4519 29.2275 14.4519C29.3715 14.4519 29.5154 14.3082 29.6594 14.1646C29.6594 14.021 29.5154 13.8774 29.3715 13.7337C29.3715 13.7337 27.644 13.5901 26.7803 14.8828C26.6364 15.0264 26.7803 15.17 26.9243 15.3136C26.9243 15.4573 26.9243 15.4573 27.0682 15.4573Z" fill="white"/>
<path d="M27.3561 15.3136L28.0625 16.0215L28.1211 15.9631L28.1693 15.8957L27.3561 15.3136ZM29.2275 14.4519L29.1038 15.4442L29.1654 15.4519H29.2275V14.4519ZM29.6594 14.1646L30.3657 14.8725L30.6594 14.5795V14.1646H29.6594ZM29.3715 13.7337L30.0778 13.0258L29.8189 12.7675L29.4544 12.7372L29.3715 13.7337ZM26.7803 14.8828L27.4866 15.5907L27.5568 15.5207L27.6118 15.4383L26.7803 14.8828ZM26.9243 15.3136H27.9243V14.8988L27.6306 14.6057L26.9243 15.3136ZM27.0682 16.4573C27.0857 16.4573 27.1698 16.4584 27.253 16.4501C27.3635 16.4391 27.5059 16.4103 27.6586 16.3342C27.7942 16.2665 27.89 16.1846 27.9388 16.1407C27.9855 16.0988 28.034 16.0499 28.0625 16.0215L26.6498 14.6057C26.6063 14.6492 26.6009 14.6541 26.6026 14.6526C26.6064 14.6492 26.6661 14.5942 26.7658 14.5445C26.8825 14.4863 26.9889 14.4665 27.0544 14.46C27.0682 14.4586 27.079 14.4579 27.0855 14.4576C27.092 14.4573 27.096 14.4572 27.0961 14.4572C27.0962 14.4572 27.0943 14.4572 27.0892 14.4572C27.0839 14.4573 27.0777 14.4573 27.0682 14.4573V16.4573ZM28.1693 15.8957C28.3554 15.6357 28.5876 15.5274 28.7929 15.4787C28.8986 15.4535 28.992 15.4461 29.0552 15.445C29.0861 15.4444 29.1076 15.4453 29.1171 15.4459C29.1217 15.4462 29.1232 15.4463 29.1212 15.4461C29.1201 15.446 29.1182 15.4459 29.1153 15.4455C29.1139 15.4454 29.1122 15.4452 29.1103 15.445C29.1093 15.4449 29.1083 15.4447 29.1072 15.4446C29.1067 15.4445 29.1061 15.4445 29.1055 15.4444C29.1053 15.4444 29.1048 15.4443 29.1047 15.4443C29.1042 15.4442 29.1038 15.4442 29.2275 14.4519C29.3513 13.4596 29.3508 13.4595 29.3504 13.4594C29.3502 13.4594 29.3497 13.4594 29.3494 13.4593C29.3488 13.4592 29.3481 13.4592 29.3474 13.4591C29.3461 13.4589 29.3446 13.4587 29.3431 13.4586C29.3401 13.4582 29.3367 13.4578 29.3331 13.4574C29.3258 13.4566 29.3173 13.4558 29.3077 13.4549C29.2884 13.4531 29.2645 13.4511 29.2362 13.4494C29.1799 13.4461 29.1058 13.4436 29.0175 13.4453C28.8423 13.4486 28.6028 13.4681 28.3306 13.5328C27.7802 13.6636 27.0766 13.9862 26.543 14.7315L28.1693 15.8957ZM29.2275 15.4519C29.6251 15.4519 29.913 15.2597 30.0426 15.1627C30.1826 15.058 30.3068 14.9313 30.3657 14.8725L28.9531 13.4567C28.9149 13.4948 28.8905 13.519 28.8683 13.5398C28.8465 13.5601 28.84 13.5647 28.8443 13.5614C28.8476 13.559 28.8791 13.5353 28.9354 13.5107C28.994 13.4851 29.0951 13.4519 29.2275 13.4519V15.4519ZM30.6594 14.1646C30.6594 13.7658 30.4658 13.4774 30.3688 13.3483C30.2637 13.2086 30.1367 13.0846 30.0778 13.0258L28.6652 14.4416C28.7033 14.4797 28.7277 14.5041 28.7484 14.5262C28.7689 14.5479 28.7734 14.5544 28.7701 14.55C28.7676 14.5467 28.7437 14.5151 28.7188 14.4585C28.693 14.3996 28.6594 14.2979 28.6594 14.1646H30.6594ZM29.3715 13.7337C29.4544 12.7372 29.454 12.7371 29.4536 12.7371C29.4534 12.7371 29.453 12.7371 29.4527 12.737C29.4522 12.737 29.4516 12.7369 29.451 12.7369C29.4497 12.7368 29.4484 12.7367 29.4469 12.7366C29.444 12.7363 29.4406 12.7361 29.4368 12.7358C29.4293 12.7353 29.42 12.7347 29.409 12.7341C29.3872 12.7328 29.3587 12.7315 29.3242 12.7305C29.2555 12.7285 29.1621 12.7279 29.0497 12.7322C28.8268 12.7408 28.5186 12.7691 28.1731 12.8495C27.491 13.0083 26.5722 13.3943 25.9489 14.3272L27.6118 15.4383C27.8522 15.0785 28.2289 14.89 28.6265 14.7974C28.8208 14.7522 28.9985 14.7357 29.1264 14.7307C29.1895 14.7283 29.2378 14.7288 29.2669 14.7297C29.2814 14.7301 29.2909 14.7306 29.2947 14.7308C29.2967 14.7309 29.2972 14.7309 29.2962 14.7309C29.2957 14.7308 29.2948 14.7308 29.2936 14.7307C29.2929 14.7306 29.2922 14.7306 29.2914 14.7305C29.291 14.7305 29.2905 14.7304 29.2901 14.7304C29.2899 14.7304 29.2895 14.7304 29.2894 14.7303C29.289 14.7303 29.2886 14.7303 29.3715 13.7337ZM26.074 14.1749C25.9157 14.3328 25.7674 14.5645 25.7296 14.8662C25.6932 15.157 25.7745 15.3949 25.8503 15.5462C25.9749 15.7949 26.1862 15.9899 26.218 16.0215L27.6306 14.6057C27.5896 14.5648 27.5782 14.5529 27.5727 14.5466C27.5655 14.5384 27.6013 14.5762 27.6384 14.6502C27.6782 14.7297 27.7415 14.8958 27.7141 15.1148C27.6853 15.3446 27.573 15.5045 27.4866 15.5907L26.074 14.1749ZM25.9243 15.3136C25.9243 15.3251 25.9228 15.4186 25.9327 15.5073C25.9418 15.5889 25.9786 15.8905 26.236 16.1472C26.4928 16.4035 26.7939 16.44 26.8748 16.4489C26.9633 16.4587 27.0566 16.4573 27.0682 16.4573V14.4573C27.0079 14.4573 27.0472 14.4558 27.0952 14.4611C27.1356 14.4656 27.4097 14.4931 27.6486 14.7314C27.8879 14.9702 27.9158 15.2448 27.9204 15.286C27.9258 15.3344 27.9243 15.374 27.9243 15.3136H25.9243Z" fill="#338FBF" mask="url(#path-31-inside-3)"/>
<mask id="path-33-inside-4" fill="white">
<path d="M34.2686 13.8783C34.2686 13.8783 34.4126 13.8783 34.4126 13.7347C35.2763 13.0165 36.4279 13.4474 36.5719 13.4474C36.7158 13.5911 36.8597 13.4474 37.0037 13.3038C37.1477 13.1602 37.0037 13.0165 36.8598 12.8729C36.8598 12.8729 35.2763 12.1548 34.1247 13.3038C33.9807 13.4474 33.9807 13.5911 33.9807 13.7347C34.1247 13.8783 34.2686 13.8783 34.2686 13.8783Z"/>
</mask>
<path d="M34.2686 13.8783C34.2686 13.8783 34.4126 13.8783 34.4126 13.7347C35.2763 13.0165 36.4279 13.4474 36.5719 13.4474C36.7158 13.5911 36.8597 13.4474 37.0037 13.3038C37.1477 13.1602 37.0037 13.0165 36.8598 12.8729C36.8598 12.8729 35.2763 12.1548 34.1247 13.3038C33.9807 13.4474 33.9807 13.5911 33.9807 13.7347C34.1247 13.8783 34.2686 13.8783 34.2686 13.8783Z" fill="white"/>
<path d="M34.2686 13.8783L34.2686 14.8783H34.2686L34.2686 13.8783ZM34.4126 13.7347L33.7732 12.9658L33.4126 13.2656V13.7347H34.4126ZM36.5719 13.4474L37.2782 12.7395L36.9854 12.4474H36.5719V13.4474ZM36.8598 12.8729L37.5661 12.165L37.4378 12.037L37.2728 11.9622L36.8598 12.8729ZM33.9807 13.7347H32.9807V14.1496L33.2744 14.4426L33.9807 13.7347ZM34.2686 13.8783C34.2686 14.8783 34.2691 14.8783 34.2696 14.8783C34.2698 14.8783 34.2702 14.8783 34.2706 14.8783C34.2712 14.8783 34.2719 14.8783 34.2726 14.8783C34.2739 14.8783 34.2753 14.8783 34.2766 14.8783C34.2794 14.8783 34.2822 14.8782 34.2851 14.8782C34.2909 14.8781 34.297 14.8779 34.3035 14.8777C34.3163 14.8773 34.3305 14.8766 34.3459 14.8755C34.3763 14.8733 34.4134 14.8695 34.4551 14.8625C34.534 14.8494 34.6544 14.8213 34.787 14.7552C34.9234 14.6871 35.0906 14.5692 35.2215 14.3733C35.3567 14.171 35.4126 13.946 35.4126 13.7347H33.4126C33.4126 13.5951 33.4504 13.424 33.5586 13.2621C33.6625 13.1066 33.7937 13.0156 33.8942 12.9655C33.9908 12.9173 34.0752 12.8982 34.1271 12.8896C34.1554 12.8849 34.1811 12.8822 34.2037 12.8806C34.2152 12.8797 34.2263 12.8792 34.237 12.8788C34.2424 12.8787 34.2477 12.8785 34.2529 12.8784C34.2556 12.8784 34.2582 12.8784 34.2608 12.8783C34.2621 12.8783 34.2634 12.8783 34.2647 12.8783C34.2654 12.8783 34.266 12.8783 34.2667 12.8783C34.267 12.8783 34.2675 12.8783 34.2676 12.8783C34.2681 12.8783 34.2686 12.8783 34.2686 13.8783ZM35.0519 14.5036C35.2234 14.361 35.4454 14.3089 35.7188 14.3208C35.8526 14.3266 35.98 14.3474 36.0935 14.3708C36.1551 14.3835 36.1968 14.3934 36.2573 14.4067C36.2823 14.4123 36.3189 14.4202 36.3562 14.4269C36.3783 14.4309 36.4668 14.4474 36.5719 14.4474V12.4474C36.6899 12.4474 36.7847 12.475 36.689 12.4539C36.6556 12.4465 36.577 12.4284 36.4969 12.4119C36.327 12.3769 36.0855 12.3348 35.8055 12.3227C35.2511 12.2986 34.4654 12.3902 33.7732 12.9658L35.0519 14.5036ZM35.8655 14.1553C36.024 14.3134 36.2555 14.4606 36.5561 14.4981C36.8458 14.5342 37.0829 14.4536 37.2342 14.3782C37.4829 14.2541 37.6781 14.0435 37.71 14.0117L36.2974 12.5959C36.2564 12.6368 36.2444 12.6482 36.2381 12.6537C36.2299 12.6609 36.2676 12.6253 36.3414 12.5885C36.4206 12.549 36.5859 12.4863 36.8036 12.5135C37.0322 12.542 37.1917 12.6532 37.2782 12.7395L35.8655 14.1553ZM37.71 14.0117C37.8684 13.8537 38.0166 13.622 38.0544 13.3204C38.0909 13.0296 38.0096 12.7917 37.9337 12.6403C37.8091 12.3916 37.5978 12.1967 37.5661 12.165L36.1534 13.5808C36.1945 13.6217 36.2058 13.6336 36.2114 13.64C36.2186 13.6482 36.1827 13.6103 36.1457 13.5364C36.1058 13.4568 36.0425 13.2907 36.0699 13.0718C36.0987 12.8419 36.211 12.6821 36.2974 12.5959L37.71 14.0117ZM36.8598 12.8729C37.2728 11.9622 37.2724 11.962 37.272 11.9618C37.2718 11.9618 37.2714 11.9616 37.2712 11.9614C37.2706 11.9612 37.27 11.9609 37.2694 11.9606C37.2681 11.9601 37.2668 11.9595 37.2653 11.9588C37.2624 11.9575 37.2591 11.9561 37.2554 11.9545C37.2479 11.9512 37.2389 11.9473 37.2283 11.9429C37.2071 11.934 37.1795 11.9228 37.1462 11.9101C37.0797 11.8847 36.9891 11.8527 36.8787 11.8199C36.6602 11.7551 36.3516 11.6837 35.9904 11.6597C35.2635 11.6113 34.2597 11.7565 33.4183 12.5959L34.831 14.0117C35.1413 13.7021 35.505 13.6318 35.8577 13.6553C36.0363 13.6671 36.1956 13.7034 36.31 13.7374C36.366 13.754 36.4081 13.7691 36.4327 13.7785C36.4449 13.7832 36.4526 13.7863 36.4551 13.7874C36.4564 13.7879 36.4563 13.7879 36.455 13.7873C36.4543 13.787 36.4533 13.7866 36.4519 13.7859C36.4512 13.7856 36.4504 13.7853 36.4496 13.7849C36.4491 13.7847 36.4487 13.7845 36.4482 13.7843C36.448 13.7842 36.4476 13.784 36.4475 13.784C36.4471 13.7838 36.4467 13.7836 36.8598 12.8729ZM33.4183 12.5959C32.9628 13.0504 32.9807 13.5759 32.9807 13.7347H34.9807C34.9807 13.6936 34.981 13.689 34.981 13.6895C34.9807 13.6943 34.9788 13.7222 34.9687 13.7623C34.9581 13.8047 34.9403 13.8534 34.9125 13.9026C34.885 13.9514 34.8551 13.9876 34.831 14.0117L33.4183 12.5959ZM33.2744 14.4426C33.4686 14.6364 33.6796 14.7482 33.863 14.8093C33.9531 14.8392 34.0346 14.8563 34.1028 14.8661C34.1369 14.8709 34.1681 14.874 34.1958 14.8758C34.2096 14.8767 34.2226 14.8774 34.2348 14.8778C34.2409 14.878 34.2467 14.8781 34.2524 14.8782C34.2552 14.8782 34.2579 14.8783 34.2606 14.8783C34.262 14.8783 34.2633 14.8783 34.2647 14.8783C34.2653 14.8783 34.266 14.8783 34.2666 14.8783C34.267 14.8783 34.2675 14.8783 34.2676 14.8783C34.2681 14.8783 34.2686 14.8783 34.2686 13.8783C34.2686 12.8783 34.2691 12.8783 34.2696 12.8783C34.2698 12.8783 34.2702 12.8783 34.2706 12.8783C34.2712 12.8783 34.2719 12.8783 34.2725 12.8783C34.2738 12.8783 34.2751 12.8783 34.2764 12.8783C34.2789 12.8784 34.2815 12.8784 34.284 12.8784C34.2891 12.8785 34.2942 12.8786 34.2991 12.8788C34.3091 12.8791 34.3189 12.8796 34.3285 12.8802C34.3478 12.8815 34.3666 12.8834 34.385 12.8861C34.4217 12.8913 34.4582 12.8995 34.4942 12.9115C34.5697 12.9366 34.6367 12.9766 34.687 13.0268L33.2744 14.4426Z" fill="#338FBF" mask="url(#path-33-inside-4)"/>
<path d="M35.315 22.8896C35.2442 22.7289 35.1684 22.5404 35.1007 22.3378C35.0004 22.0376 34.9229 21.7209 34.9001 21.4255C34.8878 21.2658 34.8923 21.1227 34.9127 20.9971C34.9314 20.9981 34.9506 20.9991 34.9703 21.0003C35.2248 21.0154 35.5535 21.0451 35.8677 21.1029C36.1947 21.163 36.4522 21.2442 36.6 21.3353C36.6277 21.3524 36.646 21.3665 36.6578 21.3768C36.6083 21.5309 36.4959 21.7215 36.3213 21.9363C36.1421 22.1568 35.9209 22.3745 35.6992 22.5702C35.5648 22.6888 35.4332 22.7968 35.315 22.8896Z" fill="white" stroke="#338FBF"/>
<path d="M21.955 15.264C21.1747 16.9325 20.4008 19.1789 20.2549 21.7281C20.0351 21.5424 19.7809 21.3542 19.5046 21.1984C19.0419 20.9375 18.4533 20.7317 17.8374 20.862C17.1981 20.9973 16.6612 21.4648 16.2568 22.2717C15.8089 23.1656 15.9308 24.1174 16.287 24.9763C16.6418 25.8318 17.2501 26.6525 17.8791 27.3539C18.5119 28.0596 19.1878 28.6688 19.7027 29.1C19.9609 29.3162 20.1802 29.489 20.3358 29.6083C20.3492 29.6186 20.3622 29.6285 20.3747 29.6381C20.3744 29.6533 20.374 29.6691 20.3736 29.6856C20.3686 29.8772 20.3587 30.1519 20.3389 30.482C20.2991 31.1439 20.2197 32.0204 20.0625 32.8919C19.9038 33.7716 19.6723 34.6077 19.3456 35.2113C19.0144 35.8233 18.6605 36.0714 18.2873 36.0714H18.2727L18.258 36.0723C18.17 36.0774 17.9358 36.0077 17.5408 35.6478C17.1717 35.3115 16.7482 34.8009 16.2942 34.1439C15.3888 32.8338 14.4095 31.0106 13.5454 29.0285C12.6818 27.0476 11.9419 24.9277 11.5074 23.0283C11.0685 21.1099 10.9621 19.5029 11.2762 18.4887C12.0439 16.3353 13.4595 14.1549 15.5397 12.9062C17.4862 11.7378 20.08 11.3454 23.419 12.6615C23.355 12.7564 23.2843 12.8634 23.2083 12.982C22.8635 13.5201 22.4068 14.298 21.955 15.264Z" fill="white" stroke="#338FBF"/>
<path d="M30.9683 34.9843C30.7906 35.4402 30.5867 36.0313 30.4348 36.6713C30.2663 37.3811 30.1551 38.1778 30.2303 38.9283C30.2979 39.6026 30.5205 40.2731 31.019 40.7942C31.0178 40.8048 31.0166 40.8158 31.0153 40.8271C30.9968 40.9867 30.9594 41.2117 30.8846 41.4665C30.734 41.9795 30.4404 42.5849 29.8716 43.0389C28.7844 43.9067 26.3993 44.4215 21.2073 41.8493L19.8799 28.3405C19.963 28.3538 20.046 28.3594 20.1287 28.3569C20.4706 28.3465 20.7382 28.2012 20.933 28.0292C21.6861 29.6088 23.0277 31.4364 24.6995 32.8265C26.453 34.2844 28.6519 35.3239 30.9683 34.9843Z" fill="white" stroke="#338FBF"/>
<mask id="path-38-inside-5" fill="white">
<path d="M34.5535 26.9482C34.5535 26.9482 33.463 27.5 29.9991 27.5C29.7437 27.5 33.9777 29.1026 34.5535 26.9482Z"/>
</mask>
<path d="M34.5535 26.9482C34.5535 26.9482 33.463 27.5 29.9991 27.5C29.7437 27.5 33.9777 29.1026 34.5535 26.9482Z" fill="white"/>
<path d="M34.5535 26.9482L35.5196 27.2064L36.0968 25.0466L34.102 26.0559L34.5535 26.9482ZM34.5535 26.9482C34.102 26.0559 34.1026 26.0556 34.1031 26.0553C34.1033 26.0553 34.1038 26.055 34.1042 26.0548C34.1049 26.0544 34.1056 26.0541 34.1063 26.0538C34.1076 26.0531 34.1089 26.0525 34.1101 26.0519C34.1125 26.0507 34.1147 26.0496 34.1166 26.0487C34.1203 26.0469 34.1229 26.0457 34.1243 26.045C34.1272 26.0437 34.1254 26.0446 34.1186 26.0474C34.105 26.0531 34.0713 26.0663 34.0149 26.085C33.902 26.1224 33.6985 26.181 33.3834 26.2426C32.7522 26.366 31.6792 26.5 29.9991 26.5V28.5C31.7829 28.5 32.987 28.358 33.7671 28.2055C34.1576 28.1292 34.4432 28.0499 34.643 27.9838C34.743 27.9507 34.8216 27.9209 34.8811 27.8964C34.9109 27.8841 34.9359 27.8731 34.9564 27.8637C34.9667 27.859 34.9759 27.8547 34.9839 27.8508C34.988 27.8489 34.9917 27.8471 34.9952 27.8453C34.997 27.8445 34.9987 27.8436 35.0003 27.8428C35.0011 27.8424 35.0019 27.842 35.0027 27.8416C35.0031 27.8414 35.0036 27.8411 35.0038 27.8411C35.0044 27.8408 35.0049 27.8405 34.5535 26.9482ZM29.9991 26.5C29.9659 26.5 29.7979 26.498 29.6059 26.578C29.5007 26.6218 29.3109 26.7222 29.1635 26.9374C28.997 27.1803 28.9627 27.4547 29.0041 27.6829C29.0669 28.0289 29.2911 28.2236 29.3077 28.2392C29.3701 28.2977 29.4272 28.3364 29.454 28.354C29.5512 28.4177 29.6555 28.463 29.704 28.4838C29.8363 28.5405 30.0162 28.6058 30.2215 28.6705C30.6343 28.8006 31.2199 28.9501 31.8459 29.0249C32.4547 29.0977 33.1964 29.1121 33.8697 28.8951C34.5924 28.6622 35.2694 28.1423 35.5196 27.2064L33.5874 26.69C33.5496 26.8313 33.4815 26.919 33.2563 26.9915C32.9819 27.0799 32.5731 27.0976 32.0833 27.0391C31.6108 26.9826 31.1497 26.866 30.8226 26.7629C30.6578 26.711 30.5444 26.668 30.4917 26.6454C30.4478 26.6266 30.4867 26.6396 30.5497 26.6809C30.568 26.6928 30.6185 26.7265 30.6763 26.7808C30.6882 26.792 30.9098 26.983 30.972 27.326C31.0132 27.5528 30.9791 27.8258 30.8135 28.0677C30.6668 28.2818 30.4783 28.3812 30.3749 28.4242C30.1866 28.5027 30.0243 28.5 29.9991 28.5V26.5Z" fill="#338FBF" mask="url(#path-38-inside-5)"/>
<path d="M37.7537 6.28026L37.7536 6.28029L37.7581 6.28603C38.1836 6.83194 38.518 7.81546 38.7566 9.07238C38.9912 10.3082 39.12 11.7322 39.1825 13.0932C39.2336 14.2094 39.2398 15.2751 39.2243 16.1477L35.447 7.07904L34.934 5.84736L34.5112 7.11286C33.031 11.5436 30.1258 12.8678 27.3932 14.1133C26.9525 14.3141 26.5163 14.513 26.0913 14.7224C24.5706 15.4719 23.1646 16.3832 22.4211 18.1007C21.6853 19.8006 21.6433 22.1855 22.5527 25.7785L22.5528 25.7787C24.1081 31.9154 22.9566 35.5791 21.0529 37.8482C19.1238 40.1478 16.3406 41.1206 14.4069 41.6925C10.8811 42.6669 8.49393 44.9841 6.99703 47.0308C6.73323 47.3915 6.49638 47.7447 6.28514 48.082C6.41222 47.6312 6.56074 47.1925 6.72403 46.7561C6.95923 46.1276 7.22348 45.5078 7.50061 44.8577L7.55498 44.7302C7.85045 44.0368 8.15753 43.3104 8.4458 42.5251C9.61017 39.3533 10.4446 35.2803 9.27966 28.1609C8.13483 21.0928 8.21372 14.7406 9.44991 10.0008C10.6902 5.24531 13.0496 2.24806 16.3695 1.58556C23.6052 0.141662 32.2044 -1.05609 37.7537 6.28026Z" fill="white" stroke="#338FBF"/>
<path d="M18.07 41.5627L18.0687 41.5451L18.0662 41.5276C18.0154 41.173 18.1126 40.9178 18.2848 40.7099C18.4705 40.4856 18.7592 40.3005 19.0994 40.1551C19.4348 40.0116 19.7855 39.9213 20.0578 39.867C20.1541 39.8478 20.2389 39.8334 20.3078 39.8229C20.3277 39.8381 20.3493 39.8546 20.3725 39.8722C20.522 39.9857 20.7391 40.1474 21.0122 40.3424C21.5582 40.7322 22.3303 41.2564 23.2357 41.7948C24.8549 42.7576 26.9516 43.797 28.9622 44.1578L26.5737 50.1157C26.34 49.9227 26.0378 49.6715 25.6871 49.376C24.8376 48.6604 23.7047 47.6864 22.5685 46.6509C21.4303 45.6136 20.2975 44.5225 19.4435 43.5714C19.0159 43.0952 18.6675 42.6641 18.4245 42.2996C18.1676 41.9142 18.0779 41.674 18.07 41.5627Z" fill="white" stroke="#338FBF"/>
</svg>
