<svg width="302" height="93" viewBox="0 0 302 93" fill="none" xmlns="http://www.w3.org/2000/svg">
<path d="M78.7433 57.1552C80.0347 58.5097 81.5985 59.5768 83.3323 60.2868C85.4427 61.071 87.6821 61.4526 89.9339 61.4116C91.2221 61.4116 92.4269 61.2519 93.4157 61.1686C94.4034 61.0411 95.3746 60.8083 96.3126 60.4743C97.197 60.2312 97.9212 59.8285 98.6454 59.5924C99.2185 59.2666 99.8089 58.9722 100.414 58.7106L99.5159 56.8289C99.0354 57.0719 98.5479 57.308 97.9839 57.5232C97.4591 57.7638 96.9222 57.9771 96.3753 58.162C95.7242 58.3807 95.048 58.516 94.3628 58.5648C93.4838 58.7084 92.5925 58.7619 91.7026 58.7245C90.0976 58.7842 88.5079 58.3945 87.1136 57.5996C85.9393 56.8701 84.9483 55.882 84.2167 54.7111C83.5262 53.3491 83.0562 51.8867 82.824 50.3783C82.5606 48.5708 82.4256 46.747 82.4201 44.9206C82.4201 43.393 82.5802 41.789 82.6638 40.1851C82.7857 38.7309 83.1752 37.3115 83.8128 35.9981C84.3865 34.774 85.2404 33.7014 86.3058 32.8665C87.6547 32.0144 89.2215 31.5684 90.8183 31.5819C92.4292 31.5609 94.0057 32.0468 95.3237 32.9707C96.612 33.8525 97.3362 35.2968 97.6566 37.2271H99.6691V31.0681C99.0284 30.8251 98.3808 30.589 97.6566 30.3738C96.8988 30.1297 96.1165 29.969 95.3237 29.8946C94.4394 29.7349 93.7151 29.7349 92.8307 29.6516C92.1344 29.6516 91.2987 29.4919 90.7417 29.4919C88.3584 29.4534 85.9869 29.8342 83.7362 30.6168C81.9023 31.2928 80.2617 32.4052 78.9571 33.8574C77.6524 35.3095 76.7233 37.0574 76.2503 38.9491C75.6087 41.1661 75.3105 43.4678 75.3659 45.7747C75.3148 47.9763 75.6133 50.1721 76.2503 52.2808C76.669 54.0845 77.525 55.7582 78.7433 57.1552V57.1552Z" fill="#338FBF"/>
<path d="M200.879 60.3705C202.321 60.2239 203.719 59.7869 204.987 59.086C206.262 58.3759 207.277 57.2789 207.884 55.9544C208.709 54.2001 209.096 52.2728 209.012 50.337C209.064 48.8614 208.827 47.3898 208.316 46.0042C207.825 44.8197 207.018 43.7918 205.983 43.0324C204.681 42.2196 203.23 41.6743 201.714 41.4284C199.618 41.041 197.487 40.8803 195.356 40.9493H192.696V33.5543C192.662 33.2803 192.687 33.0019 192.77 32.7383C192.853 32.4747 192.991 32.232 193.177 32.0268C193.817 31.7822 194.509 31.6988 195.189 31.7837H198.971C199.939 31.7473 200.909 31.8007 201.867 31.9434C202.508 31.9812 203.123 32.2058 203.636 32.5892C204.142 32.989 204.532 33.5164 204.764 34.1168C205.132 34.9726 205.428 35.8575 205.649 36.7623H207.209V29.8604H184.229V30.8255C184.389 30.8255 184.472 30.9852 184.869 30.9852C185.273 31.1449 185.517 31.2282 185.566 31.3879C185.732 31.5997 185.868 31.8334 185.969 32.0823C185.969 32.485 186.13 32.7767 186.13 33.3669V57.1279C186.166 57.5625 186.112 57.9999 185.969 58.4124C185.969 58.8152 185.809 59.0512 185.566 59.1068C185.394 59.325 185.144 59.4691 184.869 59.5095C184.672 59.6132 184.452 59.668 184.229 59.6692V60.6344H195.823C197.512 60.6338 199.199 60.5457 200.879 60.3705V60.3705ZM193.281 58.1208C193.153 58.0122 193.051 57.8769 192.981 57.7246C192.911 57.5722 192.876 57.4064 192.877 57.239C192.877 56.8362 192.717 56.3571 192.717 55.7114V42.7893H195.377C197.71 42.7893 199.486 43.4281 200.53 44.6363C201.575 45.8445 202.062 47.8443 202.062 50.58C202.105 52.0396 201.943 53.4979 201.582 54.9129C201.321 55.8393 200.843 56.691 200.189 57.3987C199.617 57.8427 198.995 58.2201 198.337 58.5235C197.596 58.6836 196.839 58.765 196.081 58.7665C195.384 58.6068 194.688 58.6068 194.312 58.5235C193.93 58.5227 193.562 58.379 193.281 58.1208V58.1208Z" fill="#338FBF"/>
<path d="M168.031 59.6485C167.871 59.6485 167.788 59.4888 167.391 59.4888C166.987 59.3291 166.743 59.2458 166.694 59.0861C166.645 58.9264 166.45 58.6833 166.29 58.3917C166.29 57.989 166.13 57.6973 166.13 57.1071V48.5665H169.271C170.809 48.5588 172.344 48.4241 173.86 48.1638C175.224 47.9477 176.536 47.4766 177.725 46.7751C178.887 46.0689 179.813 45.0346 180.385 43.8032C181.099 42.1873 181.43 40.4291 181.353 38.6649C181.378 37.0434 181.077 35.4332 180.468 33.9294C179.849 32.8513 178.992 31.9277 177.961 31.2283C176.857 30.5816 175.618 30.1967 174.34 30.1035C172.924 29.9381 171.498 29.8569 170.072 29.8605H157.809V30.8256C157.969 30.8256 158.052 30.9853 158.456 30.9853C158.86 31.145 159.097 31.2283 159.153 31.3881C159.319 31.5997 159.455 31.8334 159.556 32.0824C159.556 32.4851 159.717 32.7768 159.717 33.367V57.0516C159.754 57.4862 159.699 57.9239 159.556 58.3362C159.556 58.7389 159.396 58.975 159.153 59.0305C158.981 59.2487 158.731 59.3929 158.456 59.4332C158.256 59.538 158.034 59.5928 157.809 59.593V60.4748H167.955L168.031 59.593V59.6485ZM166.339 33.3184C166.32 33.0761 166.376 32.8338 166.499 32.624C166.506 32.532 166.531 32.4423 166.573 32.36C166.615 32.2777 166.672 32.2046 166.743 32.1449C166.935 31.9773 167.184 31.8903 167.439 31.9019C167.843 31.9019 168.136 31.7422 168.832 31.7422C169.588 31.7832 170.341 31.8643 171.088 31.9852C171.775 32.2327 172.405 32.6152 172.941 33.1101C173.469 33.7382 173.903 34.44 174.229 35.1931C174.502 36.2405 174.638 37.3188 174.633 38.4011C174.633 41.0466 174.229 42.9769 173.505 44.3448C172.78 45.7127 171.416 46.4279 169.48 46.4279H166.339V33.3184V33.3184Z" fill="#338FBF"/>
<path d="M153.784 53.545H151.771C151.596 54.5207 151.364 55.4852 151.075 56.4335C150.94 57.0605 150.599 57.6248 150.107 58.0375C149.871 58.2585 149.593 58.4291 149.288 58.539C148.984 58.6488 148.661 58.6956 148.338 58.6763C147.298 58.8281 146.247 58.8816 145.197 58.836C144.229 58.8832 143.258 58.8297 142.3 58.6763C141.74 58.6124 141.196 58.4502 140.692 58.1972C140.515 58.1002 140.364 57.9616 140.252 57.7935C140.14 57.6253 140.071 57.4326 140.051 57.232C139.903 56.6566 139.849 56.061 139.891 55.4683V45.6779H145.232C145.713 45.6779 146.2 45.8376 146.764 45.8376C147.28 45.8851 147.791 45.9663 148.296 46.0806C148.742 46.1913 149.175 46.352 149.584 46.5597V42.5463C149.197 42.8008 148.756 42.9646 148.296 43.0254C147.285 43.2126 146.264 43.347 145.239 43.4281H139.842V33.2211C139.844 32.7477 139.926 32.2781 140.086 31.8323C140.33 31.5893 140.734 31.5893 141.374 31.5893H144.759C145.727 31.5529 146.697 31.6064 147.656 31.749C148.292 31.7995 148.903 32.0202 149.424 32.3878C149.93 32.7877 150.32 33.3151 150.552 33.9154C150.92 34.7737 151.216 35.6609 151.437 36.5679H153.045V29.8604H131.562V30.8255C131.723 30.8255 131.806 30.9852 132.203 30.9852C132.607 31.1449 132.844 31.2282 132.9 31.3879C133.066 31.5996 133.202 31.8333 133.303 32.0823C133.303 32.485 133.464 32.7767 133.464 33.3669V57.0515C133.501 57.4861 133.446 57.9237 133.303 58.336C133.303 58.7388 133.143 58.9749 132.9 59.0304C132.728 59.2486 132.478 59.3928 132.203 59.4331C132.006 59.5368 131.786 59.5916 131.562 59.5928V60.4747H153.784V53.545Z" fill="#338FBF"/>
<path d="M119.808 60.3705C121.251 60.2239 122.648 59.7869 123.917 59.086C125.198 58.3576 126.235 57.2682 126.897 55.9544C127.723 54.2002 128.11 52.2728 128.025 50.337C128.077 48.8614 127.841 47.3897 127.329 46.0042C126.838 44.8197 126.031 43.7918 124.996 43.0324C123.694 42.2196 122.243 41.6743 120.727 41.4284C118.632 41.0409 116.5 40.8802 114.37 40.9493H111.709V33.5543C111.675 33.2803 111.7 33.0021 111.783 32.7385C111.866 32.475 112.005 32.2323 112.19 32.0268C112.831 31.7822 113.522 31.6988 114.202 31.7837H117.984C118.952 31.7473 119.922 31.8008 120.881 31.9434C121.518 31.996 122.129 32.2191 122.649 32.5892C123.155 32.989 123.545 33.5164 123.777 34.1168C124.146 34.9724 124.442 35.8574 124.662 36.7623H126.27V29.8604H103.221V30.8255C103.381 30.8255 103.464 30.9852 103.868 30.9852C104.272 31.1449 104.509 31.2282 104.565 31.3879C104.731 31.5997 104.867 31.8334 104.969 32.0823C104.969 32.485 105.129 32.7767 105.129 33.3669V57.0515C105.16 57.486 105.105 57.9223 104.969 58.336C104.969 58.7388 104.808 58.9749 104.565 59.0304C104.393 59.2486 104.144 59.3928 103.868 59.4331C103.669 59.5379 103.446 59.5927 103.221 59.5928V60.7177H114.815C116.681 60.6135 118.193 60.6135 119.808 60.3705ZM112.239 58.1208C112.111 58.0122 112.008 57.8769 111.939 57.7246C111.869 57.5722 111.833 57.4064 111.835 57.239C111.835 56.8362 111.675 56.3571 111.675 55.7114V42.7893H114.335C116.668 42.7893 118.443 43.4281 119.488 44.6363C120.532 45.8445 121.02 47.8443 121.02 50.58C121.062 52.0395 120.9 53.4977 120.539 54.9129C120.278 55.8393 119.801 56.691 119.147 57.3987C118.574 57.8428 117.953 58.2202 117.294 58.5235C116.553 58.6837 115.797 58.7651 115.038 58.7666C114.342 58.6068 113.75 58.6069 113.269 58.5235C113.079 58.5302 112.889 58.4979 112.712 58.4286C112.535 58.3594 112.374 58.2546 112.239 58.1208Z" fill="#338FBF"/>
<path d="M301.77 69.3555H75.207V72.3273H301.77V69.3555Z" fill="#338FBF"/>
<path d="M283.649 49.0521C284.297 49.9339 284.777 50.656 285.418 51.3782C285.898 52.0725 286.546 52.9058 287.027 53.6279C287.509 54.4145 288.047 55.1663 288.635 55.8776C289.228 56.6685 289.765 57.499 290.244 58.3634C290.724 59.0578 291.128 59.9674 291.532 60.6895L301.978 60.8492C300.849 59.7244 299.888 58.5995 298.76 57.4747C297.792 56.3498 296.908 55.3916 296.26 54.7458C295.292 53.621 294.408 52.6627 293.607 51.774C292.806 50.8852 291.999 49.927 291.274 49.0451C290.528 48.1747 289.831 47.2637 289.185 46.3163C288.621 45.4345 287.793 44.3096 287.173 43.3444L287.653 42.7056C288.35 41.7405 289.262 40.6989 290.313 39.4977C291.273 38.2213 292.323 37.0147 293.454 35.887C294.472 34.7098 295.553 33.588 296.692 32.5263C297.606 31.6884 298.573 30.9113 299.589 30.2002H292.34C292.013 30.9737 291.636 31.7252 291.212 32.4499C290.703 33.4487 290.111 34.4033 289.443 35.3037C288.802 36.2689 288.05 37.3868 287.43 38.5117C286.811 39.6365 286.038 40.5948 285.341 41.6432C284.645 42.6917 283.949 43.6499 283.329 44.3721C282.688 45.2539 282.201 45.8997 281.797 46.4552C282.361 47.2814 283.002 48.1702 283.649 49.0521Z" fill="#338FBF"/>
<path d="M282.765 59.6485C282.605 59.6485 282.521 59.4888 282.118 59.4888C281.714 59.3291 281.477 59.2458 281.421 59.0861C281.255 58.8745 281.119 58.6408 281.017 58.3917C281.017 57.989 280.857 57.6974 280.857 57.1072V33.4989C280.82 33.0643 280.874 32.6267 281.017 32.2144C281.017 31.8116 281.177 31.5755 281.421 31.52C281.633 31.3541 281.868 31.2185 282.118 31.1173C282.317 31.0125 282.54 30.9577 282.765 30.9576V29.916H272.619V30.8812C272.779 30.8812 272.863 31.0409 273.267 31.0409C273.671 31.2006 273.907 31.2839 273.963 31.4436C274.13 31.6551 274.266 31.8888 274.367 32.138C274.367 32.5407 274.527 32.8323 274.527 33.4225V57.1072C274.565 57.5418 274.51 57.9794 274.367 58.3917C274.367 58.7944 274.207 59.0305 273.963 59.0861C273.792 59.3048 273.542 59.4491 273.267 59.4888C273.067 59.5936 272.845 59.6484 272.619 59.6485V60.5303H282.765V59.6485Z" fill="#338FBF"/>
<path d="M215.565 56.9194C215.969 55.1557 216.693 52.6629 217.654 49.5314H227.556L228.949 53.5448C229.53 55.0037 229.996 56.5058 230.342 58.0373C230.678 58.9139 230.893 59.8319 230.983 60.7661H238.872C238.468 60.1273 238.176 59.2385 237.584 58.2803C236.907 56.8729 236.317 55.426 235.815 53.9475L228.657 33.7138C228.361 32.9891 228.144 32.2349 228.009 31.4641C227.849 30.8253 227.849 30.3393 227.765 29.9365H218.915V30.9017C219.075 30.9017 219.158 31.0614 219.555 31.0614C219.959 31.2211 220.196 31.3044 220.252 31.4641C220.418 31.6756 220.554 31.9094 220.655 32.1585V32.7973C220.662 33.4869 220.525 34.1704 220.252 34.804L215.259 47.0039C214.374 49.2536 213.49 51.2603 212.926 52.7046C212.362 54.1489 211.638 55.5931 211.317 56.5583C210.837 57.5234 210.433 58.4053 210.029 59.0441C209.706 59.563 209.411 60.0984 209.145 60.6481H214.778C214.966 59.3907 215.229 58.1455 215.565 56.9194V56.9194ZM222.654 34.922L226.707 47.365H218.19L222.654 34.922Z" fill="#338FBF"/>
<path d="M250.635 59.6484H250.384C250.224 59.6484 250.14 59.4887 249.736 59.4887C249.333 59.329 249.096 59.2457 249.04 59.086C248.874 58.8742 248.738 58.6405 248.636 58.3916C248.636 57.9889 248.476 57.6972 248.476 57.107V45.3029H260.474V57.0237C260.512 57.4584 260.457 57.896 260.314 58.3083C260.314 58.711 260.154 58.9471 259.91 59.0026C259.739 59.2208 259.489 59.365 259.214 59.4054C259.016 59.509 258.797 59.5638 258.573 59.5651V60.5302H268.719V59.5651C268.559 59.5651 268.476 59.4054 268.079 59.4054C267.675 59.2457 267.431 59.1623 267.382 59.0026C267.215 58.7915 267.079 58.5577 266.978 58.3083C266.978 57.9055 266.818 57.6139 266.818 57.0237V33.2211C266.781 32.7864 266.836 32.3488 266.978 31.9365C266.978 31.5338 267.139 31.2977 267.382 31.2421C267.595 31.0764 267.829 30.9408 268.079 30.8394C268.276 30.7357 268.496 30.6809 268.719 30.6797V29.8604H258.74V30.8255C258.901 30.8255 258.984 30.9852 259.381 30.9852C259.785 31.1449 260.029 31.2282 260.077 31.3879C260.244 31.5996 260.38 31.8333 260.481 32.0823C260.481 32.485 260.642 32.7767 260.642 33.3669V43.2684H248.789V33.3183C248.753 32.8836 248.807 32.4462 248.95 32.0337C248.95 31.631 249.11 31.3949 249.353 31.3393C249.565 31.1732 249.8 31.0376 250.05 30.9366C250.244 30.8253 250.466 30.77 250.69 30.7769V29.8604H240.572V30.8255C240.732 30.8255 240.816 30.9852 241.213 30.9852C241.617 31.1449 241.854 31.2282 241.909 31.3879C242.075 31.5997 242.211 31.8334 242.313 32.0823C242.313 32.485 242.473 32.7767 242.473 33.3669V57.1279C242.505 57.5624 242.45 57.9988 242.313 58.4124C242.313 58.8152 242.153 59.0512 241.909 59.1068C241.737 59.325 241.488 59.4691 241.213 59.5095C241.015 59.6132 240.796 59.668 240.572 59.6692V60.6344H250.718L250.635 59.5928V59.6484Z" fill="#338FBF"/>
<path d="M54.5938 33.0753C53.9462 32.1935 53.3055 31.3116 52.7415 30.4229L18.1181 50.2538L1.40535 40.6994C1.02177 41.7303 0.787297 42.8105 0.708984 43.9073L18.2783 54.0519L54.5938 33.0753Z" fill="#338FBF"/>
<path d="M18.119 57.7175L0.166721 47.441C0.0338734 48.073 -0.0199241 48.7191 0.00655686 49.3644C0.00655686 57.2214 3.13676 64.7566 8.70855 70.3123C14.2803 75.868 21.8373 78.9892 29.717 78.9892C37.5967 78.9892 45.1537 75.868 50.7255 70.3123C56.2973 64.7566 59.4275 57.2214 59.4275 49.3644C59.4608 44.6767 58.357 40.0504 56.2103 35.8799L18.119 57.7175Z" fill="#338FBF"/>
<path d="M50.3245 27.9372C49.4783 27.1409 48.5904 26.3899 47.6644 25.6875L18.1175 42.7896L3.8699 34.6795C3.3894 35.5613 2.90195 36.5265 2.33789 37.568L17.9574 46.56L50.3245 27.9372Z" fill="#338FBF"/>
<path d="M44.7683 23.7637C43.65 23.0962 42.4866 22.5068 41.2865 22L18.1184 35.3039L7.73558 29.4644C7.03922 30.1587 6.34285 31.0683 5.64648 31.9502L18.0418 39.0188L44.7683 23.7637Z" fill="#338FBF"/>
</svg>
