<svg width="395" height="164" viewBox="0 0 395 164" fill="none" xmlns="http://www.w3.org/2000/svg">
<path d="M121.743 86.1552C123.035 87.5097 124.599 88.5768 126.332 89.2868C128.443 90.071 130.682 90.4526 132.934 90.4116C134.222 90.4116 135.427 90.2519 136.416 90.1686C137.403 90.0411 138.375 89.8083 139.313 89.4743C140.197 89.2312 140.921 88.8285 141.645 88.5924C142.218 88.2666 142.809 87.9722 143.414 87.7106L142.516 85.8289C142.035 86.0719 141.548 86.308 140.984 86.5232C140.459 86.7638 139.922 86.9771 139.375 87.162C138.724 87.3807 138.048 87.516 137.363 87.5648C136.484 87.7084 135.592 87.7619 134.703 87.7245C133.098 87.7842 131.508 87.3945 130.114 86.5996C128.939 85.8701 127.948 84.882 127.217 83.7111C126.526 82.3491 126.056 80.8867 125.824 79.3783C125.561 77.5708 125.426 75.747 125.42 73.9206C125.42 72.393 125.58 70.789 125.664 69.1851C125.786 67.7309 126.175 66.3115 126.813 64.9981C127.387 63.774 128.24 62.7014 129.306 61.8665C130.655 61.0144 132.221 60.5684 133.818 60.5819C135.429 60.5609 137.006 61.0468 138.324 61.9707C139.612 62.8525 140.336 64.2968 140.657 66.2271H142.669V60.0681C142.028 59.8251 141.381 59.589 140.657 59.3738C139.899 59.1297 139.117 58.969 138.324 58.8946C137.439 58.7349 136.715 58.7349 135.831 58.6516C135.134 58.6516 134.299 58.4919 133.742 58.4919C131.358 58.4534 128.987 58.8342 126.736 59.6168C124.902 60.2928 123.262 61.4052 121.957 62.8574C120.652 64.3095 119.723 66.0574 119.25 67.9491C118.609 70.1661 118.31 72.4678 118.366 74.7747C118.315 76.9763 118.613 79.1721 119.25 81.2808C119.669 83.0845 120.525 84.7582 121.743 86.1552V86.1552Z" fill="#338FBF"/>
<path d="M243.879 89.3705C245.321 89.2239 246.719 88.7869 247.987 88.086C249.262 87.3759 250.277 86.2789 250.884 84.9544C251.709 83.2001 252.096 81.2728 252.012 79.337C252.064 77.8614 251.827 76.3898 251.316 75.0042C250.825 73.8197 250.018 72.7918 248.983 72.0324C247.681 71.2196 246.23 70.6743 244.714 70.4284C242.618 70.041 240.487 69.8803 238.356 69.9493H235.696V62.5543C235.662 62.2803 235.687 62.0019 235.77 61.7383C235.853 61.4747 235.991 61.232 236.177 61.0268C236.817 60.7822 237.509 60.6988 238.189 60.7837H241.971C242.939 60.7473 243.909 60.8007 244.867 60.9434C245.508 60.9812 246.123 61.2058 246.636 61.5892C247.142 61.989 247.532 62.5164 247.764 63.1168C248.132 63.9726 248.428 64.8575 248.649 65.7623H250.209V58.8604H227.229V59.8255C227.389 59.8255 227.472 59.9852 227.869 59.9852C228.273 60.1449 228.517 60.2282 228.566 60.3879C228.732 60.5997 228.868 60.8334 228.969 61.0823C228.969 61.485 229.13 61.7767 229.13 62.3669V86.1279C229.166 86.5625 229.112 86.9999 228.969 87.4124C228.969 87.8152 228.809 88.0512 228.566 88.1068C228.394 88.325 228.144 88.4691 227.869 88.5095C227.672 88.6132 227.452 88.668 227.229 88.6692V89.6344H238.823C240.512 89.6338 242.199 89.5457 243.879 89.3705V89.3705ZM236.281 87.1208C236.153 87.0122 236.051 86.8769 235.981 86.7246C235.911 86.5722 235.876 86.4064 235.877 86.239C235.877 85.8362 235.717 85.3571 235.717 84.7114V71.7893H238.377C240.71 71.7893 242.486 72.4281 243.53 73.6363C244.575 74.8445 245.062 76.8443 245.062 79.58C245.105 81.0396 244.943 82.4979 244.582 83.9129C244.321 84.8393 243.843 85.691 243.189 86.3987C242.617 86.8427 241.995 87.2201 241.337 87.5235C240.596 87.6836 239.839 87.765 239.081 87.7665C238.384 87.6068 237.688 87.6068 237.312 87.5235C236.93 87.5227 236.562 87.379 236.281 87.1208V87.1208Z" fill="#338FBF"/>
<path d="M211.031 88.6485C210.871 88.6485 210.788 88.4888 210.391 88.4888C209.987 88.3291 209.743 88.2458 209.694 88.0861C209.645 87.9264 209.45 87.6833 209.29 87.3917C209.29 86.989 209.13 86.6973 209.13 86.1071V77.5665H212.271C213.809 77.5588 215.344 77.4241 216.86 77.1638C218.224 76.9477 219.536 76.4766 220.725 75.7751C221.887 75.0689 222.813 74.0346 223.385 72.8032C224.099 71.1873 224.43 69.4291 224.353 67.6649C224.378 66.0434 224.077 64.4332 223.468 62.9294C222.849 61.8513 221.992 60.9277 220.961 60.2283C219.857 59.5816 218.618 59.1967 217.34 59.1035C215.924 58.9381 214.498 58.8569 213.072 58.8605H200.809V59.8256C200.969 59.8256 201.052 59.9853 201.456 59.9853C201.86 60.145 202.097 60.2283 202.153 60.3881C202.319 60.5997 202.455 60.8334 202.556 61.0824C202.556 61.4851 202.717 61.7768 202.717 62.367V86.0516C202.754 86.4862 202.699 86.9239 202.556 87.3362C202.556 87.7389 202.396 87.975 202.153 88.0305C201.981 88.2487 201.731 88.3929 201.456 88.4332C201.256 88.538 201.034 88.5928 200.809 88.593V89.4748H210.955L211.031 88.593V88.6485ZM209.339 62.3184C209.32 62.0761 209.376 61.8338 209.499 61.624C209.506 61.532 209.531 61.4423 209.573 61.36C209.615 61.2777 209.672 61.2046 209.743 61.1449C209.935 60.9773 210.184 60.8903 210.439 60.9019C210.843 60.9019 211.136 60.7422 211.832 60.7422C212.588 60.7832 213.341 60.8643 214.088 60.9852C214.775 61.2327 215.405 61.6152 215.941 62.1101C216.469 62.7382 216.903 63.44 217.229 64.1931C217.502 65.2405 217.638 66.3188 217.633 67.4011C217.633 70.0466 217.229 71.9769 216.505 73.3448C215.78 74.7127 214.416 75.4279 212.48 75.4279H209.339V62.3184V62.3184Z" fill="#338FBF"/>
<path d="M196.784 82.545H194.771C194.596 83.5207 194.364 84.4852 194.075 85.4335C193.94 86.0605 193.599 86.6248 193.107 87.0375C192.871 87.2585 192.593 87.4291 192.288 87.539C191.984 87.6488 191.661 87.6956 191.338 87.6763C190.298 87.8281 189.247 87.8816 188.197 87.836C187.229 87.8832 186.258 87.8297 185.3 87.6763C184.74 87.6124 184.196 87.4502 183.692 87.1972C183.515 87.1002 183.364 86.9616 183.252 86.7935C183.14 86.6253 183.071 86.4326 183.051 86.232C182.903 85.6566 182.849 85.061 182.891 84.4683V74.6779H188.232C188.713 74.6779 189.2 74.8376 189.764 74.8376C190.28 74.8851 190.791 74.9663 191.296 75.0806C191.742 75.1913 192.175 75.352 192.584 75.5597V71.5463C192.197 71.8008 191.756 71.9646 191.296 72.0254C190.285 72.2126 189.264 72.347 188.239 72.4281H182.842V62.2211C182.844 61.7477 182.926 61.2781 183.086 60.8323C183.33 60.5893 183.734 60.5893 184.374 60.5893H187.759C188.727 60.5529 189.697 60.6064 190.656 60.749C191.292 60.7995 191.903 61.0202 192.424 61.3878C192.93 61.7877 193.32 62.3151 193.552 62.9154C193.92 63.7737 194.216 64.6609 194.437 65.5679H196.045V58.8604H174.562V59.8255C174.723 59.8255 174.806 59.9852 175.203 59.9852C175.607 60.1449 175.844 60.2282 175.9 60.3879C176.066 60.5996 176.202 60.8333 176.303 61.0823C176.303 61.485 176.464 61.7767 176.464 62.3669V86.0515C176.501 86.4861 176.446 86.9237 176.303 87.336C176.303 87.7388 176.143 87.9749 175.9 88.0304C175.728 88.2486 175.478 88.3928 175.203 88.4331C175.006 88.5368 174.786 88.5916 174.562 88.5928V89.4747H196.784V82.545Z" fill="#338FBF"/>
<path d="M162.808 89.3705C164.251 89.2239 165.648 88.7869 166.917 88.086C168.198 87.3576 169.235 86.2682 169.897 84.9544C170.723 83.2002 171.11 81.2728 171.025 79.337C171.077 77.8614 170.841 76.3897 170.329 75.0042C169.838 73.8197 169.031 72.7918 167.996 72.0324C166.694 71.2196 165.243 70.6743 163.727 70.4284C161.632 70.0409 159.5 69.8802 157.37 69.9493H154.709V62.5543C154.675 62.2803 154.7 62.0021 154.783 61.7385C154.866 61.475 155.005 61.2323 155.19 61.0268C155.831 60.7822 156.522 60.6988 157.202 60.7837H160.984C161.952 60.7473 162.922 60.8008 163.881 60.9434C164.518 60.996 165.129 61.2191 165.649 61.5892C166.155 61.989 166.545 62.5164 166.777 63.1168C167.146 63.9724 167.442 64.8574 167.662 65.7623H169.27V58.8604H146.221V59.8255C146.381 59.8255 146.464 59.9852 146.868 59.9852C147.272 60.1449 147.509 60.2282 147.565 60.3879C147.731 60.5997 147.867 60.8334 147.969 61.0823C147.969 61.485 148.129 61.7767 148.129 62.3669V86.0515C148.16 86.486 148.105 86.9223 147.969 87.336C147.969 87.7388 147.808 87.9749 147.565 88.0304C147.393 88.2486 147.144 88.3928 146.868 88.4331C146.669 88.5379 146.446 88.5927 146.221 88.5928V89.7177H157.815C159.681 89.6135 161.193 89.6135 162.808 89.3705ZM155.239 87.1208C155.111 87.0122 155.008 86.8769 154.939 86.7246C154.869 86.5722 154.833 86.4064 154.835 86.239C154.835 85.8362 154.675 85.3571 154.675 84.7114V71.7893H157.335C159.668 71.7893 161.443 72.4281 162.488 73.6363C163.532 74.8445 164.02 76.8443 164.02 79.58C164.062 81.0395 163.9 82.4977 163.539 83.9129C163.278 84.8393 162.801 85.691 162.147 86.3987C161.574 86.8428 160.953 87.2202 160.294 87.5235C159.553 87.6837 158.797 87.7651 158.038 87.7666C157.342 87.6068 156.75 87.6069 156.269 87.5235C156.079 87.5302 155.889 87.4979 155.712 87.4286C155.535 87.3594 155.374 87.2546 155.239 87.1208Z" fill="#338FBF"/>
<path d="M344.77 98.3555H118.207V101.327H344.77V98.3555Z" fill="#338FBF"/>
<path d="M326.649 78.0521C327.297 78.9339 327.777 79.656 328.418 80.3782C328.898 81.0725 329.546 81.9058 330.027 82.6279C330.509 83.4145 331.047 84.1663 331.635 84.8776C332.228 85.6685 332.765 86.499 333.244 87.3634C333.724 88.0578 334.128 88.9674 334.532 89.6895L344.978 89.8492C343.849 88.7244 342.888 87.5995 341.76 86.4747C340.792 85.3498 339.908 84.3916 339.26 83.7458C338.292 82.621 337.408 81.6627 336.607 80.774C335.806 79.8852 334.999 78.927 334.274 78.0451C333.528 77.1747 332.831 76.2637 332.185 75.3163C331.621 74.4345 330.793 73.3096 330.173 72.3444L330.653 71.7056C331.35 70.7405 332.262 69.6989 333.313 68.4977C334.273 67.2213 335.323 66.0147 336.454 64.887C337.472 63.7098 338.553 62.588 339.692 61.5263C340.606 60.6884 341.573 59.9113 342.589 59.2002H335.34C335.013 59.9737 334.636 60.7252 334.212 61.4499C333.703 62.4487 333.111 63.4033 332.443 64.3037C331.802 65.2689 331.05 66.3868 330.43 67.5117C329.811 68.6365 329.038 69.5948 328.341 70.6432C327.645 71.6917 326.949 72.6499 326.329 73.3721C325.688 74.2539 325.201 74.8997 324.797 75.4552C325.361 76.2814 326.002 77.1702 326.649 78.0521Z" fill="#338FBF"/>
<path d="M325.765 88.6485C325.605 88.6485 325.521 88.4888 325.118 88.4888C324.714 88.3291 324.477 88.2458 324.421 88.0861C324.255 87.8745 324.119 87.6408 324.017 87.3917C324.017 86.989 323.857 86.6974 323.857 86.1072V62.4989C323.82 62.0643 323.874 61.6267 324.017 61.2144C324.017 60.8116 324.177 60.5755 324.421 60.52C324.633 60.3541 324.868 60.2185 325.118 60.1173C325.317 60.0125 325.54 59.9577 325.765 59.9576V58.916H315.619V59.8812C315.779 59.8812 315.863 60.0409 316.267 60.0409C316.671 60.2006 316.907 60.2839 316.963 60.4436C317.13 60.6551 317.266 60.8888 317.367 61.138C317.367 61.5407 317.527 61.8323 317.527 62.4225V86.1072C317.565 86.5418 317.51 86.9794 317.367 87.3917C317.367 87.7944 317.207 88.0305 316.963 88.0861C316.792 88.3048 316.542 88.4491 316.267 88.4888C316.067 88.5936 315.845 88.6484 315.619 88.6485V89.5303H325.765V88.6485Z" fill="#338FBF"/>
<path d="M258.565 85.9194C258.969 84.1557 259.693 81.6629 260.654 78.5314H270.556L271.949 82.5448C272.53 84.0037 272.996 85.5058 273.342 87.0373C273.678 87.9139 273.893 88.8319 273.983 89.7661H281.872C281.468 89.1273 281.176 88.2385 280.584 87.2803C279.907 85.8729 279.317 84.426 278.815 82.9475L271.657 62.7138C271.361 61.9891 271.144 61.2349 271.009 60.4641C270.849 59.8253 270.849 59.3393 270.765 58.9365H261.915V59.9017C262.075 59.9017 262.158 60.0614 262.555 60.0614C262.959 60.2211 263.196 60.3044 263.252 60.4641C263.418 60.6756 263.554 60.9094 263.655 61.1585V61.7973C263.662 62.4869 263.525 63.1704 263.252 63.804L258.259 76.0039C257.374 78.2536 256.49 80.2603 255.926 81.7046C255.362 83.1489 254.638 84.5931 254.317 85.5583C253.837 86.5234 253.433 87.4053 253.029 88.0441C252.706 88.563 252.411 89.0984 252.145 89.6481H257.778C257.966 88.3907 258.229 87.1455 258.565 85.9194V85.9194ZM265.654 63.922L269.707 76.365H261.19L265.654 63.922Z" fill="#338FBF"/>
<path d="M293.635 88.6484H293.384C293.224 88.6484 293.14 88.4887 292.736 88.4887C292.333 88.329 292.096 88.2457 292.04 88.086C291.874 87.8742 291.738 87.6405 291.636 87.3916C291.636 86.9889 291.476 86.6972 291.476 86.107V74.3029H303.474V86.0237C303.512 86.4584 303.457 86.896 303.314 87.3083C303.314 87.711 303.154 87.9471 302.91 88.0026C302.739 88.2208 302.489 88.365 302.214 88.4054C302.016 88.509 301.797 88.5638 301.573 88.5651V89.5302H311.719V88.5651C311.559 88.5651 311.476 88.4054 311.079 88.4054C310.675 88.2457 310.431 88.1623 310.382 88.0026C310.215 87.7915 310.079 87.5577 309.978 87.3083C309.978 86.9055 309.818 86.6139 309.818 86.0237V62.2211C309.781 61.7864 309.836 61.3488 309.978 60.9365C309.978 60.5338 310.139 60.2977 310.382 60.2421C310.595 60.0764 310.829 59.9408 311.079 59.8394C311.276 59.7357 311.496 59.6809 311.719 59.6797V58.8604H301.74V59.8255C301.901 59.8255 301.984 59.9852 302.381 59.9852C302.785 60.1449 303.029 60.2282 303.077 60.3879C303.244 60.5996 303.38 60.8333 303.481 61.0823C303.481 61.485 303.642 61.7767 303.642 62.3669V72.2684H291.789V62.3183C291.753 61.8836 291.807 61.4462 291.95 61.0337C291.95 60.631 292.11 60.3949 292.353 60.3393C292.565 60.1732 292.8 60.0376 293.05 59.9366C293.244 59.8253 293.466 59.77 293.69 59.7769V58.8604H283.572V59.8255C283.732 59.8255 283.816 59.9852 284.213 59.9852C284.617 60.1449 284.854 60.2282 284.909 60.3879C285.075 60.5997 285.211 60.8334 285.313 61.0823C285.313 61.485 285.473 61.7767 285.473 62.3669V86.1279C285.505 86.5624 285.45 86.9988 285.313 87.4124C285.313 87.8152 285.153 88.0512 284.909 88.1068C284.737 88.325 284.488 88.4691 284.213 88.5095C284.015 88.6132 283.796 88.668 283.572 88.6692V89.6344H293.718L293.635 88.5928V88.6484Z" fill="#338FBF"/>
<path d="M97.5938 62.0753C96.9462 61.1935 96.3055 60.3116 95.7415 59.4229L61.1181 79.2538L44.4054 69.6994C44.0218 70.7303 43.7873 71.8105 43.709 72.9073L61.2783 83.0519L97.5938 62.0753Z" fill="#338FBF"/>
<path d="M61.119 86.7175L43.1667 76.441C43.0339 77.073 42.9801 77.7191 43.0066 78.3644C43.0066 86.2214 46.1368 93.7566 51.7085 99.3123C57.2803 104.868 64.8373 107.989 72.717 107.989C80.5967 107.989 88.1537 104.868 93.7255 99.3123C99.2973 93.7566 102.427 86.2214 102.427 78.3644C102.461 73.6767 101.357 69.0504 99.2103 64.8799L61.119 86.7175Z" fill="#338FBF"/>
<path d="M93.3245 56.9372C92.4783 56.1409 91.5904 55.3899 90.6644 54.6875L61.1175 71.7896L46.8699 63.6795C46.3894 64.5613 45.9019 65.5265 45.3379 66.568L60.9574 75.56L93.3245 56.9372Z" fill="#338FBF"/>
<path d="M87.7683 52.7637C86.65 52.0962 85.4866 51.5068 84.2865 51L61.1184 64.3039L50.7356 58.4644C50.0392 59.1587 49.3429 60.0683 48.6465 60.9502L61.0418 68.0188L87.7683 52.7637Z" fill="#338FBF"/>
</svg>
