<svg width="302" height="93" viewBox="0 0 302 93" fill="none" xmlns="http://www.w3.org/2000/svg">
<path d="M91 93H219.474V-1.25772e-05H91V93V93Z" fill="#338FBF"/>
<path d="M113.294 67.5811C113.074 66.7678 112.638 65.1917 110.346 65.1917C109.013 65.1917 107 66.1574 107 69.9579C107 72.3713 108.006 74.6076 110.346 74.6076C111.885 74.6076 112.965 73.6657 113.294 72.0152H116.061C115.512 74.9476 113.626 76.9858 110.295 76.9858C106.764 76.9858 104.236 74.5528 104.236 69.9193C104.236 65.2078 106.91 62.8184 110.33 62.8184C114.305 62.8184 115.91 65.5983 116.061 67.5811H113.294V67.5811Z" fill="white"/>
<path d="M119.447 70.441L122.7 66.6559H125.868L122.41 70.5112L125.961 76.6345H122.865L120.519 72.3486L119.447 73.4829V76.6345H116.865V66.6559H119.447V70.441V70.441Z" fill="white"/>
<path d="M135.405 71.626C135.405 75.2228 133.024 76.8965 130.388 76.8965C127.756 76.8965 125.356 75.2474 125.356 71.6492C125.356 68.0481 127.756 66.3968 130.388 66.3968C133.024 66.3968 135.405 68.0284 135.405 71.626ZM128.01 71.626C128.01 72.9043 128.393 74.6834 130.388 74.6834C132.383 74.6834 132.749 72.924 132.749 71.6492C132.749 70.3666 132.383 68.6065 130.388 68.6065C128.393 68.6065 128.01 70.347 128.01 71.626Z" fill="white"/>
<path d="M145.108 66.6542V76.6334H142.526V68.7543H139.763V71.8313C139.763 75.648 138.629 76.8519 136.816 76.8519C136.364 76.8519 135.627 76.7781 135.245 76.6334V74.6823C135.298 74.7209 135.627 74.7567 136.009 74.7567C136.784 74.7567 137.186 74.369 137.186 71.3305V66.6542H145.108V66.6542Z" fill="white"/>
<path d="M149.008 70.441L152.261 66.6559H155.429L151.968 70.5112L155.522 76.6345H152.427L150.084 72.3486L149.008 73.4829V76.6345H146.426V66.6559H149.008V70.441V70.441Z" fill="white"/>
<path d="M164.967 71.626C164.967 75.2228 162.59 76.8965 159.954 76.8965C157.318 76.8965 154.922 75.2474 154.922 71.6492C154.922 68.0481 157.318 66.3968 159.954 66.3968C162.59 66.3968 164.967 68.0284 164.967 71.626ZM157.577 71.626C157.577 72.9043 157.959 74.6834 159.954 74.6834C161.94 74.6834 162.32 72.924 162.32 71.6492C162.32 70.3666 161.94 68.6065 159.954 68.6065C157.959 68.6065 157.577 70.347 157.577 71.626Z" fill="white"/>
<path d="M165.805 66.656H170.251C172.45 66.656 174.059 67.5677 174.059 69.2337C174.059 70.3828 173.253 71.1217 172.226 71.3837C173.233 71.6274 174.352 72.2792 174.352 73.9108C174.352 75.7594 172.971 76.636 170.74 76.636H165.805V66.656V66.656ZM168.382 70.6961H170.065C170.922 70.6961 171.528 70.3484 171.528 69.5659C171.528 68.7519 170.945 68.4555 170.085 68.4555H168.382V70.6961V70.6961ZM168.382 74.8372H170.281C171.235 74.8372 171.825 74.5401 171.825 73.554C171.825 72.6824 171.203 72.2792 170.251 72.2792H168.382V74.8372V74.8372Z" fill="white"/>
<path d="M184.686 71.626C184.686 75.2228 182.313 76.8965 179.673 76.8965C177.041 76.8965 174.637 75.2474 174.637 71.6492C174.637 68.0481 177.041 66.3968 179.673 66.3968C182.313 66.3968 184.686 68.0284 184.686 71.626ZM177.292 71.626C177.292 72.9043 177.681 74.6834 179.673 74.6834C181.668 74.6834 182.031 72.924 182.031 71.6492C182.031 70.3666 181.668 68.6065 179.673 68.6065C177.681 68.6065 177.292 70.347 177.292 71.626Z" fill="white"/>
<path d="M123.006 60.5623C125.206 60.5623 130.623 60.1717 134.672 57.1761V59.4483H142.841L142.849 49.4571L146.26 45.8792L153.685 59.4483H163.486L152.237 40.0601L163.193 27.8403H153.16L142.849 39.8297V16.7977H134.672V20.4415C132.182 17.7325 128.146 15.6837 121.852 15.6837C108.229 15.6837 105.671 24.0819 105.671 28.7829C105.671 35.2426 109.098 38.8324 115.068 40.2989L123.531 42.4102C127.995 43.5284 131.187 44.3495 131.187 47.6977C131.187 52.1633 126.545 53.219 122.369 53.219C114.716 53.219 113.443 48.6978 113.443 46.2901H105.034C105.034 51.5761 107.701 60.5623 123.006 60.5623V60.5623ZM128.574 35.1295L118.317 32.5988C116.573 32.1886 113.848 31.4807 113.848 28.1374C113.848 24.3172 117.85 23.0234 121.212 23.0234C128.864 23.0234 129.563 27.5509 129.79 29.4866H134.672V37.4367C132.881 36.3769 130.767 35.6886 128.574 35.1295Z" fill="white"/>
</svg>
