<svg width="395" height="164" viewBox="0 0 395 164" fill="none" xmlns="http://www.w3.org/2000/svg">
<path d="M130 121H258.474V28H130V121V121Z" fill="#338FBF"/>
<path d="M152.294 95.5811C152.074 94.7678 151.638 93.1917 149.346 93.1917C148.013 93.1917 146 94.1574 146 97.9579C146 100.371 147.006 102.608 149.346 102.608C150.885 102.608 151.965 101.666 152.294 100.015H155.061C154.512 102.948 152.626 104.986 149.295 104.986C145.764 104.986 143.236 102.553 143.236 97.9193C143.236 93.2078 145.91 90.8184 149.33 90.8184C153.305 90.8184 154.91 93.5983 155.061 95.5811H152.294V95.5811Z" fill="white"/>
<path d="M158.447 98.441L161.7 94.6559H164.868L161.41 98.5112L164.961 104.634H161.865L159.519 100.349L158.447 101.483V104.634H155.865V94.6559H158.447V98.441V98.441Z" fill="white"/>
<path d="M174.405 99.626C174.405 103.223 172.024 104.897 169.388 104.897C166.756 104.897 164.356 103.247 164.356 99.6492C164.356 96.0481 166.756 94.3968 169.388 94.3968C172.024 94.3968 174.405 96.0284 174.405 99.626ZM167.011 99.626C167.011 100.904 167.393 102.683 169.388 102.683C171.384 102.683 171.75 100.924 171.75 99.6492C171.75 98.3666 171.384 96.6065 169.388 96.6065C167.393 96.6065 167.011 98.347 167.011 99.626Z" fill="white"/>
<path d="M184.108 94.6542V104.633H181.526V96.7543H178.763V99.8313C178.763 103.648 177.629 104.852 175.815 104.852C175.364 104.852 174.627 104.778 174.245 104.633V102.682C174.298 102.721 174.627 102.757 175.009 102.757C175.784 102.757 176.186 102.369 176.186 99.3305V94.6542H184.108V94.6542Z" fill="white"/>
<path d="M188.008 98.441L191.261 94.6559H194.429L190.968 98.5112L194.522 104.634H191.427L189.085 100.349L188.008 101.483V104.634H185.426V94.6559H188.008V98.441V98.441Z" fill="white"/>
<path d="M203.967 99.626C203.967 103.223 201.59 104.897 198.954 104.897C196.318 104.897 193.922 103.247 193.922 99.6492C193.922 96.0481 196.318 94.3968 198.954 94.3968C201.59 94.3968 203.967 96.0284 203.967 99.626ZM196.577 99.626C196.577 100.904 196.959 102.683 198.954 102.683C200.94 102.683 201.319 100.924 201.319 99.6492C201.319 98.3666 200.94 96.6065 198.954 96.6065C196.959 96.6065 196.577 98.347 196.577 99.626Z" fill="white"/>
<path d="M204.805 94.656H209.251C211.45 94.656 213.059 95.5677 213.059 97.2337C213.059 98.3828 212.253 99.1217 211.226 99.3837C212.233 99.6274 213.351 100.279 213.351 101.911C213.351 103.759 211.971 104.636 209.74 104.636H204.805V94.656V94.656ZM207.382 98.6961H209.065C209.922 98.6961 210.528 98.3484 210.528 97.5659C210.528 96.7519 209.945 96.4555 209.084 96.4555H207.382V98.6961V98.6961ZM207.382 102.837H209.281C210.234 102.837 210.825 102.54 210.825 101.554C210.825 100.682 210.203 100.279 209.251 100.279H207.382V102.837V102.837Z" fill="white"/>
<path d="M223.686 99.626C223.686 103.223 221.313 104.897 218.673 104.897C216.041 104.897 213.637 103.247 213.637 99.6492C213.637 96.0481 216.041 94.3968 218.673 94.3968C221.313 94.3968 223.686 96.0284 223.686 99.626ZM216.292 99.626C216.292 100.904 216.681 102.683 218.673 102.683C220.668 102.683 221.031 100.924 221.031 99.6492C221.031 98.3666 220.668 96.6065 218.673 96.6065C216.681 96.6065 216.292 98.347 216.292 99.626Z" fill="white"/>
<path d="M162.006 88.5623C164.206 88.5623 169.623 88.1717 173.672 85.1761V87.4483H181.841L181.849 77.4571L185.26 73.8792L192.685 87.4483H202.486L191.237 68.0601L202.193 55.8403H192.16L181.849 67.8297V44.7977H173.672V48.4415C171.182 45.7325 167.146 43.6837 160.852 43.6837C147.229 43.6837 144.671 52.0819 144.671 56.7829C144.671 63.2426 148.098 66.8324 154.068 68.2989L162.531 70.4102C166.995 71.5284 170.187 72.3495 170.187 75.6977C170.187 80.1633 165.545 81.219 161.369 81.219C153.716 81.219 152.443 76.6978 152.443 74.2901H144.034C144.034 79.5761 146.701 88.5623 162.006 88.5623V88.5623ZM167.574 63.1295L157.317 60.5988C155.573 60.1886 152.848 59.4807 152.848 56.1374C152.848 52.3172 156.85 51.0234 160.212 51.0234C167.864 51.0234 168.563 55.5509 168.79 57.4866H173.672V65.4367C171.881 64.3769 169.767 63.6886 167.574 63.1295Z" fill="white"/>
</svg>
