<svg width="272" height="287" viewBox="0 0 272 287" fill="none" xmlns="http://www.w3.org/2000/svg">
<path d="M200.992 124H164.46L167.218 121.267C167.562 120.925 168.079 120.584 168.596 120.584L182.726 119.047L171.87 98.2084L174.627 82.3236H187.723L193.754 119.047L198.751 120.242C199.613 120.413 200.13 121.096 200.302 121.78L200.992 124Z" fill="#338FBF"/>
<path d="M185.515 98.2738L189.672 119.369H183.09L172.178 98.2738H185.515Z" fill="#338FBF"/>
<path d="M141.17 102.904H208.3C210.371 102.904 212.269 101.174 212.442 99.0979L216.928 48.0555C217.101 45.9791 215.548 44.2489 213.477 44.2489H146.347C144.276 44.2489 142.378 45.9791 142.205 48.0555L137.718 99.0979C137.546 101.174 139.099 102.904 141.17 102.904Z" fill="#338FBF"/>
<path d="M138.597 102.904H205.727C207.798 102.904 209.696 101.174 209.869 99.0979L214.356 48.0555C214.528 45.9791 212.975 44.2489 210.904 44.2489H143.774C141.703 44.2489 139.805 45.9791 139.632 48.0555L135.145 99.0979C134.973 101.174 136.526 102.904 138.597 102.904Z" fill="#338FBF"/>
<path d="M207.958 100.332H136.676L141.37 47.3361H212.826L207.958 100.332Z" fill="#338FBF"/>
<path fill-rule="evenodd" clip-rule="evenodd" d="M95.3158 37.6364C94.8087 38.3053 94.9238 39.2711 95.5729 39.7936L108.742 50.3958C109.112 50.6934 109.596 50.7944 110.049 50.6685C110.502 50.5425 110.871 50.2043 111.045 49.7555L112.878 45.0324L122.792 55.6136C123.364 56.2242 124.308 56.2413 124.901 55.6518V55.6518C125.494 55.0622 125.51 54.0893 124.938 53.4787L113.423 41.1882C113.071 40.8132 112.559 40.6473 112.063 40.7476C111.566 40.848 111.153 41.2009 110.965 41.685L109.013 46.7135L97.4092 37.3715C96.7601 36.849 95.8229 36.9676 95.3158 37.6364V37.6364Z" fill="#338FBF"/>
<path fill-rule="evenodd" clip-rule="evenodd" d="M212.153 0.538957C211.338 0.358114 210.531 0.871828 210.35 1.68637L206.681 18.2129C206.578 18.6768 206.7 19.1622 207.009 19.5231C207.318 19.8841 207.779 20.0785 208.253 20.048L213.243 19.7271L208.174 33.2682C207.882 34.0496 208.278 34.9202 209.059 35.2127V35.2127C209.841 35.5053 210.711 35.1089 211.004 34.3275L216.892 18.5992C217.072 18.1192 216.996 17.5808 216.69 17.1692C216.385 16.7576 215.892 16.529 215.38 16.5619L210.067 16.9036L213.3 2.34126C213.481 1.52672 212.967 0.7198 212.153 0.538957V0.538957Z" fill="#338FBF"/>
<path fill-rule="evenodd" clip-rule="evenodd" d="M225.656 75.0338C225.308 74.2755 225.64 73.3786 226.399 73.0305L241.784 65.967C242.216 65.7687 242.716 65.7852 243.133 66.0115C243.551 66.2378 243.838 66.6475 243.908 67.1176L244.644 72.0637L256.816 64.2595C257.518 63.8091 258.453 64.0134 258.903 64.7158V64.7158C259.354 65.4182 259.149 66.3527 258.447 66.8031L244.309 75.8679C243.878 76.1446 243.335 76.1836 242.869 75.9716C242.402 75.7596 242.075 75.3254 241.999 74.8185L241.216 69.5524L227.659 75.7764C226.901 76.1246 226.004 75.7921 225.656 75.0338V75.0338Z" fill="#338FBF"/>
<path fill-rule="evenodd" clip-rule="evenodd" d="M153.912 35.5146C151.736 35.5146 149.971 33.6661 149.971 31.3858C149.971 29.1056 151.736 27.257 153.912 27.257C156.089 27.257 157.854 29.1056 157.854 31.3858C157.854 33.6661 156.089 35.5146 153.912 35.5146ZM153.912 37.0456C150.929 37.0456 148.51 34.5116 148.51 31.3858C148.51 28.26 150.929 25.7261 153.912 25.7261C156.896 25.7261 159.315 28.26 159.315 31.3858C159.315 34.5116 156.896 37.0456 153.912 37.0456Z" fill="#338FBF"/>
<path fill-rule="evenodd" clip-rule="evenodd" d="M243.44 35.5146C241.263 35.5146 239.499 33.6661 239.499 31.3858C239.499 29.1056 241.263 27.257 243.44 27.257C245.616 27.257 247.381 29.1056 247.381 31.3858C247.381 33.6661 245.616 35.5146 243.44 35.5146ZM243.44 37.0456C240.456 37.0456 238.037 34.5116 238.037 31.3858C238.037 28.26 240.456 25.7261 243.44 25.7261C246.424 25.7261 248.842 28.26 248.842 31.3858C248.842 34.5116 246.424 37.0456 243.44 37.0456Z" fill="#338FBF"/>
<path fill-rule="evenodd" clip-rule="evenodd" d="M239.066 112.763C236.786 112.763 234.938 110.998 234.938 108.822C234.938 106.645 236.786 104.88 239.066 104.88C241.347 104.88 243.195 106.645 243.195 108.822C243.195 110.998 241.347 112.763 239.066 112.763ZM239.066 114.224C235.941 114.224 233.407 111.805 233.407 108.822C233.407 105.838 235.941 103.419 239.066 103.419C242.192 103.419 244.726 105.838 244.726 108.822C244.726 111.805 242.192 114.224 239.066 114.224Z" fill="#338FBF"/>
<path fill-rule="evenodd" clip-rule="evenodd" d="M120.844 96.1829L122.708 90.8173C122.884 90.3112 122.618 89.7579 122.114 89.5814V89.5814C121.61 89.4049 121.059 89.672 120.883 90.1781L119.005 95.5861L113.757 93.8833C113.249 93.7185 112.705 93.9984 112.54 94.5084V94.5084C112.376 95.0184 112.655 95.5654 113.163 95.7301L118.368 97.4191L116.375 103.158C116.199 103.664 116.465 104.217 116.969 104.394V104.394C117.473 104.57 118.024 104.303 118.2 103.797L120.208 98.016L126.151 99.9443C126.659 100.109 127.203 99.8292 127.367 99.3192V99.3192C127.532 98.8092 127.253 98.2622 126.745 98.0975L120.844 96.1829Z" fill="#338FBF"/>
<path fill-rule="evenodd" clip-rule="evenodd" d="M181.151 23.4523L175.728 22.1525C175.216 22.0299 174.702 22.3452 174.58 22.8567V22.8567C174.457 23.3683 174.772 23.8823 175.284 24.0049L180.75 25.315L179.606 30.6292C179.495 31.1434 179.822 31.65 180.337 31.7607V31.7607C180.851 31.8715 181.357 31.5444 181.468 31.0302L182.603 25.759L188.404 27.1492C188.916 27.2718 189.43 26.9565 189.552 26.445V26.445C189.675 25.9335 189.359 25.4195 188.848 25.2969L183.004 23.8964L184.3 17.8782C184.411 17.364 184.084 16.8573 183.57 16.7466V16.7466C183.056 16.6359 182.549 16.963 182.438 17.4772L181.151 23.4523Z" fill="#338FBF"/>
<path fill-rule="evenodd" clip-rule="evenodd" d="M174.593 70.12L167.544 62.8707C166.879 62.187 165.786 62.1717 165.102 62.8365C164.418 63.5014 164.403 64.5946 165.068 65.2783L172.173 72.5848L164.477 80.4072C163.809 81.0876 163.819 82.1809 164.5 82.849C165.18 83.5172 166.273 83.5072 166.942 82.8268L174.581 75.0614L182.12 82.8147C182.785 83.4984 183.878 83.5137 184.562 82.8489C185.246 82.1841 185.261 81.0909 184.596 80.4072L177.001 72.5966L184.821 64.6328C185.489 63.9524 185.479 62.8591 184.799 62.1909C184.118 61.5228 183.025 61.5328 182.357 62.2132L174.593 70.12Z" fill="white"/>
<path fill-rule="evenodd" clip-rule="evenodd" d="M208.368 113.574L202.945 112.274C202.433 112.152 201.919 112.467 201.796 112.978V112.978C201.674 113.49 201.989 114.004 202.501 114.126L207.967 115.437L206.823 120.751C206.712 121.265 207.039 121.772 207.553 121.882V121.882C208.068 121.993 208.574 121.666 208.685 121.152L209.82 115.881L215.621 117.271C216.132 117.393 216.646 117.078 216.769 116.567V116.567C216.892 116.055 216.576 115.541 216.065 115.418L210.221 114.018L211.517 108C211.628 107.486 211.301 106.979 210.787 106.868V106.868C210.272 106.757 209.766 107.085 209.655 107.599L208.368 113.574Z" fill="#338FBF"/>
<path fill-rule="evenodd" clip-rule="evenodd" d="M89.6506 140.409H13.7805V281.023H89.6506V140.409ZM13.7805 135.474C11.0467 135.474 8.83057 137.683 8.83057 140.409V281.023C8.83057 283.749 11.0467 285.959 13.7805 285.959H89.6506C92.3843 285.959 94.6005 283.749 94.6005 281.023V140.409C94.6005 137.683 92.3843 135.474 89.6506 135.474H13.7805Z" fill="#338FBF"/>
<path d="M13.78 140.383H89.6501H94.6C94.6 137.657 92.3838 135.448 89.6501 135.448H13.78C11.0462 135.448 8.83008 137.657 8.83008 140.383V280.997C8.83008 283.723 10.0676 285.932 13.78 285.932C16.255 285.932 16.255 280.997 13.78 280.997C13.78 276.139 13.78 140.383 13.78 140.383Z" fill="#338FBF"/>
<path d="M241.688 135.447H6.2559C5.95894 135.447 5.78076 134.762 5.78076 134.077V128.255H241.688V135.447Z" fill="#338FBF"/>
<path d="M271.178 125.576H172.18V135.475H269.545C270.566 135.475 271.178 134.728 271.178 133.981V125.576Z" fill="#338FBF"/>
<path d="M245.431 124.146H4.356C4.11843 124.146 3.88086 124.831 3.88086 125.516V129.625C3.88086 130.31 4.11843 130.995 4.356 130.995H245.431V124.146Z" fill="#338FBF"/>
<path d="M269.537 124.658H173.376C172.646 124.658 171.917 125.278 171.917 125.898V129.621C171.917 130.241 172.646 130.862 173.376 130.862H269.537C270.449 130.862 271.179 130.241 271.179 129.466V126.209C271.179 125.433 270.449 124.658 269.537 124.658Z" fill="#338FBF"/>
<path fill-rule="evenodd" clip-rule="evenodd" d="M253.829 140.749H178.097V281.035H253.829V140.749ZM178.097 135.825C175.368 135.825 173.156 138.029 173.156 140.749V281.035C173.156 283.754 175.368 285.959 178.097 285.959H253.829C256.558 285.959 258.77 283.754 258.77 281.035V140.749C258.77 138.029 256.558 135.825 253.829 135.825H178.097Z" fill="#338FBF"/>
<path d="M98.0782 194.506C90.6071 194.297 81.555 193.515 74.7207 191.108L83.7128 169.176C93.7195 167.207 100.74 168.394 105.955 170.072C108.046 170.745 109.844 171.496 111.45 172.166C111.874 172.343 112.285 172.515 112.684 172.678C114.565 173.445 116.231 174.044 117.761 174.045C119.79 174.086 121.355 174.971 122.558 176.442C123.774 177.93 124.622 180.024 125.15 182.451C126.207 187.301 125.956 193.321 125.021 197.993C124.752 199.198 123.402 204.315 121.559 211.301C119.843 217.806 117.7 225.931 115.605 234.025C113.432 242.417 111.312 250.77 109.779 257.229C109.012 260.458 108.391 263.219 107.982 265.277C107.778 266.305 107.626 267.165 107.535 267.822C107.49 268.15 107.459 268.435 107.446 268.668C107.433 268.89 107.433 269.107 107.469 269.278L107.469 269.278L107.471 269.286C107.702 270.301 108.257 271.52 108.966 272.784C109.68 274.055 110.567 275.402 111.489 276.678C113.323 279.218 115.332 281.536 116.414 282.436L116.553 282.551H116.732C116.732 282.551 116.732 282.551 116.732 282.551C116.732 282.552 116.753 282.553 116.801 282.564C116.854 282.575 116.925 282.595 117.011 282.623C117.184 282.68 117.406 282.768 117.658 282.889C118.159 283.129 118.76 283.488 119.32 283.964C119.432 284.076 119.541 284.186 119.648 284.298H109.166C108.914 284.084 108.643 283.774 108.339 283.363C107.986 282.887 107.608 282.301 107.178 281.614L107.178 281.614L107.173 281.608C106.132 280.001 104.657 279.387 103.464 279.177C102.869 279.072 102.341 279.067 101.96 279.087C101.769 279.097 101.614 279.114 101.505 279.128C101.45 279.136 101.407 279.143 101.376 279.148C101.36 279.15 101.348 279.153 101.339 279.154L101.328 279.156L101.324 279.157L101.323 279.157L101.322 279.157C101.322 279.157 101.322 279.157 101.42 279.648L101.322 279.157L101.173 279.187L101.066 279.294C100.712 279.647 100.48 280.216 100.313 280.79C100.14 281.386 100.012 282.077 99.9139 282.752C99.8154 283.429 99.7446 284.104 99.688 284.668C99.68 284.748 99.6723 284.826 99.6648 284.901C99.6421 285.129 99.6221 285.33 99.6035 285.5H99.0062C98.7307 284.761 98.2722 283.298 97.9055 281.744C97.693 280.842 97.5147 279.924 97.4209 279.11C97.3254 278.282 97.3247 277.617 97.4307 277.194L97.4336 277.182L97.4359 277.171C97.6017 276.344 98.0224 274.956 98.4767 273.51C98.5749 273.197 98.6745 272.882 98.773 272.571C99.1243 271.461 99.4608 270.397 99.665 269.65L99.6651 269.65L99.6672 269.642C100.145 267.768 100.615 266.14 101.073 264.554C101.838 261.904 102.57 259.371 103.243 256.01C104.326 250.612 105.274 243.031 106.049 229.2C106.205 226.454 106.304 223.838 106.399 221.348C106.566 216.951 106.718 212.948 107.143 209.314C107.805 203.642 109.123 198.991 112.131 195.323L112.336 195.072L112.191 194.782C112.126 194.653 112.027 194.589 111.986 194.565C111.937 194.537 111.892 194.522 111.866 194.514C111.813 194.497 111.761 194.489 111.726 194.485C111.651 194.475 111.559 194.469 111.462 194.466C111.264 194.459 110.985 194.46 110.641 194.464C110.218 194.469 109.68 194.481 109.046 194.495C108.645 194.504 108.206 194.513 107.733 194.522C105.285 194.571 101.895 194.613 98.0782 194.506Z" fill="white" stroke="#338FBF"/>
<path d="M103.987 281.677L103.975 281.666L103.962 281.656C103.143 281.021 102.481 280.729 101.997 280.602C101.756 280.539 101.561 280.517 101.418 280.513C101.346 280.511 101.287 280.514 101.242 280.518C101.22 280.52 101.201 280.522 101.185 280.525C101.177 280.526 101.17 280.527 101.164 280.528L101.156 280.529L101.152 280.53L101.15 280.53L101.149 280.531C101.149 280.531 101.148 280.531 101.246 281.021L101.148 280.531L101 280.56L100.893 280.667C100.278 281.281 99.8636 282.338 99.6025 283.293C99.4029 284.023 99.2749 284.763 99.2235 285.328H98.6608C98.3854 284.589 97.9269 283.126 97.5602 281.572C97.3477 280.67 97.1694 279.752 97.0756 278.939C96.9801 278.11 96.9794 277.445 97.0854 277.022L97.0883 277.011L97.0906 276.999C97.2066 276.42 97.4015 275.769 97.6284 275.01C97.7279 274.678 97.8336 274.325 97.9414 273.948C98.2692 272.803 98.6015 271.489 98.7863 270.013C99.616 269.628 100.418 269.698 101.268 270.11C102.225 270.574 103.221 271.465 104.3 272.627C105.014 273.395 105.739 274.254 106.498 275.154C106.887 275.613 107.284 276.084 107.694 276.559C108.894 277.95 110.183 279.358 111.589 280.542C113.018 281.789 114.209 282.304 115.076 282.496C115.509 282.592 115.855 282.607 116.103 282.593C116.185 282.589 116.256 282.582 116.316 282.574C116.332 282.58 116.347 282.585 116.363 282.59C116.45 282.62 116.555 282.648 116.663 282.674C116.777 282.702 116.92 282.734 117.076 282.769C117.205 282.797 117.343 282.828 117.48 282.86C118.108 283.006 118.876 283.209 119.597 283.525C120.662 284.182 121.21 284.7 121.528 285.092C121.595 285.175 121.654 285.253 121.705 285.328H108.645C108.489 285.328 108.222 285.241 107.836 285.005C107.466 284.778 107.048 284.455 106.604 284.075C106.162 283.697 105.707 283.274 105.261 282.856C105.192 282.792 105.124 282.727 105.055 282.663C104.684 282.314 104.32 281.972 103.987 281.677Z" fill="white" stroke="#338FBF"/>
<path d="M107.111 194.506C99.5974 194.297 90.5036 193.515 83.6675 191.108L92.6596 169.176C102.666 167.207 109.686 168.394 114.902 170.072C116.993 170.745 118.791 171.496 120.397 172.166C120.821 172.343 121.232 172.515 121.631 172.678C123.512 173.445 125.178 174.044 126.708 174.045C128.736 174.086 130.302 174.971 131.504 176.442C132.721 177.93 133.568 180.024 134.097 182.451C135.154 187.301 134.903 193.322 133.967 197.993C133.827 198.627 133.709 200.169 133.603 202.323C133.496 204.507 133.4 207.372 133.317 210.687C133.15 217.317 133.032 225.754 132.967 234.147C132.903 242.54 132.892 250.891 132.94 257.348C132.964 260.577 133.003 263.334 133.058 265.388C133.085 266.414 133.117 267.267 133.152 267.917C133.186 268.551 133.227 269.03 133.279 269.278L133.279 269.278L133.281 269.286C133.512 270.301 134.067 271.52 134.776 272.784C135.49 274.055 136.377 275.402 137.299 276.678C139.133 279.218 141.141 281.536 142.224 282.436L142.363 282.551H142.542C142.538 282.551 142.559 282.552 142.611 282.564C142.664 282.575 142.734 282.595 142.821 282.623C142.994 282.68 143.216 282.768 143.468 282.889C143.969 283.129 144.57 283.488 145.13 283.964C145.242 284.076 145.351 284.186 145.458 284.298H134.976C134.724 284.084 134.453 283.774 134.148 283.363C133.796 282.887 133.417 282.301 132.987 281.614L132.988 281.614L132.983 281.608C131.941 280.001 130.467 279.387 129.274 279.177C128.679 279.072 128.151 279.067 127.77 279.087C127.579 279.097 127.424 279.114 127.315 279.128C127.26 279.136 127.217 279.143 127.186 279.148C127.17 279.15 127.158 279.153 127.149 279.154L127.138 279.156L127.134 279.157L127.133 279.157L127.132 279.157C127.132 279.157 127.132 279.157 127.229 279.648L127.132 279.157L126.983 279.187L126.876 279.294C126.522 279.647 126.29 280.216 126.123 280.79C125.95 281.386 125.822 282.077 125.724 282.752C125.625 283.429 125.554 284.104 125.498 284.668C125.49 284.748 125.482 284.826 125.475 284.901C125.452 285.129 125.432 285.33 125.413 285.5H124.816C124.541 284.761 124.082 283.298 123.715 281.744C123.503 280.842 123.325 279.924 123.231 279.11C123.135 278.282 123.135 277.617 123.241 277.194L123.243 277.182L123.246 277.171C123.412 276.344 123.832 274.956 124.287 273.51C124.385 273.197 124.484 272.882 124.583 272.571C124.934 271.461 125.271 270.397 125.475 269.65L125.475 269.65L125.477 269.642C126.797 264.461 126.043 256.765 124.711 249.194C123.718 243.554 122.391 237.92 121.317 233.362C120.946 231.785 120.605 230.337 120.318 229.062L120.318 229.062C119.374 224.866 118.091 218.247 117.813 211.746C117.674 208.495 117.788 205.29 118.314 202.439C118.84 199.585 119.774 197.122 121.249 195.323L121.455 195.072L121.31 194.782C121.245 194.652 121.144 194.588 121.103 194.565C121.055 194.537 121.01 194.522 120.984 194.514C120.931 194.497 120.879 194.489 120.844 194.485C120.769 194.475 120.677 194.469 120.579 194.466C120.38 194.459 120.099 194.46 119.752 194.464C119.326 194.469 118.785 194.481 118.146 194.495C117.743 194.504 117.301 194.513 116.825 194.522C114.36 194.571 110.95 194.613 107.111 194.506Z" fill="white" stroke="#338FBF"/>
<path d="M129.97 281.677L129.958 281.666L129.945 281.656C129.126 281.021 128.464 280.729 127.98 280.602C127.739 280.539 127.545 280.517 127.401 280.513C127.329 280.511 127.271 280.514 127.226 280.518C127.203 280.52 127.184 280.522 127.168 280.525C127.161 280.526 127.154 280.527 127.147 280.528L127.139 280.529L127.135 280.53L127.134 280.53L127.133 280.531C127.132 280.531 127.132 280.531 127.23 281.021L127.132 280.531L126.984 280.56L126.877 280.667C126.261 281.281 125.847 282.338 125.586 283.293C125.386 284.023 125.258 284.763 125.207 285.328H124.644C124.369 284.589 123.91 283.126 123.544 281.572C123.331 280.67 123.153 279.752 123.059 278.939C122.963 278.11 122.963 277.445 123.069 277.022L123.072 277.011L123.074 276.999C123.19 276.42 123.385 275.769 123.612 275.01C123.711 274.678 123.817 274.325 123.925 273.948C124.253 272.803 124.585 271.489 124.77 270.013C125.599 269.628 126.401 269.698 127.251 270.11C128.208 270.574 129.204 271.465 130.283 272.627C130.997 273.395 131.722 274.254 132.482 275.154C132.87 275.613 133.268 276.084 133.678 276.559C134.877 277.95 136.166 279.358 137.573 280.542C139.001 281.789 140.192 282.304 141.059 282.496C141.492 282.592 141.838 282.607 142.086 282.593C142.168 282.589 142.239 282.582 142.299 282.574C142.315 282.58 142.331 282.585 142.346 282.59C142.434 282.62 142.538 282.648 142.646 282.674C142.76 282.702 142.904 282.734 143.06 282.769C143.188 282.797 143.326 282.828 143.463 282.86C144.091 283.006 144.859 283.209 145.58 283.525C146.646 284.182 147.193 284.7 147.512 285.092C147.579 285.175 147.637 285.253 147.688 285.328H134.629C134.472 285.328 134.206 285.241 133.82 285.005C133.45 284.778 133.032 284.455 132.588 284.075C132.146 283.697 131.691 283.274 131.244 282.856C131.176 282.792 131.107 282.727 131.039 282.663C130.667 282.314 130.303 281.972 129.97 281.677Z" fill="white" stroke="#338FBF"/>
<path d="M127.691 174.202C126.45 180.536 123.34 185.941 120.501 189.795C119.053 191.76 117.679 193.316 116.669 194.38C116.164 194.911 115.75 195.32 115.464 195.594C115.33 195.722 115.223 195.821 115.149 195.89L115.128 195.891C114.998 195.899 114.805 195.909 114.552 195.922C114.047 195.949 113.306 195.985 112.36 196.026C110.47 196.108 107.764 196.207 104.505 196.276C97.9874 196.416 89.2627 196.437 80.4284 195.966C71.5881 195.494 62.6645 194.531 55.7371 192.709C52.272 191.797 49.3346 190.678 47.1626 189.317C44.9882 187.955 43.6372 186.387 43.2269 184.593C41.4631 176.883 44.781 167.626 48.6251 160.212C50.5387 156.521 52.5656 153.319 54.1146 151.04C54.8888 149.9 55.5429 148.992 56.0029 148.37C56.2329 148.059 56.4143 147.819 56.5379 147.658C56.5772 147.606 56.6107 147.563 56.638 147.527C56.6887 147.509 56.7531 147.487 56.8306 147.46C57.0463 147.385 57.3635 147.275 57.7685 147.139C58.5783 146.867 59.7386 146.489 61.1382 146.062C63.939 145.209 67.6912 144.168 71.5083 143.411C75.3347 142.651 79.1872 142.185 82.2035 142.46C85.2576 142.739 87.2025 143.743 87.68 145.675C88.7034 150.187 89.0007 153.799 89.0432 156.277C89.0644 157.517 89.0219 158.473 88.9746 159.116C88.9509 159.437 88.926 159.681 88.9073 159.842C88.898 159.922 88.8902 159.982 88.8848 160.022L88.8788 160.065L88.8773 160.074L88.8771 160.076L88.8771 160.076L88.877 160.076L88.877 160.076L88.8088 160.512L89.2333 160.634C96.6994 162.774 106.407 166.203 114.256 169.099C118.179 170.547 121.634 171.861 124.109 172.812C125.346 173.288 126.338 173.674 127.021 173.94C127.296 174.047 127.521 174.135 127.691 174.202Z" fill="white" stroke="#338FBF"/>
<path d="M106.697 165.903C106.769 166.024 106.831 166.127 106.881 166.208C100.91 180.377 85.0162 183.947 70.3183 183.883C62.9578 183.851 55.966 182.906 50.8109 181.968C48.2344 181.499 46.1191 181.032 44.6491 180.683C43.9141 180.508 43.3406 180.363 42.9514 180.261C42.7569 180.211 42.6084 180.171 42.509 180.144C42.468 180.133 42.4353 180.124 42.4111 180.117C39.1221 178.371 37.1568 176.002 36.2054 173.179C35.2442 170.328 35.3014 166.964 36.1577 163.23C37.8727 155.752 42.7526 146.959 48.662 138.222C54.553 129.512 61.4301 120.911 67.1204 113.794L67.1523 113.754C69.9978 110.195 72.5483 107.004 74.5216 104.365C76.4825 101.742 77.9147 99.6116 78.481 98.188L78.4819 98.1855C79.4805 95.6349 81.8883 93.8622 85.2944 92.7232C88.6962 91.5857 93.0132 91.1099 97.6768 91.0992C107 91.0778 117.58 92.9146 124.687 94.8797C128.041 95.8069 130.67 98.8234 132.188 103.181C133.703 107.531 134.081 113.144 132.975 119.094C130.766 130.982 122.652 144.14 106.043 151.108L106.038 151.11C104.255 151.88 103.445 153.308 103.242 154.947C103.043 156.553 103.419 158.375 103.976 160.054C104.537 161.742 105.298 163.336 105.915 164.503C106.225 165.088 106.5 165.568 106.697 165.903Z" fill="white" stroke="#338FBF"/>
<path d="M127.518 96.4397L127.52 96.4398C131.404 96.8612 136.684 98.5975 142.276 100.786C146.537 102.454 150.945 104.371 155.017 106.141C156.279 106.689 157.508 107.224 158.69 107.732C161.215 108.861 164.317 109.867 167.494 110.85C168.076 111.03 168.66 111.209 169.243 111.389C171.863 112.193 174.481 112.996 176.852 113.86C179.759 114.92 182.237 116.051 183.866 117.347C185.483 118.633 186.17 119.995 185.766 121.572C185.3 123.39 184.766 124.603 183.971 125.467C183.183 126.322 182.089 126.889 180.388 127.305C178.678 127.724 176.408 127.979 173.31 128.248C172.308 128.334 171.221 128.423 170.041 128.518C167.588 128.717 164.736 128.948 161.424 129.267L161.42 129.268C151.605 130.299 143.126 131.372 137.099 132.188C134.086 132.596 131.686 132.94 130.039 133.182C129.215 133.302 128.58 133.398 128.15 133.463C128.009 133.484 127.89 133.503 127.794 133.517C126.453 131.664 125.133 128.452 124.062 124.612C122.95 120.621 122.122 116.013 121.813 111.681C121.503 107.337 121.717 103.32 122.652 100.485C123.119 99.07 123.752 97.9915 124.548 97.304C125.328 96.6302 126.296 96.3042 127.518 96.4397Z" fill="white" stroke="#338FBF"/>
<path d="M149.106 103.5C148.306 105.1 144.106 104.167 142.106 103.5C148.106 103.5 146.105 99 144.605 100.5C143.105 102 140.605 102 132.605 99C124.605 96 118.105 95.5 113.105 99C108.105 102.5 110.605 107.5 110.105 115C109.716 120.84 105.822 122.732 103.77 122.983C103.708 122.995 103.653 123 103.605 123C103.659 122.996 103.714 122.99 103.77 122.983C104.371 122.871 105.656 122.174 107.105 120C108.705 117.6 106.772 113.667 105.605 112C104.405 110.4 105.105 105.667 105.605 103.5C97.6055 105.5 97.2721 110 98.1055 112C99.5 116 98.5 117.225 97.1055 118C95.6055 118.833 90.8055 120.5 83.6055 120.5C76.4055 120.5 74.2721 114.833 74.1055 112C73.3055 114 75.7721 120.167 77.1055 123C71.9055 119 70.9389 109.333 71.1056 105C70.2722 100.333 74.0056 89.7 95.6056 84.5C122.606 78 132.106 83.5 137.606 86C142.006 88 145.772 94.8333 147.106 98C148.106 99.1666 149.906 101.9 149.106 103.5Z" fill="white"/>
<path d="M142.106 103.5C144.106 104.167 148.306 105.1 149.106 103.5C149.906 101.9 148.106 99.1666 147.106 98C145.772 94.8333 142.006 88 137.606 86C132.106 83.5 122.606 78 95.6056 84.5C74.0056 89.7 70.2722 100.333 71.1056 105C70.9389 109.333 71.9055 119 77.1055 123C75.7721 120.167 73.3055 114 74.1055 112C74.2721 114.833 76.4055 120.5 83.6055 120.5C90.8055 120.5 95.6055 118.833 97.1055 118C98.5 117.225 99.5 116 98.1055 112C97.2721 110 97.6055 105.5 105.605 103.5C105.105 105.667 104.405 110.4 105.605 112C106.772 113.667 108.705 117.6 107.105 120C105.505 122.4 104.105 123 103.605 123C105.605 122.833 109.705 121 110.105 115C110.605 107.5 108.105 102.5 113.105 99C118.105 95.5 124.605 96 132.605 99C140.605 102 143.105 102 144.605 100.5C146.105 99 148.106 103.5 142.106 103.5Z" stroke="#338FBF"/>
<path d="M3.32929 111.649L31.1482 203.828C32.0068 206.569 34.5825 208.454 37.3301 208.454H67.0379C70.644 208.454 73.5633 211.367 73.5633 214.965V277.502C73.5633 281.1 70.644 284.013 67.0379 284.013H28.744H115.978C119.585 284.013 122.504 281.1 122.504 277.502V214.793C122.504 211.195 119.585 208.283 115.978 208.283H86.2706C83.3514 208.283 80.9473 206.398 80.0887 203.657L53.1284 114.391C51.0678 107.708 45.0576 103.254 38.017 103.254H9.51126C5.04651 103.254 1.95552 107.537 3.32929 111.649Z" stroke="#338FBF" stroke-width="4" stroke-miterlimit="10" stroke-linecap="round"/>
<path d="M61.8886 164.078H24.1099C21.019 164.078 18.2714 162.022 17.4128 159.109L4.70543 116.961C3.84683 114.048 6.0792 111.307 8.99846 111.307H46.9488C50.0398 111.307 52.6156 113.363 53.6459 116.275L66.3533 158.424C67.0402 161.165 64.8078 164.078 61.8886 164.078Z" fill="#338FBF"/>
<path d="M56.737 164.078H24.1099C21.019 164.078 18.2714 162.022 17.4128 159.109L4.70543 116.961C3.84683 114.048 6.0792 111.307 8.99846 111.307H41.7972C44.8882 111.307 47.6357 113.363 48.4943 116.275L61.2017 158.424C61.8886 161.165 59.6562 164.078 56.737 164.078Z" fill="#338FBF"/>
<path d="M46.0887 189.95H115.292C118.555 189.95 121.131 192.52 121.131 195.775V204.685H40.4219V195.775C40.4219 192.52 42.9977 189.95 46.0887 189.95Z" fill="#338FBF"/>
<path d="M39.3917 199.373H122.161C123.535 199.373 124.737 200.573 124.737 201.943V205.37C124.737 206.741 123.535 207.94 122.161 207.94H39.3917C38.018 207.94 36.8159 206.741 36.8159 205.37V201.943C36.8159 200.573 37.8462 199.373 39.3917 199.373Z" fill="#338FBF"/>
<path d="M28.744 284.013H115.978C119.584 284.013 122.504 281.1 122.504 277.502V214.793C122.504 211.195 119.584 208.283 115.978 208.283H86.2706C83.3513 208.283 80.9472 206.398 80.0886 203.657L53.1284 114.391C51.0677 107.708 45.0575 103.254 38.017 103.254H9.51123" stroke="#338FBF" stroke-width="4" stroke-miterlimit="10" stroke-linecap="round" stroke-linejoin="round"/>
</svg>
