<svg width="304" height="337" viewBox="0 0 304 337" fill="none" xmlns="http://www.w3.org/2000/svg">
<path d="M204.992 174H168.461L171.218 171.267C171.562 170.925 172.079 170.584 172.596 170.584L186.726 169.047L175.87 148.208L178.627 132.324H191.723L197.754 169.047L202.752 170.242C203.613 170.413 204.13 171.096 204.302 171.78L204.992 174Z" fill="#338FBF"/>
<path d="M189.515 148.274L193.672 169.369H187.09L176.178 148.274H189.515Z" fill="#338FBF"/>
<path d="M145.17 152.904H212.3C214.371 152.904 216.269 151.174 216.442 149.098L220.929 98.0555C221.101 95.9791 219.548 94.2489 217.477 94.2489H150.347C148.276 94.2489 146.378 95.9791 146.205 98.0555L141.719 149.098C141.546 151.174 143.099 152.904 145.17 152.904Z" fill="#338FBF"/>
<path d="M142.597 152.904H209.728C211.799 152.904 213.697 151.174 213.869 149.098L218.356 98.0555C218.529 95.9791 216.976 94.2489 214.905 94.2489H147.774C145.704 94.2489 143.805 95.9791 143.633 98.0555L139.146 149.098C138.973 151.174 140.526 152.904 142.597 152.904Z" fill="#338FBF"/>
<path d="M211.958 150.332H140.676L145.371 97.3361H216.826L211.958 150.332Z" fill="#338FBF"/>
<path fill-rule="evenodd" clip-rule="evenodd" d="M99.3163 87.6364C98.8092 88.3053 98.9243 89.2711 99.5734 89.7936L112.742 100.396C113.112 100.693 113.596 100.794 114.049 100.668C114.502 100.543 114.871 100.204 115.045 99.7555L116.879 95.0324L126.793 105.614C127.365 106.224 128.309 106.241 128.901 105.652V105.652C129.494 105.062 129.511 104.089 128.938 103.479L117.423 91.1882C117.072 90.8132 116.56 90.6473 116.063 90.7476C115.567 90.848 115.153 91.2009 114.965 91.685L113.014 96.7135L101.41 87.3715C100.761 86.849 99.8234 86.9676 99.3163 87.6364V87.6364Z" fill="#338FBF"/>
<path fill-rule="evenodd" clip-rule="evenodd" d="M216.153 50.539C215.338 50.3581 214.531 50.8718 214.351 51.6864L210.681 68.2129C210.578 68.6768 210.7 69.1622 211.009 69.5231C211.318 69.8841 211.779 70.0785 212.253 70.048L217.244 69.7271L212.174 83.2682C211.882 84.0496 212.278 84.9202 213.059 85.2127V85.2127C213.841 85.5053 214.711 85.1089 215.004 84.3275L220.892 68.5992C221.072 68.1192 220.996 67.5808 220.69 67.1692C220.385 66.7576 219.892 66.529 219.38 66.5619L214.067 66.9036L217.3 52.3413C217.481 51.5267 216.967 50.7198 216.153 50.539V50.539Z" fill="#338FBF"/>
<path fill-rule="evenodd" clip-rule="evenodd" d="M229.656 125.034C229.308 124.276 229.641 123.379 230.399 123.03L245.784 115.967C246.216 115.769 246.716 115.785 247.134 116.011C247.552 116.238 247.839 116.648 247.909 117.118L248.645 122.064L260.816 114.259C261.519 113.809 262.453 114.013 262.904 114.716V114.716C263.354 115.418 263.15 116.353 262.447 116.803L248.31 125.868C247.878 126.145 247.336 126.184 246.869 125.972C246.403 125.76 246.075 125.325 246 124.818L245.216 119.552L231.66 125.776C230.902 126.125 230.005 125.792 229.656 125.034V125.034Z" fill="#338FBF"/>
<path fill-rule="evenodd" clip-rule="evenodd" d="M157.913 85.5146C155.736 85.5146 153.972 83.6661 153.972 81.3858C153.972 79.1056 155.736 77.257 157.913 77.257C160.089 77.257 161.854 79.1056 161.854 81.3858C161.854 83.6661 160.089 85.5146 157.913 85.5146ZM157.913 87.0456C154.929 87.0456 152.51 84.5116 152.51 81.3858C152.51 78.26 154.929 75.7261 157.913 75.7261C160.897 75.7261 163.315 78.26 163.315 81.3858C163.315 84.5116 160.897 87.0456 157.913 87.0456Z" fill="#338FBF"/>
<path fill-rule="evenodd" clip-rule="evenodd" d="M247.44 85.5146C245.263 85.5146 243.499 83.6661 243.499 81.3858C243.499 79.1056 245.263 77.257 247.44 77.257C249.616 77.257 251.381 79.1056 251.381 81.3858C251.381 83.6661 249.616 85.5146 247.44 85.5146ZM247.44 87.0456C244.456 87.0456 242.037 84.5116 242.037 81.3858C242.037 78.26 244.456 75.7261 247.44 75.7261C250.424 75.7261 252.842 78.26 252.842 81.3858C252.842 84.5116 250.424 87.0456 247.44 87.0456Z" fill="#338FBF"/>
<path fill-rule="evenodd" clip-rule="evenodd" d="M243.066 162.763C240.786 162.763 238.938 160.998 238.938 158.822C238.938 156.645 240.786 154.88 243.066 154.88C245.347 154.88 247.195 156.645 247.195 158.822C247.195 160.998 245.347 162.763 243.066 162.763ZM243.066 164.224C239.941 164.224 237.407 161.805 237.407 158.822C237.407 155.838 239.941 153.419 243.066 153.419C246.192 153.419 248.726 155.838 248.726 158.822C248.726 161.805 246.192 164.224 243.066 164.224Z" fill="#338FBF"/>
<path fill-rule="evenodd" clip-rule="evenodd" d="M124.845 146.183L126.708 140.817C126.884 140.311 126.618 139.758 126.114 139.581V139.581C125.61 139.405 125.059 139.672 124.884 140.178L123.005 145.586L117.757 143.883C117.25 143.719 116.705 143.998 116.541 144.508V144.508C116.377 145.018 116.655 145.565 117.163 145.73L122.369 147.419L120.376 153.158C120.2 153.664 120.466 154.217 120.97 154.394V154.394C121.474 154.57 122.025 154.303 122.2 153.797L124.208 148.016L130.151 149.944C130.659 150.109 131.204 149.829 131.368 149.319V149.319C131.532 148.809 131.253 148.262 130.745 148.097L124.845 146.183Z" fill="#338FBF"/>
<path fill-rule="evenodd" clip-rule="evenodd" d="M185.152 73.4523L179.728 72.1525C179.217 72.0299 178.702 72.3452 178.58 72.8567V72.8567C178.457 73.3683 178.773 73.8823 179.284 74.0049L184.751 75.315L183.606 80.6292C183.495 81.1434 183.823 81.65 184.337 81.7607V81.7607C184.851 81.8715 185.358 81.5444 185.468 81.0302L186.603 75.759L192.404 77.1492C192.916 77.2718 193.43 76.9565 193.552 76.445V76.445C193.675 75.9335 193.36 75.4195 192.848 75.2969L187.005 73.8964L188.301 67.8782C188.411 67.364 188.084 66.8573 187.57 66.7466V66.7466C187.056 66.6359 186.549 66.963 186.438 67.4772L185.152 73.4523Z" fill="#338FBF"/>
<path fill-rule="evenodd" clip-rule="evenodd" d="M178.593 120.12L171.544 112.871C170.879 112.187 169.786 112.172 169.102 112.837C168.418 113.501 168.403 114.595 169.068 115.278L176.173 122.585L168.478 130.407C167.809 131.088 167.819 132.181 168.5 132.849C169.18 133.517 170.273 133.507 170.942 132.827L178.581 125.061L186.12 132.815C186.785 133.498 187.878 133.514 188.562 132.849C189.246 132.184 189.261 131.091 188.596 130.407L181.001 122.597L188.821 114.633C189.489 113.952 189.479 112.859 188.799 112.191C188.118 111.523 187.025 111.533 186.357 112.213L178.593 120.12Z" fill="white"/>
<path fill-rule="evenodd" clip-rule="evenodd" d="M212.368 163.574L206.945 162.274C206.433 162.152 205.919 162.467 205.797 162.978V162.978C205.674 163.49 205.989 164.004 206.501 164.126L211.967 165.437L210.823 170.751C210.712 171.265 211.039 171.772 211.553 171.882V171.882C212.068 171.993 212.574 171.666 212.685 171.152L213.82 165.881L219.621 167.271C220.132 167.393 220.647 167.078 220.769 166.567V166.567C220.892 166.055 220.576 165.541 220.065 165.418L214.221 164.018L215.517 158C215.628 157.486 215.301 156.979 214.787 156.868V156.868C214.272 156.757 213.766 157.085 213.655 157.599L212.368 163.574Z" fill="#338FBF"/>
<path fill-rule="evenodd" clip-rule="evenodd" d="M93.6503 190.409H17.7802V331.023H93.6503V190.409ZM17.7802 185.474C15.0465 185.474 12.8303 187.683 12.8303 190.409V331.023C12.8303 333.749 15.0465 335.959 17.7802 335.959H93.6503C96.3841 335.959 98.6002 333.749 98.6002 331.023V190.409C98.6002 187.683 96.3841 185.474 93.6503 185.474H17.7802Z" fill="#338FBF"/>
<path d="M17.78 190.383H93.6501H98.6C98.6 187.657 96.3838 185.448 93.6501 185.448H17.78C15.0462 185.448 12.8301 187.657 12.8301 190.383V330.997C12.8301 333.723 14.0676 335.932 17.78 335.932C20.255 335.932 20.255 330.997 17.78 330.997C17.78 326.139 17.78 190.383 17.78 190.383Z" fill="#338FBF"/>
<path d="M245.688 185.447H10.2559C9.95894 185.447 9.78076 184.762 9.78076 184.077V178.255H245.688V185.447Z" fill="#338FBF"/>
<path d="M275.178 175.576H176.18V185.475H273.545C274.566 185.475 275.178 184.728 275.178 183.981V175.576Z" fill="#338FBF"/>
<path d="M249.431 174.146H8.356C8.11843 174.146 7.88086 174.831 7.88086 175.516V179.625C7.88086 180.31 8.11843 180.995 8.356 180.995H249.431V174.146Z" fill="#338FBF"/>
<path d="M273.536 174.658H177.376C176.646 174.658 175.916 175.278 175.916 175.898V179.621C175.916 180.241 176.646 180.862 177.376 180.862H273.536C274.449 180.862 275.179 180.241 275.179 179.466V176.209C275.179 175.433 274.449 174.658 273.536 174.658Z" fill="#338FBF"/>
<path fill-rule="evenodd" clip-rule="evenodd" d="M257.829 190.749H182.097V331.035H257.829V190.749ZM182.097 185.825C179.368 185.825 177.156 188.029 177.156 190.749V331.035C177.156 333.754 179.368 335.959 182.097 335.959H257.829C260.558 335.959 262.77 333.754 262.77 331.035V190.749C262.77 188.029 260.558 185.825 257.829 185.825H182.097Z" fill="#338FBF"/>
<path d="M102.078 244.506C94.6071 244.297 85.555 243.515 78.7207 241.108L87.7128 219.176C97.7195 217.207 104.74 218.394 109.955 220.072C112.046 220.745 113.844 221.496 115.45 222.166C115.874 222.343 116.285 222.515 116.684 222.678C118.565 223.445 120.231 224.044 121.761 224.045C123.79 224.086 125.355 224.971 126.558 226.442C127.774 227.93 128.622 230.024 129.15 232.451C130.207 237.301 129.956 243.321 129.021 247.993C128.752 249.198 127.402 254.315 125.559 261.301C123.843 267.806 121.7 275.931 119.605 284.025C117.432 292.417 115.312 300.77 113.779 307.229C113.012 310.458 112.391 313.219 111.982 315.277C111.778 316.305 111.626 317.165 111.535 317.822C111.49 318.15 111.459 318.435 111.446 318.668C111.433 318.89 111.433 319.107 111.469 319.278L111.469 319.278L111.471 319.286C111.702 320.301 112.257 321.52 112.966 322.784C113.68 324.055 114.567 325.402 115.489 326.678C117.323 329.218 119.332 331.536 120.414 332.436L120.553 332.551H120.732C120.732 332.551 120.732 332.551 120.732 332.551C120.732 332.552 120.753 332.553 120.801 332.564C120.854 332.575 120.925 332.595 121.011 332.623C121.184 332.68 121.406 332.768 121.658 332.889C122.159 333.129 122.76 333.488 123.32 333.964C123.432 334.076 123.541 334.186 123.648 334.298H113.166C112.914 334.084 112.643 333.774 112.339 333.363C111.986 332.887 111.608 332.301 111.178 331.614L111.178 331.614L111.173 331.608C110.132 330.001 108.657 329.387 107.464 329.177C106.869 329.072 106.341 329.067 105.96 329.087C105.769 329.097 105.614 329.114 105.505 329.128C105.45 329.136 105.407 329.143 105.376 329.148C105.36 329.15 105.348 329.153 105.339 329.154L105.328 329.156L105.324 329.157L105.323 329.157L105.322 329.157C105.322 329.157 105.322 329.157 105.42 329.648L105.322 329.157L105.173 329.187L105.066 329.294C104.712 329.647 104.48 330.216 104.313 330.79C104.14 331.386 104.012 332.077 103.914 332.752C103.815 333.429 103.745 334.104 103.688 334.668C103.68 334.748 103.672 334.826 103.665 334.901C103.642 335.129 103.622 335.33 103.604 335.5H103.006C102.731 334.761 102.272 333.298 101.906 331.744C101.693 330.842 101.515 329.924 101.421 329.11C101.325 328.282 101.325 327.617 101.431 327.194L101.434 327.182L101.436 327.171C101.602 326.344 102.022 324.956 102.477 323.51C102.575 323.197 102.675 322.882 102.773 322.571C103.124 321.461 103.461 320.397 103.665 319.65L103.665 319.65L103.667 319.642C104.145 317.768 104.615 316.14 105.073 314.554C105.838 311.904 106.57 309.371 107.243 306.01C108.326 300.612 109.274 293.031 110.049 279.2C110.205 276.454 110.304 273.838 110.399 271.348C110.566 266.951 110.718 262.948 111.143 259.314C111.805 253.642 113.123 248.991 116.131 245.323L116.336 245.072L116.191 244.782C116.126 244.653 116.027 244.589 115.986 244.565C115.937 244.537 115.892 244.522 115.866 244.514C115.813 244.497 115.761 244.489 115.726 244.485C115.651 244.475 115.559 244.469 115.462 244.466C115.264 244.459 114.985 244.46 114.641 244.464C114.218 244.469 113.68 244.481 113.046 244.495C112.645 244.504 112.206 244.513 111.733 244.522C109.285 244.571 105.895 244.613 102.078 244.506Z" fill="white" stroke="#338FBF"/>
<path d="M107.987 331.677L107.975 331.666L107.962 331.656C107.143 331.021 106.48 330.729 105.997 330.602C105.756 330.539 105.561 330.517 105.418 330.513C105.346 330.511 105.287 330.514 105.242 330.518C105.22 330.52 105.2 330.522 105.185 330.525C105.177 330.526 105.17 330.527 105.164 330.528L105.155 330.529L105.152 330.53L105.15 330.53L105.149 330.531C105.149 330.531 105.148 330.531 105.246 331.021L105.148 330.531L105 330.56L104.893 330.667C104.278 331.281 103.864 332.338 103.602 333.293C103.403 334.023 103.275 334.763 103.223 335.328H102.661C102.385 334.589 101.927 333.126 101.56 331.572C101.348 330.67 101.169 329.752 101.075 328.939C100.98 328.11 100.979 327.445 101.085 327.022L101.088 327.011L101.091 326.999C101.206 326.42 101.401 325.769 101.628 325.01C101.728 324.678 101.833 324.325 101.941 323.948C102.269 322.803 102.601 321.489 102.786 320.013C103.616 319.628 104.418 319.698 105.267 320.11C106.225 320.574 107.221 321.465 108.3 322.627C109.014 323.395 109.738 324.254 110.498 325.154C110.887 325.613 111.284 326.084 111.694 326.559C112.894 327.95 114.183 329.358 115.589 330.542C117.018 331.789 118.209 332.304 119.076 332.496C119.509 332.592 119.855 332.607 120.103 332.593C120.185 332.589 120.256 332.582 120.316 332.574C120.332 332.58 120.347 332.585 120.362 332.59C120.45 332.62 120.555 332.648 120.663 332.674C120.777 332.702 120.92 332.734 121.076 332.769C121.205 332.797 121.343 332.828 121.48 332.86C122.108 333.006 122.876 333.209 123.597 333.525C124.662 334.182 125.21 334.7 125.528 335.092C125.595 335.175 125.653 335.253 125.705 335.328H112.645C112.488 335.328 112.222 335.241 111.836 335.005C111.466 334.778 111.048 334.455 110.604 334.075C110.162 333.697 109.707 333.274 109.261 332.856C109.192 332.792 109.124 332.727 109.055 332.663C108.683 332.314 108.32 331.972 107.987 331.677Z" fill="white" stroke="#338FBF"/>
<path d="M111.111 244.506C103.597 244.297 94.5033 243.515 87.6672 241.108L96.6594 219.176C106.666 217.207 113.686 218.394 118.902 220.072C120.993 220.745 122.791 221.496 124.397 222.166C124.821 222.343 125.232 222.515 125.631 222.678C127.512 223.445 129.178 224.044 130.708 224.045C132.736 224.086 134.302 224.971 135.504 226.442C136.721 227.93 137.568 230.024 138.097 232.451C139.154 237.301 138.903 243.322 137.967 247.993C137.827 248.627 137.708 250.169 137.603 252.323C137.496 254.507 137.4 257.372 137.317 260.687C137.15 267.317 137.031 275.754 136.967 284.147C136.902 292.54 136.892 300.891 136.94 307.348C136.964 310.577 137.003 313.334 137.058 315.388C137.085 316.414 137.116 317.267 137.152 317.917C137.186 318.551 137.226 319.03 137.279 319.278L137.279 319.278L137.28 319.286C137.512 320.301 138.067 321.52 138.776 322.784C139.489 324.055 140.377 325.402 141.299 326.678C143.132 329.218 145.141 331.536 146.224 332.436L146.363 332.551H146.542C146.538 332.551 146.559 332.552 146.611 332.564C146.664 332.575 146.734 332.595 146.821 332.623C146.994 332.68 147.215 332.768 147.468 332.889C147.969 333.129 148.57 333.488 149.13 333.964C149.242 334.076 149.351 334.186 149.458 334.298H138.976C138.724 334.084 138.453 333.774 138.148 333.363C137.795 332.887 137.417 332.301 136.987 331.614L136.987 331.614L136.983 331.608C135.941 330.001 134.466 329.387 133.273 329.177C132.679 329.072 132.151 329.067 131.77 329.087C131.579 329.097 131.424 329.114 131.315 329.128C131.26 329.136 131.216 329.143 131.185 329.148C131.17 329.15 131.158 329.153 131.149 329.154L131.137 329.156L131.134 329.157L131.132 329.157L131.132 329.157C131.132 329.157 131.131 329.157 131.229 329.648L131.131 329.157L130.983 329.187L130.876 329.294C130.522 329.647 130.29 330.216 130.123 330.79C129.949 331.386 129.822 332.077 129.724 332.752C129.625 333.429 129.554 334.104 129.498 334.668C129.49 334.748 129.482 334.826 129.474 334.901C129.452 335.129 129.432 335.33 129.413 335.5H128.816C128.54 334.761 128.082 333.298 127.715 331.744C127.503 330.842 127.324 329.924 127.231 329.11C127.135 328.282 127.134 327.617 127.24 327.194L127.243 327.182L127.246 327.171C127.411 326.344 127.832 324.956 128.286 323.51C128.385 323.197 128.484 322.882 128.583 322.571C128.934 321.461 129.27 320.397 129.475 319.65L129.475 319.65L129.477 319.642C130.797 314.461 130.043 306.765 128.71 299.194C127.718 293.554 126.39 287.92 125.317 283.362C124.945 281.785 124.604 280.337 124.318 279.062L124.318 279.062C123.374 274.866 122.091 268.247 121.813 261.746C121.674 258.495 121.787 255.29 122.313 252.439C122.84 249.585 123.774 247.122 125.249 245.323L125.455 245.072L125.31 244.782C125.244 244.652 125.144 244.588 125.103 244.565C125.054 244.537 125.01 244.522 124.984 244.514C124.931 244.497 124.879 244.489 124.844 244.485C124.769 244.475 124.677 244.469 124.579 244.466C124.38 244.459 124.099 244.46 123.752 244.464C123.326 244.469 122.784 244.481 122.146 244.495C121.743 244.504 121.301 244.513 120.825 244.522C118.36 244.571 114.949 244.613 111.111 244.506Z" fill="white" stroke="#338FBF"/>
<path d="M133.97 331.677L133.958 331.666L133.945 331.656C133.126 331.021 132.464 330.729 131.98 330.602C131.739 330.539 131.545 330.517 131.401 330.513C131.329 330.511 131.271 330.514 131.225 330.518C131.203 330.52 131.184 330.522 131.168 330.525C131.16 330.526 131.153 330.527 131.147 330.528L131.139 330.529L131.135 330.53L131.133 330.53L131.132 330.531C131.132 330.531 131.132 330.531 131.229 331.021L131.132 330.531L130.983 330.56L130.876 330.667C130.261 331.281 129.847 332.338 129.586 333.293C129.386 334.023 129.258 334.763 129.207 335.328H128.644C128.369 334.589 127.91 333.126 127.543 331.572C127.331 330.67 127.153 329.752 127.059 328.939C126.963 328.11 126.963 327.445 127.069 327.022L127.071 327.011L127.074 326.999C127.19 326.42 127.385 325.769 127.612 325.01C127.711 324.678 127.817 324.325 127.925 323.948C128.252 322.803 128.585 321.489 128.769 320.013C129.599 319.628 130.401 319.698 131.251 320.11C132.208 320.574 133.204 321.465 134.283 322.627C134.997 323.395 135.722 324.254 136.482 325.154C136.87 325.613 137.267 326.084 137.677 326.559C138.877 327.95 140.166 329.358 141.572 330.542C143.001 331.789 144.192 332.304 145.059 332.496C145.492 332.592 145.838 332.607 146.086 332.593C146.168 332.589 146.239 332.582 146.299 332.574C146.315 332.58 146.331 332.585 146.346 332.59C146.434 332.62 146.538 332.648 146.646 332.674C146.76 332.702 146.903 332.734 147.059 332.769C147.188 332.797 147.326 332.828 147.463 332.86C148.091 333.006 148.859 333.209 149.58 333.525C150.645 334.182 151.193 334.7 151.511 335.092C151.578 335.175 151.637 335.253 151.688 335.328H138.629C138.472 335.328 138.205 335.241 137.819 335.005C137.449 334.778 137.032 334.455 136.588 334.075C136.145 333.697 135.69 333.274 135.244 332.856C135.175 332.792 135.107 332.727 135.039 332.663C134.667 332.314 134.303 331.972 133.97 331.677Z" fill="white" stroke="#338FBF"/>
<path d="M131.691 224.202C130.45 230.536 127.34 235.941 124.501 239.795C123.053 241.76 121.679 243.316 120.669 244.38C120.164 244.911 119.751 245.32 119.464 245.594C119.33 245.722 119.224 245.821 119.149 245.89L119.128 245.891C118.998 245.899 118.805 245.909 118.552 245.922C118.047 245.949 117.306 245.985 116.361 246.026C114.47 246.108 111.764 246.207 108.506 246.276C101.987 246.416 93.2628 246.437 84.4286 245.966C75.5882 245.494 66.6646 244.531 59.7372 242.709C56.2721 241.797 53.3347 240.678 51.1627 239.317C48.9883 237.955 47.6373 236.387 47.227 234.593C45.4632 226.883 48.7812 217.626 52.6252 210.212C54.5388 206.521 56.5657 203.319 58.1147 201.04C58.8889 199.9 59.5431 198.992 60.0031 198.37C60.2331 198.059 60.4145 197.819 60.538 197.658C60.5774 197.606 60.6108 197.563 60.6381 197.527C60.6888 197.509 60.7532 197.487 60.8308 197.46C61.0464 197.385 61.3637 197.275 61.7686 197.139C62.5785 196.867 63.7388 196.489 65.1384 196.062C67.9391 195.209 71.6913 194.168 75.5084 193.411C79.3348 192.651 83.1873 192.185 86.2036 192.46C89.2577 192.739 91.2026 193.743 91.6801 195.675C92.7035 200.187 93.0009 203.799 93.0433 206.277C93.0646 207.517 93.022 208.473 92.9747 209.116C92.951 209.437 92.9262 209.681 92.9075 209.842C92.8981 209.922 92.8903 209.982 92.8849 210.022L92.8789 210.065L92.8775 210.074L92.8772 210.076L92.8772 210.076L92.8772 210.076L92.8772 210.076L92.8089 210.512L93.2334 210.634C100.7 212.774 110.407 216.203 118.256 219.099C122.179 220.547 125.634 221.861 128.109 222.812C129.346 223.288 130.338 223.674 131.021 223.94C131.296 224.047 131.521 224.135 131.691 224.202Z" fill="white" stroke="#338FBF"/>
<path d="M110.697 215.903C110.769 216.024 110.831 216.127 110.881 216.208C104.91 230.377 89.0162 233.947 74.3183 233.883C66.9578 233.851 59.966 232.906 54.8109 231.968C52.2344 231.499 50.1191 231.032 48.6491 230.683C47.9141 230.508 47.3406 230.363 46.9514 230.261C46.7569 230.211 46.6084 230.171 46.509 230.144C46.468 230.133 46.4353 230.124 46.4111 230.117C43.1221 228.371 41.1568 226.002 40.2054 223.179C39.2442 220.328 39.3014 216.964 40.1577 213.23C41.8727 205.752 46.7526 196.959 52.662 188.222C58.553 179.512 65.4301 170.911 71.1204 163.794L71.1523 163.754C73.9978 160.195 76.5483 157.004 78.5216 154.365C80.4825 151.742 81.9147 149.612 82.481 148.188L82.4819 148.185C83.4805 145.635 85.8883 143.862 89.2944 142.723C92.6962 141.586 97.0132 141.11 101.677 141.099C111 141.078 121.58 142.915 128.687 144.88C132.041 145.807 134.67 148.823 136.188 153.181C137.703 157.531 138.081 163.144 136.975 169.094C134.766 180.982 126.652 194.14 110.043 201.108L110.038 201.11C108.255 201.88 107.445 203.308 107.242 204.947C107.043 206.553 107.419 208.375 107.976 210.054C108.537 211.742 109.298 213.336 109.915 214.503C110.225 215.088 110.5 215.568 110.697 215.903Z" fill="white" stroke="#338FBF"/>
<path d="M131.518 146.44L131.519 146.44C135.404 146.861 140.683 148.598 146.275 150.786C150.536 152.454 154.945 154.371 159.017 156.141C160.278 156.689 161.507 157.224 162.69 157.732C165.215 158.861 168.317 159.867 171.494 160.85C172.075 161.03 172.659 161.209 173.243 161.389C175.863 162.193 178.48 162.996 180.851 163.86C183.759 164.92 186.237 166.051 187.866 167.347C189.483 168.633 190.17 169.995 189.766 171.572C189.299 173.39 188.766 174.603 187.971 175.467C187.183 176.322 186.089 176.889 184.388 177.305C182.678 177.724 180.408 177.979 177.309 178.248C176.308 178.334 175.22 178.423 174.04 178.518C171.588 178.717 168.736 178.948 165.424 179.267L165.419 179.268C155.605 180.299 147.126 181.372 141.099 182.188C138.086 182.596 135.686 182.94 134.039 183.182C133.215 183.302 132.58 183.398 132.15 183.463C132.009 183.484 131.89 183.503 131.794 183.517C130.453 181.664 129.133 178.452 128.062 174.612C126.95 170.621 126.122 166.013 125.813 161.681C125.503 157.337 125.717 153.32 126.652 150.485C127.119 149.07 127.752 147.991 128.548 147.304C129.328 146.63 130.296 146.304 131.518 146.44Z" fill="white" stroke="#338FBF"/>
<path d="M75.9582 160.565L75.9814 160.642L75.9788 160.723C75.8172 165.885 77.5598 168.931 79.3978 170.706C79.2122 170.419 79.0434 170.133 78.8907 169.854C78.4346 169.022 78.1075 168.23 77.8944 167.648C77.7877 167.356 77.709 167.115 77.6568 166.946C77.6306 166.861 77.611 166.795 77.5978 166.748C77.5912 166.725 77.5861 166.707 77.5827 166.695L77.5786 166.68L77.5775 166.675L77.5771 166.674L77.577 166.674C77.5769 166.673 77.5769 166.673 78.0602 166.545L77.5769 166.673L78.4932 166.302C78.4962 166.3 78.4962 166.3 78.4961 166.3L78.4964 166.301L78.5006 166.308C78.5052 166.316 78.513 166.329 78.5241 166.347C78.5464 166.383 78.5819 166.438 78.6315 166.51C78.7307 166.653 78.8861 166.862 79.1041 167.113C79.54 167.614 80.2257 168.278 81.2132 168.915C83.1804 170.182 86.3787 171.359 91.2584 170.855L91.2669 170.854L91.2669 170.854C96.2599 170.425 99.1062 169.57 100.602 168.156C102.046 166.791 102.339 164.787 101.829 161.648C101.554 160 101.826 158.671 102.419 157.614C103.007 156.565 103.889 155.822 104.779 155.298C105.669 154.774 106.586 154.459 107.275 154.275C107.62 154.182 107.912 154.122 108.119 154.084C108.223 154.065 108.305 154.052 108.363 154.044C108.392 154.039 108.414 154.036 108.43 154.034L108.449 154.032L108.455 154.031L108.457 154.031L108.457 154.031C108.458 154.031 108.458 154.031 108.517 154.527L108.458 154.031L109.08 153.957L75.9582 160.565ZM75.9582 160.565L75.9582 160.565L75.9581 160.565L75.9581 160.564L75.957 160.561L75.9518 160.543C75.9471 160.526 75.9399 160.5 75.9306 160.466C75.912 160.397 75.8849 160.293 75.8525 160.157C75.7877 159.885 75.7014 159.485 75.6174 158.981C75.4493 157.972 75.2916 156.551 75.3337 154.905C75.4178 151.61 76.2998 147.448 79.465 143.873C82.6465 140.365 87.5224 138.015 92.739 136.273C96.6662 134.961 100.735 134.01 104.364 133.161C105.544 132.886 106.678 132.621 107.745 132.358C126.443 130.233 136.069 132.328 141.583 135.661C145.685 138.14 147.529 141.28 149.187 144.104C149.77 145.096 150.33 146.049 150.957 146.921C152.368 148.883 153.177 150.373 153.497 151.465C153.815 152.551 153.618 153.101 153.24 153.411C152.793 153.777 151.919 153.973 150.516 153.904C150.092 153.883 149.632 153.839 149.135 153.773C149.165 153.761 149.194 153.748 149.222 153.735C149.761 153.491 150.247 153.056 150.312 152.34L150.314 152.318V152.295V152.284V152.273V152.262V152.251V152.24V152.229V152.219V152.208V152.197V152.187V152.176V152.165V152.155V152.144V152.134V152.124V152.113V152.103V152.093V152.082V152.072V152.062V152.052V152.042V152.032V152.022V152.012V152.002V151.992V151.982V151.972V151.963V151.953V151.943V151.934V151.924V151.915V151.905V151.896V151.886V151.877V151.867V151.858V151.849V151.84V151.83V151.821V151.812V151.803V151.794V151.785V151.776V151.767V151.758V151.75V151.741V151.732V151.723V151.715V151.706V151.697V151.689V151.68V151.672V151.663V151.655V151.646V151.638V151.63V151.622V151.613V151.605V151.597V151.589V151.581V151.573V151.565V151.557V151.549V151.541V151.533V151.525V151.517V151.51V151.502V151.494V151.487V151.479V151.472V151.464V151.456V151.449V151.442V151.434V151.427V151.42V151.412V151.405V151.398V151.391V151.383V151.376V151.369V151.362V151.355V151.348V151.341V151.334V151.327V151.321V151.314V151.307V151.3V151.294V151.287V151.28V151.274V151.267V151.261V151.254V151.248V151.241V151.235V151.228V151.222V151.216V151.21V151.203V151.197V151.191V151.185V151.179V151.173V151.166V151.16V151.154V151.149V151.143V151.137V151.131V151.125V151.119V151.113V151.108V151.102V151.096V151.091V151.085V151.08V151.074V151.069V151.063V151.058V151.052V151.047V151.041V151.036V151.031V151.025V151.02V151.015V151.01V151.005V151V150.994V150.989V150.984V150.979V150.974V150.969V150.964V150.96V150.955V150.95V150.945V150.94V150.936V150.931V150.926V150.921V150.917V150.912V150.908V150.903V150.899V150.894V150.89V150.885V150.881V150.876V150.872V150.868V150.863V150.859V150.855V150.851V150.846V150.842V150.838V150.834V150.83V150.826V150.822V150.818V150.814V150.81V150.806V150.802V150.798V150.794V150.79V150.786V150.783V150.779V150.775V150.771V150.768V150.764V150.76V150.757V150.753V150.75V150.746V150.743V150.739V150.736V150.732V150.729V150.725V150.722V150.719V150.715V150.712V150.709V150.706V150.702V150.699V150.696V150.693V150.69V150.687V150.683V150.68V150.677V150.674V150.671V150.668V150.665V150.662V150.66V150.657V150.654V150.651V150.648V150.645V150.643V150.64V150.637V150.634V150.632V150.629V150.626V150.624V150.621V150.619V150.616V150.613V150.611V150.608V150.606V150.603V150.601V150.599V150.596V150.594V150.591V150.589V150.587V150.585V150.582V150.58V150.578V150.576V150.573V150.571V150.569V150.567V150.565V150.563V150.56V150.558V150.556V150.554V150.552V150.55V150.548V150.546V150.544V150.542V150.541V150.539V150.537V150.535V150.533V150.531V150.53V150.528V150.526V150.524V150.523V150.521V150.519V150.517V150.516V150.514V150.512V150.511V150.509V150.508V150.506V150.505V150.503V150.502V150.5V150.499V150.497V150.496V150.494V150.493V150.491V150.49V150.489V150.487V150.486V150.485V150.483V150.482V150.481V150.479V150.478V150.477V150.476V150.474V150.473V150.472V150.471V150.47V150.469V150.467V150.466V150.465V150.464V150.463V150.462V150.461V150.46V150.459V150.458V150.457V150.456V150.455V150.454V150.453V150.452V150.451V150.45V150.449V150.449V150.448V150.447V150.446V150.445V150.444V150.444V150.443V150.442V150.441V150.44V150.44V150.439V150.438V150.437V150.437V150.436V150.435V150.435V150.434V150.433V150.433V150.432V150.431V150.431V150.43V150.43V150.429V150.428V150.428V150.427V150.427V150.426V150.426V150.425V150.425V150.424V150.424V150.423V150.423V150.422V150.422V150.421V150.421V150.421V150.42V150.42V150.419V150.419V150.419V150.418V150.418V150.417V150.417V150.417V150.416V150.416V150.416V150.415V150.415V150.415V150.415V150.414V150.414V150.414V150.413V150.413V150.413V150.413V150.412V150.412V150.412V150.412V150.412V150.411V150.411V150.411V150.411V150.411V150.41V150.41V150.41V150.41V150.41V150.41V150.409V150.409V150.409V150.409V150.409V150.409V150.409V150.409V150.408V150.408V150.408V150.408V150.408V150.408V150.408V150.408V150.408V150.408V150.407V150.407V150.407V150.407V150.407V150.407V150.407V150.407V150.407V150.407V150.407V150.407V150.407V150.407L149.356 150.218C149.352 150.216 149.352 150.216 149.352 150.216L149.353 150.215L149.353 150.213L149.354 150.21L149.355 150.209C149.355 150.209 149.353 150.213 149.35 150.22C149.343 150.233 149.329 150.258 149.308 150.292C149.264 150.359 149.188 150.463 149.068 150.582C148.828 150.819 148.401 151.13 147.674 151.343C146.21 151.771 143.494 151.81 138.639 149.941C138.639 149.94 138.638 149.94 138.637 149.94L138.511 149.89C133.608 147.95 129.788 146.438 126.359 146.068C122.844 145.688 119.749 146.504 116.3 149.151C114.543 150.5 113.555 152.024 113.059 153.646C112.565 155.255 112.566 156.93 112.73 158.569C112.812 159.389 112.936 160.208 113.064 161.011C113.086 161.149 113.108 161.286 113.13 161.423C113.236 162.086 113.34 162.735 113.423 163.374C113.622 164.917 113.687 166.34 113.368 167.618C112.64 170.193 111.041 171.461 109.624 172.098C109.396 172.201 109.172 172.287 108.956 172.36C109.268 172.072 109.591 171.74 109.894 171.368C111.08 169.911 112.017 167.759 110.678 165.277C109.524 163.141 109.101 160.479 108.973 158.318C108.91 157.243 108.92 156.305 108.947 155.636C108.96 155.302 108.977 155.035 108.991 154.854C108.998 154.763 109.004 154.693 109.008 154.647L109.013 154.595L109.014 154.583L109.014 154.58L109.014 154.579L109.014 154.579L75.9582 160.565Z" fill="white" stroke="#338FBF"/>
<path d="M7.32929 161.649L35.1482 253.828C36.0068 256.569 38.5825 258.454 41.3301 258.454H71.0379C74.644 258.454 77.5633 261.367 77.5633 264.965V327.502C77.5633 331.1 74.644 334.013 71.0379 334.013H32.744H119.978C123.585 334.013 126.504 331.1 126.504 327.502V264.793C126.504 261.195 123.585 258.283 119.978 258.283H90.2706C87.3514 258.283 84.9473 256.398 84.0887 253.657L57.1284 164.391C55.0678 157.708 49.0576 153.254 42.017 153.254H13.5113C9.04651 153.254 5.95552 157.537 7.32929 161.649Z" stroke="#338FBF" stroke-width="4" stroke-miterlimit="10" stroke-linecap="round"/>
<path d="M65.8883 214.078H28.1097C25.0187 214.078 22.2712 212.022 21.4126 209.109L8.70519 166.961C7.84659 164.048 10.079 161.307 12.9982 161.307H50.9486C54.0395 161.307 56.6153 163.363 57.6457 166.275L70.3531 208.424C71.04 211.165 68.8076 214.078 65.8883 214.078Z" fill="#338FBF"/>
<path d="M60.7367 214.078H28.1097C25.0187 214.078 22.2712 212.022 21.4126 209.109L8.70519 166.961C7.84659 164.048 10.079 161.307 12.9982 161.307H45.797C48.8879 161.307 51.6355 163.363 52.4941 166.275L65.2015 208.424C65.8883 211.165 63.656 214.078 60.7367 214.078Z" fill="#338FBF"/>
<path d="M50.0884 239.95H119.292C122.555 239.95 125.131 242.52 125.131 245.775V254.685H44.4216V245.775C44.4216 242.52 46.9974 239.95 50.0884 239.95Z" fill="#338FBF"/>
<path d="M43.3915 249.373H126.161C127.535 249.373 128.737 250.573 128.737 251.943V255.37C128.737 256.741 127.535 257.94 126.161 257.94H43.3915C42.0177 257.94 40.8157 256.741 40.8157 255.37V251.943C40.8157 250.573 41.846 249.373 43.3915 249.373Z" fill="#338FBF"/>
<path d="M32.7438 334.013H119.978C123.584 334.013 126.504 331.1 126.504 327.502V264.793C126.504 261.195 123.584 258.283 119.978 258.283H90.2704C87.3512 258.283 84.9471 256.398 84.0885 253.657L57.1283 164.391C55.0676 157.708 49.0574 153.254 42.0168 153.254H13.5111" stroke="#338FBF" stroke-width="4" stroke-miterlimit="10" stroke-linecap="round" stroke-linejoin="round"/>
</svg>
