<svg width="669" height="93" viewBox="0 0 669 93" fill="none" xmlns="http://www.w3.org/2000/svg">
<path d="M350 93H478.474V-1.27408e-05H350V93Z" fill="#338FBF"/>
<path d="M372.294 67.5812C372.074 66.7678 371.638 65.1917 369.346 65.1917C368.013 65.1917 366 66.1575 366 69.958C366 72.3713 367.006 74.6077 369.346 74.6077C370.885 74.6077 371.965 73.6658 372.294 72.0152H375.061C374.512 74.9476 372.626 76.9859 369.295 76.9859C365.764 76.9859 363.236 74.5529 363.236 69.9193C363.236 65.2078 365.91 62.8184 369.33 62.8184C373.305 62.8184 374.91 65.5984 375.061 67.5812H372.294Z" fill="white"/>
<path d="M378.447 70.441L381.7 66.6559H384.868L381.41 70.5112L384.961 76.6345H381.865L379.519 72.3486L378.447 73.483V76.6345H375.865V66.6559H378.447V70.441Z" fill="white"/>
<path d="M394.405 71.6259C394.405 75.2228 392.024 76.8965 389.388 76.8965C386.756 76.8965 384.356 75.2474 384.356 71.6491C384.356 68.0481 386.756 66.3968 389.388 66.3968C392.024 66.3968 394.405 68.0284 394.405 71.6259ZM387.01 71.6259C387.01 72.9042 387.393 74.6833 389.388 74.6833C391.383 74.6833 391.749 72.9239 391.749 71.6491C391.749 70.3666 391.383 68.6065 389.388 68.6065C387.393 68.6065 387.01 70.3469 387.01 71.6259Z" fill="white"/>
<path d="M404.108 66.6542V76.6334H401.526V68.7543H398.763V71.8313C398.763 75.648 397.629 76.8519 395.816 76.8519C395.364 76.8519 394.627 76.7781 394.245 76.6334V74.6823C394.298 74.7209 394.627 74.7567 395.009 74.7567C395.784 74.7567 396.186 74.369 396.186 71.3305V66.6542H404.108Z" fill="white"/>
<path d="M408.008 70.441L411.261 66.6559H414.429L410.968 70.5112L414.522 76.6345H411.427L409.084 72.3486L408.008 73.483V76.6345H405.426V66.6559H408.008V70.441Z" fill="white"/>
<path d="M423.967 71.6259C423.967 75.2228 421.59 76.8965 418.954 76.8965C416.318 76.8965 413.922 75.2474 413.922 71.6491C413.922 68.0481 416.318 66.3968 418.954 66.3968C421.59 66.3968 423.967 68.0284 423.967 71.6259ZM416.577 71.6259C416.577 72.9042 416.959 74.6833 418.954 74.6833C420.94 74.6833 421.32 72.9239 421.32 71.6491C421.32 70.3666 420.94 68.6065 418.954 68.6065C416.959 68.6065 416.577 70.3469 416.577 71.6259Z" fill="white"/>
<path d="M424.805 66.656H429.251C431.45 66.656 433.059 67.5677 433.059 69.2337C433.059 70.3828 432.253 71.1217 431.226 71.3837C432.233 71.6274 433.352 72.2792 433.352 73.9108C433.352 75.7594 431.971 76.636 429.74 76.636H424.805V66.656ZM427.382 70.6961H429.065C429.922 70.6961 430.528 70.3484 430.528 69.5659C430.528 68.7519 429.945 68.4555 429.085 68.4555H427.382V70.6961ZM427.382 74.8372H429.281C430.235 74.8372 430.825 74.5401 430.825 73.554C430.825 72.6824 430.203 72.2792 429.251 72.2792H427.382V74.8372Z" fill="white"/>
<path d="M443.686 71.6259C443.686 75.2228 441.313 76.8965 438.673 76.8965C436.041 76.8965 433.637 75.2474 433.637 71.6491C433.637 68.0481 436.041 66.3968 438.673 66.3968C441.313 66.3968 443.686 68.0284 443.686 71.6259ZM436.292 71.6259C436.292 72.9042 436.681 74.6833 438.673 74.6833C440.668 74.6833 441.031 72.9239 441.031 71.6491C441.031 70.3666 440.668 68.6065 438.673 68.6065C436.681 68.6065 436.292 70.3469 436.292 71.6259Z" fill="white"/>
<path d="M382.006 60.5623C384.206 60.5623 389.623 60.1717 393.672 57.1761V59.4483H401.841L401.849 49.4571L405.26 45.8792L412.685 59.4483H422.486L411.237 40.0601L422.193 27.8403H412.16L401.849 39.8297V16.7977H393.672V20.4415C391.182 17.7325 387.146 15.6837 380.852 15.6837C367.229 15.6837 364.671 24.0819 364.671 28.7829C364.671 35.2426 368.098 38.8324 374.068 40.2989L382.531 42.4102C386.995 43.5284 390.187 44.3495 390.187 47.6977C390.187 52.1633 385.545 53.219 381.369 53.219C373.716 53.219 372.443 48.6978 372.443 46.2901H364.034C364.034 51.5761 366.701 60.5623 382.006 60.5623ZM387.574 35.1295L377.317 32.5988C375.573 32.1886 372.848 31.4807 372.848 28.1374C372.848 24.3172 376.85 23.0234 380.212 23.0234C387.864 23.0234 388.563 27.5509 388.79 29.4866H393.672V37.4367C391.881 36.3769 389.767 35.6886 387.574 35.1295Z" fill="white"/>
<path d="M79.1065 54.1621C80.398 55.5165 81.9618 56.5836 83.6956 57.2936C85.806 58.0778 88.0454 58.4594 90.2971 58.4185C91.5854 58.4185 92.7901 58.2588 93.779 58.1755C94.7667 58.0479 95.7379 57.8152 96.6759 57.4811C97.5602 57.2381 98.2845 56.8353 99.0087 56.5993C99.5817 56.2734 100.172 55.979 100.777 55.7174L99.8792 53.8357C99.3987 54.0787 98.9112 54.3148 98.3471 54.5301C97.8224 54.7707 97.2855 54.9839 96.7385 55.1689C96.0875 55.3875 95.4113 55.5229 94.726 55.5716C93.8471 55.7152 92.9558 55.7687 92.0659 55.7313C90.4609 55.791 88.8712 55.4013 87.4769 54.6064C86.3026 53.877 85.3116 52.8888 84.58 51.7179C83.8895 50.3559 83.4195 48.8936 83.1873 47.3851C82.9239 45.5776 82.7889 43.7539 82.7834 41.9274C82.7834 40.3998 82.9435 38.7959 83.0271 37.1919C83.149 35.7377 83.5385 34.3184 84.1761 33.0049C84.7498 31.7809 85.6037 30.7082 86.6691 29.8733C88.018 29.0213 89.5848 28.5753 91.1815 28.5888C92.7925 28.5677 94.369 29.0537 95.687 29.9775C96.9753 30.8593 97.6995 32.3036 98.0198 34.2339H100.032V28.0749C99.3917 27.8319 98.7441 27.5958 98.0198 27.3806C97.2621 27.1365 96.4798 26.9759 95.687 26.9015C94.8026 26.7418 94.0784 26.7418 93.194 26.6585C92.4977 26.6585 91.662 26.4987 91.1049 26.4987C88.7216 26.4602 86.3502 26.841 84.0995 27.6236C82.2656 28.2996 80.625 29.4121 79.3203 30.8642C78.0157 32.3163 77.0865 34.0642 76.6136 35.9559C75.972 38.173 75.6738 40.4747 75.7292 42.7815C75.6781 44.9831 75.9766 47.179 76.6136 49.2876C77.0322 51.0913 77.8882 52.765 79.1065 54.1621Z" fill="#338FBF"/>
<path d="M201.242 57.3774C202.684 57.2307 204.082 56.7937 205.35 56.0928C206.626 55.3827 207.64 54.2857 208.247 52.9612C209.072 51.2069 209.459 49.2796 209.375 47.3439C209.427 45.8682 209.191 44.3966 208.679 43.0111C208.188 41.8265 207.382 40.7987 206.346 40.0392C205.045 39.2264 203.593 38.6811 202.078 38.4352C199.982 38.0478 197.85 37.8872 195.72 37.9561H193.06V30.5612C193.025 30.2871 193.05 30.0088 193.133 29.7452C193.216 29.4816 193.355 29.2389 193.54 29.0336C194.181 28.7891 194.872 28.7056 195.553 28.7906H199.334C200.302 28.7541 201.272 28.8076 202.231 28.9503C202.871 28.988 203.486 29.2126 204 29.596C204.505 29.9958 204.895 30.5233 205.128 31.1236C205.496 31.9794 205.792 32.8643 206.012 33.7691H207.572V26.8672H184.592V27.8323C184.752 27.8323 184.836 27.992 185.232 27.992C185.636 28.1517 185.88 28.2351 185.929 28.3948C186.095 28.6066 186.231 28.8402 186.333 29.0891C186.333 29.4919 186.493 29.7835 186.493 30.3737V54.1347C186.529 54.5693 186.475 55.0068 186.333 55.4193C186.333 55.822 186.173 56.0581 185.929 56.1136C185.757 56.3318 185.508 56.476 185.232 56.5163C185.035 56.62 184.815 56.6748 184.592 56.6761V57.6412H196.186C197.875 57.6406 199.562 57.5526 201.242 57.3774ZM193.645 55.1276C193.517 55.019 193.414 54.8838 193.344 54.7314C193.275 54.579 193.239 54.4133 193.241 54.2458C193.241 53.8431 193.081 53.364 193.081 52.7182V39.7962H195.741C198.073 39.7962 199.849 40.435 200.894 41.6432C201.938 42.8513 202.426 44.8511 202.426 47.5869C202.468 49.0464 202.307 50.5047 201.945 51.9197C201.684 52.8461 201.207 53.6978 200.553 54.4055C199.98 54.8495 199.359 55.2269 198.7 55.5304C197.959 55.6904 197.203 55.7719 196.444 55.7734C195.748 55.6137 195.051 55.6137 194.675 55.5304C194.293 55.5296 193.925 55.3858 193.645 55.1276Z" fill="#338FBF"/>
<path d="M168.395 56.6553C168.234 56.6553 168.151 56.4956 167.754 56.4956C167.35 56.3359 167.106 56.2526 167.058 56.0929C167.009 55.9332 166.814 55.6902 166.654 55.3985C166.654 54.9958 166.493 54.7042 166.493 54.114V45.5734H169.634C171.172 45.5657 172.707 45.431 174.223 45.1706C175.588 44.9546 176.899 44.4834 178.088 43.7819C179.25 43.0757 180.176 42.0414 180.748 40.81C181.462 39.1941 181.793 37.4359 181.716 35.6718C181.741 34.0502 181.441 32.44 180.832 30.9362C180.212 29.8581 179.355 28.9345 178.325 28.2352C177.22 27.5884 175.981 27.2036 174.704 27.1103C173.287 26.9449 171.861 26.8638 170.435 26.8673H158.172V27.8325C158.332 27.8325 158.416 27.9922 158.819 27.9922C159.223 28.1519 159.46 28.2352 159.516 28.3949C159.682 28.6065 159.818 28.8402 159.92 29.0892C159.92 29.492 160.08 29.7836 160.08 30.3738V54.0584C160.117 54.4931 160.063 54.9307 159.92 55.343C159.92 55.7457 159.76 55.9818 159.516 56.0374C159.344 56.2556 159.095 56.3997 158.819 56.4401C158.62 56.5448 158.398 56.5997 158.172 56.5998V57.4816H168.318L168.395 56.5998V56.6553ZM166.702 30.3252C166.684 30.0829 166.74 29.8407 166.863 29.6308C166.869 29.5388 166.894 29.4491 166.936 29.3668C166.978 29.2846 167.036 29.2115 167.106 29.1517C167.298 28.9842 167.548 28.8971 167.803 28.9087C168.207 28.9087 168.499 28.749 169.195 28.749C169.951 28.7901 170.704 28.8712 171.452 28.992C172.138 29.2395 172.768 29.622 173.304 30.1169C173.833 30.7451 174.267 31.4468 174.592 32.2C174.866 33.2473 175.001 34.3257 174.996 35.4079C174.996 38.0534 174.592 39.9838 173.868 41.3516C173.144 42.7195 171.779 43.4347 169.843 43.4347H166.702V30.3252Z" fill="#338FBF"/>
<path d="M154.147 50.5518H152.134C151.96 51.5275 151.727 52.4921 151.438 53.4403C151.303 54.0673 150.962 54.6316 150.47 55.0443C150.234 55.2653 149.956 55.436 149.652 55.5458C149.348 55.6557 149.024 55.7024 148.701 55.6831C147.662 55.8349 146.61 55.8884 145.561 55.8428C144.592 55.89 143.621 55.8365 142.664 55.6831C142.103 55.6192 141.559 55.457 141.055 55.204C140.878 55.107 140.727 54.9685 140.615 54.8003C140.504 54.6322 140.435 54.4395 140.414 54.2389C140.266 53.6634 140.212 53.0678 140.254 52.4752V42.6847H145.595C146.076 42.6847 146.563 42.8444 147.127 42.8444C147.643 42.8919 148.155 42.9731 148.659 43.0874C149.106 43.1981 149.538 43.3588 149.948 43.5665V39.5531C149.56 39.8077 149.12 39.9715 148.659 40.0322C147.648 40.2194 146.628 40.3538 145.602 40.435H140.206V30.2279C140.207 29.7545 140.29 29.2849 140.449 28.8392C140.693 28.5961 141.097 28.5961 141.738 28.5961H145.122C146.09 28.5598 147.06 28.6132 148.019 28.7558C148.655 28.8064 149.266 29.0271 149.788 29.3947C150.293 29.7945 150.683 30.3219 150.916 30.9222C151.283 31.7805 151.579 32.6677 151.8 33.5747H153.409V26.8672H131.926V27.8323C132.086 27.8323 132.17 27.992 132.566 27.992C132.97 28.1517 133.207 28.2351 133.263 28.3948C133.429 28.6064 133.565 28.8401 133.667 29.0891C133.667 29.4919 133.827 29.7835 133.827 30.3737V54.0583C133.864 54.493 133.809 54.9305 133.667 55.3429C133.667 55.7456 133.507 55.9817 133.263 56.0372C133.091 56.2555 132.842 56.3996 132.566 56.44C132.369 56.5436 132.149 56.5984 131.926 56.5997V57.4815H154.147V50.5518Z" fill="#338FBF"/>
<path d="M120.171 57.3774C121.614 57.2307 123.012 56.7937 124.28 56.0928C125.561 55.3645 126.598 54.275 127.26 52.9612C128.086 51.2071 128.473 49.2797 128.389 47.3439C128.441 45.8682 128.204 44.3966 127.692 43.0111C127.202 41.8265 126.395 40.7987 125.359 40.0392C124.058 39.2264 122.606 38.6811 121.091 38.4352C118.995 38.0477 116.863 37.8871 114.733 37.9561H112.073V30.5612C112.039 30.2871 112.064 30.0089 112.147 29.7454C112.23 29.4818 112.368 29.2391 112.553 29.0336C113.194 28.7891 113.885 28.7056 114.566 28.7906H118.347C119.315 28.7541 120.285 28.8076 121.244 28.9503C121.881 29.0029 122.492 29.2259 123.013 29.596C123.518 29.9958 123.908 30.5233 124.141 31.1236C124.509 31.9793 124.805 32.8642 125.025 33.7691H126.634V26.8672H103.584V27.8323C103.744 27.8323 103.828 27.992 104.232 27.992C104.636 28.1517 104.872 28.2351 104.928 28.3948C105.094 28.6066 105.23 28.8402 105.332 29.0891C105.332 29.4919 105.492 29.7835 105.492 30.3737V54.0583C105.523 54.4928 105.469 54.9292 105.332 55.3429C105.332 55.7456 105.172 55.9817 104.928 56.0372C104.756 56.2555 104.507 56.3996 104.232 56.44C104.032 56.5447 103.81 56.5995 103.584 56.5997V57.7245H115.178C117.045 57.6204 118.556 57.6204 120.171 57.3774ZM112.602 55.1276C112.474 55.019 112.372 54.8838 112.302 54.7314C112.232 54.579 112.197 54.4133 112.198 54.2458C112.198 53.8431 112.038 53.364 112.038 52.7182V39.7962H114.698C117.031 39.7962 118.807 40.435 119.851 41.6432C120.896 42.8514 121.383 44.8511 121.383 47.5869C121.425 49.0464 121.263 50.5046 120.903 51.9197C120.641 52.8461 120.164 53.6978 119.51 54.4055C118.937 54.8496 118.316 55.2271 117.658 55.5304C116.916 55.6905 116.16 55.772 115.401 55.7734C114.705 55.6137 114.113 55.6137 113.633 55.5304C113.442 55.537 113.253 55.5047 113.075 55.4355C112.898 55.3662 112.737 55.2614 112.602 55.1276Z" fill="#338FBF"/>
<path d="M302.133 66.3623H75.5703V69.3342H302.133V66.3623Z" fill="#338FBF"/>
<path d="M284.012 46.0589C284.66 46.9407 285.141 47.6629 285.781 48.385C286.262 49.0794 286.909 49.9126 287.39 50.6347C287.872 51.4214 288.41 52.1732 288.998 52.8845C289.591 53.6753 290.129 54.5059 290.607 55.3703C291.088 56.0646 291.491 56.9742 291.895 57.6964L302.341 57.8561C301.213 56.7312 300.252 55.6063 299.124 54.4815C298.156 53.3566 297.271 52.3984 296.624 51.7527C295.656 50.6278 294.771 49.6696 293.971 48.7808C293.17 47.892 292.362 46.9338 291.638 46.052C290.891 45.1816 290.194 44.2706 289.549 43.3231C288.985 42.4413 288.156 41.3164 287.536 40.3513L288.017 39.7125C288.713 38.7473 289.625 37.7058 290.677 36.5045C291.636 35.2282 292.686 34.0216 293.817 32.8938C294.836 31.7167 295.917 30.5948 297.055 29.5331C297.969 28.6952 298.937 27.9182 299.952 27.207H292.703C292.377 27.9806 292 28.7321 291.575 29.4568C291.066 30.4556 290.475 31.4102 289.806 32.3106C289.166 33.2757 288.414 34.3937 287.794 35.5185C287.174 36.6434 286.401 37.6016 285.705 38.6501C285.008 39.6986 284.312 40.6568 283.692 41.3789C283.052 42.2608 282.564 42.9065 282.16 43.462C282.724 44.2883 283.365 45.1771 284.012 46.0589Z" fill="#338FBF"/>
<path d="M283.128 56.6553C282.968 56.6553 282.885 56.4956 282.481 56.4956C282.077 56.3359 281.84 56.2526 281.784 56.0929C281.618 55.8813 281.482 55.6476 281.381 55.3986C281.381 54.9958 281.22 54.7042 281.22 54.114V30.5058C281.183 30.0711 281.238 29.6335 281.381 29.2212C281.381 28.8185 281.541 28.5824 281.784 28.5268C281.997 28.3609 282.231 28.2254 282.481 28.1241C282.681 28.0193 282.903 27.9645 283.128 27.9644V26.9229H272.982V27.888C273.143 27.888 273.226 28.0477 273.63 28.0477C274.034 28.2074 274.271 28.2907 274.326 28.4504C274.493 28.6619 274.629 28.8957 274.73 29.1448C274.73 29.5475 274.89 29.8392 274.89 30.4294V54.114C274.928 54.5486 274.873 54.9863 274.73 55.3986C274.73 55.8013 274.57 56.0374 274.326 56.0929C274.155 56.3117 273.906 56.456 273.63 56.4956C273.43 56.6004 273.208 56.6552 272.982 56.6553V57.5372H283.128V56.6553Z" fill="#338FBF"/>
<path d="M215.928 53.9262C216.332 52.1625 217.056 49.6698 218.017 46.5382H227.92L229.312 50.5516C229.894 52.0105 230.359 53.5126 230.705 55.0441C231.041 55.9208 231.257 56.8387 231.346 57.7729H239.236C238.832 57.1341 238.539 56.2453 237.947 55.2871C237.271 53.8797 236.68 52.4328 236.179 50.9543L229.02 30.7207C228.724 29.996 228.507 29.2418 228.372 28.471C228.212 27.8321 228.212 27.3461 228.129 26.9434H219.278V27.9085C219.438 27.9085 219.522 28.0682 219.918 28.0682C220.322 28.2279 220.559 28.3113 220.615 28.471C220.781 28.6825 220.917 28.9162 221.019 29.1653V29.8041C221.026 30.4938 220.888 31.1772 220.615 31.8108L215.622 44.0107C214.738 46.2605 213.853 48.2672 213.289 49.7114C212.725 51.1557 212.001 52.6 211.68 53.5651C211.2 54.5303 210.796 55.4121 210.392 56.0509C210.07 56.5699 209.774 57.1052 209.508 57.6549H215.141C215.329 56.3975 215.592 55.1524 215.928 53.9262ZM223.017 31.9289L227.07 44.3718H218.554L223.017 31.9289Z" fill="#338FBF"/>
<path d="M250.998 56.6552H250.747C250.587 56.6552 250.504 56.4955 250.1 56.4955C249.696 56.3358 249.459 56.2525 249.403 56.0928C249.237 55.8811 249.101 55.6474 248.999 55.3984C248.999 54.9957 248.839 54.7041 248.839 54.1139V42.3097H260.838V54.0305C260.875 54.4652 260.82 54.9028 260.678 55.3151C260.678 55.7178 260.517 55.9539 260.274 56.0095C260.102 56.2277 259.853 56.3718 259.577 56.4122C259.38 56.5159 259.16 56.5706 258.937 56.5719V57.5371H269.083V56.5719C268.922 56.5719 268.839 56.4122 268.442 56.4122C268.038 56.2525 267.794 56.1692 267.746 56.0095C267.579 55.7983 267.443 55.5645 267.342 55.3151C267.342 54.9124 267.182 54.6207 267.182 54.0305V30.2279C267.144 29.7932 267.199 29.3556 267.342 28.9433C267.342 28.5406 267.502 28.3045 267.746 28.249C267.958 28.0832 268.192 27.9477 268.442 27.8462C268.64 27.7426 268.859 27.6878 269.083 27.6865V26.8672H259.104V27.8323C259.264 27.8323 259.347 27.992 259.744 27.992C260.148 28.1517 260.392 28.2351 260.441 28.3948C260.607 28.6064 260.743 28.8401 260.845 29.0891C260.845 29.4919 261.005 29.7835 261.005 30.3737V40.2753H249.153V30.3251C249.116 29.8905 249.171 29.453 249.313 29.0405C249.313 28.6378 249.473 28.4017 249.717 28.3462C249.929 28.18 250.163 28.0445 250.413 27.9434C250.608 27.8321 250.829 27.7768 251.054 27.7837V26.8672H240.936V27.8323C241.096 27.8323 241.179 27.992 241.576 27.992C241.98 28.1517 242.217 28.2351 242.273 28.3948C242.439 28.6066 242.575 28.8402 242.676 29.0891C242.676 29.4919 242.837 29.7835 242.837 30.3737V54.1347C242.868 54.5692 242.814 55.0056 242.676 55.4193C242.676 55.822 242.516 56.0581 242.273 56.1136C242.101 56.3318 241.851 56.476 241.576 56.5163C241.379 56.62 241.159 56.6748 240.936 56.6761V57.6412H251.082L250.998 56.5997V56.6552Z" fill="#338FBF"/>
<path d="M54.9571 30.0821C54.3094 29.2003 53.6688 28.3185 53.1047 27.4297L18.4814 47.2606L1.76863 37.7062C1.38505 38.7372 1.15058 39.8173 1.07227 40.9142L18.6416 51.0588L54.9571 30.0821Z" fill="#338FBF"/>
<path d="M18.4823 54.7243L0.530002 44.4478C0.397155 45.0799 0.343357 45.7259 0.369838 46.3712C0.369838 54.2282 3.50004 61.7634 9.07183 67.3191C14.6436 72.8749 22.2006 75.996 30.0803 75.996C37.96 75.996 45.517 72.8749 51.0888 67.3191C56.6605 61.7634 59.7907 54.2282 59.7907 46.3712C59.824 41.6835 58.7203 37.0573 56.5735 32.8867L18.4823 54.7243Z" fill="#338FBF"/>
<path d="M50.6878 24.9441C49.8416 24.1477 48.9537 23.3967 48.0276 22.6943L18.4808 39.7964L4.23318 31.6863C3.75269 32.5681 3.26523 33.5333 2.70117 34.5748L18.3207 43.5668L50.6878 24.9441Z" fill="#338FBF"/>
<path d="M45.1316 20.7705C44.0133 20.103 42.8499 19.5137 41.6498 19.0068L18.4817 32.3108L8.09886 26.4712C7.4025 27.1656 6.70613 28.0752 6.00977 28.957L18.4051 36.0256L45.1316 20.7705Z" fill="#338FBF"/>
<path d="M567.174 22.855H533.459L535.888 16H569.602L567.174 22.855ZM565.959 26.2825H532.23L529.801 33.1375H563.515L565.959 26.2825ZM562.316 36.5339H528.587L526.158 43.3889H559.842L562.316 36.5339Z" fill="#338FBF"/>
<path d="M648.514 60.1802H654.601C655.466 60.2844 656.343 60.1722 657.155 59.8535C657.967 59.5347 658.689 59.0192 659.257 58.3524C660.092 57.2495 660.513 55.8835 660.444 54.4972C660.501 53.615 660.341 52.7323 659.977 51.9282C659.613 51.124 659.057 50.4235 658.359 49.8893C657.23 49.1431 655.886 48.7973 654.54 48.9063H648.514V60.1802ZM640.525 66.9844V26.4047H666.683L664.385 33.209H648.514V42.1942H654.981C660.201 42.1942 662.909 43.4537 664.781 45.0665C666.119 46.2625 667.172 47.7489 667.86 49.4141C668.548 51.0794 668.853 52.8802 668.753 54.6815C668.856 56.6213 668.477 58.5562 667.65 60.3105C666.824 62.0648 665.576 63.5828 664.02 64.7266C661.509 66.4776 658.877 66.9691 653.52 66.9691L640.525 66.9844ZM617.364 66.9844V33.1936H605.738V26.4047H638.014L635.716 33.209H625.429V66.9998L617.364 66.9844ZM585.149 42.655H589.714C590.648 42.7194 591.586 42.647 592.499 42.44C593.449 42.1338 594.267 41.5111 594.82 40.6739C595.373 39.8367 595.628 38.8347 595.543 37.8322C595.669 36.836 595.429 35.8276 594.869 34.9981C594.308 34.1686 593.464 33.5757 592.499 33.3318C591.502 33.0982 590.478 33.0052 589.456 33.0554H585.149V42.655ZM585.149 49.6743V60.3184H590.719C592.254 60.4955 593.797 60.0662 595.025 59.1204C595.591 58.591 596.035 57.9421 596.324 57.22C596.614 56.4979 596.742 55.7203 596.699 54.9426C596.723 53.7 596.35 52.4826 595.634 51.4714C594.447 49.9354 592.986 49.6436 590.491 49.6436L585.149 49.6743ZM598.023 45.389V45.5272C599.38 46.0544 600.648 46.7901 601.782 47.7083C602.928 48.6685 603.834 49.8879 604.426 51.2675C605.019 52.6472 605.28 54.1483 605.19 55.6491C605.19 61.1939 602.269 65.2027 597.475 66.4008C595.565 66.8722 593.597 67.0636 591.632 66.9691H577.16V26.4047H590.034C592.079 26.3293 594.125 26.5203 596.121 26.973C600.777 28.2325 603.836 31.4733 603.836 36.588C603.874 37.8075 603.666 39.0219 603.224 40.1574C602.781 41.2929 602.115 42.3256 601.264 43.1926C600.361 44.1182 599.285 44.8542 598.099 45.3583L598.023 45.389Z" fill="#338FBF"/>
</svg>
