<svg width="937" height="423" viewBox="0 0 937 423" fill="none" xmlns="http://www.w3.org/2000/svg">
<path d="M449 251H577.474V158H449V251V251Z" fill="#338FBF"/>
<path d="M471.294 225.581C471.074 224.768 470.638 223.192 468.346 223.192C467.013 223.192 465 224.157 465 227.958C465 230.371 466.006 232.608 468.346 232.608C469.885 232.608 470.965 231.666 471.294 230.015H474.061C473.512 232.948 471.626 234.986 468.295 234.986C464.764 234.986 462.236 232.553 462.236 227.919C462.236 223.208 464.91 220.818 468.33 220.818C472.305 220.818 473.91 223.598 474.061 225.581H471.294V225.581Z" fill="white"/>
<path d="M477.447 228.441L480.7 224.656H483.868L480.41 228.511L483.961 234.635H480.865L478.519 230.349L477.447 231.483V234.635H474.865V224.656H477.447V228.441V228.441Z" fill="white"/>
<path d="M493.405 229.626C493.405 233.223 491.024 234.896 488.388 234.896C485.756 234.896 483.356 233.247 483.356 229.649C483.356 226.048 485.756 224.397 488.388 224.397C491.024 224.397 493.405 226.028 493.405 229.626ZM486.011 229.626C486.011 230.904 486.393 232.683 488.388 232.683C490.384 232.683 490.75 230.924 490.75 229.649C490.75 228.367 490.384 226.606 488.388 226.606C486.393 226.606 486.011 228.347 486.011 229.626Z" fill="white"/>
<path d="M503.108 224.654V234.633H500.526V226.754H497.763V229.831C497.763 233.648 496.629 234.852 494.815 234.852C494.364 234.852 493.627 234.778 493.245 234.633V232.682C493.298 232.721 493.627 232.757 494.009 232.757C494.784 232.757 495.186 232.369 495.186 229.33V224.654H503.108V224.654Z" fill="white"/>
<path d="M507.008 228.441L510.261 224.656H513.429L509.968 228.511L513.522 234.635H510.427L508.085 230.349L507.008 231.483V234.635H504.426V224.656H507.008V228.441V228.441Z" fill="white"/>
<path d="M522.967 229.626C522.967 233.223 520.59 234.896 517.954 234.896C515.318 234.896 512.922 233.247 512.922 229.649C512.922 226.048 515.318 224.397 517.954 224.397C520.59 224.397 522.967 226.028 522.967 229.626ZM515.577 229.626C515.577 230.904 515.959 232.683 517.954 232.683C519.94 232.683 520.319 230.924 520.319 229.649C520.319 228.367 519.94 226.606 517.954 226.606C515.959 226.606 515.577 228.347 515.577 229.626Z" fill="white"/>
<path d="M523.805 224.656H528.251C530.45 224.656 532.059 225.568 532.059 227.234C532.059 228.383 531.253 229.122 530.226 229.384C531.233 229.627 532.351 230.279 532.351 231.911C532.351 233.759 530.971 234.636 528.74 234.636H523.805V224.656V224.656ZM526.382 228.696H528.065C528.922 228.696 529.528 228.348 529.528 227.566C529.528 226.752 528.945 226.456 528.084 226.456H526.382V228.696V228.696ZM526.382 232.837H528.281C529.234 232.837 529.825 232.54 529.825 231.554C529.825 230.682 529.203 230.279 528.251 230.279H526.382V232.837V232.837Z" fill="white"/>
<path d="M542.686 229.626C542.686 233.223 540.313 234.896 537.673 234.896C535.041 234.896 532.637 233.247 532.637 229.649C532.637 226.048 535.041 224.397 537.673 224.397C540.313 224.397 542.686 226.028 542.686 229.626ZM535.292 229.626C535.292 230.904 535.681 232.683 537.673 232.683C539.668 232.683 540.031 230.924 540.031 229.649C540.031 228.367 539.668 226.606 537.673 226.606C535.681 226.606 535.292 228.347 535.292 229.626Z" fill="white"/>
<path d="M481.006 218.562C483.206 218.562 488.623 218.172 492.672 215.176V217.448H500.841L500.849 207.457L504.26 203.879L511.685 217.448H521.486L510.237 198.06L521.193 185.84H511.16L500.849 197.83V174.798H492.672V178.442C490.182 175.732 486.146 173.684 479.852 173.684C466.229 173.684 463.671 182.082 463.671 186.783C463.671 193.243 467.098 196.832 473.068 198.299L481.531 200.41C485.995 201.528 489.187 202.349 489.187 205.698C489.187 210.163 484.545 211.219 480.369 211.219C472.716 211.219 471.443 206.698 471.443 204.29H463.034C463.034 209.576 465.701 218.562 481.006 218.562V218.562ZM486.574 193.129L476.317 190.599C474.573 190.189 471.848 189.481 471.848 186.137C471.848 182.317 475.85 181.023 479.212 181.023C486.864 181.023 487.563 185.551 487.79 187.487H492.672V195.437C490.881 194.377 488.767 193.689 486.574 193.129Z" fill="white"/>
<path d="M178.107 212.162C179.398 213.516 180.962 214.584 182.696 215.294C184.806 216.078 187.045 216.459 189.297 216.418C190.585 216.418 191.79 216.259 192.779 216.175C193.767 216.048 194.738 215.815 195.676 215.481C196.56 215.238 197.284 214.835 198.009 214.599C198.582 214.273 199.172 213.979 199.777 213.717L198.879 211.836C198.399 212.079 197.911 212.315 197.347 212.53C196.822 212.771 196.285 212.984 195.739 213.169C195.088 213.388 194.411 213.523 193.726 213.572C192.847 213.715 191.956 213.769 191.066 213.731C189.461 213.791 187.871 213.401 186.477 212.606C185.303 211.877 184.312 210.889 183.58 209.718C182.89 208.356 182.419 206.894 182.187 205.385C181.924 203.578 181.789 201.754 181.783 199.927C181.783 198.4 181.944 196.796 182.027 195.192C182.149 193.738 182.538 192.318 183.176 191.005C183.75 189.781 184.604 188.708 185.669 187.873C187.018 187.021 188.585 186.575 190.182 186.589C191.792 186.568 193.369 187.054 194.687 187.977C195.975 188.859 196.7 190.304 197.02 192.234H199.032V186.075C198.392 185.832 197.744 185.596 197.02 185.381C196.262 185.137 195.48 184.976 194.687 184.901C193.803 184.742 193.078 184.742 192.194 184.658C191.498 184.658 190.662 184.499 190.105 184.499C187.722 184.46 185.35 184.841 183.099 185.624C181.266 186.3 179.625 187.412 178.32 188.864C177.016 190.316 176.087 192.064 175.614 193.956C174.972 196.173 174.674 198.475 174.729 200.781C174.678 202.983 174.977 205.179 175.614 207.288C176.032 209.091 176.888 210.765 178.107 212.162V212.162Z" fill="#338FBF"/>
<path d="M300.242 215.377C301.684 215.231 303.082 214.794 304.35 214.093C305.626 213.383 306.64 212.286 307.247 210.961C308.072 209.207 308.459 207.28 308.375 205.344C308.427 203.868 308.191 202.397 307.679 201.011C307.188 199.826 306.382 198.799 305.346 198.039C304.045 197.226 302.593 196.681 301.078 196.435C298.982 196.048 296.85 195.887 294.72 195.956H292.06V188.561C292.025 188.287 292.05 188.009 292.133 187.745C292.216 187.482 292.355 187.239 292.54 187.034C293.181 186.789 293.872 186.706 294.553 186.791H298.334C299.302 186.754 300.272 186.808 301.231 186.95C301.871 186.988 302.486 187.213 303 187.596C303.505 187.996 303.895 188.523 304.128 189.124C304.496 189.979 304.792 190.864 305.012 191.769H306.572V184.867H283.592V185.832C283.752 185.832 283.836 185.992 284.232 185.992C284.636 186.152 284.88 186.235 284.929 186.395C285.095 186.607 285.231 186.84 285.333 187.089C285.333 187.492 285.493 187.783 285.493 188.374V212.135C285.529 212.569 285.475 213.007 285.333 213.419C285.333 213.822 285.173 214.058 284.929 214.114C284.757 214.332 284.508 214.476 284.232 214.516C284.035 214.62 283.815 214.675 283.592 214.676V215.641H295.186C296.875 215.641 298.562 215.553 300.242 215.377V215.377ZM292.645 213.128C292.517 213.019 292.414 212.884 292.344 212.731C292.275 212.579 292.239 212.413 292.241 212.246C292.241 211.843 292.081 211.364 292.081 210.718V197.796H294.741C297.073 197.796 298.849 198.435 299.894 199.643C300.938 200.851 301.426 202.851 301.426 205.587C301.468 207.046 301.307 208.505 300.945 209.92C300.684 210.846 300.207 211.698 299.553 212.405C298.98 212.85 298.359 213.227 297.7 213.53C296.959 213.69 296.203 213.772 295.444 213.773C294.748 213.614 294.051 213.614 293.675 213.53C293.293 213.53 292.925 213.386 292.645 213.128V213.128Z" fill="#338FBF"/>
<path d="M267.395 214.655C267.234 214.655 267.151 214.496 266.754 214.496C266.35 214.336 266.106 214.253 266.058 214.093C266.009 213.933 265.814 213.69 265.654 213.399C265.654 212.996 265.493 212.704 265.493 212.114V203.573H268.634C270.172 203.566 271.707 203.431 273.223 203.171C274.588 202.955 275.899 202.483 277.088 201.782C278.25 201.076 279.176 200.041 279.748 198.81C280.462 197.194 280.793 195.436 280.716 193.672C280.741 192.05 280.441 190.44 279.832 188.936C279.212 187.858 278.355 186.935 277.325 186.235C276.22 185.588 274.981 185.204 273.704 185.11C272.287 184.945 270.861 184.864 269.435 184.867H257.172V185.832C257.332 185.832 257.416 185.992 257.819 185.992C258.223 186.152 258.46 186.235 258.516 186.395C258.682 186.607 258.818 186.84 258.92 187.089C258.92 187.492 259.08 187.784 259.08 188.374V212.058C259.117 212.493 259.063 212.931 258.92 213.343C258.92 213.746 258.76 213.982 258.516 214.037C258.344 214.256 258.095 214.4 257.819 214.44C257.62 214.545 257.398 214.6 257.172 214.6V215.482H267.318L267.395 214.6V214.655ZM265.702 188.325C265.684 188.083 265.74 187.841 265.863 187.631C265.869 187.539 265.894 187.449 265.936 187.367C265.978 187.285 266.036 187.211 266.106 187.152C266.298 186.984 266.548 186.897 266.803 186.909C267.207 186.909 267.499 186.749 268.195 186.749C268.951 186.79 269.704 186.871 270.452 186.992C271.138 187.24 271.768 187.622 272.304 188.117C272.833 188.745 273.267 189.447 273.592 190.2C273.866 191.247 274.001 192.326 273.996 193.408C273.996 196.053 273.592 197.984 272.868 199.352C272.144 200.72 270.779 201.435 268.843 201.435H265.702V188.325V188.325Z" fill="#338FBF"/>
<path d="M253.147 208.552H251.134C250.96 209.528 250.727 210.492 250.438 211.44C250.303 212.067 249.962 212.632 249.47 213.044C249.234 213.265 248.956 213.436 248.652 213.546C248.348 213.656 248.024 213.702 247.701 213.683C246.662 213.835 245.61 213.888 244.561 213.843C243.592 213.89 242.621 213.837 241.664 213.683C241.103 213.619 240.559 213.457 240.055 213.204C239.878 213.107 239.727 212.968 239.615 212.8C239.504 212.632 239.435 212.439 239.414 212.239C239.266 211.663 239.212 211.068 239.254 210.475V200.685H244.595C245.076 200.685 245.563 200.844 246.127 200.844C246.643 200.892 247.155 200.973 247.659 201.087C248.106 201.198 248.538 201.359 248.948 201.567V197.553C248.56 197.808 248.12 197.971 247.659 198.032C246.648 198.219 245.628 198.354 244.602 198.435H239.206V188.228C239.207 187.755 239.29 187.285 239.449 186.839C239.693 186.596 240.097 186.596 240.738 186.596H244.122C245.09 186.56 246.06 186.613 247.019 186.756C247.655 186.806 248.266 187.027 248.788 187.395C249.293 187.794 249.683 188.322 249.916 188.922C250.283 189.781 250.579 190.668 250.8 191.575H252.409V184.867H230.926V185.832C231.086 185.832 231.17 185.992 231.566 185.992C231.97 186.152 232.207 186.235 232.263 186.395C232.429 186.606 232.565 186.84 232.667 187.089C232.667 187.492 232.827 187.783 232.827 188.374V212.058C232.864 212.493 232.809 212.93 232.667 213.343C232.667 213.746 232.507 213.982 232.263 214.037C232.091 214.255 231.842 214.4 231.566 214.44C231.369 214.544 231.149 214.598 230.926 214.6V215.482H253.147V208.552Z" fill="#338FBF"/>
<path d="M219.171 215.377C220.614 215.231 222.012 214.794 223.28 214.093C224.561 213.364 225.598 212.275 226.26 210.961C227.086 209.207 227.473 207.28 227.389 205.344C227.441 203.868 227.204 202.397 226.692 201.011C226.202 199.826 225.395 198.799 224.359 198.039C223.058 197.226 221.606 196.681 220.091 196.435C217.995 196.048 215.863 195.887 213.733 195.956H211.073V188.561C211.039 188.287 211.064 188.009 211.147 187.745C211.23 187.482 211.368 187.239 211.553 187.034C212.194 186.789 212.885 186.706 213.566 186.791H217.347C218.315 186.754 219.285 186.808 220.244 186.95C220.881 187.003 221.492 187.226 222.013 187.596C222.518 187.996 222.908 188.523 223.141 189.124C223.509 189.979 223.805 190.864 224.025 191.769H225.634V184.867H202.584V185.832C202.744 185.832 202.828 185.992 203.232 185.992C203.636 186.152 203.872 186.235 203.928 186.395C204.094 186.607 204.23 186.84 204.332 187.089C204.332 187.492 204.492 187.783 204.492 188.374V212.058C204.523 212.493 204.469 212.929 204.332 213.343C204.332 213.746 204.172 213.982 203.928 214.037C203.756 214.255 203.507 214.4 203.232 214.44C203.032 214.545 202.81 214.6 202.584 214.6V215.725H214.178C216.045 215.62 217.556 215.62 219.171 215.377ZM211.602 213.128C211.474 213.019 211.372 212.884 211.302 212.731C211.232 212.579 211.197 212.413 211.198 212.246C211.198 211.843 211.038 211.364 211.038 210.718V197.796H213.698C216.031 197.796 217.807 198.435 218.851 199.643C219.896 200.851 220.383 202.851 220.383 205.587C220.425 207.046 220.263 208.505 219.903 209.92C219.641 210.846 219.164 211.698 218.51 212.405C217.937 212.85 217.316 213.227 216.658 213.53C215.916 213.691 215.16 213.772 214.401 213.773C213.705 213.614 213.113 213.614 212.633 213.53C212.442 213.537 212.253 213.505 212.075 213.435C211.898 213.366 211.737 213.261 211.602 213.128Z" fill="#338FBF"/>
<path d="M401.133 224.362H174.57V227.334H401.133V224.362Z" fill="#338FBF"/>
<path d="M383.012 204.059C383.66 204.941 384.141 205.663 384.781 206.385C385.262 207.079 385.909 207.913 386.39 208.635C386.872 209.421 387.41 210.173 387.998 210.884C388.591 211.675 389.129 212.506 389.607 213.37C390.088 214.065 390.491 214.974 390.895 215.696L401.341 215.856C400.213 214.731 399.252 213.606 398.124 212.481C397.156 211.357 396.271 210.398 395.624 209.753C394.656 208.628 393.771 207.67 392.971 206.781C392.17 205.892 391.362 204.934 390.638 204.052C389.891 203.182 389.194 202.271 388.549 201.323C387.985 200.441 387.156 199.316 386.536 198.351L387.017 197.712C387.713 196.747 388.625 195.706 389.677 194.505C390.636 193.228 391.686 192.022 392.817 190.894C393.836 189.717 394.917 188.595 396.055 187.533C396.969 186.695 397.937 185.918 398.952 185.207H391.703C391.377 185.981 391 186.732 390.575 187.457C390.066 188.456 389.475 189.41 388.806 190.311C388.166 191.276 387.414 192.394 386.794 193.519C386.174 194.643 385.401 195.602 384.705 196.65C384.008 197.699 383.312 198.657 382.692 199.379C382.052 200.261 381.564 200.907 381.16 201.462C381.724 202.288 382.365 203.177 383.012 204.059Z" fill="#338FBF"/>
<path d="M382.128 214.655C381.968 214.655 381.885 214.496 381.481 214.496C381.077 214.336 380.84 214.253 380.784 214.093C380.618 213.881 380.482 213.648 380.381 213.399C380.381 212.996 380.22 212.704 380.22 212.114V188.506C380.183 188.071 380.238 187.633 380.381 187.221C380.381 186.818 380.541 186.582 380.784 186.527C380.997 186.361 381.231 186.225 381.481 186.124C381.681 186.019 381.903 185.965 382.128 185.964V184.923H371.982V185.888C372.143 185.888 372.226 186.048 372.63 186.048C373.034 186.207 373.271 186.291 373.326 186.45C373.493 186.662 373.629 186.896 373.73 187.145C373.73 187.548 373.89 187.839 373.89 188.429V212.114C373.928 212.549 373.873 212.986 373.73 213.399C373.73 213.801 373.57 214.037 373.326 214.093C373.155 214.312 372.906 214.456 372.63 214.496C372.43 214.6 372.208 214.655 371.982 214.655V215.537H382.128V214.655Z" fill="#338FBF"/>
<path d="M314.928 211.926C315.332 210.163 316.056 207.67 317.017 204.538H326.92L328.312 208.552C328.894 210.011 329.359 211.513 329.705 213.044C330.041 213.921 330.257 214.839 330.346 215.773H338.236C337.832 215.134 337.539 214.245 336.947 213.287C336.271 211.88 335.68 210.433 335.179 208.954L328.02 188.721C327.724 187.996 327.507 187.242 327.372 186.471C327.212 185.832 327.212 185.346 327.129 184.943H318.278V185.909C318.438 185.909 318.522 186.068 318.918 186.068C319.322 186.228 319.559 186.311 319.615 186.471C319.781 186.682 319.917 186.916 320.019 187.165V187.804C320.026 188.494 319.888 189.177 319.615 189.811L314.622 202.011C313.738 204.26 312.853 206.267 312.289 207.711C311.725 209.156 311.001 210.6 310.68 211.565C310.2 212.53 309.796 213.412 309.392 214.051C309.07 214.57 308.774 215.105 308.508 215.655H314.141C314.329 214.397 314.592 213.152 314.928 211.926V211.926ZM322.017 189.929L326.07 202.372H317.554L322.017 189.929Z" fill="#338FBF"/>
<path d="M349.998 214.655H349.747C349.587 214.655 349.504 214.496 349.1 214.496C348.696 214.336 348.459 214.252 348.403 214.093C348.237 213.881 348.101 213.647 347.999 213.398C347.999 212.996 347.839 212.704 347.839 212.114V200.31H359.838V212.031C359.875 212.465 359.82 212.903 359.678 213.315C359.678 213.718 359.517 213.954 359.274 214.009C359.102 214.228 358.853 214.372 358.577 214.412C358.38 214.516 358.16 214.571 357.937 214.572V215.537H368.083V214.572C367.922 214.572 367.839 214.412 367.442 214.412C367.038 214.252 366.794 214.169 366.746 214.009C366.579 213.798 366.443 213.565 366.342 213.315C366.342 212.912 366.182 212.621 366.182 212.031V188.228C366.144 187.793 366.199 187.356 366.342 186.943C366.342 186.541 366.502 186.305 366.746 186.249C366.958 186.083 367.192 185.948 367.442 185.846C367.64 185.743 367.859 185.688 368.083 185.687V184.867H358.104V185.832C358.264 185.832 358.347 185.992 358.744 185.992C359.148 186.152 359.392 186.235 359.441 186.395C359.607 186.606 359.743 186.84 359.845 187.089C359.845 187.492 360.005 187.783 360.005 188.374V198.275H348.153V188.325C348.116 187.89 348.171 187.453 348.313 187.041C348.313 186.638 348.473 186.402 348.717 186.346C348.929 186.18 349.163 186.044 349.413 185.943C349.608 185.832 349.829 185.777 350.054 185.784V184.867H339.936V185.832C340.096 185.832 340.179 185.992 340.576 185.992C340.98 186.152 341.217 186.235 341.273 186.395C341.439 186.607 341.575 186.84 341.676 187.089C341.676 187.492 341.837 187.783 341.837 188.374V212.135C341.868 212.569 341.814 213.006 341.676 213.419C341.676 213.822 341.516 214.058 341.273 214.114C341.101 214.332 340.851 214.476 340.576 214.516C340.379 214.62 340.159 214.675 339.936 214.676V215.641H350.082L349.998 214.6V214.655Z" fill="#338FBF"/>
<path d="M153.957 188.082C153.309 187.2 152.669 186.318 152.105 185.43L117.481 205.261L100.769 195.706C100.385 196.737 100.151 197.817 100.072 198.914L117.642 209.059L153.957 188.082Z" fill="#338FBF"/>
<path d="M117.482 212.724L99.53 202.448C99.3972 203.08 99.3434 203.726 99.3698 204.371C99.3698 212.228 102.5 219.763 108.072 225.319C113.644 230.875 121.201 233.996 129.08 233.996C136.96 233.996 144.517 230.875 150.089 225.319C155.661 219.763 158.791 212.228 158.791 204.371C158.824 199.683 157.72 195.057 155.574 190.887L117.482 212.724Z" fill="#338FBF"/>
<path d="M149.688 182.944C148.842 182.148 147.954 181.397 147.028 180.694L117.481 197.796L103.233 189.686C102.753 190.568 102.265 191.533 101.701 192.575L117.321 201.567L149.688 182.944Z" fill="#338FBF"/>
<path d="M144.132 178.771C143.013 178.103 141.85 177.514 140.65 177.007L117.482 190.311L107.099 184.471C106.402 185.166 105.706 186.075 105.01 186.957L117.405 194.026L144.132 178.771Z" fill="#338FBF"/>
<path d="M666.174 180.855H632.459L634.888 174H668.602L666.174 180.855ZM664.959 184.283H631.23L628.801 191.138H662.515L664.959 184.283ZM661.316 194.534H627.587L625.158 201.389H658.842L661.316 194.534Z" fill="#338FBF"/>
<path d="M747.514 218.18H753.601C754.466 218.284 755.343 218.172 756.155 217.853C756.967 217.535 757.689 217.019 758.257 216.352C759.092 215.249 759.513 213.884 759.444 212.497C759.501 211.615 759.341 210.732 758.977 209.928C758.613 209.124 758.057 208.423 757.359 207.889C756.23 207.143 754.886 206.797 753.54 206.906H747.514V218.18ZM739.525 224.984V184.405H765.683L763.385 191.209H747.514V200.194H753.981C759.201 200.194 761.909 201.454 763.781 203.066C765.119 204.263 766.172 205.749 766.86 207.414C767.548 209.079 767.853 210.88 767.753 212.681C767.856 214.621 767.477 216.556 766.65 218.31C765.824 220.065 764.576 221.583 763.02 222.727C760.509 224.478 757.877 224.969 752.52 224.969L739.525 224.984ZM716.364 224.984V191.194H704.738V184.405H737.014L734.716 191.209H724.429V225L716.364 224.984ZM684.149 200.655H688.714C689.648 200.719 690.586 200.647 691.499 200.44C692.449 200.134 693.267 199.511 693.82 198.674C694.373 197.837 694.628 196.835 694.543 195.832C694.669 194.836 694.429 193.828 693.869 192.998C693.308 192.169 692.464 191.576 691.499 191.332C690.502 191.098 689.478 191.005 688.456 191.055H684.149V200.655ZM684.149 207.674V218.318H689.719C691.254 218.496 692.797 218.066 694.025 217.12C694.591 216.591 695.035 215.942 695.324 215.22C695.614 214.498 695.742 213.72 695.699 212.943C695.723 211.7 695.35 210.483 694.634 209.471C693.447 207.935 691.986 207.644 689.491 207.644L684.149 207.674ZM697.023 203.389V203.527C698.38 204.054 699.648 204.79 700.782 205.708C701.928 206.669 702.834 207.888 703.426 209.268C704.019 210.647 704.28 212.148 704.19 213.649C704.19 219.194 701.269 223.203 696.475 224.401C694.565 224.872 692.597 225.064 690.632 224.969H676.16V184.405H689.034C691.079 184.329 693.125 184.52 695.121 184.973C699.777 186.232 702.836 189.473 702.836 194.588C702.874 195.807 702.666 197.022 702.224 198.157C701.781 199.293 701.115 200.326 700.264 201.193C699.361 202.118 698.285 202.854 697.099 203.358L697.023 203.389Z" fill="#338FBF"/>
</svg>
