<svg width="128" height="206" viewBox="0 0 128 206" fill="none" xmlns="http://www.w3.org/2000/svg">
<path d="M21.9502 201.052C21.9502 202.552 23.3255 203.802 25.0759 203.802C26.8263 203.802 28.2016 202.552 28.2016 201.052V173.796C28.2016 172.295 26.8263 171.045 25.0759 171.045C23.3255 171.045 21.9502 172.295 21.9502 173.796V201.052Z" fill="#338FBF"/>
<path d="M50.4561 126.411C50.4561 132.412 55.3321 137.288 61.3335 137.288H109.719C115.721 137.288 120.597 132.412 120.597 126.411V81.4009C120.597 75.3995 115.721 70.5234 109.719 70.5234H61.3335C55.3321 70.5234 50.4561 75.3995 50.4561 81.4009V126.411V126.411Z" fill="#338FBF"/>
<path d="M44.0791 126.411C44.0791 132.412 48.9552 137.288 54.9565 137.288H103.342C109.344 137.288 114.22 132.412 114.22 126.411V81.4009C114.22 75.3995 109.344 70.5234 103.342 70.5234H54.9565C48.9552 70.5234 44.0791 75.3995 44.0791 81.4009V126.411Z" fill="#338FBF"/>
<path d="M15.3232 169.295C15.3232 171.92 17.4487 174.046 20.0743 174.046C22.6999 174.046 24.8254 171.92 24.8254 169.295V104.906C24.8254 102.28 22.6999 100.155 20.0743 100.155C17.4487 100.155 15.3232 102.28 15.3232 104.906V169.295Z" fill="#FFE8B0"/>
<path d="M14.8232 166.92C14.8232 171.171 18.199 174.547 22.4499 174.547H37.0782C41.3291 174.547 44.7049 171.171 44.7049 166.92V103.156C44.7049 98.9053 41.3291 95.5295 37.0782 95.5295H22.4499C18.199 95.5295 14.8232 98.9053 14.8232 103.156V166.92Z" fill="#BF6060"/>
<path d="M21.9502 166.92C21.9502 171.171 25.9511 174.547 30.9522 174.547H39.8292C44.8303 174.547 48.8312 171.171 48.8312 166.92V103.156C48.8312 98.9053 44.8303 95.5295 39.8292 95.5295H30.9522C25.9511 95.5295 21.9502 98.9053 21.9502 103.156V166.92Z" fill="#338FBF"/>
<path d="M98.5908 201.052C98.5908 202.552 99.9661 203.802 101.717 203.802C103.467 203.802 104.842 202.552 104.842 201.052V173.796C104.842 172.295 103.467 171.045 101.717 171.045C99.9661 171.045 98.5908 172.295 98.5908 173.796V201.052Z" fill="#338FBF"/>
<path d="M116.052 201.052C116.052 202.552 117.427 203.802 119.177 203.802C120.928 203.802 122.303 202.552 122.303 201.052V173.796C122.303 172.295 120.928 171.045 119.177 171.045C117.427 171.045 116.052 172.295 116.052 173.796V201.052Z" fill="#338FBF"/>
<path d="M38.4541 200.302C38.4541 201.802 39.8294 202.927 41.4548 202.927C43.0801 202.927 44.4554 201.677 44.4554 200.302V173.796C44.4554 172.295 43.0801 171.17 41.4548 171.17C39.8294 171.17 38.4541 172.42 38.4541 173.796V200.302Z" fill="#338FBF"/>
<path d="M15.3232 166.919C15.3232 171.17 18.699 174.546 22.9499 174.546H109.094C113.345 174.546 116.721 171.17 116.721 166.919V140.163C116.721 135.912 113.345 132.536 109.094 132.536H22.9499C18.699 132.536 15.3232 135.912 15.3232 140.163V166.919Z" fill="#338FBF"/>
<path d="M39.7683 79.1193L40.0977 79.4955L40.3012 79.3172L40.2633 79.0493C38.7692 68.4875 37.749 61.0739 37.8902 55.5807C38.0245 50.3529 39.2093 46.9459 41.9928 44.2518C42.0087 44.2714 42.0252 44.2916 42.0421 44.3125C42.2882 44.6161 42.6411 45.0589 43.0662 45.6132C43.917 46.7222 45.0554 48.2756 46.2072 50.0533C47.3598 51.8323 48.5208 53.8284 49.4204 55.8235C50.3225 57.8243 50.9476 59.7936 51.0562 61.526C51.0632 61.6389 51.0705 61.754 51.0778 61.8712C51.3083 65.5382 51.67 71.2952 51.3699 76.4726C51.215 79.1459 50.8848 81.6358 50.2816 83.5915C49.6708 85.5715 48.8195 86.8765 47.7189 87.3766L47.6069 87.4275L47.5313 87.5245C47.1713 87.9866 46.5113 88.5636 45.5912 89.228C44.6799 89.8861 43.5452 90.6076 42.2647 91.3626C39.7042 92.8721 36.5864 94.5003 33.5622 96.0023C30.5395 97.5035 27.617 98.8754 25.4497 99.8721C24.3662 100.37 23.4719 100.775 22.8486 101.055C22.5671 101.181 22.3408 101.282 22.1775 101.354L17.5144 96.9388C18.0288 96.6975 18.6149 96.3695 19.2501 95.9793C20.2276 95.3789 21.3506 94.6132 22.5547 93.7446C24.9633 92.0071 27.716 89.8439 30.3126 87.7348C32.9101 85.6248 35.3561 83.5653 37.1524 82.0335C38.0506 81.2675 38.7866 80.6332 39.2982 80.1904C39.554 79.969 39.7537 79.7954 39.8895 79.6771L40.0444 79.542L40.0841 79.5073L40.0942 79.4985L40.0968 79.4963L40.0974 79.4957C40.0976 79.4956 40.0977 79.4955 39.7683 79.1193Z" fill="white" stroke="#338FBF"/>
<path d="M8.75732 100.018V101.516H19.1335L20.4988 99.0643C20.4988 99.0643 15.7203 97.7021 11.6244 98.9281C11.6244 98.9281 9.84954 99.6092 9.57648 99.8816C9.43995 100.018 9.16691 99.7454 8.75732 100.018Z" fill="#DD8866"/>
<path d="M21.7275 100.426C21.3179 101.107 20.0891 102.197 18.7239 101.925C17.3586 101.652 15.7202 101.925 15.7202 101.925C15.7202 101.925 15.3106 101.38 16.2663 101.107C17.2221 100.835 18.8604 100.018 18.8604 99.4728L16.1298 99.0641C16.1298 99.0641 14.7645 99.2003 14.2184 99.4728C13.6723 99.7452 13.5358 100.835 12.8531 101.38C12.1705 101.925 11.7609 101.789 11.7609 101.789C11.7609 101.789 12.1705 100.154 12.5801 99.609C12.7166 99.4728 13.2627 99.0641 13.2627 99.0641C13.2627 99.0641 12.1705 99.2004 11.7609 99.8815C11.3513 100.563 11.3513 100.971 11.2148 101.38C11.0782 101.652 10.6687 102.061 10.2591 101.925C10.2591 101.925 10.6687 100.154 10.8052 99.4728C10.8052 99.4728 10.1225 101.516 9.98601 101.789C9.71295 102.197 9.43989 101.789 9.57642 99.8815C9.57642 99.8815 9.16683 100.699 9.16683 101.38C9.16683 101.38 8.62072 101.789 8.62072 101.107C8.62072 100.563 8.4842 99.4728 9.71296 99.4728C9.71296 99.4728 10.3956 98.1106 11.4878 98.6555C11.4878 98.6555 13.1262 97.8381 13.9453 97.5657C14.7645 97.4294 15.8568 97.5657 15.8568 97.5657C15.8568 97.5657 23.6389 97.4295 21.7275 100.426Z" fill="#F3A17A"/>
<path d="M81.5737 39.072C82.9517 39.3893 84.0411 39.8086 84.7838 40.3326C87.8299 42.551 88.5928 46.7278 87.7099 50.7334C86.825 54.748 84.3423 58.3266 81.2339 59.3393C80.5461 59.5634 79.5505 59.489 78.265 59.0961C76.9949 58.7078 75.5144 58.0315 73.9006 57.1458C70.6748 55.3752 66.9813 52.8041 63.4812 50.153C59.9842 47.5043 56.694 44.7863 54.2771 42.7297C53.0689 41.7016 52.0796 40.8393 51.3927 40.2343C51.2962 40.1493 51.2058 40.0695 51.1215 39.995C51.1773 39.9872 51.2352 39.9791 51.295 39.9708C52.0855 39.861 53.2228 39.7092 54.6083 39.5414C57.3799 39.2058 61.1416 38.8068 65.1057 38.5522C69.0725 38.2974 73.229 38.1881 76.7943 38.4286C78.5769 38.5489 80.2008 38.7559 81.5737 39.072Z" fill="white" stroke="#338FBF"/>
<path d="M44.8299 191.061C44.8385 191.038 44.8468 191.016 44.8547 190.995C44.9873 190.994 45.1537 190.995 45.3444 190.999C45.8469 191.009 46.5112 191.041 47.1707 191.125C47.8389 191.211 48.4637 191.346 48.9081 191.547C49.3602 191.751 49.462 191.941 49.4682 192.073C49.4334 192.608 49.583 193.363 49.7866 194.169C49.9612 194.86 50.1915 195.647 50.4282 196.455C50.4789 196.628 50.5299 196.803 50.5807 196.977C50.8708 197.973 51.1567 198.985 51.3618 199.914C51.5686 200.851 51.6843 201.666 51.6536 202.278L51.6535 202.279L51.5397 204.664H35.5371C35.5436 204.55 35.5498 204.435 35.556 204.318C35.5875 203.726 35.6215 203.085 35.7315 202.413C35.8835 201.482 36.1676 200.625 36.7211 199.995C38.0378 199.932 39.1992 199.318 40.1848 198.473C41.224 197.583 42.0996 196.41 42.8017 195.261C43.5057 194.109 44.0477 192.96 44.4132 192.102C44.5963 191.672 44.7358 191.314 44.8299 191.061Z" fill="white" stroke="#338FBF"/>
<path d="M30.1246 204.8H7.51742C7.55885 204.18 7.68131 203.392 7.95956 202.692C8.32022 201.785 8.89063 201.134 9.78887 201.029L9.78887 201.029L9.79246 201.029C11.4314 200.824 13.9149 200.478 16.1677 199.547C18.4205 198.616 20.5275 197.064 21.2698 194.405C21.6116 193.261 22.1968 192.629 22.8508 192.284C23.5222 191.93 24.3236 191.849 25.1311 191.921C25.9356 191.992 26.7065 192.212 27.2828 192.419C27.5693 192.522 27.8037 192.62 27.9654 192.691C27.9897 192.702 28.0125 192.712 28.0334 192.722C28.042 192.747 28.0515 192.774 28.0616 192.803C28.1234 192.983 28.2121 193.249 28.3183 193.589C28.5308 194.27 28.8134 195.246 29.0918 196.424C29.6292 198.699 30.1472 201.711 30.1246 204.8Z" fill="white" stroke="#338FBF"/>
<path d="M3.15387 119.22L3.15469 119.22C11.0533 114.168 23.1882 111.013 33.405 109.124C38.5028 108.182 43.1035 107.558 46.4298 107.169C48.0927 106.975 49.4365 106.839 50.364 106.753C50.8278 106.709 51.1874 106.678 51.4307 106.658C51.5524 106.648 51.645 106.64 51.707 106.635L51.7705 106.63L81.6473 107.955C81.6377 107.972 81.6279 107.989 81.6179 108.007C81.3395 108.492 80.9301 109.191 80.4081 110.045C79.3637 111.752 77.8696 114.073 76.0709 116.528C72.4542 121.464 67.6744 126.846 62.8917 128.967L62.8888 128.968C60.462 130.063 56.7041 130.934 52.3903 131.62C48.0886 132.303 43.2777 132.796 38.7707 133.149C34.2648 133.502 30.0689 133.715 26.9992 133.839C25.4645 133.902 24.2117 133.942 23.3428 133.966C22.9084 133.979 22.57 133.987 22.3404 133.993C22.2256 133.995 22.138 133.997 22.0791 133.998L22.0127 134L21.9961 134L21.9919 134L21.9909 134C21.9907 134 21.9907 134 22 134.5L21.9907 134L21.4291 134.011L21.5045 134.567L29.4378 193.075L19.8483 194.445C19.8126 194.332 19.7696 194.196 19.7197 194.039C19.5528 193.51 19.3087 192.734 19.0002 191.745C18.3834 189.766 17.5092 186.934 16.4803 183.524C14.4222 176.702 11.7454 167.565 9.26937 158.303C6.7925 149.037 4.51993 139.657 3.26705 132.344C2.64009 128.685 2.27224 125.565 2.25685 123.243C2.24915 122.08 2.33026 121.142 2.50014 120.446C2.67417 119.733 2.91807 119.37 3.15387 119.22Z" fill="white" stroke="#338FBF"/>
<path d="M64.2209 139.929L63.9683 140.021L63.9065 140.283L51.1361 194.366L43.0182 191.878L43.0395 191.443C43.0659 190.905 43.105 190.117 43.1561 189.111C43.2582 187.101 43.4079 184.223 43.5982 180.758C43.9787 173.827 44.5215 164.544 45.1704 155.134C45.8194 145.723 46.5743 136.191 47.3788 128.758C47.7812 125.041 48.1951 121.857 48.6132 119.479C48.8224 118.29 49.0309 117.312 49.237 116.573C49.34 116.204 49.4403 115.903 49.5365 115.669C49.6003 115.514 49.6576 115.401 49.7059 115.321C64.3702 110.457 81.5408 108.196 93.8373 106.578C93.8475 106.576 93.8576 106.575 93.8677 106.574C93.8645 106.637 93.8611 106.705 93.8573 106.778C93.8304 107.289 93.7862 108.026 93.7166 108.924C93.5775 110.721 93.3374 113.162 92.9336 115.739C92.5294 118.32 91.9633 121.024 91.1762 123.353C90.383 125.699 89.3901 127.588 88.1777 128.619C86.9051 129.701 84.7832 130.952 82.2797 132.229C79.7861 133.501 76.9491 134.78 74.271 135.922C71.5939 137.064 69.0806 138.066 67.2364 138.782C66.3144 139.14 65.56 139.427 65.0363 139.624C64.7744 139.723 64.5703 139.799 64.4318 139.851L64.2741 139.909L64.2341 139.924L64.2241 139.927L64.2216 139.928L64.221 139.929C64.2209 139.929 64.2209 139.929 64.3931 140.398L64.2209 139.929Z" fill="white" stroke="#338FBF"/>
<path d="M60.3872 40.2892L60.3886 40.2892C67.1566 39.9515 72.7378 40.8633 76.6231 41.8578C78.5657 42.3549 80.0836 42.8726 81.113 43.2646C81.6277 43.4606 82.0202 43.6251 82.2825 43.7399C82.4136 43.7973 82.5122 43.8422 82.5772 43.8724C82.6069 43.8863 82.6297 43.897 82.6453 43.9045C86.2747 46.2669 88.8909 50.7981 90.7369 56.5261C92.5825 62.2532 93.6321 69.094 94.1852 75.946C95.2622 89.2872 94.4514 102.588 94.0309 107.605C94.027 107.606 94.0231 107.607 94.0192 107.607C93.7598 107.648 93.3777 107.707 92.8886 107.779C91.9102 107.924 90.5033 108.123 88.7912 108.337C85.3663 108.766 80.7243 109.259 75.8507 109.513C70.9736 109.768 65.8818 109.784 61.5516 109.265C59.3867 109.006 57.426 108.614 55.784 108.059C54.1953 107.522 52.936 106.842 52.0746 106.007C52.0556 105.935 52.0289 105.833 51.9949 105.702C51.9204 105.415 51.811 104.99 51.6719 104.44C51.3938 103.341 50.997 101.742 50.523 99.7483C49.5748 95.7602 48.3178 90.1903 47.082 83.8641C44.626 71.2905 42.2628 55.7692 42.5618 43.7397C42.6817 43.6661 42.8629 43.5623 43.1155 43.4363C43.6722 43.1586 44.5756 42.7727 45.9337 42.3629C48.6506 41.5429 53.1823 40.6283 60.3872 40.2892Z" fill="white" stroke="#338FBF"/>
<path d="M64.1225 47.7525C64.0485 47.8471 63.9794 47.933 63.9167 48.0096L62.1102 45.8693L61.7597 45.454L61.375 45.8378L58.5704 48.636L54.6903 45.1392L54.0812 44.5903L53.8721 45.3831L53.5714 46.5232C53.1723 45.1363 53.2123 43.7145 53.3989 42.523C53.5219 41.7373 53.7067 41.0653 53.8606 40.5905C53.9374 40.3535 54.0061 40.1666 54.0551 40.0403C54.0697 40.0025 54.0826 39.9701 54.0934 39.9435C55.8751 38.2852 58.7091 37.6086 61.2745 37.8354C62.5676 37.9497 63.7562 38.2914 64.6735 38.8217C65.5881 39.3504 66.2031 40.0469 66.4327 40.8704C66.8593 42.5836 66.1897 44.4453 65.338 45.9448C64.918 46.6843 64.468 47.3108 64.1225 47.7525Z" fill="white" stroke="#338FBF"/>
<path d="M64.7533 65.4884C64.7373 65.2812 64.7247 65.0985 64.715 64.9456H70.7398L72.485 73.652C72.3662 73.6908 72.2241 73.7352 72.0632 73.7822C71.5536 73.931 70.8629 74.103 70.1279 74.2008C69.3883 74.2992 68.6319 74.3185 67.9799 74.1815C67.3325 74.0456 66.8282 73.7656 66.5137 73.2948C66.1503 72.751 65.843 71.9378 65.5916 70.9845C65.3425 70.0402 65.1581 68.9974 65.0231 68.0211C64.8884 67.0461 64.804 66.1455 64.7533 65.4884Z" fill="white" stroke="#338FBF"/>
<path d="M64.511 40.5334C64.6321 40.7146 64.7424 40.8608 64.8321 40.9718C63.9565 42.9276 62.3676 44.6348 60.939 45.884C60.1955 46.5342 59.5059 47.0512 59.0028 47.4053C58.8424 47.5182 58.7011 47.6144 58.5834 47.6929L56.5503 44.8291L52.3159 37.7462C56.5725 37.1475 58.9848 34.9366 60.3262 32.802C61.0316 31.6794 61.4369 30.5857 61.6661 29.7728C61.6877 29.6961 61.7078 29.6219 61.7264 29.5504C61.7545 29.579 61.7827 29.6073 61.8111 29.6352C62.145 29.964 62.5288 30.273 62.8863 30.5361C63.245 30.8002 63.5848 31.0237 63.8346 31.1811C63.8536 31.1931 63.8722 31.2048 63.8902 31.216C62.7817 34.3998 63.0116 36.8541 63.5604 38.5462C63.8446 39.4223 64.2113 40.0854 64.511 40.5334Z" fill="white" stroke="#338FBF"/>
<path d="M71.4578 40.3791C71.4714 40.3302 71.4843 40.2843 71.4964 40.2414C71.5838 40.2612 71.6832 40.2841 71.7938 40.31C72.2736 40.4226 72.9649 40.5935 73.807 40.8257C75.4921 41.2904 77.7764 41.9996 80.1766 42.9778C82.5789 43.9568 85.0832 45.1996 87.2163 46.727C89.353 48.2569 91.0842 50.0489 91.9901 52.1149L91.9901 52.1149L91.9916 52.1182C92.4639 53.1743 92.9714 54.9633 93.4872 57.3311C94.0007 59.6883 94.5157 62.5868 95.0107 65.8414C96.0007 72.3501 96.9082 80.2652 97.5645 88.0889C98.2209 95.9137 98.6251 103.637 98.6102 109.765C98.6028 112.83 98.4904 115.485 98.2548 117.549C98.1369 118.581 97.9893 119.456 97.8117 120.155C97.6318 120.864 97.4306 121.354 97.2264 121.646C95.2343 124.495 93.0558 125.937 91.3933 126.668C90.5601 127.035 89.8531 127.225 89.3597 127.323C89.2872 127.337 89.2192 127.35 89.1562 127.361C89.2851 123.955 88.5726 119.593 87.3784 114.759C86.1102 109.625 84.287 103.912 82.3056 98.1689C80.8139 93.8449 79.2352 89.5096 77.7333 85.3853C75.2352 78.5254 72.9496 72.2492 71.6308 67.58C69.5364 60.1649 69.5353 53.216 70.0598 48.117C70.322 45.5685 70.7152 43.4855 71.0421 42.042C71.2055 41.3203 71.3523 40.7587 71.4578 40.3791Z" fill="white" stroke="#338FBF"/>
<path d="M42.5682 43.3311L42.2224 43.2937C42.3016 43.2659 42.4095 43.2248 42.5423 43.1728C42.5591 43.2228 42.5682 43.2761 42.5682 43.3311ZM44.0124 82.5004C41.8983 69.4228 40.3559 53.9133 42.4947 43.7267C42.5145 43.7193 42.5348 43.7116 42.5555 43.7037C42.7456 43.6314 43.0121 43.5247 43.3299 43.3975C43.3528 43.3883 43.3761 43.379 43.3996 43.3696C44.1013 43.0887 45.0545 42.7083 46.0786 42.3367C47.1043 41.9646 48.1908 41.6051 49.1583 41.3643C49.807 41.2029 50.368 41.104 50.8088 41.078C50.7686 41.2079 50.7233 41.3575 50.6735 41.5267C50.4632 42.2421 50.1736 43.3079 49.8534 44.7189C49.2129 47.5409 48.4499 51.7433 47.9529 57.2833C46.9674 68.2688 47.0283 84.5108 51.1629 105.676L48.7312 105.87C48.7257 105.848 48.7199 105.824 48.714 105.8C48.6364 105.485 48.523 105.02 48.3803 104.42C48.0948 103.22 47.6918 101.483 47.2221 99.3332C46.2827 95.0336 45.0772 89.0874 44.0124 82.5004Z" fill="white" stroke="#338FBF"/>
<path d="M61.6714 42.8345C62.667 41.9357 63.7934 40.6595 64.2747 39.1451C64.3397 39.1655 64.4099 39.1907 64.4831 39.2219C64.8279 39.3688 65.2312 39.6434 65.4983 40.1695C66.0161 41.1895 66.1216 43.3782 63.6896 47.9021L61.9744 45.8699L61.6239 45.4546L61.2392 45.8385L59.1788 47.8942L59.7304 44.3169C59.844 44.2445 60.0001 44.1422 60.1865 44.0123C60.581 43.7374 61.1146 43.3371 61.6714 42.8345Z" fill="white" stroke="#338FBF"/>
<path d="M69.9053 59.4238C69.1145 56.2908 69.0798 52.1913 69.5293 48.3788C69.7826 46.2309 70.1872 44.1944 70.6857 42.4995C71.1885 40.7903 71.7726 39.478 72.3598 38.7379L72.3598 38.7379L72.3616 38.7357C72.564 38.4776 72.9818 38.2428 73.656 38.0868C74.3156 37.9343 75.1479 37.8741 76.0816 37.901C77.9476 37.9549 80.1395 38.3541 81.9994 38.9699C82.9287 39.2776 83.7616 39.6349 84.4235 40.0216C85.0951 40.4139 85.5455 40.8104 85.7671 41.1764C85.9672 41.507 85.981 41.8015 85.7896 42.1241C85.5697 42.4949 85.0507 42.9455 84.0414 43.4243C79.7527 45.4586 76.0724 49.7751 73.4853 53.519C72.1852 55.4003 71.1483 57.1561 70.4364 58.4416C70.2323 58.8101 70.0548 59.1402 69.9053 59.4238Z" fill="white" stroke="#338FBF"/>
<path d="M59.8666 73.2228C59.9597 74.2443 60.0529 75.268 60.1518 76.2824C60.0328 75.2834 59.9084 74.272 59.768 73.2444C59.6835 72.3149 59.612 71.3852 59.5454 70.4578C59.6339 71.3882 59.7367 72.314 59.8666 73.2228Z" fill="white" stroke="#338FBF"/>
<path d="M51.6529 39.9749C51.5359 40.2942 51.3698 40.7575 51.1705 41.3411C50.769 42.5171 50.2326 44.1828 49.6919 46.1439C48.8072 49.3524 47.9056 53.3708 47.5708 57.3374C47.1594 56.0686 46.6564 54.4149 46.2041 52.6409C45.7122 50.7116 45.2834 48.6523 45.095 46.7967C44.9046 44.9225 44.9688 43.3351 45.3958 42.2982C46.2506 40.2905 47.8716 39.7402 49.3535 39.693C50.101 39.6692 50.7995 39.7766 51.3147 39.8919C51.4396 39.9199 51.553 39.9481 51.6529 39.9749Z" fill="white" stroke="#338FBF"/>
<mask id="path-29-inside-1" fill="white">
<path fill-rule="evenodd" clip-rule="evenodd" d="M83.0537 81.2021C79.863 71.0461 79.3377 46.8501 84.6221 45.4072C84.6221 45.4072 91.4258 47.2395 93.5936 53.1756C95.7614 59.1117 96.8893 76.6477 96.1996 83.304C96.022 85.0182 95.5015 86.2895 94.746 87.1486C93.6901 88.4903 87.3299 94.9129 54.3382 109.403L51.1965 106.188C51.1965 106.188 64.5651 89.6538 83.0537 81.2021Z"/>
</mask>
<path fill-rule="evenodd" clip-rule="evenodd" d="M83.0537 81.2021C79.863 71.0461 79.3377 46.8501 84.6221 45.4072C84.6221 45.4072 91.4258 47.2395 93.5936 53.1756C95.7614 59.1117 96.8893 76.6477 96.1996 83.304C96.022 85.0182 95.5015 86.2895 94.746 87.1486C93.6901 88.4903 87.3299 94.9129 54.3382 109.403L51.1965 106.188C51.1965 106.188 64.5651 89.6538 83.0537 81.2021Z" fill="white"/>
<path d="M84.6221 45.4072L84.8821 44.4416L84.6203 44.3711L84.3587 44.4425L84.6221 45.4072ZM83.0537 81.2021L83.4694 82.1116L84.2723 81.7446L84.0077 80.9024L83.0537 81.2021ZM96.1996 83.304L97.1943 83.4071L96.1996 83.304ZM94.746 87.1486L93.9951 86.4881L93.977 86.5087L93.9602 86.5301L94.746 87.1486ZM54.3382 109.403L53.623 110.102L54.1067 110.597L54.7403 110.319L54.3382 109.403ZM51.1965 106.188L50.4189 105.559L49.8598 106.251L50.4813 106.887L51.1965 106.188ZM84.3587 44.4425C83.3421 44.7201 82.5948 45.5066 82.0461 46.4336C81.491 47.3713 81.0615 48.5796 80.7277 49.9428C80.0585 52.6754 79.7256 56.2357 79.6599 60.0198C79.5284 67.5782 80.4603 76.2838 82.0997 81.5018L84.0077 80.9024C82.4563 75.9644 81.5302 67.4939 81.6595 60.0546C81.7241 56.3399 82.0514 52.9459 82.6703 50.4185C82.9805 49.1518 83.352 48.1538 83.7671 47.4524C84.1887 46.7403 84.581 46.4551 84.8855 46.3719L84.3587 44.4425ZM94.5329 52.8326C93.3424 49.5727 90.894 47.4766 88.8148 46.2112C87.7696 45.5751 86.7978 45.1364 86.0855 44.8558C85.7286 44.7153 85.4349 44.6137 85.2271 44.5463C85.1232 44.5126 85.0406 44.4874 84.9822 44.4702C84.953 44.4616 84.9298 44.4549 84.913 44.4502C84.9046 44.4478 84.8978 44.4459 84.8927 44.4445C84.8901 44.4438 84.8879 44.4432 84.8861 44.4427C84.8853 44.4425 84.8845 44.4423 84.8838 44.4421C84.8835 44.442 84.8831 44.4419 84.8829 44.4418C84.8825 44.4417 84.8821 44.4416 84.6221 45.4072C84.362 46.3728 84.3617 46.3727 84.3614 46.3727C84.3614 46.3726 84.3611 46.3726 84.361 46.3725C84.3607 46.3725 84.3605 46.3724 84.3605 46.3724C84.3604 46.3724 84.3607 46.3725 84.3614 46.3726C84.3628 46.373 84.3658 46.3739 84.3703 46.3751C84.3794 46.3777 84.3947 46.3821 84.4158 46.3883C84.4582 46.4008 84.5239 46.4208 84.6102 46.4488C84.783 46.5048 85.0378 46.5927 85.3526 46.7167C85.9837 46.9653 86.8483 47.3556 87.775 47.9196C89.6396 49.0544 91.6769 50.8424 92.6543 53.5187L94.5329 52.8326ZM97.1943 83.4071C97.5487 79.9868 97.4331 73.8661 96.9651 67.8917C96.4991 61.9423 95.6697 55.9455 94.5329 52.8326L92.6543 53.5187C93.6853 56.3418 94.5038 62.0811 94.9712 68.0478C95.4367 73.9895 95.5402 79.965 95.2049 83.201L97.1943 83.4071ZM95.4969 87.809C96.4275 86.7509 97.002 85.2623 97.1943 83.4071L95.2049 83.201C95.0419 84.774 94.5755 85.8282 93.9951 86.4881L95.4969 87.809ZM93.9602 86.5301C93.5401 87.0638 91.8032 88.9314 85.9953 92.4927C80.2014 96.0453 70.4078 101.253 53.9361 108.487L54.7403 110.319C71.2603 103.063 81.1426 97.8143 87.0407 94.1976C92.9248 90.5897 94.8959 88.575 95.5318 87.767L93.9602 86.5301ZM55.0535 108.704L51.9118 105.489L50.4813 106.887L53.623 110.102L55.0535 108.704ZM51.1965 106.188C51.9741 106.816 51.9741 106.817 51.974 106.817C51.9741 106.817 51.9741 106.816 51.9742 106.816C51.9745 106.816 51.9749 106.816 51.9755 106.815C51.9768 106.813 51.9789 106.811 51.9818 106.807C51.9876 106.8 51.9966 106.789 52.0088 106.774C52.0332 106.744 52.0703 106.699 52.12 106.639C52.2194 106.52 52.3689 106.342 52.5663 106.112C52.9613 105.651 53.5484 104.98 54.3114 104.148C55.8377 102.483 58.0662 100.173 60.8682 97.6009C66.4793 92.4496 74.356 86.2776 83.4694 82.1116L82.6379 80.2926C73.2628 84.5783 65.2109 90.8991 59.5156 96.1277C56.6644 98.7452 54.3952 101.097 52.8372 102.796C52.058 103.646 51.4561 104.334 51.0478 104.81C50.8436 105.048 50.6878 105.234 50.5823 105.361C50.5296 105.424 50.4894 105.473 50.4621 105.506C50.4485 105.523 50.438 105.535 50.4308 105.544C50.4272 105.549 50.4244 105.552 50.4224 105.555C50.4214 105.556 50.4206 105.557 50.4201 105.558C50.4198 105.558 50.4195 105.558 50.4193 105.558C50.4191 105.559 50.4189 105.559 51.1965 106.188Z" fill="#338FBF" mask="url(#path-29-inside-1)"/>
<path d="M49.4919 113.361H14.47C13.3896 113.361 12.1423 112.662 11.7438 111.824L1.82105 91.2063C1.4226 90.3676 1.97586 89.6687 3.05623 89.6687H38.0781C39.1585 89.6687 40.4059 90.3676 40.8043 91.2063L50.7271 111.824C51.1256 112.662 50.6623 113.361 49.4919 113.361Z" fill="#338FBF"/>
<path d="M48.2439 113.364H13.222C12.1416 113.364 10.8942 112.665 10.4958 111.826L0.573001 91.209C0.17455 90.3703 0.727811 89.6714 1.80818 89.6714H36.8301C37.9105 89.6714 39.1578 90.3703 39.5563 91.209L49.4791 111.826C49.8775 112.665 49.4143 113.364 48.2439 113.364Z" fill="#338FBF"/>
<path d="M43.7115 31.5667L43.717 31.5773L43.722 31.5882C44.0018 32.1991 44.4182 32.7739 44.8693 33.3934L44.8841 33.4138L44.8967 33.436C45.4001 34.3213 45.8597 35.0442 46.4506 35.7155L46.46 35.7262L46.4688 35.7376C47.7699 37.4267 49.1375 38.8627 50.2749 39.4677L50.2857 39.4734L50.2961 39.4798C51.7385 40.3592 53.9334 40.283 56.2291 39.3118C58.5107 38.3465 60.8073 36.5285 62.3996 34.0735L62.3999 34.0731C64.4746 30.8807 65.4169 26.4561 63.5488 21.4638C61.0336 15.0108 57.6387 12.4342 54.0104 12.4451C50.334 12.4561 46.207 15.1147 42.197 19.6702L42.1971 19.6703L42.1881 19.6799C41.1273 20.8295 40.8531 22.5697 41.2051 24.717C41.5547 26.8496 42.5046 29.253 43.7115 31.5667Z" fill="white" stroke="#338FBF"/>
<path d="M39.9467 22.2431C40.0644 22.0425 40.2229 21.7851 40.4249 21.4834C40.9225 20.74 41.6853 19.7262 42.7531 18.6289C44.891 16.4321 48.2482 13.9049 53.1357 12.5448L53.405 12.4698L53.5812 12.6765L53.2181 13.0351C53.5812 12.6765 53.5812 12.6765 53.5812 12.6766L53.5814 12.6768L53.5821 12.6777L53.585 12.681L53.5962 12.6942L53.64 12.7456L53.8078 12.9432C53.9532 13.1146 54.1631 13.3625 54.4211 13.6687C54.9373 14.281 55.6463 15.1265 56.4178 16.059C57.8863 17.8339 59.5913 19.9364 60.6201 21.3452C60.7404 21.3409 60.8922 21.3448 61.0662 21.3693C61.4862 21.4287 62.0315 21.6087 62.564 22.0771C63.5147 22.9133 64.3473 24.5944 64.4719 27.8792C64.6667 27.5147 64.8671 27.0222 65.0169 26.3726C65.465 24.4297 65.467 21.0497 63.4567 15.4752C61.7107 10.7013 59.4396 9.41059 57.7166 9.20987C56.8362 9.10731 56.0549 9.28276 55.4913 9.48579C55.2102 9.58709 54.9858 9.69435 54.8342 9.77475C54.7585 9.81489 54.7012 9.84815 54.6644 9.87036C54.646 9.88146 54.6328 9.88978 54.6249 9.89479L54.6173 9.89969L54.6172 9.89975L54.6169 9.89996L54.6165 9.90024L54.3123 10.1041L54.0628 9.87108L54.0627 9.87103L54.0625 9.87081L54.0624 9.87068L54.062 9.87039L54.0581 9.86685C54.0534 9.86269 54.0453 9.85552 54.0337 9.84566C54.0105 9.82594 53.9736 9.79548 53.923 9.75674C53.8218 9.67922 53.6664 9.56874 53.4582 9.44487C53.0416 9.19705 52.4149 8.89654 51.5883 8.69812C49.9441 8.30345 47.4778 8.30472 44.2516 9.98727C40.9091 11.7829 38.9634 14.4723 38.3444 16.9102C37.7703 19.171 38.327 21.1979 39.9467 22.2431Z" fill="white" stroke="#338FBF"/>
<path d="M52.0317 23.8916C52.3406 24.5657 52.3579 25.3396 51.953 25.6341C51.5481 25.9287 50.9802 25.4992 50.5255 24.875C50.2167 24.2009 50.1994 23.427 50.6043 23.1324C51.155 22.788 51.6902 23.0727 52.0317 23.8916Z" fill="#338FBF"/>
<path d="M46.3196 27.8397C46.6284 28.5137 46.6457 29.2876 46.2409 29.5821C45.8361 29.8766 45.2682 29.4471 44.8136 28.823C44.5048 28.149 44.4875 27.3752 44.8923 27.0807C45.4429 26.7363 46.0108 27.1657 46.3196 27.8397Z" fill="#338FBF"/>
<path d="M48.1417 28.6622C48.1417 28.6622 47.8777 32.2327 46.4289 32.5765C44.9801 32.9203 47.3454 35.2896 50.4451 32.1119C50.4451 32.1119 50.5688 29.9512 48.1417 28.6622Z" fill="#338FBF"/>
<path d="M55.8682 24.9591C56.2744 25.4182 56.1503 26.207 55.5423 26.8618C54.9343 27.5165 54.0605 27.6644 53.6543 27.2053C53.248 26.7462 53.3721 25.9574 53.9801 25.3026C54.5881 24.6479 55.3215 24.5477 55.8682 24.9591Z" fill="#338FBF"/>
<path d="M46.5572 31.4018C46.6839 31.9644 46.102 32.7692 45.3934 33.0114C44.9515 32.405 44.6514 31.7502 44.2096 31.1439C44.3196 30.9548 44.603 30.8579 44.8865 30.761C45.5951 30.5188 46.4304 30.8392 46.5572 31.4018Z" fill="#338FBF"/>
<path d="M50.7299 19.1911C50.8653 19.1465 50.8385 19.0338 50.8385 19.0338C50.9472 18.8765 50.785 18.8083 50.6229 18.74C49.1351 18.6214 47.7795 19.6749 47.6441 19.7194C47.5087 19.7639 47.4268 20.0339 47.589 20.1022C47.6157 20.2149 47.9133 20.2387 48.0219 20.0814C48.0219 20.0814 49.2689 19.1852 50.4591 19.2801C50.5945 19.2356 50.5945 19.2356 50.7299 19.1911Z" fill="#338FBF"/>
<path d="M42.3288 25.4776C42.4731 25.4222 42.5901 25.2357 42.5626 25.1047C42.3086 24.6362 43.2641 23.9859 43.6697 23.6885C43.8141 23.6331 43.931 23.4466 43.8761 23.1846C43.8487 23.0536 43.6769 22.9781 43.3882 23.089C42.6939 23.4973 41.6489 24.465 41.9852 25.3266C42.0401 25.5886 42.2119 25.6641 42.3288 25.4776Z" fill="#338FBF"/>
<path d="M60.6051 23.7129C60.6016 23.7249 60.5984 23.7361 60.5954 23.7466C60.6005 23.7779 60.6067 23.8157 60.6142 23.8593C60.6384 24.0007 60.6755 24.2026 60.727 24.4421C60.8306 24.9235 60.9897 25.5454 61.213 26.1285C61.4404 26.7222 61.7158 27.225 62.029 27.5161C62.181 27.6574 62.3276 27.7353 62.4679 27.7626C62.6023 27.7888 62.7596 27.7747 62.9548 27.6813C63.3222 27.5005 63.719 27.0388 64.0621 26.3318C64.3977 25.6401 64.6436 24.7899 64.7482 23.9562C64.8534 23.1172 64.8097 22.3415 64.6087 21.7785C64.4134 21.2313 64.0891 20.9212 63.6145 20.8676C62.5105 20.7429 61.7764 21.4088 61.2754 22.2039C61.0242 22.6026 60.8459 23.0158 60.7301 23.3335C60.6726 23.4912 60.6315 23.6225 60.6051 23.7129Z" fill="white" stroke="#338FBF"/>
<path d="M50.8205 37.4797L54.9501 34.7404C54.9501 34.7404 55.839 34.9217 53.8646 36.3124C51.8749 37.6739 50.8205 37.4797 50.8205 37.4797Z" fill="#338FBF"/>
<path d="M56.4739 107.71C56.1941 109.244 52.4795 108.495 52.4795 108.495C52.4795 108.495 50.388 108.385 49.2732 108.318C49.2732 108.318 49.3021 109.539 48.6122 109.423C48.0493 109.449 47.9589 107.366 47.9589 107.366C47.9589 107.366 46.6695 109.216 46.2665 109.026C45.8635 108.836 46.0489 106.8 46.0489 106.8C46.0489 106.8 44.8071 106.59 44.6364 106.926C44.6255 107.046 44.2949 107.598 43.9753 108.031C43.6557 108.463 43.347 108.776 43.082 108.61C42.5628 108.157 43.0569 105.807 43.0569 105.807C43.0569 105.807 42.367 105.691 42.0802 105.764C41.7933 105.837 41.0886 107.421 40.2209 106.18C40.2209 106.18 40.5117 104.526 42.2656 103.727C43.1372 103.388 46.1112 103.039 47.9158 103.222C50.4104 103.522 53.8163 104.585 54.3464 104.918C55.0145 105.274 56.7537 106.176 56.4739 107.71Z" fill="white" stroke="#338FBF"/>
<path d="M47.9017 107.444C47.9017 107.444 47.7307 106.119 48.459 105.988C49.1873 105.857 50.4693 105.952 50.4693 105.952C50.4693 105.952 48.916 105.68 47.9053 105.761C46.8945 105.843 47.0955 108.468 47.0955 108.468L47.9017 107.444Z" fill="white" stroke="#338FBF"/>
<path d="M47.8417 104.975C47.6998 104.951 46.8263 105.058 46.509 105.393C46.1917 105.728 45.938 106.986 45.938 106.986C45.938 106.986 44.6613 106.762 44.4859 107.122C44.4747 107.25 44.1351 107.842 43.8066 108.305C43.829 108.048 44.1162 106.406 44.762 105.607C45.7026 104.731 47.5579 104.926 47.8417 104.975Z" fill="white" stroke="#338FBF"/>
<path d="M44.9964 104.557C44.9964 104.557 43.3842 105.165 43.1785 105.89C43.1785 105.89 42.4807 105.768 42.1906 105.845C43.1711 104.367 44.9964 104.557 44.9964 104.557Z" fill="white" stroke="#338FBF"/>
<path d="M56.3329 107.61C56.0543 109.083 52.3616 108.361 52.3616 108.361C52.3616 108.361 50.2822 108.254 49.174 108.19C49.0803 107.707 49.3656 107.637 49.5354 107.314C49.5354 107.314 51.0442 107.561 51.4775 107.399C51.4775 107.399 52.9646 107.876 53.546 107.62C54.1382 107.25 55.1159 108.695 56.3329 107.61Z" fill="white" stroke="#338FBF"/>
<path d="M90.7139 166.92C90.7139 171.171 94.0896 174.547 98.3406 174.547H112.969C117.22 174.547 120.595 171.171 120.595 166.92V103.156C120.595 98.9053 117.22 95.5295 112.969 95.5295H98.3406C94.0896 95.5295 90.7139 98.9053 90.7139 103.156V166.92Z" fill="#338FBF"/>
<path d="M98.0908 166.92C98.0908 171.171 101.467 174.547 105.718 174.547H120.346C124.597 174.547 127.972 171.171 127.972 166.92V103.156C127.972 98.9053 124.597 95.5295 120.346 95.5295H105.718C101.467 95.5295 98.0908 98.9053 98.0908 103.156V166.92Z" fill="#338FBF"/>
</svg>
