<svg width="215" height="259" viewBox="0 0 215 259" fill="none" xmlns="http://www.w3.org/2000/svg">
<path d="M90.4559 176.111C90.4559 182.112 95.332 186.988 101.333 186.988H149.719C155.72 186.988 160.596 182.112 160.596 176.111V131.101C160.596 125.099 155.72 120.223 149.719 120.223H101.333C95.332 120.223 90.4559 125.099 90.4559 131.101V176.111V176.111Z" fill="#338FBF"/>
<path d="M84.079 176.111C84.079 182.112 88.955 186.988 94.9564 186.988H143.342C149.343 186.988 154.22 182.112 154.22 176.111V131.101C154.22 125.099 149.343 120.223 143.342 120.223H94.9564C88.955 120.223 84.079 125.099 84.079 131.101V176.111Z" fill="#338FBF"/>
<path d="M55.3231 218.995C55.3231 221.62 57.4486 223.746 60.0742 223.746C62.6997 223.746 64.8252 221.62 64.8252 218.995V154.605C64.8252 151.98 62.6997 149.854 60.0742 149.854C57.4486 149.854 55.3231 151.98 55.3231 154.605V218.995Z" fill="#FFE8B0"/>
<path d="M54.8231 216.62C54.8231 220.871 58.1988 224.247 62.4498 224.247H77.078C81.329 224.247 84.7048 220.871 84.7048 216.62V152.856C84.7048 148.605 81.329 145.229 77.078 145.229H62.4498C58.1988 145.229 54.8231 148.605 54.8231 152.856V216.62Z" fill="#BF6060"/>
<path d="M61.9501 216.62C61.9501 220.871 65.951 224.247 70.9521 224.247H79.8291C84.8302 224.247 88.831 220.871 88.831 216.62V152.856C88.831 148.605 84.8302 145.229 79.8291 145.229H70.9521C65.951 145.229 61.9501 148.605 61.9501 152.856V216.62Z" fill="#338FBF"/>
<path d="M138.591 250.752C138.591 252.252 139.966 253.502 141.716 253.502C143.467 253.502 144.842 252.252 144.842 250.752V223.495C144.842 221.995 143.467 220.745 141.716 220.745C139.966 220.745 138.591 221.995 138.591 223.495V250.752Z" fill="#338FBF"/>
<path d="M156.052 250.752C156.052 252.252 157.427 253.502 159.177 253.502C160.928 253.502 162.303 252.252 162.303 250.752V223.495C162.303 221.995 160.928 220.745 159.177 220.745C157.427 220.745 156.052 221.995 156.052 223.495V250.752Z" fill="#338FBF"/>
<path d="M61.9501 250.752C61.9501 252.252 63.3254 253.502 65.0758 253.502C66.8262 253.502 68.2015 252.252 68.2015 250.752V223.495C68.2015 221.995 66.8262 220.745 65.0758 220.745C63.3254 220.745 61.9501 221.995 61.9501 223.495V250.752Z" fill="#338FBF"/>
<path d="M78.454 250.001C78.454 251.502 79.8293 252.627 81.4546 252.627C83.08 252.627 84.4553 251.377 84.4553 250.001V223.495C84.4553 221.995 83.08 220.87 81.4546 220.87C79.8293 220.87 78.454 222.12 78.454 223.495V250.001Z" fill="#338FBF"/>
<path d="M55.3231 216.619C55.3231 220.87 58.6989 224.245 62.9498 224.245H149.094C153.345 224.245 156.721 220.87 156.721 216.619V189.863C156.721 185.612 153.345 182.236 149.094 182.236H62.9498C58.6989 182.236 55.3231 185.612 55.3231 189.863V216.619Z" fill="#338FBF"/>
<path d="M79.7681 128.819L80.0975 129.195L80.3011 129.017L80.2632 128.749C78.7691 118.187 77.7489 110.774 77.89 105.28C78.0244 100.053 79.2092 96.6456 81.9927 93.9515C82.0086 93.9711 82.025 93.9913 82.042 94.0122C82.2881 94.3158 82.6409 94.7586 83.0661 95.3129C83.9168 96.4219 85.0553 97.9753 86.2071 99.7531C87.3597 101.532 88.5207 103.528 89.4203 105.523C90.3224 107.524 90.9475 109.493 91.056 111.226C91.0631 111.339 91.0703 111.454 91.0777 111.571C91.3081 115.238 91.6699 120.995 91.3698 126.172C91.2148 128.846 90.8847 131.335 90.2814 133.291C89.6707 135.271 88.8194 136.576 87.7188 137.076L87.6067 137.127L87.5311 137.224C87.1712 137.686 86.5112 138.263 85.5911 138.928C84.6798 139.586 83.5451 140.307 82.2646 141.062C79.7041 142.572 76.5863 144.2 73.5621 145.702C70.5394 147.203 67.6169 148.575 65.4496 149.572C64.3661 150.07 63.4718 150.475 62.8485 150.754C62.5669 150.881 62.3407 150.981 62.1774 151.054L57.5143 146.638C58.0287 146.397 58.6147 146.069 59.2499 145.679C60.2275 145.079 61.3504 144.313 62.5546 143.444C64.9632 141.707 67.7159 139.544 70.3125 137.434C72.91 135.325 75.356 133.265 77.1522 131.733C78.0505 130.967 78.7865 130.333 79.2981 129.89C79.5539 129.669 79.7536 129.495 79.8894 129.377L80.0443 129.242L80.084 129.207L80.0941 129.198L80.0966 129.196L80.0973 129.195C80.0974 129.195 80.0975 129.195 79.7681 128.819Z" fill="white" stroke="#338FBF"/>
<path d="M48.7573 149.718V151.216H59.1335L60.4988 148.764C60.4988 148.764 55.7203 147.402 51.6244 148.628C51.6244 148.628 49.8495 149.309 49.5765 149.581C49.44 149.718 49.1669 149.445 48.7573 149.718Z" fill="#DD8866"/>
<path d="M61.7274 150.126C61.3178 150.807 60.089 151.897 58.7237 151.625C57.3584 151.352 55.7201 151.625 55.7201 151.625C55.7201 151.625 55.3105 151.08 56.2662 150.807C57.2219 150.535 58.8603 149.717 58.8603 149.172L56.1297 148.764C56.1297 148.764 54.7644 148.9 54.2183 149.172C53.6722 149.445 53.5356 150.535 52.853 151.08C52.1704 151.625 51.7608 151.488 51.7608 151.488C51.7608 151.488 52.1703 149.854 52.5799 149.309C52.7165 149.173 53.2626 148.764 53.2626 148.764C53.2626 148.764 52.1704 148.9 51.7608 149.581C51.3512 150.262 51.3512 150.671 51.2146 151.08C51.0781 151.352 50.6685 151.761 50.2589 151.625C50.2589 151.625 50.6685 149.854 50.8051 149.172C50.8051 149.172 50.1224 151.216 49.9859 151.488C49.7128 151.897 49.4398 151.488 49.5763 149.581C49.5763 149.581 49.1667 150.399 49.1667 151.08C49.1667 151.08 48.6206 151.488 48.6206 150.807C48.6206 150.262 48.4841 149.172 49.7128 149.172C49.7128 149.172 50.3955 147.81 51.4877 148.355C51.4877 148.355 53.126 147.538 53.9452 147.265C54.7644 147.129 55.8566 147.265 55.8566 147.265C55.8566 147.265 63.6388 147.129 61.7274 150.126Z" fill="#F3A17A"/>
<path d="M121.574 88.7717C122.952 89.089 124.041 89.5083 124.784 90.0323C127.83 92.2507 128.593 96.4275 127.71 100.433C126.825 104.448 124.342 108.026 121.234 109.039C120.546 109.263 119.55 109.189 118.265 108.796C116.995 108.407 115.514 107.731 113.9 106.845C110.675 105.075 106.981 102.504 103.481 99.8527C99.9841 97.204 96.6938 94.486 94.2769 92.4294C93.0688 91.4013 92.0795 90.539 91.3925 89.934C91.2961 89.8491 91.2057 89.7692 91.1214 89.6947C91.1772 89.6869 91.235 89.6788 91.2949 89.6705C92.0854 89.5607 93.2227 89.4089 94.6082 89.2411C97.3798 88.9056 101.141 88.5065 105.106 88.2519C109.072 87.9971 113.229 87.8878 116.794 88.1283C118.577 88.2486 120.201 88.4556 121.574 88.7717Z" fill="white" stroke="#338FBF"/>
<path d="M100.137 251.978L100.137 251.979L100.023 254.363H87.5333C87.6024 253.687 87.7081 252.87 87.912 252.056C88.1767 251 88.5918 250.014 89.2478 249.36C90.5571 248.053 91.2386 246.468 91.5939 245.227C91.7723 244.604 91.8705 244.061 91.9243 243.672C91.941 243.551 91.9535 243.445 91.9627 243.356C91.9679 243.353 91.9732 243.351 91.9785 243.349C92.1662 243.272 92.4349 243.163 92.7576 243.038C93.4041 242.787 94.2616 242.472 95.1153 242.213C95.9793 241.951 96.8003 241.759 97.3881 241.73C97.6899 241.715 97.864 241.748 97.9436 241.785C97.9461 241.786 97.9484 241.787 97.9504 241.788C97.9193 242.322 98.0681 243.07 98.2698 243.869C98.4444 244.56 98.6747 245.347 98.9114 246.155C98.9621 246.328 99.0131 246.502 99.0639 246.677C99.3539 247.673 99.6398 248.684 99.845 249.614C100.052 250.551 100.167 251.366 100.137 251.978Z" fill="white" stroke="#338FBF"/>
<path d="M63.141 254.5H40.5339C40.5753 253.88 40.6978 253.092 40.976 252.392C41.3367 251.485 41.9071 250.834 42.8053 250.729L42.8053 250.729L42.8089 250.728C44.4479 250.524 46.9314 250.178 49.1842 249.247C51.437 248.316 53.544 246.764 54.2863 244.105C54.6281 242.961 55.2133 242.329 55.8673 241.984C56.5386 241.63 57.3401 241.549 58.1476 241.62C58.9521 241.692 59.723 241.912 60.2993 242.119C60.5858 242.221 60.8202 242.319 60.9818 242.391C61.0062 242.402 61.0289 242.412 61.0499 242.422C61.0585 242.446 61.0679 242.474 61.0781 242.503C61.1399 242.683 61.2285 242.949 61.3348 243.289C61.5473 243.969 61.8299 244.946 62.1083 246.124C62.6456 248.399 63.1637 251.411 63.141 254.5Z" fill="white" stroke="#338FBF"/>
<path d="M43.1537 168.92L43.1545 168.919C51.0531 163.867 63.188 160.713 73.4048 158.824C78.5026 157.882 83.1034 157.257 86.4296 156.869C88.0925 156.674 89.4364 156.539 90.3639 156.452C90.8276 156.409 91.1872 156.378 91.4306 156.358C91.5522 156.347 91.6448 156.34 91.7068 156.335L91.7704 156.33L121.647 157.655C121.638 157.672 121.628 157.689 121.618 157.706C121.339 158.192 120.93 158.891 120.408 159.744C119.363 161.452 117.869 163.772 116.071 166.227C112.454 171.164 107.674 176.545 102.892 178.666L102.889 178.668C100.463 179.762 96.545 180.656 91.9851 181.377C87.4391 182.096 82.303 182.636 77.471 183.035C72.6401 183.435 68.1193 183.694 64.8059 183.854C63.1494 183.933 61.795 183.988 60.8551 184.023C60.3851 184.04 60.0188 184.053 59.7701 184.061C59.6457 184.065 59.5508 184.068 59.487 184.07L59.4149 184.072L59.3969 184.072L59.3924 184.072L59.3913 184.073C59.3911 184.073 59.391 184.073 59.4051 184.572L59.391 184.073L58.8693 184.087L58.9064 184.608L63.1006 243.465H52.3001C52.276 243.353 52.2471 243.217 52.2134 243.059C52.1021 242.535 51.9396 241.767 51.7351 240.788C51.326 238.829 50.7488 236.027 50.0761 232.651C48.7306 225.898 47.0037 216.853 45.4775 207.682C43.9507 198.508 42.6268 189.22 42.0846 181.977C41.8132 178.352 41.7392 175.259 41.9283 172.955C42.0229 171.802 42.1819 170.868 42.405 170.172C42.6332 169.459 42.9022 169.08 43.1537 168.92Z" fill="white" stroke="#338FBF"/>
<path d="M134.117 156.131C134.114 156.223 134.11 156.326 134.105 156.438C134.08 157.01 134.032 157.836 133.942 158.848C133.76 160.873 133.404 163.637 132.711 166.597C131.317 172.551 128.591 179.144 123.32 182.234C117.888 185.418 113.274 187.381 110.024 188.546C108.399 189.129 107.115 189.513 106.239 189.75C105.802 189.868 105.466 189.95 105.242 190.003C105.129 190.029 105.045 190.047 104.989 190.059C104.975 190.062 104.963 190.065 104.953 190.067C104.942 190.069 104.934 190.071 104.927 190.072L104.912 190.075L104.909 190.076L104.909 190.076L104.908 190.076L134.117 156.131ZM134.117 156.131C133.823 156.171 133.424 156.226 132.932 156.293C131.804 156.449 130.189 156.675 128.237 156.957C124.333 157.521 119.085 158.308 113.705 159.201C108.324 160.094 102.818 161.093 98.3961 162.08C96.1845 162.573 94.2524 163.062 92.7462 163.531C91.9929 163.766 91.3532 163.993 90.8416 164.211C90.326 164.431 89.9692 164.629 89.7579 164.798C89.713 164.837 89.6325 164.936 89.5355 165.148C89.4402 165.356 89.3449 165.636 89.2526 165.992C89.0682 166.704 88.9083 167.67 88.7731 168.864C88.5032 171.25 88.3382 174.486 88.2551 178.29C88.089 185.894 88.2508 195.722 88.5409 205.451C88.8309 215.178 89.2489 224.8 89.5944 231.99C89.7671 235.585 89.9217 238.572 90.0332 240.66C90.0889 241.705 90.1338 242.524 90.1648 243.082C90.1729 243.228 90.18 243.356 90.1862 243.466H99.3629L134.117 156.131Z" fill="white" stroke="#338FBF"/>
<path d="M100.387 89.9889L100.388 89.9889C107.157 89.6512 112.738 90.563 116.623 91.5575C118.566 92.0547 120.083 92.5723 121.113 92.9643C121.628 93.1603 122.02 93.3248 122.282 93.4396C122.413 93.497 122.512 93.5419 122.577 93.5721C122.607 93.586 122.63 93.5967 122.645 93.6042C126.275 95.9666 128.891 100.498 130.737 106.226C132.582 111.953 133.632 118.794 134.185 125.646C135.262 138.987 134.451 152.288 134.031 157.305C134.027 157.306 134.023 157.306 134.019 157.307C133.76 157.348 133.378 157.407 132.888 157.479C131.91 157.624 130.503 157.822 128.791 158.037C125.366 158.466 120.724 158.958 115.851 159.213C110.973 159.468 105.882 159.483 101.552 158.965C99.3866 158.705 97.4258 158.314 95.7838 157.759C94.1951 157.222 92.9359 156.541 92.0745 155.707C92.0555 155.635 92.0288 155.532 91.9948 155.402C91.9202 155.114 91.8108 154.689 91.6718 154.14C91.3936 153.04 90.9969 151.442 90.5229 149.448C89.5747 145.46 88.3176 139.89 87.0819 133.564C84.6259 120.99 82.2627 105.469 82.5617 93.4394C82.6816 93.3658 82.8628 93.262 83.1153 93.136C83.672 92.8583 84.5755 92.4724 85.9336 92.0626C88.6505 91.2426 93.1822 90.328 100.387 89.9889Z" fill="white" stroke="#338FBF"/>
<path d="M104.122 97.4522C104.048 97.5468 103.979 97.6327 103.917 97.7093L102.11 95.569L101.76 95.1537L101.375 95.5375L98.5703 98.3357L94.6901 94.8389L94.0811 94.29L93.8719 95.0828L93.5713 96.2229C93.1722 94.836 93.2122 93.4142 93.3988 92.2227C93.5218 91.437 93.7066 90.765 93.8604 90.2902C93.9372 90.0532 94.006 89.8663 94.0549 89.7401C94.0696 89.7022 94.0825 89.6698 94.0933 89.6432C95.875 87.9849 98.709 87.3083 101.274 87.5351C102.567 87.6494 103.756 87.9911 104.673 88.5214C105.588 89.0501 106.203 89.7466 106.433 90.5701C106.859 92.2833 106.19 94.145 105.338 95.6445C104.918 96.384 104.468 97.0105 104.122 97.4522Z" fill="white" stroke="#338FBF"/>
<path d="M104.753 115.188C104.737 114.981 104.725 114.798 104.715 114.645H110.74L112.485 123.352C112.366 123.39 112.224 123.435 112.063 123.482C111.554 123.631 110.863 123.803 110.128 123.9C109.388 123.999 108.632 124.018 107.98 123.881C107.332 123.745 106.828 123.465 106.514 122.994C106.15 122.451 105.843 121.637 105.591 120.684C105.342 119.74 105.158 118.697 105.023 117.721C104.888 116.746 104.804 115.845 104.753 115.188Z" fill="white" stroke="#338FBF"/>
<path d="M104.511 90.2332C104.632 90.4143 104.742 90.5605 104.832 90.6716C103.956 92.6273 102.367 94.3345 100.939 95.5837C100.195 96.2339 99.5058 96.7509 99.0027 97.105C98.8422 97.2179 98.701 97.3141 98.5833 97.3926L96.5502 94.5288L92.3158 87.446C96.5724 86.8472 98.9847 84.6363 100.326 82.5018C101.031 81.3791 101.437 80.2854 101.666 79.4725C101.688 79.3958 101.708 79.3216 101.726 79.2501C101.754 79.2787 101.783 79.307 101.811 79.3349C102.145 79.6637 102.529 79.9727 102.886 80.2358C103.245 80.4999 103.585 80.7234 103.834 80.8808C103.854 80.8928 103.872 80.9045 103.89 80.9157C102.782 84.0995 103.011 86.5538 103.56 88.2459C103.844 89.122 104.211 89.7851 104.511 90.2332Z" fill="white" stroke="#338FBF"/>
<path d="M111.458 90.0788C111.471 90.0299 111.484 89.984 111.496 89.9411C111.584 89.9609 111.683 89.9838 111.794 90.0098C112.273 90.1223 112.965 90.2932 113.807 90.5254C115.492 90.9901 117.776 91.6993 120.176 92.6775C122.579 93.6565 125.083 94.8993 127.216 96.4267C129.353 97.9566 131.084 99.7486 131.99 101.815L131.99 101.815L131.991 101.818C132.464 102.874 132.971 104.663 133.487 107.031C134.001 109.388 134.516 112.286 135.011 115.541C136.001 122.05 136.908 129.965 137.564 137.789C138.221 145.613 138.625 153.337 138.61 159.465C138.603 162.53 138.49 165.184 138.255 167.248C138.137 168.281 137.989 169.155 137.812 169.855C137.632 170.564 137.43 171.054 137.226 171.346C135.234 174.195 133.056 175.636 131.393 176.368C130.56 176.735 129.853 176.925 129.36 177.023C129.287 177.037 129.219 177.05 129.156 177.06C129.285 173.654 128.573 169.293 127.378 164.459C126.11 159.324 124.287 153.612 122.305 147.869C120.814 143.545 119.235 139.209 117.733 135.085C115.235 128.225 112.95 121.949 111.631 117.28C109.536 109.865 109.535 102.916 110.06 97.8167C110.322 95.2682 110.715 93.1852 111.042 91.7417C111.205 91.02 111.352 90.4584 111.458 90.0788Z" fill="white" stroke="#338FBF"/>
<path d="M82.568 93.0308L82.2223 92.9934C82.3014 92.9656 82.4094 92.9245 82.5422 92.8725C82.559 92.9225 82.568 92.9758 82.568 93.0308ZM84.0123 132.2C81.8982 119.123 80.3558 103.613 82.4946 93.4264C82.5143 93.419 82.5346 93.4113 82.5554 93.4034C82.7455 93.3312 83.012 93.2244 83.3297 93.0972C83.3527 93.088 83.3759 93.0787 83.3994 93.0693C84.1012 92.7884 85.0544 92.408 86.0785 92.0365C87.1042 91.6643 88.1906 91.3048 89.1582 91.064C89.8069 90.9026 90.3679 90.8037 90.8087 90.7777C90.7685 90.9076 90.7232 91.0572 90.6734 91.2264C90.4631 91.9418 90.1735 93.0076 89.8533 94.4186C89.2128 97.2406 88.4498 101.443 87.9528 106.983C86.9673 117.969 87.0282 134.21 91.1628 155.376L88.7311 155.57C88.7255 155.547 88.7198 155.524 88.7139 155.5C88.6363 155.185 88.5229 154.72 88.3802 154.12C88.0947 152.92 87.6916 151.182 87.222 149.033C86.2826 144.733 85.0771 138.787 84.0123 132.2Z" fill="white" stroke="#338FBF"/>
<path d="M101.671 92.5342C102.667 91.6354 103.793 90.3592 104.275 88.8448C104.34 88.8652 104.41 88.8904 104.483 88.9216C104.828 89.0685 105.231 89.3431 105.498 89.8692C106.016 90.8893 106.122 93.0779 103.689 97.6019L101.974 95.5696L101.624 95.1543L101.239 95.5382L99.1786 97.5939L99.7302 94.0166C99.8439 93.9442 100 93.8419 100.186 93.712C100.581 93.4371 101.114 93.0368 101.671 92.5342Z" fill="white" stroke="#338FBF"/>
<path d="M109.905 109.123C109.114 105.99 109.08 101.891 109.529 98.0786C109.782 95.9306 110.187 93.8941 110.686 92.1992C111.188 90.49 111.772 89.1778 112.36 88.4376L112.36 88.4376L112.361 88.4354C112.564 88.1773 112.982 87.9425 113.656 87.7865C114.315 87.634 115.148 87.5738 116.081 87.6007C117.948 87.6546 120.139 88.0538 121.999 88.6696C122.929 88.9773 123.761 89.3346 124.423 89.7213C125.095 90.1136 125.545 90.5101 125.767 90.8761C125.967 91.2067 125.981 91.5012 125.789 91.8238C125.57 92.1946 125.051 92.6452 124.041 93.124C119.753 95.1583 116.072 99.4748 113.485 103.219C112.185 105.1 111.148 106.856 110.436 108.141C110.232 108.51 110.055 108.84 109.905 109.123Z" fill="white" stroke="#338FBF"/>
<path d="M99.8665 122.922C99.9595 123.944 100.053 124.968 100.152 125.982C100.033 124.983 99.9083 123.972 99.7679 122.944C99.6833 122.015 99.6119 121.085 99.5453 120.157C99.6338 121.088 99.7366 122.014 99.8665 122.922Z" fill="white" stroke="#338FBF"/>
<path d="M91.6528 89.6746C91.5357 89.9939 91.3696 90.4572 91.1704 91.0408C90.7689 92.2168 90.2325 93.8825 89.6917 95.8436C88.8071 99.0521 87.9055 103.07 87.5707 107.037C87.1592 105.768 86.6563 104.115 86.204 102.341C85.7121 100.411 85.2833 98.352 85.0948 96.4964C84.9045 94.6222 84.9686 93.0348 85.3956 91.9979C86.2505 89.9902 87.8715 89.4399 89.3534 89.3927C90.1009 89.3689 90.7994 89.4763 91.3146 89.5916C91.4394 89.6196 91.5528 89.6479 91.6528 89.6746Z" fill="white" stroke="#338FBF"/>
<path d="M125.295 134.377C124.781 133.842 124.266 132.871 123.784 131.512C123.307 130.167 122.88 128.494 122.515 126.603C121.787 122.821 121.316 118.209 121.185 113.692C121.054 109.171 121.263 104.772 121.884 101.411C122.195 99.7274 122.604 98.3313 123.11 97.3164C123.584 96.363 124.103 95.827 124.628 95.6299C124.666 95.6415 124.712 95.6558 124.764 95.6728C124.946 95.7317 125.21 95.823 125.536 95.9512C126.187 96.2077 127.078 96.6102 128.035 97.1922C129.953 98.3596 132.093 100.225 133.124 103.047C134.181 105.942 135.002 111.746 135.47 117.708C135.936 123.658 136.042 129.67 135.702 132.952C135.537 134.548 135.067 135.69 134.429 136.45C133.797 137.203 132.974 137.612 132.027 137.706C130.103 137.897 127.6 136.781 125.295 134.377Z" fill="white" stroke="#338FBF"/>
<path d="M122.678 132.022C122.681 132.022 122.684 132.022 122.687 132.022C122.755 132.019 122.855 132.016 122.984 132.014C123.243 132.009 123.619 132.009 124.078 132.025C124.999 132.058 126.253 132.16 127.59 132.433C130.201 132.965 132.99 134.12 134.352 136.541C134.348 136.546 134.344 136.551 134.34 136.556C134.2 136.731 133.95 137.015 133.527 137.413C132.681 138.211 131.15 139.464 128.438 141.239C123.042 144.769 113.004 150.345 94.4537 158.506L91.8659 155.857C91.9463 155.76 92.0439 155.643 92.1584 155.507C92.5371 155.058 93.1001 154.406 93.8347 153.597C95.304 151.978 97.4586 149.73 100.196 147.221C105.657 142.216 113.422 136.185 122.678 132.022ZM134.494 136.342L134.495 136.34C134.495 136.339 134.495 136.34 134.494 136.342Z" fill="white" stroke="#338FBF"/>
<path d="M89.4921 163.061H54.4701C53.3898 163.061 52.1424 162.362 51.744 161.523L41.8212 140.906C41.4227 140.067 41.976 139.368 43.0563 139.368H78.0783C79.1586 139.368 80.406 140.067 80.8044 140.906L90.7272 161.523C91.1257 162.362 90.6625 163.061 89.4921 163.061Z" fill="#338FBF"/>
<path d="M88.244 163.064H53.2221C52.1417 163.064 50.8943 162.365 50.4959 161.526L40.5731 140.909C40.1747 140.07 40.7279 139.371 41.8083 139.371H76.8302C77.9106 139.371 79.158 140.07 79.5564 140.909L89.4792 161.526C89.8776 162.365 89.4144 163.064 88.244 163.064Z" fill="#338FBF"/>
<path d="M83.7114 81.2664L83.7169 81.277L83.7219 81.2879C84.0016 81.8989 84.418 82.4736 84.8692 83.0932L84.884 83.1135L84.8966 83.1357C85.4 84.021 85.8596 84.7439 86.4505 85.4152L86.4599 85.426L86.4687 85.4373C87.7697 87.1264 89.1374 88.5624 90.2748 89.1674L90.2856 89.1731L90.296 89.1795C91.7384 90.0589 93.9333 89.9827 96.2289 89.0115C98.5106 88.0462 100.807 86.2283 102.4 83.7732L102.4 83.7728C104.475 80.5804 105.417 76.1558 103.549 71.1635C101.034 64.7105 97.6386 62.1339 94.0103 62.1448C90.3338 62.1558 86.2069 64.8144 82.1968 69.3699L82.197 69.37L82.188 69.3797C81.1272 70.5292 80.853 72.2694 81.205 74.4167C81.5546 76.5493 82.5045 78.9527 83.7114 81.2664Z" fill="white" stroke="#338FBF"/>
<path d="M79.9466 71.9428C80.0643 71.7422 80.2227 71.4848 80.4247 71.1831C80.9224 70.4398 81.6851 69.4259 82.753 68.3286C84.8909 66.1318 88.2481 63.6046 93.1355 62.2445L93.4048 62.1695L93.581 62.3762L93.218 62.7348C93.581 62.3762 93.5811 62.3763 93.5811 62.3763L93.5813 62.3765L93.582 62.3774L93.5849 62.3807L93.5961 62.3939L93.6399 62.4454L93.8076 62.6429C93.9531 62.8143 94.1629 63.0622 94.421 63.3684C94.9371 63.9807 95.6462 64.8262 96.4177 65.7587C97.8862 67.5336 99.5912 69.6361 100.62 71.0449C100.74 71.0406 100.892 71.0445 101.066 71.0691C101.486 71.1285 102.031 71.3084 102.564 71.7768C103.515 72.613 104.347 74.2941 104.472 77.5789C104.667 77.2144 104.867 76.7219 105.017 76.0723C105.465 74.1294 105.467 70.7494 103.457 65.175C101.711 60.401 99.4394 59.1103 97.7165 58.9096C96.8361 58.807 96.0547 58.9825 95.4912 59.1855C95.21 59.2868 94.9857 59.3941 94.8341 59.4745C94.7584 59.5146 94.7011 59.5479 94.6643 59.5701C94.6459 59.5812 94.6327 59.5895 94.6248 59.5945L94.6172 59.5994L94.6171 59.5995L94.6168 59.5997L94.6164 59.5999L94.3122 59.8038L94.0627 59.5708L94.0626 59.5707L94.0624 59.5705L94.0622 59.5704L94.0619 59.5701L94.058 59.5666C94.0533 59.5624 94.0452 59.5552 94.0336 59.5454C94.0104 59.5257 93.9734 59.4952 93.9229 59.4564C93.8217 59.3789 93.6663 59.2684 93.4581 59.1446C93.0414 58.8968 92.4148 58.5962 91.5882 58.3978C89.944 58.0032 87.4776 58.0044 84.2514 59.687C80.909 61.4826 78.9633 64.172 78.3442 66.6099C77.7702 68.8707 78.3269 70.8976 79.9466 71.9428Z" fill="white" stroke="#338FBF"/>
<path d="M92.0316 73.5913C92.3405 74.2654 92.3577 75.0393 91.9529 75.3338C91.548 75.6284 90.9801 75.1989 90.5254 74.5747C90.2165 73.9006 90.1993 73.1267 90.6042 72.8322C91.1548 72.4877 91.6901 72.7724 92.0316 73.5913Z" fill="#338FBF"/>
<path d="M86.3195 77.5394C86.6283 78.2134 86.6456 78.9873 86.2408 79.2818C85.8359 79.5763 85.2681 79.1468 84.8135 78.5227C84.5046 77.8487 84.4874 77.0749 84.8922 76.7804C85.4428 76.436 86.0106 76.8654 86.3195 77.5394Z" fill="#338FBF"/>
<path d="M88.1416 78.362C88.1416 78.362 87.8776 81.9324 86.4288 82.2762C84.98 82.62 87.3452 84.9893 90.445 81.8116C90.445 81.8116 90.5687 79.6509 88.1416 78.362Z" fill="#338FBF"/>
<path d="M95.868 74.6588C96.2743 75.1179 96.1502 75.9067 95.5422 76.5615C94.9342 77.2162 94.0604 77.3641 93.6541 76.905C93.2479 76.4459 93.372 75.6571 93.98 75.0023C94.588 74.3476 95.3214 74.2475 95.868 74.6588Z" fill="#338FBF"/>
<path d="M86.557 81.1015C86.6838 81.6641 86.1019 82.4689 85.3933 82.7111C84.9514 82.1047 84.6513 81.4499 84.2094 80.8436C84.3195 80.6545 84.6029 80.5576 84.8864 80.4607C85.595 80.2185 86.4303 80.5389 86.557 81.1015Z" fill="#338FBF"/>
<path d="M90.7298 68.8908C90.8652 68.8463 90.8384 68.7335 90.8384 68.7335C90.9471 68.5762 90.7849 68.508 90.6227 68.4397C89.1349 68.3211 87.7793 69.3746 87.6439 69.4191C87.5085 69.4636 87.4267 69.7336 87.5888 69.8019C87.6156 69.9146 87.9131 69.9384 88.0218 69.7811C88.0218 69.7811 89.2687 68.8849 90.459 68.9798C90.5944 68.9353 90.5944 68.9353 90.7298 68.8908Z" fill="#338FBF"/>
<path d="M82.3287 75.1774C82.473 75.1219 82.5899 74.9354 82.5625 74.8044C82.3085 74.3359 83.264 73.6856 83.6696 73.3883C83.814 73.3328 83.9309 73.1463 83.876 72.8843C83.8486 72.7533 83.6768 72.6778 83.3881 72.7887C82.6938 73.197 81.6488 74.1647 81.9851 75.0263C82.04 75.2883 82.2117 75.3638 82.3287 75.1774Z" fill="#338FBF"/>
<path d="M100.605 73.4126C100.602 73.4246 100.598 73.4358 100.595 73.4463C100.6 73.4776 100.607 73.5154 100.614 73.5591C100.638 73.7004 100.675 73.9023 100.727 74.1418C100.83 74.6232 100.99 75.2451 101.213 75.8282C101.44 76.4219 101.716 76.9248 102.029 77.2158C102.181 77.3571 102.327 77.435 102.468 77.4623C102.602 77.4886 102.759 77.4744 102.955 77.381C103.322 77.2003 103.719 76.7385 104.062 76.0315C104.398 75.3398 104.644 74.4896 104.748 73.6559C104.853 72.8169 104.81 72.0412 104.609 71.4782C104.413 70.931 104.089 70.6209 103.614 70.5673C102.51 70.4426 101.776 71.1085 101.275 71.9036C101.024 72.3023 100.846 72.7156 100.73 73.0332C100.672 73.1909 100.631 73.3222 100.605 73.4126Z" fill="white" stroke="#338FBF"/>
<path d="M90.8204 87.1794L94.95 84.4401C94.95 84.4401 95.8389 84.6214 93.8645 86.0121C91.8748 87.3736 90.8204 87.1794 90.8204 87.1794Z" fill="#338FBF"/>
<path d="M130.714 216.62C130.714 220.871 134.09 224.247 138.34 224.247H152.969C157.22 224.247 160.595 220.871 160.595 216.62V152.856C160.595 148.605 157.22 145.229 152.969 145.229H138.34C134.09 145.229 130.714 148.605 130.714 152.856V216.62Z" fill="#338FBF"/>
<path d="M138.091 216.62C138.091 220.871 141.466 224.247 145.717 224.247H160.346C164.597 224.247 167.972 220.871 167.972 216.62V152.856C167.972 148.605 164.597 145.229 160.346 145.229H145.717C141.466 145.229 138.091 148.605 138.091 152.856V216.62Z" fill="#338FBF"/>
<path d="M96.4739 157.41C96.1941 158.944 92.4795 158.194 92.4795 158.194C92.4795 158.194 90.388 158.084 89.2732 158.018C89.2732 158.018 89.3021 159.239 88.6122 159.122C88.0493 159.149 87.9589 157.066 87.9589 157.066C87.9589 157.066 86.6695 158.916 86.2665 158.726C85.8635 158.536 86.0489 156.499 86.0489 156.499C86.0489 156.499 84.8071 156.29 84.6364 156.626C84.6255 156.745 84.2949 157.298 83.9753 157.73C83.6557 158.163 83.347 158.476 83.082 158.309C82.5628 157.857 83.0569 155.507 83.0569 155.507C83.0569 155.507 82.367 155.391 82.0802 155.464C81.7933 155.537 81.0886 157.121 80.2209 155.879C80.2209 155.879 80.5117 154.225 82.2656 153.427C83.1372 153.088 86.1112 152.739 87.9158 152.922C90.4104 153.222 93.8163 154.284 94.3464 154.617C95.0145 154.973 96.7537 155.876 96.4739 157.41Z" fill="white" stroke="#338FBF"/>
<path d="M87.9017 157.144C87.9017 157.144 87.7307 155.819 88.459 155.688C89.1873 155.556 90.4693 155.651 90.4693 155.651C90.4693 155.651 88.916 155.379 87.9053 155.461C86.8945 155.543 87.0955 158.168 87.0955 158.168L87.9017 157.144Z" fill="white" stroke="#338FBF"/>
<path d="M87.8417 154.675C87.6998 154.65 86.8263 154.758 86.509 155.093C86.1917 155.428 85.938 156.685 85.938 156.685C85.938 156.685 84.6613 156.462 84.4859 156.822C84.4747 156.95 84.1351 157.541 83.8066 158.005C83.829 157.748 84.1162 156.106 84.762 155.307C85.7026 154.43 87.5579 154.625 87.8417 154.675Z" fill="white" stroke="#338FBF"/>
<path d="M84.9964 154.257C84.9964 154.257 83.3842 154.864 83.1785 155.589C83.1785 155.589 82.4807 155.468 82.1906 155.545C83.1711 154.067 84.9964 154.257 84.9964 154.257Z" fill="white" stroke="#338FBF"/>
<path d="M96.3329 157.309C96.0543 158.782 92.3616 158.061 92.3616 158.061C92.3616 158.061 90.2822 157.954 89.174 157.889C89.0803 157.407 89.3656 157.337 89.5354 157.014C89.5354 157.014 91.0442 157.261 91.4775 157.098C91.4775 157.098 92.9646 157.575 93.546 157.32C94.1382 156.95 95.1159 158.395 96.3329 157.309Z" fill="white" stroke="#338FBF"/>
</svg>
