<svg width="302" height="101" viewBox="0 0 302 101" fill="none" xmlns="http://www.w3.org/2000/svg">
<path d="M114.016 31.855H80.3015L82.7302 25H116.444L114.016 31.855ZM112.801 35.2825H79.0719L76.6431 42.1375H110.357L112.801 35.2825ZM109.158 45.5339H75.4288L73 52.3889H106.684L109.158 45.5339Z" fill="#338FBF"/>
<path d="M195.356 69.1802H201.443C202.308 69.2844 203.185 69.1722 203.997 68.8535C204.809 68.5347 205.531 68.0192 206.099 67.3524C206.934 66.2495 207.355 64.8835 207.286 63.4972C207.344 62.615 207.183 61.7323 206.819 60.9282C206.455 60.124 205.9 59.4235 205.202 58.8893C204.072 58.1431 202.728 57.7973 201.382 57.9063H195.356V69.1802ZM187.367 75.9844V35.4047H213.525L211.228 42.209H195.356V51.1942H201.823C207.043 51.1942 209.752 52.4537 211.623 54.0665C212.961 55.2625 214.014 56.7489 214.702 58.4141C215.39 60.0794 215.695 61.8802 215.595 63.6815C215.698 65.6213 215.319 67.5562 214.492 69.3105C213.666 71.0648 212.418 72.5828 210.862 73.7266C208.352 75.4776 205.719 75.9691 200.363 75.9691L187.367 75.9844ZM164.206 75.9844V42.1936H152.58V35.4047H184.856L182.558 42.209H172.272V75.9998L164.206 75.9844ZM131.991 51.655H136.557C137.49 51.7194 138.428 51.647 139.341 51.44C140.291 51.1338 141.109 50.5111 141.662 49.6739C142.215 48.8367 142.47 47.8347 142.385 46.8322C142.512 45.836 142.272 44.8276 141.711 43.9981C141.15 43.1686 140.307 42.5757 139.341 42.3318C138.344 42.0982 137.32 42.0052 136.298 42.0554H131.991V51.655ZM131.991 58.6743V69.3184H137.561C139.096 69.4955 140.639 69.0662 141.867 68.1204C142.434 67.591 142.877 66.9421 143.166 66.22C143.456 65.4979 143.584 64.7203 143.541 63.9426C143.566 62.7 143.192 61.4826 142.476 60.4714C141.289 58.9354 139.828 58.6436 137.333 58.6436L131.991 58.6743ZM144.865 54.389V54.5272C146.222 55.0544 147.49 55.7901 148.624 56.7083C149.77 57.6685 150.676 58.8879 151.268 60.2675C151.861 61.6472 152.122 63.1483 152.033 64.6491C152.033 70.1939 149.111 74.2027 144.317 75.4008C142.407 75.8722 140.439 76.0636 138.474 75.9691H124.002V35.4047H136.876C138.921 35.3293 140.967 35.5203 142.963 35.973C147.62 37.2325 150.678 40.4733 150.678 45.588C150.716 46.8075 150.508 48.0219 150.066 49.1574C149.624 50.2929 148.957 51.3256 148.107 52.1926C147.203 53.1182 146.128 53.8542 144.941 54.3583L144.865 54.389Z" fill="#338FBF"/>
</svg>
