<svg width="395" height="164" viewBox="0 0 395 164" fill="none" xmlns="http://www.w3.org/2000/svg">
<path d="M161.699 54.855H127.985L130.414 48H164.128L161.699 54.855ZM160.485 58.2825H126.755L124.327 65.1375H158.041L160.485 58.2825ZM156.842 68.5339H123.112L120.684 75.3889H154.367L156.842 68.5339Z" fill="#338FBF"/>
<path d="M243.04 92.1802H249.127C249.992 92.2844 250.869 92.1722 251.681 91.8535C252.493 91.5347 253.215 91.0192 253.783 90.3524C254.618 89.2495 255.039 87.8835 254.97 86.4972C255.027 85.615 254.867 84.7323 254.503 83.9282C254.139 83.124 253.583 82.4235 252.885 81.8893C251.755 81.1431 250.412 80.7973 249.066 80.9063H243.04V92.1802ZM235.051 98.9844V58.4047H261.209L258.911 65.209H243.04V74.1942H249.507C254.726 74.1942 257.435 75.4537 259.307 77.0665C260.645 78.2625 261.698 79.7489 262.385 81.4141C263.073 83.0794 263.379 84.8802 263.279 86.6815C263.381 88.6213 263.002 90.5562 262.176 92.3105C261.349 94.0648 260.102 95.5828 258.546 96.7266C256.035 98.4776 253.403 98.9691 248.046 98.9691L235.051 98.9844ZM211.89 98.9844V65.1936H200.264V58.4047H232.54L230.242 65.209H219.955V98.9998L211.89 98.9844ZM179.675 74.655H184.24C185.174 74.7194 186.112 74.647 187.025 74.44C187.975 74.1338 188.793 73.5111 189.346 72.6739C189.899 71.8367 190.154 70.8347 190.068 69.8322C190.195 68.836 189.955 67.8276 189.394 66.9981C188.833 66.1686 187.99 65.5757 187.025 65.3318C186.028 65.0982 185.004 65.0052 183.982 65.0554H179.675V74.655ZM179.675 81.6743V92.3184H185.245C186.78 92.4955 188.323 92.0662 189.551 91.1204C190.117 90.591 190.561 89.9421 190.85 89.22C191.139 88.4979 191.267 87.7203 191.225 86.9426C191.249 85.7 190.876 84.4826 190.16 83.4714C188.973 81.9354 187.512 81.6436 185.016 81.6436L179.675 81.6743ZM192.549 77.389V77.5272C193.906 78.0544 195.173 78.7901 196.308 79.7083C197.454 80.6685 198.36 81.8879 198.952 83.2675C199.544 84.6472 199.806 86.1483 199.716 87.6491C199.716 93.1939 196.794 97.2027 192.001 98.4008C190.09 98.8722 188.122 99.0636 186.158 98.9691H171.686V58.4047H184.56C186.605 58.3293 188.65 58.5203 190.647 58.973C195.303 60.2325 198.362 63.4733 198.362 68.588C198.4 69.8075 198.191 71.0219 197.749 72.1574C197.307 73.2929 196.641 74.3256 195.79 75.1926C194.887 76.1182 193.811 76.8542 192.625 77.3583L192.549 77.389Z" fill="#338FBF"/>
</svg>
