<svg width="304" height="337" viewBox="0 0 304 337" fill="none" xmlns="http://www.w3.org/2000/svg">
<path fill-rule="evenodd" clip-rule="evenodd" d="M181.529 190.409H257.399V331.023H181.529V190.409ZM257.399 185.474C260.132 185.474 262.349 187.683 262.349 190.409V331.023C262.349 333.749 260.132 335.959 257.399 335.959H181.529C178.795 335.959 176.579 333.749 176.579 331.023V190.409C176.579 187.683 178.795 185.474 181.529 185.474H257.399Z" fill="#338FBF"/>
<path d="M257.399 190.383H181.529H176.579C176.579 187.657 178.795 185.448 181.529 185.448H257.399C260.133 185.448 262.349 187.657 262.349 190.383V330.997C262.349 333.723 261.111 335.932 257.399 335.932C254.924 335.932 254.924 330.997 257.399 330.997C257.399 326.139 257.399 190.383 257.399 190.383Z" fill="#338FBF"/>
<path d="M112.303 173.969H148.686L145.94 171.23C145.597 170.887 145.082 170.545 144.567 170.545L130.495 169.004L141.307 148.113L138.561 132.189H125.518L119.511 169.004L114.534 170.202C113.676 170.373 113.161 171.058 112.99 171.743L112.303 173.969Z" fill="#338FBF"/>
<path d="M128.093 148.113L123.974 169.004H130.495L141.307 148.113H128.093Z" fill="#338FBF"/>
<path d="M172.027 152.737H105.267C103.208 152.737 101.32 151.024 101.149 148.97L96.6866 98.456C96.5149 96.4012 98.0595 94.6888 100.119 94.6888H166.878C168.937 94.6888 170.825 96.4012 170.997 98.456L175.459 148.97C175.631 151.024 174.086 152.737 172.027 152.737Z" fill="#338FBF"/>
<path d="M174.6 152.737H107.841C105.782 152.737 103.894 151.024 103.722 148.969L99.2603 98.4558C99.0887 96.401 100.633 94.6887 102.693 94.6887H169.452C171.511 94.6887 173.399 96.401 173.571 98.4558L178.033 148.969C178.204 151.024 176.66 152.737 174.6 152.737Z" fill="#338FBF"/>
<path d="M105.783 150.168H176.146L171.512 97.4287H100.977L105.783 150.168Z" fill="white"/>
<path d="M147.139 170.888V174.141H210.638V173.114C210.638 172.257 209.951 171.573 209.265 171.573L186.611 169.518H148.856C147.826 169.175 147.139 170.031 147.139 170.888Z" fill="#338FBF"/>
<path d="M147.14 170.887V174.141H174.599V173.113C174.599 172.257 173.913 171.572 173.226 171.572L150.573 169.518H148.857C147.827 169.175 147.14 170.031 147.14 170.887Z" fill="#338FBF"/>
<path d="M29.4906 185.447H264.923C265.22 185.447 265.398 184.762 265.398 184.077V178.255H29.4906V185.447Z" fill="#338FBF"/>
<path d="M0.000732422 175.576H98.9993V185.475H1.63374C0.613136 185.475 0.000732422 184.728 0.000732422 183.981V175.576Z" fill="#338FBF"/>
<path d="M25.7482 174.146H266.823C267.06 174.146 267.298 174.831 267.298 175.516V179.625C267.298 180.31 267.06 180.995 266.823 180.995H25.7482V174.146Z" fill="#338FBF"/>
<path d="M1.64245 174.658H97.8027C98.5325 174.658 99.2625 175.278 99.2625 175.898V179.621C99.2625 180.241 98.5325 180.862 97.8027 180.862H1.64245C0.73011 180.862 0.00025177 180.241 0.00025177 179.466V176.209C0.00025177 175.433 0.73011 174.658 1.64245 174.658Z" fill="#338FBF"/>
<path d="M226.084 89.7239C226.942 90.7513 234.665 90.5801 237.583 90.5801C238.269 90.5801 238.612 90.5801 238.612 90.5801C235.695 94.6897 237.411 95.0321 237.411 95.0321C240.672 89.7239 245.649 91.4362 246.507 86.128C246.678 85.1006 246.335 84.2444 245.992 83.5595C245.134 82.3608 243.589 81.8471 242.045 82.1896C238.612 82.8745 234.15 82.8745 231.748 82.7033C229.174 82.5321 230.032 83.5595 230.032 83.5595C229.86 83.5595 229.517 83.3883 229.345 83.3883C227.629 83.0458 226.428 82.5321 226.942 83.7307C227.629 85.1006 232.434 86.2992 232.434 86.2992C225.055 86.128 224.368 84.4156 224.711 85.7855C225.226 87.6691 231.576 88.6965 231.748 88.6965C227.629 89.3814 225.226 88.6965 226.084 89.7239Z" fill="white" stroke="#338FBF"/>
<path d="M292.501 89.5525L292.553 89.0553L293.288 89.1322L292.943 89.7858L270.503 132.344L267.51 154.405C267.52 154.403 267.531 154.401 267.541 154.398C267.97 154.312 268.642 154.113 269.562 153.659C271.403 152.751 274.231 150.824 278.064 146.744C279.94 144.747 282.776 140.089 285.898 134.065C289.009 128.062 292.376 120.761 295.32 113.529C298.266 106.294 300.782 99.1434 302.197 93.4374C302.906 90.5821 303.333 88.1095 303.407 86.1786C303.445 85.2132 303.393 84.401 303.252 83.7525C303.11 83.101 302.887 82.6508 302.612 82.3673C301.936 81.6754 300.538 81.1227 298.461 80.7451C296.414 80.3729 293.813 80.1877 290.845 80.1478C284.912 80.0679 277.581 80.5687 270.433 81.2745C263.288 81.9799 256.34 82.8885 251.177 83.621C248.595 83.9872 246.461 84.3093 244.972 84.5398C244.228 84.655 243.645 84.7474 243.248 84.8109C243.18 84.8218 243.117 84.8318 243.06 84.841V87.9647C252.473 86.9205 264.704 87.1799 274.636 87.7048C279.705 87.9727 284.183 88.3102 287.394 88.5807C289 88.716 290.289 88.8346 291.177 88.9194C291.621 88.9617 291.965 88.9957 292.197 89.019C292.314 89.0307 292.403 89.0398 292.462 89.0459L292.53 89.0529L292.547 89.0546L292.551 89.0551L292.553 89.0552C292.553 89.0553 292.553 89.0553 292.501 89.5525Z" fill="white" stroke="#338FBF"/>
<mask id="path-16-inside-1" fill="white">
<path fill-rule="evenodd" clip-rule="evenodd" d="M258.348 96.4023C268.817 87.6695 280.83 103.423 280.83 103.423C285.952 112.645 276.551 121.434 266.458 124.645C266.691 124.744 266.902 124.809 267.1 124.827C267.1 124.827 260.75 129.793 263.668 142.464L249.938 133.731C253.022 128.456 252.289 125.438 251.368 123.952C243.18 118.356 247.828 105.036 258.348 96.4023Z"/>
</mask>
<path fill-rule="evenodd" clip-rule="evenodd" d="M258.348 96.4023C268.817 87.6695 280.83 103.423 280.83 103.423C285.952 112.645 276.551 121.434 266.458 124.645C266.691 124.744 266.902 124.809 267.1 124.827C267.1 124.827 260.75 129.793 263.668 142.464L249.938 133.731C253.022 128.456 252.289 125.438 251.368 123.952C243.18 118.356 247.828 105.036 258.348 96.4023Z" fill="white"/>
<path d="M280.83 103.423L281.625 102.816L281.669 102.874L281.704 102.937L280.83 103.423ZM258.348 96.4023L258.989 97.1702L258.982 97.1753L258.348 96.4023ZM266.458 124.645L266.067 125.565L263.584 124.51L266.155 123.692L266.458 124.645ZM267.1 124.827L267.19 123.831L269.705 124.059L267.716 125.615L267.1 124.827ZM263.668 142.464L264.642 142.239L265.19 144.617L263.131 143.308L263.668 142.464ZM249.938 133.731L249.402 134.575L248.589 134.058L249.075 133.226L249.938 133.731ZM251.368 123.952L251.932 123.127L252.106 123.246L252.218 123.425L251.368 123.952ZM280.83 103.423C280.035 104.029 280.035 104.029 280.035 104.03C280.035 104.03 280.035 104.03 280.035 104.03C280.035 104.029 280.035 104.029 280.034 104.029C280.033 104.027 280.032 104.025 280.029 104.022C280.025 104.016 280.017 104.006 280.007 103.993C279.986 103.967 279.954 103.926 279.911 103.873C279.826 103.766 279.697 103.607 279.529 103.408C279.192 103.008 278.696 102.443 278.069 101.791C276.81 100.483 275.038 98.8415 272.964 97.4723C270.883 96.0987 268.558 95.038 266.182 94.8105C263.843 94.5866 261.396 95.1621 258.989 97.1702L257.707 95.6344C260.534 93.2761 263.515 92.546 266.373 92.8196C269.194 93.0898 271.834 94.3301 274.066 95.8032C276.303 97.2807 278.189 99.032 279.51 100.404C280.172 101.093 280.697 101.691 281.058 102.118C281.238 102.332 281.378 102.504 281.473 102.624C281.521 102.683 281.558 102.73 281.583 102.763C281.596 102.779 281.606 102.792 281.613 102.801C281.616 102.805 281.619 102.809 281.621 102.811C281.622 102.813 281.623 102.814 281.624 102.815C281.624 102.815 281.624 102.816 281.624 102.816C281.625 102.816 281.625 102.816 280.83 103.423ZM266.155 123.692C271.062 122.131 275.747 119.226 278.566 115.667C281.354 112.148 282.273 108.08 279.956 103.908L281.704 102.937C284.509 107.987 283.289 112.925 280.134 116.909C277.009 120.853 271.948 123.948 266.761 125.598L266.155 123.692ZM267.01 125.823C266.666 125.792 266.346 125.684 266.067 125.565L266.849 123.725C267.036 123.804 267.138 123.826 267.19 123.831L267.01 125.823ZM262.693 142.688C261.189 136.157 262.06 131.529 263.372 128.496C264.025 126.987 264.78 125.891 265.383 125.163C265.685 124.799 265.948 124.527 266.142 124.342C266.239 124.25 266.318 124.178 266.377 124.128C266.406 124.103 266.43 124.083 266.448 124.068C266.457 124.061 266.464 124.055 266.47 124.05C266.473 124.048 266.476 124.045 266.478 124.044C266.479 124.043 266.48 124.042 266.481 124.041C266.482 124.041 266.483 124.04 266.483 124.04C266.483 124.04 266.484 124.039 267.1 124.827C267.716 125.615 267.717 125.614 267.717 125.614C267.717 125.614 267.718 125.613 267.718 125.613C267.719 125.613 267.719 125.612 267.719 125.612C267.72 125.611 267.72 125.611 267.72 125.611C267.72 125.611 267.719 125.612 267.716 125.615C267.71 125.619 267.699 125.629 267.682 125.643C267.649 125.672 267.595 125.72 267.524 125.788C267.382 125.924 267.172 126.139 266.923 126.439C266.427 127.038 265.777 127.975 265.208 129.291C264.074 131.909 263.228 136.099 264.642 142.239L262.693 142.688ZM250.475 132.887L264.204 141.62L263.131 143.308L249.402 134.575L250.475 132.887ZM252.218 123.425C253.386 125.309 254.017 128.736 250.802 134.236L249.075 133.226C252.028 128.175 251.192 125.566 250.518 124.479L252.218 123.425ZM258.982 97.1753C253.845 101.392 250.191 106.717 248.804 111.59C247.421 116.451 248.317 120.656 251.932 123.127L250.804 124.778C246.23 121.652 245.357 116.4 246.881 111.043C248.401 105.699 252.331 100.047 257.714 95.6293L258.982 97.1753Z" fill="#338FBF" mask="url(#path-16-inside-1)"/>
<path d="M135.382 285.2L128.735 280.98L117.552 296.405L120.763 300.92L135.382 285.2Z" fill="white" stroke="#338FBF"/>
<path d="M99.3412 297.749L99.1893 297.721L99.08 297.612C98.9142 297.446 97.7786 296.316 96.3347 295.67C95.1061 295.263 94.3504 295.189 93.8341 295.189C93.7582 295.189 93.6879 295.191 93.6212 295.193L101.709 305.162L101.724 305.18L101.737 305.199C101.817 305.319 102.031 305.476 102.46 305.638C102.869 305.792 103.389 305.919 103.972 306.035C104.403 306.122 104.853 306.199 105.304 306.276C105.461 306.303 105.618 306.33 105.775 306.357C106.373 306.461 106.962 306.572 107.459 306.707C108.446 306.976 109.095 307.295 109.508 307.561C109.714 307.694 109.861 307.814 109.961 307.907C110.01 307.953 110.048 307.992 110.076 308.023C110.09 308.038 110.101 308.052 110.11 308.062L110.122 308.077L110.126 308.083L110.128 308.085L110.129 308.086L110.129 308.087C110.13 308.087 110.13 308.088 109.73 308.388L110.13 308.088L110.23 308.221V308.388C110.23 309.329 109.671 310.339 109.083 311.145C108.628 311.766 108.109 312.327 107.682 312.724L108.012 313.12C108.681 312.899 109.838 312.452 111.068 311.893C112.522 311.231 114.015 310.44 114.906 309.713L114.949 309.678L114.999 309.653C115.081 309.612 115.157 309.543 115.246 309.437C115.281 309.395 115.312 309.355 115.348 309.308C115.359 309.294 115.37 309.28 115.382 309.264C115.427 309.206 115.487 309.129 115.555 309.061C115.672 308.945 116.125 308.475 116.771 307.804C117.527 307.02 118.547 305.961 119.604 304.872C121.373 303.048 123.256 301.129 124.111 300.335C124.08 300.204 124.034 300.029 123.97 299.814C123.818 299.306 123.564 298.581 123.158 297.73C122.387 296.112 121.069 294.039 118.861 292.121C118.782 292.203 118.691 292.297 118.59 292.401C118.23 292.774 117.747 293.273 117.252 293.777C116.758 294.28 116.251 294.792 115.845 295.189C115.642 295.387 115.462 295.559 115.319 295.689C115.249 295.754 115.183 295.811 115.128 295.857C115.085 295.893 115.009 295.954 114.93 295.993L114.93 295.993L114.922 295.997C113.033 296.895 109.823 297.456 106.794 297.734C103.762 298.013 100.786 298.02 99.3412 297.749Z" fill="white" stroke="#338FBF"/>
<path d="M187.47 247.087C187.084 246.77 187.084 246.77 187.083 246.77L187.083 246.771L187.079 246.775L187.065 246.792L187.009 246.861C186.959 246.921 186.884 247.011 186.785 247.13C186.587 247.367 186.293 247.717 185.91 248.167C185.142 249.069 184.016 250.374 182.581 251.985C179.712 255.209 175.611 259.659 170.685 264.562C160.891 274.313 147.864 285.832 134.797 293.084C134.77 293.067 134.742 293.05 134.711 293.031C134.498 292.898 134.189 292.703 133.811 292.455C133.053 291.959 132.016 291.253 130.901 290.416C128.758 288.807 126.385 286.756 125.099 284.793L125.314 284.523C125.599 284.166 126.018 283.641 126.556 282.969C127.632 281.624 129.179 279.692 131.068 277.342C134.846 272.642 139.988 266.27 145.447 259.582C156.374 246.195 168.539 231.579 173.579 226.551C176.04 224.095 179.989 221.899 184.581 219.988C189.162 218.082 194.336 216.478 199.204 215.186C204.071 213.895 208.624 212.918 211.96 212.264C213.628 211.937 214.992 211.691 215.937 211.526C216.41 211.444 216.779 211.382 217.029 211.341C217.154 211.321 217.249 211.305 217.313 211.295L217.385 211.283L217.403 211.281L217.408 211.28L217.409 211.28C217.409 211.28 217.409 211.28 217.332 210.786L217.409 211.28L217.735 211.229L217.816 210.908L222.47 192.502L247.653 204.982C247.665 205.014 247.678 205.051 247.693 205.092C247.763 205.285 247.863 205.57 247.982 205.939C248.222 206.676 248.54 207.745 248.855 209.064C249.484 211.704 250.092 215.336 250.018 219.317C249.87 227.266 247.008 236.565 236.151 242.191L236.151 242.191C233.097 243.777 228.545 244.86 223.384 245.581C218.237 246.299 212.535 246.652 207.214 246.801C201.894 246.951 196.964 246.897 193.363 246.807C191.563 246.761 190.096 246.706 189.079 246.663C188.571 246.641 188.175 246.623 187.907 246.609C187.773 246.602 187.67 246.597 187.602 246.593L187.524 246.589L187.505 246.588L187.5 246.588L187.499 246.588C187.499 246.588 187.498 246.588 187.47 247.087ZM187.47 247.087L187.084 246.77L187.245 246.574L187.498 246.588L187.47 247.087Z" fill="white" stroke="#338FBF"/>
<path d="M109.144 278.914L104.453 272.422L88.5026 282.758L89.8172 288.15L109.144 278.914Z" fill="white" stroke="#338FBF"/>
<path d="M71.002 277.292L70.965 277.267L70.9331 277.235C70.8635 277.165 70.8052 277.072 70.7722 277.018C70.7297 276.949 70.6801 276.863 70.6271 276.771C70.6166 276.752 70.6058 276.734 70.5948 276.714C70.4922 276.535 70.3674 276.317 70.2171 276.073C69.8866 275.537 69.4435 274.896 68.8895 274.34C68.0355 273.632 67.4081 273.269 66.9655 273.059L70.7338 285.122L70.7339 285.122L70.7372 285.134C70.7833 285.295 70.9423 285.527 71.2733 285.826C71.5923 286.115 72.0166 286.419 72.5028 286.736C72.9175 287.006 73.3631 287.275 73.8115 287.547C73.8874 287.593 73.9635 287.639 74.0394 287.685C74.557 287.999 75.0722 288.316 75.5151 288.625C76.3313 289.169 76.807 289.682 77.0824 290.082C77.2202 290.282 77.3065 290.451 77.36 290.579C77.3867 290.643 77.4051 290.697 77.4177 290.738C77.4239 290.759 77.4287 290.776 77.4323 290.791L77.4368 290.81L77.4385 290.817L77.4392 290.821L77.4395 290.822L77.4397 290.823C77.4398 290.823 77.4398 290.824 76.9496 290.922L77.4398 290.824L77.4679 290.964L77.4176 291.098C77.2515 291.54 76.9347 291.933 76.5763 292.271C76.2139 292.612 75.7815 292.921 75.3449 293.189C74.6747 293.6 73.9662 293.933 73.425 294.147L73.5734 294.739C74.2501 294.784 75.461 294.772 76.8091 294.682C78.4095 294.576 80.1257 294.364 81.2746 294.037L81.3418 294.018H81.4116C81.503 294.018 81.6076 293.994 81.7085 293.951C81.8115 293.907 81.8837 293.854 81.9166 293.821L81.9516 293.786L81.9928 293.759C82.0923 293.693 82.329 293.574 82.6152 293.435C82.9201 293.287 83.3271 293.094 83.804 292.871C84.7583 292.426 85.999 291.858 87.2764 291.28C89.6072 290.225 92.0767 289.127 93.1482 288.682C93.167 288.547 93.1892 288.363 93.2081 288.133C93.2518 287.602 93.278 286.832 93.2052 285.888C93.0669 284.094 92.5715 281.676 91.1615 279.081C91.0632 279.129 90.9507 279.185 90.8266 279.245C90.3669 279.471 89.748 279.772 89.1124 280.072C88.4778 280.373 87.8225 280.676 87.2912 280.904C87.0262 281.018 86.7862 281.116 86.5922 281.186C86.4956 281.221 86.4041 281.252 86.3232 281.274C86.2613 281.291 86.169 281.314 86.0741 281.319C84.0012 281.494 80.8004 280.871 77.8846 280.037C76.4119 279.616 74.991 279.134 73.794 278.659C72.607 278.188 71.6085 277.711 71.002 277.292Z" fill="white" stroke="#338FBF"/>
<path d="M168.078 249.655C167.772 249.259 167.772 249.259 167.772 249.26L167.771 249.26L167.767 249.264L167.749 249.277L167.681 249.33C167.62 249.377 167.528 249.446 167.408 249.538C167.167 249.721 166.809 249.992 166.344 250.34C165.413 251.035 164.05 252.04 162.325 253.275C158.874 255.746 153.974 259.138 148.181 262.825C136.662 270.154 121.636 278.626 107.447 283.335C107.424 283.314 107.4 283.292 107.375 283.268C107.191 283.097 106.926 282.847 106.602 282.532C105.953 281.9 105.071 281.01 104.136 279.971C102.338 277.973 100.396 275.483 99.5076 273.263L99.7723 273.034C100.118 272.735 100.627 272.295 101.279 271.732C102.583 270.607 104.458 268.99 106.745 267.023C111.319 263.091 117.539 257.762 124.124 252.177C137.304 240.996 151.914 228.815 157.726 224.721C160.574 222.715 165.24 220.839 170.687 219.155C176.121 217.476 182.283 216.003 188.088 214.785C193.893 213.567 199.334 212.605 203.325 211.947C205.32 211.619 206.952 211.366 208.085 211.196C208.651 211.111 209.093 211.046 209.393 211.003C209.543 210.981 209.657 210.965 209.734 210.954L209.821 210.942L209.843 210.939L209.848 210.938L209.849 210.938C209.85 210.938 209.85 210.938 209.781 210.443L209.85 210.938L210.114 210.901L210.23 210.662L219.269 192.123L243.999 205.461C244.005 205.491 244.01 205.523 244.016 205.559C244.053 205.776 244.102 206.098 244.155 206.511C244.26 207.337 244.375 208.527 244.414 209.975C244.494 212.872 244.271 216.787 243.067 220.875C241.864 224.96 239.684 229.211 235.852 232.798C232.022 236.384 226.514 239.332 218.615 240.773C202.659 243.683 190.006 245.78 181.343 247.149C177.012 247.834 173.678 248.336 171.427 248.668C170.301 248.834 169.447 248.957 168.874 249.038C168.587 249.079 168.371 249.109 168.227 249.129L168.064 249.152L168.023 249.158L168.013 249.159L168.011 249.159L168.01 249.159C168.01 249.159 168.01 249.159 168.078 249.655ZM168.078 249.655L167.772 249.259L167.878 249.178L168.01 249.159L168.078 249.655Z" fill="white" stroke="#338FBF"/>
<path d="M217.677 194.866L217.669 195.024C224.157 202.259 231.918 205.266 238.084 206.463C241.189 207.066 243.885 207.208 245.803 207.201C246.762 207.197 247.525 207.155 248.047 207.115C248.2 207.103 248.332 207.091 248.442 207.081C249.32 196.561 254.277 185.387 259.317 175.477C260.595 172.964 261.882 170.527 263.11 168.201L263.163 168.1C264.373 165.809 265.526 163.627 266.562 161.579C268.671 157.411 270.274 153.843 270.902 151.085C272.167 145.531 271.475 141.554 268.858 138.372C266.207 135.148 261.519 132.658 254.581 130.265C251.204 129.115 247.077 129.462 242.776 130.849C238.482 132.234 234.068 134.64 230.156 137.536C226.242 140.432 222.853 143.803 220.596 147.099C218.325 150.416 217.264 153.563 217.818 156.053C218.218 157.825 218.399 161.173 218.455 165.145C218.511 169.136 218.442 173.809 218.324 178.264C218.205 182.72 218.039 186.961 217.902 190.088C217.834 191.652 217.773 192.937 217.729 193.831C217.707 194.278 217.689 194.628 217.677 194.866Z" fill="white" stroke="#338FBF"/>
<path d="M232.667 133.855L232.667 133.855L232.663 133.86C231.878 134.904 231.102 136.628 230.358 138.971C229.617 141.303 228.921 144.207 228.276 147.579C226.988 154.322 225.918 162.902 225.125 172.449C223.547 191.443 223.073 214.225 224.164 233.906C224.178 233.912 224.192 233.918 224.206 233.924C224.42 234.014 224.736 234.145 225.144 234.31C225.96 234.639 227.143 235.101 228.607 235.631C231.537 236.691 235.589 238.023 240.082 239.109C244.577 240.196 249.499 241.033 254.172 241.113C258.692 241.189 262.937 240.556 266.334 238.791L255.296 201.853L255.243 201.675L255.319 201.506L255.775 201.71C255.319 201.506 255.319 201.506 255.319 201.505L255.319 201.504L255.321 201.499L255.33 201.48L255.364 201.404L255.497 201.107C255.613 200.846 255.785 200.461 256.004 199.967C256.443 198.979 257.075 197.553 257.846 195.804C259.388 192.306 261.484 187.513 263.703 182.335C268.146 171.971 273.068 160.096 275.034 153.958C276.889 147.896 276.451 142.403 273.777 138.06C271.102 133.715 266.137 130.435 258.768 128.913L258.759 128.912L258.718 128.904C258.681 128.897 258.626 128.888 258.553 128.875C258.407 128.85 258.191 128.815 257.913 128.772C257.358 128.688 256.555 128.576 255.571 128.47C253.602 128.258 250.912 128.067 248.024 128.152C245.133 128.237 242.063 128.597 239.324 129.476C236.584 130.356 234.214 131.743 232.667 133.855Z" fill="white" stroke="#338FBF"/>
<path d="M273.733 163.574L273.737 163.569C274.75 162.208 275.087 160.2 275.081 157.691C275.077 155.885 274.9 153.892 274.711 151.781C274.639 150.966 274.565 150.134 274.498 149.287C274.027 143.288 273.952 136.663 278.049 131.865L278.049 131.864C282.015 127.233 285.518 119.347 285.245 111.895C285.108 108.181 284.035 104.592 281.633 101.557C279.24 98.5355 275.499 96.0253 269.953 94.5047C269.895 94.4973 269.851 94.4813 269.829 94.4727C269.79 94.4572 269.76 94.4398 269.744 94.4296C269.693 94.3975 269.65 94.3582 269.637 94.3454L269.635 94.344C269.605 94.3158 269.563 94.2746 269.521 94.2323C269.51 94.2216 269.499 94.2108 269.489 94.2001C269.373 94.0852 269.203 93.9189 268.975 93.7229C268.519 93.3306 267.827 92.8181 266.891 92.3815C265.031 91.5142 262.162 90.9249 258.17 92.251C255.188 93.3273 251.769 95.9053 249.752 99.4122C247.748 102.896 247.125 107.292 249.694 112.089C252.359 116.978 254.321 121.271 255.13 125.481C255.942 129.71 255.588 133.835 253.662 138.378C249.958 147.111 250.983 160.478 263.702 167.177C263.71 167.18 263.72 167.183 263.732 167.187C263.773 167.201 263.835 167.222 263.917 167.247C264.081 167.296 264.324 167.361 264.63 167.422C265.245 167.544 266.109 167.645 267.105 167.564C269.079 167.403 271.598 166.524 273.733 163.574Z" fill="white" stroke="#338FBF"/>
<path fill-rule="evenodd" clip-rule="evenodd" d="M250.283 12.4979C249.768 9.75819 248.052 2.05274 246.851 1.53905C246.047 1.23842 246.184 1.81745 246.505 3.17318C246.732 4.13407 247.051 5.48514 247.194 7.18972C247.163 7.15859 247.058 6.94066 246.895 6.60385C246.166 5.08823 244.276 1.16544 242.732 1.02535C242.124 0.949548 242.155 1.00796 242.528 1.70555C242.996 2.58388 244.006 4.4755 244.963 8.38835C244.963 8.38835 242.732 4.10754 241.187 3.76507C240.102 3.62967 240.411 4.2438 240.927 5.26879C241.064 5.53997 241.215 5.8399 241.359 6.16232C241.445 6.24793 241.488 6.37636 241.53 6.50478C241.573 6.6332 241.616 6.76162 241.702 6.84724C241.702 6.84724 240.501 6.16232 241.359 8.73081C242.045 10.9568 243.075 15.4089 243.247 18.8335C243.247 19.8212 243.693 20.8979 244.456 21.6143L241.015 73.114L230.203 144.689C230.203 144.689 241.358 140.066 245.82 129.45C245.82 129.45 248.738 78.7647 250.797 72.2579C252.165 66.9521 250.438 29.4364 250.024 20.9009C250.902 19.9117 251.198 18.6871 251.526 17.3271C251.971 15.4837 252.476 13.3915 254.573 11.2993C254.573 11.2993 253.887 9.75821 250.455 13.5253C250.455 13.5253 250.455 13.1828 250.283 12.4979Z" fill="white"/>
<path d="M246.851 1.53905L247.026 1.07075L247.037 1.07479L247.047 1.07932L246.851 1.53905ZM250.283 12.4979L249.798 12.6194L249.794 12.6049L249.792 12.5903L250.283 12.4979ZM246.505 3.17318L246.018 3.28825V3.28825L246.505 3.17318ZM247.194 7.18972L247.692 7.14811L247.806 8.50637L246.841 7.54367L247.194 7.18972ZM246.895 6.60385L247.346 6.3869V6.3869L246.895 6.60385ZM242.732 1.02535L242.687 1.5233L242.678 1.52254L242.67 1.5215L242.732 1.02535ZM242.528 1.70555L242.969 1.47009V1.47009L242.528 1.70555ZM244.963 8.38835L245.448 8.26962L244.519 8.61943L244.963 8.38835ZM241.187 3.76507L241.249 3.26892L241.272 3.27183L241.295 3.27693L241.187 3.76507ZM240.927 5.26879L241.374 5.0438L240.927 5.26879ZM241.359 6.16232L241.006 6.51627L240.94 6.45064L240.902 6.36577L241.359 6.16232ZM241.702 6.84724L242.055 6.49329L241.454 7.2816L241.702 6.84724ZM241.359 8.73081L241.833 8.57233L241.837 8.58346L241.359 8.73081ZM243.247 18.8335L243.746 18.8085L243.747 18.821V18.8335H243.247ZM244.456 21.6143L244.798 21.2497L244.971 21.4116L244.955 21.6476L244.456 21.6143ZM241.015 73.114L241.514 73.1474L241.513 73.1681L241.51 73.1887L241.015 73.114ZM230.203 144.689L230.395 145.151L229.577 145.49L229.709 144.615L230.203 144.689ZM245.82 129.45L246.32 129.478L246.315 129.564L246.281 129.643L245.82 129.45ZM250.797 72.2579L251.282 72.3827L251.278 72.3958L251.274 72.4088L250.797 72.2579ZM250.024 20.9009L249.525 20.9251L249.515 20.7215L249.651 20.569L250.024 20.9009ZM251.526 17.3271L251.04 17.2098L251.526 17.3271ZM254.573 11.2993L255.03 11.0958L255.17 11.4102L254.927 11.6532L254.573 11.2993ZM250.455 13.5253L250.824 13.8621L249.955 14.8165L249.955 13.5253L250.455 13.5253ZM247.047 1.07932C247.352 1.20985 247.58 1.50981 247.748 1.78336C247.932 2.08247 248.111 2.46517 248.285 2.89574C248.633 3.75937 248.983 4.87762 249.306 6.05076C249.954 8.40037 250.515 11.0257 250.774 12.4056L249.792 12.5903C249.536 11.2304 248.981 8.63315 248.342 6.31668C248.022 5.15679 247.685 4.08112 247.358 3.26989C247.193 2.86303 247.038 2.53806 246.896 2.30675C246.738 2.04987 246.649 1.99667 246.654 1.99878L247.047 1.07932ZM246.018 3.28825C245.939 2.9532 245.867 2.65032 245.819 2.39641C245.773 2.15279 245.738 1.9023 245.758 1.68798C245.779 1.46663 245.882 1.13257 246.248 1.00481C246.524 0.908363 246.817 0.992593 247.026 1.07075L246.675 2.00734C246.483 1.93519 246.491 1.97906 246.577 1.949C246.753 1.88762 246.759 1.72669 246.754 1.78198C246.748 1.8443 246.757 1.97399 246.802 2.21083C246.845 2.4374 246.91 2.71529 246.991 3.0581L246.018 3.28825ZM246.696 7.23134C246.557 5.56664 246.245 4.24659 246.018 3.28825L246.991 3.0581C247.219 4.02155 247.546 5.40364 247.692 7.14811L246.696 7.23134ZM247.346 6.3869C247.428 6.5569 247.493 6.69121 247.541 6.78718C247.565 6.83552 247.582 6.86851 247.594 6.88897C247.599 6.89942 247.601 6.90171 247.599 6.89893C247.598 6.89742 247.594 6.89156 247.588 6.88316C247.583 6.87645 247.569 6.85783 247.547 6.83577L246.841 7.54367C246.796 7.49928 246.767 7.45357 246.758 7.43992C246.744 7.41795 246.731 7.39547 246.72 7.37585C246.698 7.33616 246.673 7.28778 246.647 7.23565C246.594 7.13067 246.525 6.98761 246.445 6.8208L247.346 6.3869ZM242.777 0.527389C243.347 0.579085 243.862 0.960603 244.287 1.39176C244.728 1.8389 245.154 2.42303 245.541 3.03013C246.316 4.24636 246.982 5.63175 247.346 6.3869L246.445 6.8208C246.079 6.06033 245.436 4.72652 244.697 3.56742C244.328 2.98686 243.946 2.4693 243.575 2.09416C243.189 1.70302 242.889 1.54165 242.687 1.5233L242.777 0.527389ZM242.087 1.94102C241.997 1.77354 241.915 1.62067 241.861 1.49846C241.833 1.43662 241.804 1.36423 241.784 1.2887C241.766 1.21932 241.743 1.09857 241.775 0.961416C241.814 0.796164 241.919 0.665228 242.057 0.587549C242.171 0.523169 242.286 0.508024 242.354 0.502934C242.489 0.492872 242.651 0.51144 242.794 0.529189L242.67 1.5215C242.596 1.51231 242.54 1.50613 242.495 1.50276C242.474 1.50112 242.457 1.50034 242.445 1.50009C242.433 1.49984 242.428 1.50021 242.428 1.50017C242.428 1.50016 242.439 1.49942 242.458 1.49502C242.476 1.49067 242.508 1.48091 242.547 1.4591C242.588 1.43628 242.634 1.40089 242.673 1.34878C242.714 1.29623 242.737 1.24024 242.749 1.18944C242.76 1.14103 242.76 1.10194 242.758 1.07894C242.757 1.05598 242.753 1.04164 242.752 1.03887C242.752 1.03565 242.755 1.04962 242.773 1.09017C242.81 1.17274 242.872 1.28877 242.969 1.47009L242.087 1.94102ZM244.477 8.50708C243.533 4.64519 242.541 2.7932 242.087 1.94102L242.969 1.47009C243.452 2.37456 244.48 4.3058 245.448 8.26962L244.477 8.50708ZM241.295 3.27693C241.839 3.39745 242.357 3.82977 242.792 4.28784C243.245 4.7658 243.686 5.35839 244.069 5.92552C244.453 6.49511 244.787 7.05191 245.024 7.46532C245.143 7.67237 245.238 7.84427 245.303 7.96486C245.336 8.02517 245.361 8.0727 245.379 8.10543C245.388 8.12179 245.394 8.13446 245.399 8.14318C245.401 8.14755 245.403 8.15092 245.404 8.15328C245.405 8.15445 245.405 8.15538 245.406 8.15604C245.406 8.15638 245.406 8.15665 245.406 8.15685C245.406 8.15695 245.406 8.15705 245.406 8.1571C245.406 8.15719 245.406 8.15726 244.963 8.38835C244.519 8.61943 244.519 8.61947 244.519 8.61949C244.519 8.61948 244.519 8.61948 244.519 8.61945C244.519 8.6194 244.519 8.61927 244.519 8.61909C244.519 8.61872 244.519 8.61809 244.518 8.61721C244.517 8.61545 244.516 8.61267 244.514 8.60893C244.51 8.60143 244.504 8.59002 244.496 8.57495C244.48 8.5448 244.456 8.50002 244.425 8.44261C244.362 8.32776 244.271 8.16254 244.156 7.96292C243.927 7.56297 243.606 7.02817 243.24 6.48475C242.871 5.93887 242.465 5.39705 242.066 4.97604C241.648 4.53513 241.308 4.30393 241.079 4.25322L241.295 3.27693ZM240.481 5.49378C240.354 5.24223 240.23 4.99555 240.137 4.77765C240.05 4.57162 239.962 4.32777 239.957 4.09351C239.954 3.96758 239.973 3.8174 240.053 3.672C240.135 3.52041 240.261 3.41347 240.403 3.34659C240.654 3.22775 240.961 3.23301 241.249 3.26892L241.125 4.26123C240.87 4.22943 240.809 4.26069 240.829 4.25095C240.855 4.23861 240.9 4.207 240.931 4.15018C240.958 4.09956 240.956 4.06363 240.956 4.07006C240.957 4.10053 240.976 4.19394 241.058 4.38711C241.135 4.56841 241.242 4.78286 241.374 5.0438L240.481 5.49378ZM240.902 6.36577C240.764 6.05582 240.618 5.76608 240.481 5.49378L241.374 5.0438C241.51 5.31386 241.666 5.62398 241.816 5.95887L240.902 6.36577ZM241.056 6.66322C241.033 6.59397 241.02 6.55547 241.006 6.52479C240.993 6.49618 240.991 6.50121 241.006 6.51627L241.712 5.80837C241.898 5.99365 241.972 6.24866 242.005 6.34634L241.056 6.66322ZM241.349 7.20119C241.163 7.0159 241.089 6.7609 241.056 6.66322L242.005 6.34634C242.028 6.41559 242.041 6.45409 242.055 6.48477C242.068 6.51337 242.07 6.50835 242.055 6.49329L241.349 7.20119ZM240.885 8.88924C240.664 8.22847 240.561 7.73552 240.551 7.36646C240.541 7.00982 240.618 6.65154 240.902 6.43083C241.18 6.21488 241.496 6.25807 241.646 6.29446C241.732 6.31528 241.804 6.34325 241.853 6.36514C241.879 6.37637 241.9 6.38672 241.916 6.39494C241.924 6.39907 241.931 6.40272 241.937 6.40575C241.94 6.40726 241.942 6.40862 241.944 6.40982C241.945 6.41041 241.946 6.41097 241.947 6.41148C241.948 6.41173 241.948 6.41198 241.949 6.41221C241.949 6.41233 241.949 6.41249 241.949 6.41255C241.949 6.41271 241.95 6.41288 241.702 6.84724C241.454 7.2816 241.455 7.28176 241.455 7.28191C241.455 7.28196 241.455 7.28211 241.455 7.2822C241.456 7.2824 241.456 7.28258 241.456 7.28275C241.457 7.2831 241.458 7.28341 241.458 7.28369C241.459 7.28424 241.46 7.28466 241.46 7.28496C241.462 7.28554 241.462 7.28566 241.461 7.2854C241.46 7.28485 241.456 7.28299 241.451 7.28051C241.438 7.27498 241.423 7.2695 241.41 7.26625C241.361 7.25447 241.43 7.28697 241.515 7.22085C241.607 7.14997 241.544 7.10205 241.55 7.33938C241.556 7.56428 241.625 7.9489 241.833 8.57237L240.885 8.88924ZM242.747 18.8585C242.578 15.4895 241.56 11.0807 240.881 8.87815L241.837 8.58346C242.53 10.8329 243.572 15.3282 243.746 18.8085L242.747 18.8585ZM244.114 21.9789C243.248 21.1664 242.747 19.957 242.747 18.8335H243.747C243.747 19.6854 244.137 20.6293 244.798 21.2497L244.114 21.9789ZM240.516 73.0807L243.957 21.581L244.955 21.6476L241.514 73.1474L240.516 73.0807ZM229.709 144.615L240.521 73.0394L241.51 73.1887L230.698 144.764L229.709 144.615ZM246.281 129.643C244.003 135.063 240.025 138.938 236.637 141.452C234.94 142.711 233.385 143.633 232.253 144.241C231.686 144.546 231.225 144.772 230.904 144.923C230.743 144.998 230.617 145.054 230.531 145.092C230.488 145.111 230.455 145.126 230.432 145.135C230.42 145.14 230.411 145.144 230.405 145.147C230.402 145.148 230.4 145.149 230.398 145.15C230.397 145.15 230.396 145.15 230.396 145.151C230.396 145.151 230.395 145.151 230.395 145.151C230.395 145.151 230.395 145.151 230.203 144.689C230.012 144.227 230.012 144.227 230.012 144.227C230.012 144.227 230.012 144.227 230.012 144.227C230.012 144.227 230.012 144.227 230.013 144.227C230.014 144.227 230.015 144.226 230.017 144.225C230.022 144.223 230.029 144.22 230.039 144.216C230.059 144.207 230.088 144.195 230.128 144.177C230.207 144.142 230.326 144.089 230.479 144.017C230.785 143.873 231.23 143.655 231.779 143.361C232.878 142.77 234.39 141.873 236.041 140.649C239.346 138.197 243.175 134.452 245.359 129.256L246.281 129.643ZM251.274 72.4088C251.031 73.1759 250.765 74.6392 250.488 76.6518C250.212 78.6515 249.93 81.1581 249.648 83.9886C249.086 89.6489 248.529 96.5895 248.035 103.33C247.542 110.07 247.113 116.607 246.807 121.46C246.655 123.886 246.533 125.891 246.449 127.289C246.407 127.988 246.375 128.535 246.353 128.908C246.342 129.094 246.334 129.237 246.328 129.333C246.325 129.381 246.323 129.417 246.322 129.442C246.321 129.454 246.32 129.463 246.32 129.469C246.32 129.472 246.32 129.474 246.32 129.476C246.32 129.477 246.32 129.477 246.32 129.478C246.32 129.478 246.32 129.478 245.82 129.45C245.321 129.421 245.321 129.421 245.321 129.42C245.321 129.42 245.321 129.419 245.321 129.418C245.321 129.417 245.322 129.415 245.322 129.411C245.322 129.405 245.323 129.396 245.323 129.384C245.325 129.359 245.327 129.323 245.33 129.275C245.335 129.179 245.344 129.036 245.355 128.849C245.376 128.476 245.409 127.929 245.451 127.229C245.535 125.83 245.657 123.824 245.809 121.397C246.115 116.543 246.544 110.002 247.038 103.257C247.531 96.5135 248.09 89.5628 248.653 83.8897C248.935 81.0535 249.219 78.5328 249.497 76.5152C249.773 74.5106 250.049 72.9666 250.321 72.107L251.274 72.4088ZM250.524 20.8767C250.731 25.1455 251.266 36.6623 251.579 47.7765C251.735 53.3331 251.836 58.7931 251.812 63.198C251.8 65.4001 251.756 67.343 251.673 68.9046C251.59 70.4525 251.466 71.6653 251.282 72.3827L250.313 72.1331C250.47 71.5241 250.591 70.4038 250.674 68.8512C250.757 67.3122 250.8 65.3871 250.812 63.1925C250.836 58.8042 250.735 53.3571 250.579 47.8046C250.267 36.7006 249.732 25.1918 249.525 20.9251L250.524 20.8767ZM252.012 17.4445C251.69 18.7819 251.373 20.1348 250.398 21.2328L249.651 20.569C250.432 19.6885 250.707 18.5923 251.04 17.2098L252.012 17.4445ZM254.927 11.6532C252.935 13.6404 252.455 15.6121 252.012 17.4445L251.04 17.2098C251.488 15.3553 252.018 13.1426 254.22 10.9453L254.927 11.6532ZM250.085 13.1886C251.808 11.2971 252.942 10.6171 253.731 10.5046C254.154 10.4443 254.478 10.5475 254.706 10.7127C254.814 10.791 254.89 10.8758 254.941 10.945C254.966 10.9797 254.985 11.0111 255 11.0367C255.007 11.0495 255.013 11.0611 255.018 11.071C255.021 11.0759 255.023 11.0805 255.025 11.0847C255.026 11.0867 255.027 11.0887 255.028 11.0906C255.028 11.0915 255.029 11.0924 255.029 11.0933C255.029 11.0937 255.029 11.0944 255.03 11.0946C255.03 11.0952 255.03 11.0958 254.573 11.2993C254.117 11.5027 254.117 11.5034 254.117 11.504C254.117 11.5042 254.118 11.5048 254.118 11.5052C254.118 11.5059 254.118 11.5067 254.119 11.5075C254.119 11.5089 254.12 11.5104 254.121 11.5117C254.122 11.5144 254.123 11.5168 254.124 11.519C254.126 11.5233 254.128 11.5266 254.13 11.5291C254.132 11.534 254.134 11.5359 254.134 11.5359C254.134 11.5355 254.129 11.5294 254.119 11.522C254.111 11.516 254.049 11.4693 253.872 11.4946C253.459 11.5534 252.533 11.9864 250.824 13.8621L250.085 13.1886ZM250.768 12.3764C250.859 12.738 250.905 13.0146 250.929 13.2063C250.941 13.3021 250.948 13.3767 250.951 13.4298C250.953 13.4564 250.953 13.4777 250.954 13.4936C250.954 13.5016 250.954 13.5082 250.954 13.5135C250.954 13.5161 250.955 13.5184 250.955 13.5204C250.955 13.5214 250.955 13.5223 250.955 13.5231C250.955 13.5235 250.955 13.5239 250.955 13.5243C250.955 13.5245 250.955 13.5246 250.955 13.5248C250.955 13.5249 250.955 13.525 250.955 13.5251C250.955 13.5252 250.955 13.5253 250.455 13.5253C249.955 13.5253 249.955 13.5254 249.955 13.5256C249.955 13.5256 249.955 13.5257 249.955 13.5258C249.955 13.5259 249.955 13.5261 249.955 13.5262C249.955 13.5265 249.955 13.5268 249.955 13.527C249.955 13.5275 249.955 13.5279 249.955 13.5282C249.955 13.5289 249.955 13.5292 249.955 13.5291C249.955 13.5291 249.955 13.5277 249.954 13.5249C249.954 13.5194 249.954 13.5086 249.953 13.4924C249.951 13.4599 249.946 13.406 249.937 13.3306C249.918 13.1798 249.879 12.9428 249.798 12.6194L250.768 12.3764Z" fill="#338FBF"/>
<path fill-rule="evenodd" clip-rule="evenodd" d="M292.466 151.08H264.013C256.092 151.08 249.314 156.135 246.999 163.684L246.996 163.695L220.058 253.376C220.057 253.379 220.056 253.382 220.055 253.385C219.438 255.353 217.772 256.619 215.789 256.619H186.099C181.385 256.619 177.578 260.448 177.578 265.162V328.175C177.578 332.89 181.385 336.718 186.099 336.718H273.281V332.718H235.01C232.517 332.718 230.489 330.692 230.489 328.175V265.162C230.489 262.645 232.517 260.619 235.01 260.619H264.7C268.346 260.619 271.677 258.132 272.788 254.565L272.791 254.555L300.588 161.945C302.359 156.548 298.332 150.88 292.466 151.08ZM227.791 332.718H186.099C183.606 332.718 181.578 330.692 181.578 328.175V265.162C181.578 262.645 183.606 260.619 186.099 260.619H215.789C219.638 260.619 222.775 258.102 223.877 254.565L223.88 254.556L250.823 164.857C250.824 164.855 250.824 164.854 250.825 164.852C252.63 158.974 257.864 155.08 264.013 155.08H292.54L292.579 155.078C295.604 154.961 297.728 157.867 296.782 160.713L296.773 160.741L268.969 253.376C268.968 253.379 268.967 253.382 268.966 253.385C268.358 255.322 266.543 256.619 264.7 256.619H235.01C230.296 256.619 226.489 260.448 226.489 265.162V328.175C226.489 329.844 226.966 331.402 227.791 332.718Z" fill="#338FBF"/>
<path d="M284.126 208.894L284.127 208.891L296.825 166.541C296.826 166.54 296.826 166.54 296.826 166.539C297.584 163.949 295.615 161.5 293.015 161.5H255.087C252.242 161.5 249.841 163.4 248.87 166.148L236.177 208.478C235.577 210.917 237.571 213.528 240.157 213.528H277.912C280.78 213.528 283.33 211.608 284.126 208.894Z" fill="#338FBF" stroke="#338FBF"/>
<path d="M284.126 208.894L284.127 208.891L296.825 166.541C296.826 166.54 296.826 166.54 296.826 166.539C297.584 163.949 295.615 161.5 293.015 161.5H260.236C257.368 161.5 254.818 163.42 254.023 166.133L254.022 166.136L241.326 208.478C240.726 210.917 242.719 213.528 245.305 213.528H277.912C280.78 213.528 283.33 211.608 284.126 208.894Z" fill="#338FBF" stroke="#338FBF"/>
<path d="M255.946 240.526H186.784C183.801 240.526 181.449 242.883 181.449 245.879V254.332H261.109V245.879C261.109 242.873 258.747 240.526 255.946 240.526Z" fill="#338FBF" stroke="#338FBF"/>
<path d="M262.641 249.995H179.922C178.826 249.995 177.848 250.975 177.848 252.077V255.521C177.848 256.624 178.826 257.603 179.922 257.603H262.641C263.737 257.603 264.716 256.624 264.716 255.521V252.077C264.716 250.952 263.887 249.995 262.641 249.995Z" fill="#338FBF" stroke="#338FBF"/>
<path fill-rule="evenodd" clip-rule="evenodd" d="M294.499 152.908C294.499 151.803 293.603 150.908 292.499 150.908H264.01C256.089 150.908 249.311 155.964 246.996 163.513L246.993 163.524L246.993 163.524L220.055 253.204C220.054 253.207 220.053 253.21 220.052 253.213C219.435 255.181 217.769 256.448 215.786 256.448H186.096C181.382 256.448 177.575 260.276 177.575 264.99V328.004C177.575 332.718 181.382 336.546 186.096 336.546H273.278C274.382 336.546 275.278 335.651 275.278 334.546C275.278 333.442 274.382 332.546 273.278 332.546H186.096C183.603 332.546 181.575 330.521 181.575 328.004V264.99C181.575 262.473 183.603 260.448 186.096 260.448H215.786C219.634 260.448 222.772 257.93 223.874 254.394L223.88 254.374L250.82 164.685C250.821 164.684 250.821 164.682 250.822 164.68C252.627 158.802 257.861 154.908 264.01 154.908H292.499C293.603 154.908 294.499 154.013 294.499 152.908Z" fill="#338FBF"/>
<path fill-rule="evenodd" clip-rule="evenodd" d="M17.3498 190.749H93.0817V331.035H17.3498V190.749ZM93.0817 185.825C95.8105 185.825 98.0226 188.029 98.0226 190.749V331.035C98.0226 333.754 95.8105 335.959 93.0817 335.959H17.3498C14.6211 335.959 12.4089 333.754 12.4089 331.035V190.749C12.4089 188.029 14.6211 185.825 17.3498 185.825H93.0817Z" fill="#338FBF"/>
<path d="M114.234 106.436H126.676C127.417 106.436 127.983 105.843 127.94 105.111C127.898 104.379 127.263 103.786 126.522 103.786H114.08C113.339 103.786 112.773 104.379 112.816 105.111C112.858 105.843 113.493 106.436 114.234 106.436Z" fill="#338FBF"/>
<path d="M114.681 110.941H127.123C127.864 110.941 128.43 110.348 128.388 109.616C128.345 108.884 127.711 108.291 126.97 108.291H114.528C113.787 108.291 113.221 108.884 113.263 109.616C113.305 110.348 113.94 110.941 114.681 110.941Z" fill="#338FBF"/>
<path d="M115.13 115.446H127.572C128.313 115.446 128.879 114.853 128.837 114.121C128.795 113.389 128.16 112.796 127.419 112.796H114.977C114.236 112.796 113.67 113.389 113.712 114.121C113.754 114.853 114.389 115.446 115.13 115.446Z" fill="#338FBF"/>
<path d="M115.577 119.951H128.019C128.76 119.951 129.326 119.358 129.284 118.626C129.242 117.894 128.607 117.301 127.866 117.301H115.424C114.683 117.301 114.117 117.894 114.159 118.626C114.202 119.358 114.837 119.951 115.577 119.951Z" fill="#338FBF"/>
<path d="M116.359 127.814H135.407C136.146 127.814 136.711 127.22 136.669 126.489C136.627 125.757 135.993 125.164 135.254 125.164H116.206C115.467 125.164 114.902 125.757 114.944 126.489C114.986 127.22 115.62 127.814 116.359 127.814Z" fill="#338FBF"/>
<path d="M116.808 132.319H135.856C136.595 132.319 137.16 131.726 137.118 130.994C137.076 130.262 136.442 129.669 135.703 129.669H116.655C115.916 129.669 115.351 130.262 115.393 130.994C115.435 131.726 116.069 132.319 116.808 132.319Z" fill="#338FBF"/>
<path d="M117.257 136.823H136.305C137.044 136.823 137.609 136.23 137.567 135.498C137.525 134.766 136.892 134.173 136.152 134.173H117.104C116.365 134.173 115.8 134.766 115.842 135.498C115.884 136.23 116.518 136.823 117.257 136.823Z" fill="#338FBF"/>
<path d="M117.704 141.329H136.752C137.492 141.329 138.057 140.736 138.014 140.004C137.972 139.272 137.339 138.679 136.6 138.679H117.552C116.812 138.679 116.247 139.272 116.29 140.004C116.332 140.736 116.965 141.329 117.704 141.329Z" fill="#338FBF"/>
<path d="M163.455 135.581H158.059C157.888 132.728 155.334 130.414 152.354 130.414L152.044 125.248C158.003 125.248 163.112 129.874 163.455 135.581Z" fill="#338FBF"/>
<path d="M149.15 122.628L149.663 127.794C146.796 127.794 144.702 130.107 144.986 132.96H139.793C139.226 127.254 143.415 122.628 149.15 122.628Z" fill="#338FBF"/>
<path d="M147.983 135.581C148.15 138.434 150.657 140.748 153.583 140.748C156.508 140.748 158.744 138.434 158.576 135.581H163.874C164.209 141.288 159.737 145.914 153.886 145.914C148.035 145.914 143.02 141.288 142.685 135.581H147.983Z" fill="#338FBF"/>
<path d="M155.273 117.803L154.476 105.465C154.457 105.173 154.706 104.935 155.03 104.935H158.596C158.919 104.935 159.199 105.173 159.218 105.465L160.015 117.803H155.273Z" fill="#338FBF"/>
<path d="M148.777 117.801L147.884 108.82C147.855 108.529 148.071 108.29 148.363 108.29H151.591C151.884 108.29 152.148 108.529 152.177 108.82L153.07 117.801H148.777Z" fill="#338FBF"/>
<path d="M141.83 117.802L141.341 112.884C141.312 112.593 141.528 112.354 141.821 112.354H145.049C145.341 112.354 145.605 112.593 145.634 112.884L146.123 117.802H141.83Z" fill="#338FBF"/>
<path d="M134.886 117.802L133.659 105.464C133.63 105.173 133.846 104.934 134.139 104.934H137.367C137.66 104.934 137.923 105.173 137.952 105.464L139.179 117.802H134.886Z" fill="#338FBF"/>
<path d="M134.183 119.951H161.148C161.883 119.951 162.421 119.358 162.348 118.626C162.275 117.894 161.62 117.301 160.884 117.301H133.92C133.184 117.301 132.647 117.894 132.72 118.626C132.793 119.358 133.448 119.951 134.183 119.951Z" fill="#338FBF"/>
</svg>
